<svg width="345" height="320" viewBox="0 0 345 320" fill="none" xmlns="http://www.w3.org/2000/svg">
<g clip-path="url(#clip0_384_698)">
<path d="M115.649 262.656C115.508 262.458 115.423 262.26 115.395 262.034C115.593 262.826 115.621 262.996 115.536 262.571C115.452 262.147 115.452 262.345 115.536 263.193C115.536 263.731 115.48 264.268 115.423 264.805C115.536 263.985 115.113 266.134 115.113 266.078C114.887 267.152 114.661 268.198 114.436 269.245C113.448 274.023 112.545 278.802 111.726 283.609C110.09 293.307 108.848 303.091 107.973 312.903C107.634 316.72 111.472 319.972 115.028 319.972C119.12 319.972 121.745 316.72 122.083 312.903C123.015 302.554 124.398 292.261 126.26 282.025C127.163 277.162 128.377 272.327 129.167 267.435C130.042 261.978 129.59 256.803 125.639 252.618C119.403 245.973 109.441 255.983 115.649 262.628V262.656Z" fill="#DC6965"/>
<path d="M203.613 252.646C199.662 256.86 199.211 262.034 200.086 267.463C200.848 272.355 202.089 277.162 202.992 282.054C204.855 292.29 206.238 302.554 207.169 312.931C207.508 316.72 210.161 320 214.224 320C217.78 320 221.618 316.748 221.28 312.931C220.405 303.119 219.135 293.364 217.526 283.637C216.764 279 215.889 274.391 214.93 269.782C214.676 268.538 214.394 267.322 214.14 266.078C214.111 265.908 213.716 263.9 213.829 264.805C213.716 264.042 213.66 263.193 213.716 262.402C213.604 262.996 213.632 262.882 213.829 262.034C213.773 262.26 213.688 262.458 213.575 262.656C219.784 256.04 209.85 246.03 203.585 252.646H203.613Z" fill="#DC6965"/>
<path d="M310.599 43.8561C310.824 37.8333 309.583 32.2064 306.845 26.9753C305.067 21.5463 302.076 16.8525 297.815 12.8656C293.864 8.59587 289.151 5.57033 283.732 3.81722C278.511 1.07444 272.896 -0.197983 266.884 0.0565016C263.018 0.56547 259.124 1.10272 255.257 1.61168C247.835 3.70411 241.401 7.46483 235.954 12.8938C228.815 20.6697 224.13 30.0857 223.311 40.6326C220.32 54.1486 216.397 68.1452 209.201 79.7667C199.465 95.4882 182.504 96.902 165.459 98.4006C138.762 100.747 94.0881 103.349 94.0599 65.6004C94.0599 64.7238 93.9753 63.9321 93.8624 63.1404C94.0317 59.9169 94.2292 56.6651 94.5115 53.4417C95.7814 37.9747 85.5372 23.0166 71.9348 15.1842C58.6145 20.5849 38.6624 33.4788 38.0133 62.5466C36.9973 106.318 53.5065 224.342 158.347 232.542C219.812 237.349 256.866 231.864 277.044 226.491C280.882 221.769 284.41 216.679 287.542 211.194C313.59 165.358 310.119 112.143 310.119 61.359C310.457 59.21 310.711 57.0045 310.711 54.7424V43.8844L310.599 43.8561Z" fill="#EE706C"/>
<path d="M158.291 232.514C53.4504 224.314 36.913 106.29 37.929 62.5184C38.6063 33.4506 58.5302 20.5567 71.8504 15.156C65.275 11.3953 57.9376 9.2463 50.6848 9.58561C25.3707 10.7167 8.94616 28.8699 6.94248 53.4135C3.01978 101.172 9.62346 154.67 33.583 196.943C59.659 242.948 109.723 263.222 160.041 269.358C203.868 274.674 249.134 260.62 276.931 226.491C256.782 231.864 219.728 237.349 158.234 232.542L158.291 232.514Z" fill="#DC6965"/>
<path d="M202.795 150.881C206.723 150.881 209.907 147.691 209.907 143.755C209.907 139.82 206.723 136.63 202.795 136.63C198.868 136.63 195.684 139.82 195.684 143.755C195.684 147.691 198.868 150.881 202.795 150.881Z" fill="#282828"/>
<path d="M117.484 154.444C121.411 154.444 124.595 151.254 124.595 147.318C124.595 143.383 121.411 140.193 117.484 140.193C113.556 140.193 110.372 143.383 110.372 147.318C110.372 151.254 113.556 154.444 117.484 154.444Z" fill="#282828"/>
<path d="M136.307 170.731C153.07 170.222 169.353 165.274 186.116 164.765C193.369 164.538 193.397 153.228 186.116 153.454C169.353 153.963 153.07 158.94 136.307 159.42C129.054 159.647 129.026 170.957 136.307 170.731Z" fill="#282828"/>
<path d="M23.734 182.409C25.2861 210.487 7.9021 235.172 0.338908 261.271C-2.20097 270.036 11.4015 273.769 13.9414 265.031C21.9279 237.491 39.4812 212.127 37.8444 182.409C37.3365 173.36 23.226 173.304 23.734 182.409Z" fill="#DC6965"/>
<path d="M291.268 168.61C295.106 174.096 297.307 180.458 300.101 186.481C303.092 192.927 306.394 199.261 309.837 205.482C316.808 218.065 324.343 230.308 331.765 242.609C336.449 250.384 348.641 243.287 343.956 235.483C336.562 223.183 328.999 210.939 322.028 198.356C318.586 192.136 315.284 185.802 312.292 179.355C309.498 173.332 307.297 166.942 303.459 161.485C301.258 158.374 297.279 156.904 293.808 158.94C290.732 160.749 289.067 165.471 291.268 168.61Z" fill="#EE706C"/>
</g>
<defs>
<clipPath id="clip0_384_698">
<rect width="345" height="320" fill="white"/>
</clipPath>
</defs>
</svg>
