<svg width="68" height="68" viewBox="0 0 68 68" fill="none" xmlns="http://www.w3.org/2000/svg">
<g filter="url(#filter0_d_470_1438)">
<path d="M37 60C53.5685 60 67 46.5685 67 30C67 13.4315 53.5685 0 37 0C20.4315 0 7 13.4315 7 30C7 46.5685 20.4315 60 37 60Z" fill="white"/>
<path d="M17.4266 26.662C17.4266 26.737 17.4641 26.812 17.4891 26.887C18.6391 31.8745 19.8016 36.862 20.9391 41.8495C21.3641 43.7495 22.4016 45.112 24.2266 45.837C25.4266 46.312 26.6891 46.187 27.9391 46.1495C27.9141 46.1495 27.8891 46.1245 27.8641 46.112C25.5891 45.8245 23.9391 44.3495 23.4016 42.137C23.0391 40.612 22.7016 39.0995 22.3391 37.5745C21.4891 33.8995 20.6391 30.212 19.7891 26.537C19.5516 25.512 19.7891 24.637 20.5641 23.912C20.9141 23.587 21.3641 23.462 21.7891 23.2995C21.3391 23.2995 20.9016 23.287 20.4516 23.2745C20.4141 23.2745 20.3766 23.2745 20.3391 23.2745C19.0016 23.1995 17.9641 23.6495 17.4266 24.962C17.4016 25.012 17.3266 25.212 17.3516 25.212C17.3516 25.212 17.2891 25.912 17.4141 26.6495L17.4266 26.662Z" fill="#F5AD3E"/>
<path d="M33.0154 17.4871C33.0154 16.8246 33.0279 16.1496 33.0404 15.4871C33.0404 14.5371 33.6779 13.8496 34.6279 13.8371C36.2404 13.8121 37.8529 13.8121 39.4654 13.8371C40.4154 13.8496 41.0404 14.5371 41.0529 15.4871C41.0529 16.1496 41.0654 16.8246 41.0779 17.4871V23.2871C41.0779 24.5871 41.0779 25.8746 41.0529 27.1746C41.0529 27.4371 41.1779 27.4621 41.3904 27.4621C42.2154 27.4621 43.0279 27.4621 43.8529 27.4621C44.2654 27.4621 44.5904 27.5871 44.7529 27.9746C44.9154 28.3621 44.7779 28.6871 44.4904 28.9871C42.2654 31.2746 40.0404 33.5746 37.8154 35.8621C37.2404 36.4496 36.8279 36.4496 36.2529 35.8621C34.0279 33.5746 31.8029 31.2746 29.5779 28.9871C29.2904 28.6996 29.1529 28.3746 29.3154 27.9871C29.4779 27.5996 29.8154 27.4621 30.2154 27.4746C31.0404 27.4746 31.8529 27.4746 32.6779 27.4746C32.8779 27.4746 33.0154 27.4496 33.0154 27.1871C33.0029 25.8871 33.0029 24.5996 32.9904 23.2996C32.9904 21.3621 32.9904 19.4371 32.9904 17.4996L33.0154 17.4871Z" fill="#2C7E45"/>
<path d="M41.0762 23.287V17.487C44.6137 17.487 48.1637 17.4745 51.7012 17.487C53.5137 17.487 54.6137 18.9245 54.2012 20.6995C54.0012 21.562 53.8012 22.4245 53.6137 23.2745C50.4012 23.2745 47.1762 23.2745 43.9637 23.2745C43.0012 23.2745 42.0387 23.2745 41.0762 23.2745V23.287Z" fill="#F8AD3E"/>
<path d="M33.0129 17.4873C33.0129 19.4248 33.0129 21.3498 33.0129 23.2873C29.6254 23.2873 26.2504 23.2873 22.8629 23.2873C22.6629 22.4123 22.4879 21.5373 22.2629 20.6748C21.8254 19.0248 23.0629 17.4873 24.5754 17.4998C26.8629 17.4998 29.1504 17.4998 31.4379 17.4873C31.9629 17.4873 32.4879 17.4873 33.0129 17.4873Z" fill="#F8AD3E"/>
<path d="M24.5756 17.4994C23.0631 17.4869 21.8131 19.0244 22.2631 20.6744C22.5006 21.5369 22.6631 22.4244 22.8631 23.2869C22.5131 23.2869 22.1506 23.2994 21.8006 23.3119C21.3506 23.3119 20.9131 23.2994 20.4631 23.2869C20.2381 22.3244 19.9881 21.3619 19.8006 20.3744C19.5381 19.0244 20.5131 17.6994 21.8881 17.5119C22.7756 17.3869 23.6756 17.4244 24.5756 17.5119V17.4994Z" fill="#EC8D05"/>
<path d="M29.4641 39.1622C29.0141 39.5872 28.7266 39.5622 28.3641 39.0747C28.2391 37.9122 29.0641 36.8997 30.2391 36.7872C31.3391 36.6747 32.3766 37.5372 32.4891 38.6497C32.5391 39.0997 32.3266 39.4122 31.9641 39.4622C31.6266 39.5122 31.3766 39.2747 31.2891 38.8247C31.1891 38.2747 30.8891 37.9872 30.4141 37.9872C29.9391 37.9872 29.6391 38.2747 29.5391 38.8247C29.5141 38.9372 29.4891 39.0497 29.4641 39.1622Z" fill="#464251"/>
<path d="M45.7255 39.0872C45.363 39.5747 45.0755 39.5872 44.6255 39.1747C44.588 39.0122 44.563 38.8497 44.5255 38.6872C44.438 38.2747 44.1005 37.9997 43.6755 37.9997C43.2505 37.9997 42.913 38.2622 42.813 38.6872C42.8005 38.7497 42.788 38.8122 42.7755 38.8747C42.7005 39.2872 42.438 39.5122 42.113 39.4747C41.763 39.4247 41.563 39.1247 41.588 38.6997C41.6755 37.5747 42.738 36.6872 43.838 36.7997C45.013 36.9247 45.838 37.9372 45.713 39.0997L45.7255 39.0872Z" fill="#464251"/>
<path d="M37.0391 41.9126C36.2766 41.8876 35.6141 41.6251 35.0891 41.0626C34.8141 40.7626 34.8016 40.4251 35.0516 40.1751C35.2891 39.9376 35.6141 39.9501 35.9141 40.2126C36.7016 40.9001 37.3891 40.9001 38.1641 40.2126C38.4516 39.9501 38.7766 39.9376 39.0266 40.1751C39.2766 40.4126 39.2766 40.7626 39.0016 41.0626C38.4766 41.6251 37.8141 41.8876 37.0516 41.9126H37.0391Z" fill="#454150"/>
<path d="M48.4773 46.1121C48.4148 46.1496 48.3398 46.1622 48.2773 46.1247C48.3398 46.0872 48.4148 46.0871 48.4773 46.1121Z" fill="#F5AD3E"/>
<path d="M56.6401 25.0371C56.1526 23.7121 55.1276 23.2496 53.8026 23.2996C53.7401 23.2996 53.6776 23.2996 53.6151 23.2871C50.4026 23.2871 47.1776 23.2871 43.9651 23.2871C43.0026 23.2871 42.0401 23.2871 41.0776 23.2871C41.0776 24.5871 41.0776 25.8746 41.0526 27.1746C41.0526 27.4371 41.1776 27.4621 41.3901 27.4621C42.2151 27.4621 43.0276 27.4621 43.8526 27.4621C44.2651 27.4621 44.5901 27.5871 44.7526 27.9746C44.9151 28.3621 44.7776 28.6871 44.4901 28.9871C42.2651 31.2746 40.0401 33.5746 37.8151 35.8621C37.2401 36.4496 36.8276 36.4496 36.2526 35.8621C34.0276 33.5746 31.8026 31.2746 29.5776 28.9871C29.2901 28.6996 29.1526 28.3746 29.3151 27.9871C29.4776 27.5996 29.8151 27.4621 30.2151 27.4746C31.0401 27.4746 31.8526 27.4746 32.6776 27.4746C32.8776 27.4746 33.0151 27.4496 33.0151 27.1871C33.0026 25.8871 33.0026 24.5996 32.9901 23.2996C29.6026 23.2996 26.2276 23.2996 22.8401 23.2996C22.4901 23.2996 22.1276 23.3121 21.7776 23.3246C21.3526 23.4871 20.9026 23.5996 20.5526 23.9371C19.7776 24.6621 19.5401 25.5371 19.7776 26.5621C20.6276 30.2371 21.4776 33.9246 22.3276 37.5996C22.6776 39.1246 23.0276 40.6496 23.3901 42.1621C23.9151 44.3746 25.5776 45.8496 27.8526 46.1371C27.8776 46.1371 27.9026 46.1621 27.9276 46.1746C28.2026 46.1746 28.4651 46.1746 28.7401 46.1746C35.0651 46.1746 41.4026 46.1746 47.7276 46.1746C47.9026 46.1746 48.0901 46.1496 48.2651 46.1496C48.3276 46.1121 48.4026 46.1121 48.4651 46.1371C50.6401 46.0621 52.5401 44.3871 53.0651 42.1121C54.2401 37.0121 55.4276 31.8996 56.6026 26.7996C56.6276 26.6996 56.6526 25.1121 56.6276 25.0621L56.6401 25.0371Z" fill="#F8EA6B"/>
</g>
<defs>
<filter id="filter0_d_470_1438" x="0" y="0" width="68" height="68" filterUnits="userSpaceOnUse" color-interpolation-filters="sRGB">
<feFlood flood-opacity="0" result="BackgroundImageFix"/>
<feColorMatrix in="SourceAlpha" type="matrix" values="0 0 0 0 0 0 0 0 0 0 0 0 0 0 0 0 0 0 127 0" result="hardAlpha"/>
<feOffset dx="-3" dy="4"/>
<feGaussianBlur stdDeviation="2"/>
<feComposite in2="hardAlpha" operator="out"/>
<feColorMatrix type="matrix" values="0 0 0 0 0 0 0 0 0 0 0 0 0 0 0 0 0 0 0.1 0"/>
<feBlend mode="normal" in2="BackgroundImageFix" result="effect1_dropShadow_470_1438"/>
<feBlend mode="normal" in="SourceGraphic" in2="effect1_dropShadow_470_1438" result="shape"/>
</filter>
</defs>
</svg>
