<svg width="1920" height="1080" viewBox="0 0 1920 1080" fill="none" xmlns="http://www.w3.org/2000/svg">
<path d="M135.418 136.4C126.939 148.6 124.546 165 128.835 179.2C131.129 186.8 135.218 193 140.206 199.2C143.996 203.9 147.188 207.5 148.485 213.3C148.684 214.2 148.684 214.2 148.585 213.4C148.684 214.3 148.784 215.3 148.784 216.2C148.884 217.6 148.884 219 148.884 220.4C148.884 223.5 148.684 226.6 148.485 229.7C148.086 236.2 147.986 242.8 149.482 249.3C151.078 255.9 154.569 262.1 159.756 266.5C162.35 268.8 165.242 270.6 168.135 272.6C170.429 274.2 167.537 272.3 169.532 273.7C171.227 274.9 169.432 273.5 169.332 271.9C169.831 278.6 174.718 284.4 181.801 284.4C188.184 284.4 194.768 278.7 194.269 271.9C193.571 263.3 189.481 257.6 182.798 252.5C180.703 251 178.409 249.7 176.414 248C177.91 249.2 175.317 246.9 175.117 246.6C176.314 248 174.419 245.3 174.22 244.9C175.117 246.7 173.721 243.1 173.621 242.6C173.422 241.7 173.422 241.8 173.522 242.7C173.422 242 173.422 241.4 173.322 240.7C173.123 237.7 173.222 234.7 173.322 231.7C173.621 225.8 174.22 219.9 173.621 213.9C172.923 206.6 171.227 199.8 167.237 193.6C163.746 188.1 159.058 183.5 155.766 178.4C149.782 169 150.679 158.1 156.963 148.9C160.754 143.3 157.961 135 152.475 131.8C146.29 128.3 139.208 130.9 135.418 136.4Z" fill="#F6BAD4"/>
<path d="M641.337 743.9C633.557 751.8 623.582 756.8 615.503 764.4C606.924 772.5 600.141 784 600.84 796.2C602.336 821.7 628.37 836.2 651.711 831.4C675.451 826.5 690.712 806 701.784 786.1C704.777 780.8 708.168 775.3 709.365 769.2C710.761 762 708.567 754.9 703.679 749.5C696.298 741.3 684.129 738.2 673.456 738C652.808 737.5 629.966 749.2 621.188 768.6C615.702 780.7 619.792 793.6 631.362 800.1C641.636 805.9 654.105 804.3 663.581 797.8C672.658 791.7 684.628 780.8 684.029 769C683.331 754.4 666.972 750.5 655.601 755.1C645.327 759.2 635.851 765.7 628.569 774.1C621.388 782.4 610.316 796.9 616.5 808.3C623.881 822.1 643.133 816.5 654.005 810.8C664.977 805.1 674.852 794.8 678.742 782.9C683.53 768.1 674.254 752.5 657.995 752.7C642.135 752.9 632.958 768.5 633.756 783C634.155 789.7 639.242 795.5 646.225 795.5C652.708 795.5 659.092 789.8 658.693 783C658.593 780.7 658.693 778.9 659.192 777.7C659.092 777.7 658.992 777.8 658.893 777.8C660.09 776.6 660.289 776.4 659.491 777.3C659.591 777.4 656.698 777.8 658.693 777.6C659.591 777.6 659.491 777.6 658.394 777.6C657.696 777.5 657.097 777.1 656.698 776.5C655.601 775.9 655.102 774.9 655.202 773.5C655.202 774 655.202 774.5 655.202 775C655.003 775.6 653.606 778.3 652.509 779.9C650.215 783.3 646.624 786.2 642.833 788.4C640.439 789.8 639.043 790.3 636.15 791.1C635.751 791.2 632.559 792.2 633.657 791.8C633.258 791.8 632.859 791.9 632.46 791.9C633.657 792.2 633.557 792.1 632.16 791.6C633.956 792.7 635.851 793.7 637.646 794.8C637.846 795.1 637.946 795.4 638.145 795.6C638.744 797.7 639.242 799.8 639.841 801.9C639.841 802.1 638.245 805 640.04 801.6C640.539 800.7 640.938 799.8 641.437 799C642.634 796.8 644.03 794.7 645.526 792.7C647.721 789.9 652.01 785.8 655.002 783.7C658.593 781.2 662.384 778.9 666.075 777.9C665.775 777.9 665.376 778 665.077 778C666.573 778 666.573 778 665.077 777.8C665.077 777.6 659.292 767.8 659.79 767.7C659.89 767.6 659.89 767.5 659.99 767.4C659.292 768.2 658.593 768.9 657.895 769.7C656.798 770.8 655.8 772 654.703 773.1C653.107 774.7 651.711 776 650.115 777C650.713 776.6 646.624 778.9 647.521 778.4C648.02 778.1 644.429 779 647.023 778.7C647.322 778.7 643.232 778.8 644.928 778.7C646.524 778.6 642.634 777.8 644.828 778.7C644.928 778.8 641.836 776.8 643.033 777.7C643.432 777.9 643.731 778.2 643.831 778.7C643.133 777.4 643.033 777.4 643.631 778.5C646.723 779 643.232 779.3 643.731 779.6C643.532 779.5 645.128 777 645.227 776.8C646.025 775.5 646.823 774.5 648.519 772.8C651.711 769.6 654.803 767.3 659.691 765.3C666.374 762.5 674.453 761.9 682.034 764.4C684.328 765.1 679.84 763.1 683.53 765C684.328 765.4 685.226 765.9 685.924 766.4C684.927 765.6 685.425 765 685.924 766.7C685.824 766.5 685.425 764.1 685.425 764.1C686.223 764.7 678.044 778 677.246 779.3C671.76 788.5 665.476 797.6 656.1 803.1C652.409 805.3 647.92 807 644.03 807.3C639.043 807.8 636.051 807 632.16 804.4C629.268 802.5 627.073 799.4 626.275 796.1C625.876 794.2 625.876 798.2 626.176 794.7C626.275 793.1 626.175 793.6 626.574 792C627.073 790.2 628.071 788.2 629.268 786.6C636.948 776 650.314 770.6 659.391 761.4C670.164 750.1 652.609 732.4 641.337 743.9Z" fill="#F6BAD4"/>
<path d="M626.874 178.6C642.534 183.3 655.601 196.3 659.89 212.2C664.379 228.9 658.993 247.3 646.225 259.7C634.654 270.9 652.309 288.5 663.88 277.4C682.732 259.2 690.812 231 684.029 205.6C677.446 181.2 657.596 161.7 633.557 154.6C618.096 149.9 611.513 174 626.874 178.6Z" fill="#F6BAD4"/>
<path d="M344.289 593.7C344.289 599.5 344.289 605.2 344.289 611C344.289 617.5 349.975 623.8 356.758 623.5C363.54 623.2 369.226 618 369.226 611C369.226 605.2 369.226 599.5 369.226 593.7C369.226 587.2 363.54 580.9 356.758 581.2C349.975 581.5 344.289 586.7 344.289 593.7Z" fill="#F6BAD4"/>
<path d="M114.571 766.1C96.2172 792 80.5569 819.6 67.6894 848.6C64.9962 854.8 65.894 862 72.1781 865.7C77.4647 868.8 86.442 867.4 89.2349 861.2C102.102 832.2 117.763 804.6 136.116 778.7C140.006 773.2 137.114 764.8 131.628 761.6C125.443 758 118.561 760.6 114.571 766.1Z" fill="#F6BAD4"/>
<path d="M151.477 776.8C132.525 799.9 118.062 825.8 108.386 854.1C106.192 860.5 110.88 867.8 117.064 869.5C123.947 871.4 130.231 867.2 132.426 860.8C140.605 836.8 153.073 814.1 169.133 794.5C173.422 789.3 174.22 781.9 169.133 776.8C164.644 772.4 155.766 771.5 151.477 776.8Z" fill="#F6BAD4"/>
<path d="M154.969 499C161.352 486.2 172.225 479.5 186.688 478.8C195.865 478.3 205.142 478.3 213.919 475.3C221.799 472.6 228.582 468.5 235.066 463.2C240.951 458.4 245.938 452.3 249.828 445.9C251.923 442.4 253.419 438.7 255.215 435C255.913 433.6 256.511 431.9 257.509 430.8C256.711 431.7 259.604 430.1 258.307 430.6C265.788 427.9 273.469 428.4 280.75 424.8C289.229 420.6 294.316 413.2 295.014 403.7C295.513 397 288.929 391.2 282.546 391.2C275.364 391.2 270.576 396.9 270.077 403.7C270.177 401.7 271.773 401.6 270.077 402.3C272.272 401.3 267.184 403.5 268.481 403C266.486 403.8 261.898 404.3 259.005 404.8C250.227 406.2 242.447 409.5 237.061 416.9C232.871 422.7 230.876 429.7 226.886 435.7C223.894 440 218.807 445 214.219 447.8C208.633 451.2 203.346 453 196.264 453.4C187.386 454 178.409 453.8 169.831 456.3C154.37 460.8 140.804 472 133.623 486.5C130.63 492.5 132.027 500 138.111 503.6C143.498 506.7 151.976 505.1 154.969 499Z" fill="#CE5A99"/>
<path d="M609.418 578.1C618.096 594.8 626.674 611.4 635.352 628.1C640.04 637.2 651.711 635.1 656.898 628.1C674.154 604.4 689.017 579 701.285 552.3C704.078 546.2 702.981 538.8 696.797 535.2C691.41 532.1 682.533 533.5 679.74 539.7C667.571 566.4 652.708 591.8 635.352 615.5C642.534 615.5 649.716 615.5 656.898 615.5C648.22 598.8 639.642 582.2 630.964 565.5C627.871 559.5 619.493 557.7 613.907 561C607.822 564.6 606.226 572.1 609.418 578.1Z" fill="#CE5A99"/>
<path d="M432.865 251C438.152 245.6 443.438 240.3 448.725 234.9C449.423 234.2 450.121 233.5 450.819 232.8C441.543 228.7 438.152 228.4 440.446 231.9C440.944 233.2 441.842 234.4 442.54 235.6C444.236 238.8 445.832 242 447.328 245.2C449.822 250.7 451.917 256.5 453.812 262.2C454.909 265.6 455.907 269.1 456.705 272.5C457.104 274.2 457.503 276 457.902 277.7C458.001 278.3 458.101 278.9 458.301 279.5C458.799 282 458.799 281.8 458.4 279.1C459.497 277.3 460.495 275.4 461.592 273.6C462.789 272.4 467.677 272.3 463.787 272.1C462.59 272 461.393 272.2 460.196 272.3C457.802 272.4 455.408 272.4 453.014 272.4C448.226 272.3 443.438 272.1 438.75 271.4C429.573 270.1 420.396 267.6 411.718 264.4C410.322 263.9 408.028 262.4 406.631 262.3C404.537 261.1 404.636 262.8 406.831 267.4C406.133 272.4 406.532 274.1 408.227 272.3C408.028 272.4 409.923 271 409.624 271.2C413.514 268.2 417.703 265.4 421.793 262.5C430.172 256.6 438.75 251 447.428 245.5C441.144 241.9 434.96 238.3 428.675 234.7C428.177 242.2 424.287 249.2 418.202 254.5C411.22 260.6 414.91 273.4 423.688 275.4C436.157 278.2 448.525 274.9 457.802 266C451.318 261 444.735 255.9 438.251 250.9C433.563 261.3 434.86 270.7 441.842 279.6C446.032 284.9 455.109 284 459.497 279.6C464.684 274.4 463.687 267.2 459.497 261.9C460.096 262.7 460.196 262.5 459.797 263.5C462.39 257.8 461.891 251.4 456.605 247.4C451.617 243.7 444.735 243.9 440.246 248.4C437.354 251.2 433.763 252.1 430.471 251.4C432.266 258.4 434.162 265.3 435.957 272.3C446.929 262.7 452.814 249.2 453.712 234.8C454.311 225.4 442.64 219.2 434.96 224C426.78 229.1 418.801 234.4 410.821 239.9C407.03 242.6 403.24 245.2 399.449 248C395.061 251.2 390.273 254.2 387.28 258.8C372.418 281.8 409.624 291.2 424.985 294.4C434.561 296.4 444.336 297.5 454.111 297.6C464.585 297.7 478.649 298 482.639 286C485.631 277.2 480.943 265.3 478.25 256.7C475.357 247.4 471.667 238.3 467.477 229.6C462.789 219.8 455.807 206.2 442.441 209.7C436.256 211.3 432.167 216.5 427.878 220.9C423.788 225.1 419.598 229.3 415.509 233.5C403.938 244.8 421.593 262.5 432.865 251Z" fill="#435BA2"/>
<path d="M374.612 780.7C375.41 783 375.111 782 375.011 781.3C375.111 781.7 374.612 783.5 375.011 782C374.612 783.6 374.114 785.2 373.615 786.7C372.418 790.1 371.121 793.4 370.523 797.1C368.827 807.3 372.518 817 380.597 823.4C397.155 836.4 417.803 828.8 432.167 816.3C445.234 804.8 454.111 787.7 451.019 770C448.027 752.6 432.167 738.3 414.112 740.4C390.971 743.1 380.298 764.7 374.812 784.9C370.622 800.5 394.662 807.1 398.851 791.5C400.746 784.6 402.641 777.1 407.03 771.3C408.626 769.2 410.721 767.4 413.115 766.2C414.511 765.5 415.708 765.1 417.504 764.9C416.407 765 419.998 765.4 418.402 765C422.391 765.8 424.785 768.8 425.982 772.6C426.282 773.5 426.481 774.4 426.681 775.3C426.681 774.5 426.681 774.5 426.681 775.4C426.88 777 426.88 778.7 426.581 780.3C426.381 781.7 424.985 785.3 424.187 786.9C421.294 792.4 417.005 797.1 411.818 800.7C409.125 802.6 406.133 804.4 402.841 805.1C400.447 805.6 398.951 805.5 397.854 805C397.654 804.9 394.961 803.1 395.859 803.8C394.861 802.7 394.562 802.5 395.26 803.2C394.462 801.9 394.362 801.6 394.861 802.5C394.961 804.4 394.961 800.4 394.662 802.3C394.861 800.4 395.659 798.5 396.258 796.8C398.851 789.3 401.245 782 398.552 774.1C396.457 767.7 389.973 763.5 383.191 765.4C377.106 767.1 372.418 774.3 374.612 780.7Z" fill="#435BA2"/>
<path d="M763.129 190.8C763.528 192.2 763.927 193.5 764.326 194.9C765.224 198.3 764.426 193.6 764.725 197.2C764.825 198.6 764.825 200 764.825 201.5C764.825 201.9 764.426 205.5 764.725 203.8C763.727 210.2 766.421 217.6 773.403 219.2C779.388 220.6 787.667 217.4 788.764 210.5C790.161 201.6 790.061 192.9 787.268 184.3C785.273 178.1 778.59 173.4 771.907 175.6C765.623 177.4 760.935 184.1 763.129 190.8Z" fill="#435BA2"/>
<path d="M16.6188 388.3C30.5835 398.5 47.1415 404.2 64.2981 405.8C81.3549 407.3 101.404 404.8 109.384 387.5C113.174 379.4 114.272 370.7 115.469 361.9C116.666 352.7 117.364 343.3 117.065 334C116.466 316.8 110.78 298.7 94.5216 290.4C78.163 282 59.0115 288.2 51.4307 305.2C47.1415 314.7 47.1415 324.7 48.8372 334.8C49.2362 337 49.6352 339.1 50.134 341.3C50.3335 342.3 50.6327 345.3 51.2312 346L51.5304 345.3C51.6302 345.2 51.6302 345.1 51.7299 344.9C52.4282 344.2 52.4282 344.2 51.8297 344.8C51.9294 344.9 51.0317 345.4 50.7324 345.5C47.74 346.7 45.3461 346.4 41.7552 346.3C36.8675 346.2 31.8802 346.2 27.0923 347.3C18.2148 349.3 9.63648 356.1 7.04305 365.1C0.958454 385.7 23.3019 395.8 39.6605 397.5C58.3133 399.4 77.764 392 88.3372 376.1C98.8107 360.4 97.514 339.9 86.0431 325.3C81.8537 320 72.7766 320.9 68.3878 325.3C63.2009 330.5 64.1984 337.6 68.3878 343C69.6845 344.7 70.0835 347.4 70.3827 349.4C71.1807 354.7 77.365 358.6 82.4521 358.6C87.9383 358.6 92.9256 354.7 94.5216 349.4C98.5115 335.6 96.4168 320.2 88.3372 308.2C83.0506 300.4 71.9787 299.9 66.7918 308.2C58.5127 321.4 60.9067 339.4 72.0784 350.1C83.7489 361.2 101.404 343.5 89.7337 332.4C87.4395 330.3 86.9408 329 86.6415 326.8C86.7413 327.7 86.6415 325.4 86.6415 325.1C86.6415 323 86.3423 326.5 86.6415 324.5C87.0405 322.2 86.7413 323.1 88.2375 320.8C81.0557 320.8 73.8739 320.8 66.692 320.8C71.3802 327.8 72.5771 334.9 70.3827 342.7C78.3625 342.7 86.442 342.7 94.4218 342.7C93.3246 336 90.1327 330.5 86.0431 325.2C80.158 331.1 74.2729 337 68.3878 342.9C67.2905 341.5 69.485 345 69.3852 344.9C68.4875 343.1 70.0835 346.9 70.0835 346.9C70.8814 349.7 70.6819 348.7 70.6819 351.6C70.6819 355.7 69.6845 359.3 66.7918 363.5C62.4029 369.9 52.7274 373 44.1491 372.8C40.0595 372.7 34.7728 371.7 32.0797 370.3C31.5809 370 30.2842 369.8 30.384 369.1C30.384 369.3 31.0822 370 30.9824 370.3C30.9824 370.8 30.8827 372 30.9824 372.4C30.8827 372.7 30.6832 372.9 30.384 373C30.9824 372.6 31.5809 372.2 32.1794 371.9C32.9774 371.5 35.3713 371.3 37.466 371.3C40.3587 371.3 43.3511 371.5 46.2438 371.4C53.1264 371.2 59.9092 369.7 65.6946 365.7C71.6794 361.5 75.8688 355.2 76.3675 347.7C76.7665 340.9 73.9736 334.4 73.0759 327.7C72.3776 322.5 72.6769 317.5 75.0708 313.9C76.1681 312.3 76.0683 312.8 77.4648 311.6C76.2678 312.6 79.6592 311 77.764 311.3C78.6617 311.2 79.5595 311.2 80.4572 311.3C79.36 311.2 79.6592 311.3 81.1554 311.6C83.8486 312.4 86.5418 314.5 88.038 316.8C91.0304 321.4 91.9282 327 92.2274 332.2C92.9256 344.7 91.9282 358.1 89.1352 370.3C88.3372 373.7 87.9383 375.5 86.442 377.8C86.3423 377.9 85.0456 379.6 85.9433 378.5C84.7463 379.9 85.8436 379.1 83.4496 379.9C77.8638 381.7 71.0809 381.3 65.2956 380.8C52.4282 379.8 39.9597 374.4 29.3865 366.7C23.9004 362.7 15.5216 365.8 12.3297 371.2C8.43951 377.6 11.1327 384.3 16.6188 388.3Z" fill="#FED152"/>
<path d="M528.323 470.6C542.787 466.1 557.15 461.6 571.614 457C586.875 452.2 580.591 428.9 565.03 432.9C552.761 436 540.492 439.1 528.223 442.2C512.663 446.1 519.246 470.3 534.807 466.3C547.076 463.2 559.345 460.1 571.614 457C569.419 449 567.225 440.9 565.03 432.9C550.567 437.4 536.203 441.9 521.74 446.5C506.479 451.2 512.962 475.4 528.323 470.6Z" fill="#FED152"/>
<path d="M267.284 825C269.479 824.6 272.371 825 274.665 826C278.456 827.7 281.249 830 283.742 833.3C288.231 839.3 290.426 848.8 291.523 856.8C292.72 866.1 294.016 876.6 291.822 885.8C290.924 889.3 289.628 892.7 287.633 895C286.236 896.6 285.538 897.3 284.241 898.1C283.443 898.6 282.645 899 281.748 899.4C283.244 898.7 279.453 899.8 281.249 899.6C274.566 900.5 268.78 904.7 268.78 912.1C268.78 918.2 274.566 925.5 281.249 924.6C296.211 922.6 307.682 913.4 313.467 899.4C319.253 885.4 318.056 869.7 316.26 855C314.365 840.2 310.575 825.7 300.4 814.4C290.326 803.2 275.463 797.8 260.701 800.8C254.117 802.1 250.327 810 252.023 816.2C253.918 823.1 260.701 826.3 267.284 825Z" fill="#FED152"/>
<path d="M512.164 894.8C507.376 912.9 502.489 930.9 497.701 949C493.511 964.6 517.55 971.2 521.74 955.6C526.528 937.5 531.415 919.5 536.203 901.4C540.393 885.9 516.354 879.3 512.164 894.8Z" fill="#70C9EB"/>
<path d="M488.025 909.3C511.067 912 534.009 914.7 557.051 917.4C563.734 918.2 569.519 911.1 569.519 904.9C569.519 897.5 563.734 893.2 557.051 892.4C534.009 889.7 511.067 887 488.025 884.3C481.342 883.5 475.557 890.6 475.557 896.8C475.557 904.2 481.342 908.5 488.025 909.3Z" fill="#70C9EB"/>
<path d="M373.914 36.4997C375.41 53.8997 382.094 70.0997 393.864 82.9997C400.148 89.8997 408.028 95.8997 417.404 97.1997C426.681 98.4997 435.059 95.0997 442.241 89.2997C455.109 78.8997 467.477 59.4997 463.487 42.3997C461.493 33.7997 454.909 25.9997 446.131 23.7997C436.855 21.3997 427.977 24.7997 420.796 30.6997C417.404 33.4997 414.511 36.9997 412.317 40.6997C411.32 42.2997 410.123 44.3997 409.624 46.1997C409.424 46.6997 409.325 47.4997 409.225 47.1997C410.821 45.6997 412.816 45.0997 415.409 45.3997C414.91 45.1997 414.412 45.0997 413.913 44.8997C412.217 43.4997 409.823 42.2997 407.629 39.9997C405.634 37.7997 404.138 34.6997 403.34 31.6997C397.255 36.3997 391.171 41.0997 384.986 45.7997C387.679 46.9997 387.979 47.2997 389.475 49.6997C391.171 52.4997 392.567 55.4997 394.063 58.2997C397.455 64.6997 401.943 70.8997 408.427 74.3997C421.993 81.6997 442.441 73.1997 441.643 56.1997C441.344 49.4997 436.157 43.6997 429.174 43.6997C422.691 43.6997 416.407 49.3997 416.706 56.1997C416.806 59.0997 417.205 54.4997 417.604 53.8997C418.202 52.8997 418.701 52.8997 419.499 52.1997C420.496 51.2997 418.003 52.5997 419.399 52.2997C421.195 51.8997 417.404 52.3997 419.299 52.1997C419.499 52.1997 420.796 52.2997 420.596 52.6997C420.596 52.6997 418.701 50.7997 418.501 50.5997C418.102 50.0997 416.606 47.3997 416.008 46.1997C411.419 37.5997 407.03 28.2997 397.654 24.0997C392.966 21.9997 388.078 21.6997 383.789 25.0997C379.899 28.1997 378.004 33.2997 379.301 38.1997C381.695 46.7997 386.383 54.6997 393.165 60.5997C400.946 67.2997 412.616 73.5997 422.691 68.0997C429.873 64.1997 431.469 55.3997 435.957 50.8997C437.453 49.3997 437.653 49.1997 438.95 48.5997C440.346 47.8997 440.546 47.7997 439.548 48.2997C441.044 47.8997 441.144 47.8997 439.947 48.1997C437.553 48.1997 441.842 48.4997 439.249 47.8997C438.65 46.9997 438.85 47.2997 439.548 48.5997C439.149 47.6997 439.149 47.8997 439.648 49.3997C439.249 47.1997 439.349 52.2997 439.548 51.1997C439.249 53.0997 438.451 54.5997 437.553 56.1997C435.758 59.4997 433.364 63.0997 431.269 65.5997C429.374 67.8997 426.88 70.3997 424.985 71.5997C422.89 72.8997 421.793 73.3997 419.499 72.3997C413.813 69.9997 408.826 62.5997 405.734 57.3997C402.143 51.1997 399.649 43.5997 399.051 36.7997C398.452 30.0997 393.764 24.2997 386.582 24.2997C380.099 23.9997 373.316 29.6997 373.914 36.4997Z" fill="#70C9EB"/>
<path d="M735.399 356.2C737.294 360.4 739.09 364.5 740.985 368.7C741.783 370.5 742.581 372.3 743.379 374.1C743.578 374.8 743.778 375.4 744.276 376C744.875 377.6 744.875 377.8 744.376 376.7C744.975 374.6 745.473 372.5 746.072 370.4C750.461 368 751.359 367.3 748.765 368.2C748.167 368.4 747.468 368.5 746.87 368.7C744.975 369.2 743.08 369.7 741.184 370.2C737.095 371.3 732.905 372.3 728.816 373.4C720.836 375.4 712.956 377.5 704.976 379.5C689.415 383.5 695.999 407.6 711.559 403.6C719.838 401.5 728.117 399.3 736.396 397.2C743.878 395.3 752.256 394.1 759.338 390.9C768.415 386.8 771.408 377.1 767.917 368.1C764.725 359.8 760.735 351.8 757.144 343.7C754.351 337.5 745.473 336.1 740.087 339.2C733.504 342.8 732.606 350 735.399 356.2Z" fill="#70C9EB"/>
<path d="M162.948 561.5C142.6 560.5 133.024 587.3 135.418 604C136.914 614.5 144.695 623.5 155.467 625C161.452 625.8 167.836 624.3 171.726 619.5C175.516 614.9 176.614 608.2 174.619 602.6C172.923 597.7 168.235 593 162.549 593.4C144.894 594.8 133.922 613.1 131.229 629.3C129.633 638.7 131.428 648.6 138.41 655.4C144.595 661.5 153.871 664.7 162.25 661.7C158.16 654.7 154.171 647.8 150.081 640.8C138.71 650.8 132.625 668.5 140.605 682.4C147.886 695 164.844 700.9 177.511 693C191.177 684.6 178.609 662.9 164.943 671.4C163.647 672.1 163.547 672.2 164.744 671.7C166.14 671.7 166.14 671.7 164.644 671.7C167.237 672.1 163.946 671.5 163.347 671.3C164.445 671.8 164.345 671.7 163.048 671C163.946 671.8 163.846 671.7 162.749 670.7C161.751 669.6 161.652 669.5 162.45 670.4C161.851 669.2 161.652 669 162.051 669.7C162.051 670.2 161.951 668.2 161.951 667.6C161.851 669.4 162.749 664.6 162.45 665.3C163.447 662.6 165.342 660.7 167.736 658.5C176.913 650.4 167.237 633.4 155.567 637.6C153.173 638.5 155.567 638.1 156.564 638.2C155.268 637.5 155.068 637.3 155.966 637.7C156.365 638.5 156.265 638.3 155.467 637C155.667 638.5 155.367 636.2 155.367 636.1C155.367 634.2 155.766 632.6 156.365 630.8C157.362 627.6 158.958 624.6 160.654 621.7C161.751 619.9 162.051 619.7 163.048 618.6C162.25 619 162.45 618.9 163.746 618.1C163.347 618.3 162.948 618.4 162.549 618.4C158.559 615.3 154.57 612.3 150.48 609.2C150.679 608 150.879 606.8 151.078 605.6C152.575 604.1 154.071 602.6 155.567 601.1C158.859 599.7 157.961 600.5 160.255 600.9C159.058 600.7 159.756 599.2 159.956 600.5C159.457 598.3 160.255 595.4 160.854 593C161.751 589.6 161.851 589 163.248 586.7C163.547 586.2 163.746 585.2 164.345 585.3C164.544 585.3 159.457 586.1 162.849 586.3C169.532 586.6 175.317 580.3 175.317 573.8C175.417 566.9 169.631 561.8 162.948 561.5Z" fill="#70C9EB"/>
<path d="M791.357 1034.5C804.724 1055.9 810.01 1080.5 807.317 1105.6C806.619 1112.3 813.601 1118.1 819.785 1118.1C827.167 1118.1 831.556 1112.3 832.254 1105.6C835.446 1076.6 828.264 1046.6 812.903 1021.9C804.424 1008.3 782.879 1020.8 791.357 1034.5Z" fill="#70C9EB"/>
<path d="M384.787 491.5C388.477 500.7 392.068 509.8 395.759 519C399.35 527.9 403.539 536.3 413.614 538.9C422.491 541.2 432.665 538 441.543 536.6C451.019 535.2 460.395 533.7 469.871 532.3C476.554 531.3 480.245 522.9 478.549 516.9C476.554 509.8 469.871 507.1 463.188 508.2C455.907 509.3 448.725 510.4 441.443 511.5C437.952 512 434.561 512.6 431.07 513.1C428.376 513.5 423.888 513.4 421.693 514.5C420.995 514.9 420.197 514.1 420.197 514.9C420.696 515.4 421.195 515.9 421.693 516.4C421.294 515.8 420.895 515.2 420.596 514.5C419.898 513.1 418.501 509.4 417.504 506.8C414.611 499.5 411.619 492.1 408.726 484.8C406.232 478.5 400.447 474.1 393.365 476.1C387.58 477.8 382.293 485.2 384.787 491.5Z" fill="#ED6E49"/>
<path d="M145.592 967.5C153.173 971.5 160.754 975.4 168.235 979.4C173.821 982.4 180.304 985.1 183.895 989.6C182.898 988.3 184.993 991.5 184.993 991.5C184.594 990.8 184.594 990.8 184.893 991.6C185.092 992.4 185.092 992.5 184.893 991.6C185.491 990.4 184.494 992.4 184.594 992.4C184.594 992.5 183.297 993.9 183.895 993.4C181.9 994.9 181.501 995.1 178.908 995.4C175.517 995.8 172.025 994.8 168.833 993.8C155.068 989.2 143.398 979.7 129.034 976.3C126.84 975.8 124.645 975.5 122.451 975.2C121.453 975.1 118.561 974.9 118.561 974.5C119.957 975 121.054 975.8 121.753 977C122.052 977.6 121.952 977 121.254 975.3C121.054 973.6 120.157 971.8 119.658 970.1C117.264 961.9 115.369 953.6 114.072 945.2C108.985 950.3 103.798 955.5 98.7109 960.6C112.177 965 124.446 971.7 135.717 980.2C139.907 973 144.096 965.8 148.285 958.6C144.196 956.8 140.206 954.6 136.914 951.6C135.418 950.2 133.722 948.5 132.825 947.2C132.625 946.9 131.428 944.9 131.927 945.4C132.326 945.9 131.528 945.6 131.827 944.6C130.929 947.8 130.73 947.8 128.037 949C127.638 948.9 127.338 948.9 126.939 948.8C128.136 949.2 128.436 949.2 127.737 948.9C126.54 948.3 129.533 950 129.433 949.9C128.735 949.5 129.533 949.8 129.932 950.8C130.83 953.2 131.428 955.7 131.927 958.2C134.022 969.4 136.615 979.1 144.196 987.9C150.879 995.7 160.854 1001.3 170.928 1002.9C177.013 1003.9 183.197 1001.9 185.591 995.7C187.985 989.7 185.791 983.7 180.504 980.1C169.731 972.8 160.654 963 154.171 951.7C146.39 938.2 143.597 922.2 129.832 913C115.568 903.5 96.5165 908.6 89.9332 924.6C83.9483 939.1 88.6365 955.9 90.8309 970.7C91.8284 977.4 100.207 981.1 106.192 979.4C113.374 977.4 115.868 970.7 114.87 964C114.272 960.2 113.773 956.4 113.174 952.5C112.676 949.1 112.376 947.5 112.277 945.5C112.077 943 112.077 940.6 112.077 938.1C112.077 934.9 111.479 939.2 112.277 936.2C112.277 936.1 113.474 932.4 112.576 934.5C112.676 934.2 114.272 931.6 113.474 932.8C112.975 933.6 115.169 931.7 113.274 933C112.576 933.5 115.369 932.8 113.673 932.9C112.077 933 115.169 933.2 115.768 933.4C114.77 933 117.862 934.8 117.862 934.8C116.765 933.9 119.758 937 119.558 936.7C120.955 938.5 122.052 941 123.049 943.1C128.136 954.1 132.326 964.8 139.707 974.6C147.687 985.2 157.063 994.1 168.035 1001.6C171.227 994 174.419 986.4 177.611 978.8C167.038 977.1 160.056 970.9 157.662 960.8C155.966 953.6 155.467 946.4 152.176 939.6C149.183 933.3 143.797 928.6 137.313 925.9C122.351 919.8 105.294 930.1 107.09 947.2C108.686 962.5 122.451 974.1 135.618 980C150.38 986.6 161.053 968.1 148.186 958.4C135.219 948.6 120.655 941.3 105.195 936.3C95.3195 933.1 88.437 942.9 89.8334 951.7C91.1301 959.5 92.7261 967.2 94.9205 974.9C97.4142 983.8 99.9079 993.4 109.085 997.4C115.868 1000.4 122.251 999.7 129.433 1002.5C135.917 1005.1 142.001 1008.8 148.285 1011.9C162.649 1019 181.003 1025 195.865 1015.2C210.827 1005.4 214.019 986.6 202.548 972.7C197.66 966.9 190.977 962.8 184.294 959.3C175.616 954.7 166.938 950.2 158.26 945.6C152.275 942.5 144.695 944.1 141.203 950.1C137.812 956.1 139.607 964.4 145.592 967.5Z" fill="#ED6E49"/>
<path d="M113.673 984.3C122.351 990.9 131.827 995.7 141.902 999.7C148.186 1002.1 155.567 997 157.263 991C159.158 983.9 154.869 978.1 148.585 975.6C140.605 972.5 133.124 967.9 126.241 962.8C120.855 958.7 112.277 961.9 109.184 967.3C105.494 973.6 108.287 980.3 113.673 984.3Z" fill="#ED6E49"/>
<path d="M773.303 33.6998C789.761 67.5998 830.259 119.6 873.549 99.0998C879.634 96.1998 881.23 87.4998 878.038 81.9998C874.347 75.6998 867.066 74.5998 860.981 77.4998C855.894 79.8998 849.41 78.8998 843.126 76.0998C836.643 73.2998 830.359 68.3998 825.072 63.2998C812.504 51.0998 802.529 36.8998 794.849 21.0998C791.856 14.9998 783.278 13.3998 777.792 16.5998C771.607 20.1998 770.41 27.5998 773.303 33.6998Z" fill="#ED6E49"/>
<path d="M761.234 680.1C761.034 675.2 761.034 670.2 761.932 665.3C762.431 662.3 763.229 659.4 764.027 656.5C764.226 655.9 764.426 655.3 764.525 654.8C764.426 655 764.326 655.2 764.126 655.5C764.924 657 751.159 653.1 753.952 657C759.139 664.4 765.623 673.2 774.5 678.1C780.585 681.5 787.667 683 794.051 679.1C799.736 675.6 801.532 669.4 803.128 663.3C806.32 651.5 809.512 639.6 812.703 627.8C804.724 627.8 796.644 627.8 788.664 627.8C790.659 637.7 793.253 647.4 796.644 656.9C799.238 664.1 807.816 669.1 814.998 664.4C832.254 653 844.922 636.3 850.907 616.4C855.495 601 831.456 594.3 826.868 609.8C822.878 623.3 814.2 635.2 802.429 642.9C808.514 645.4 814.599 647.9 820.783 650.4C817.392 640.9 814.698 631.2 812.803 621.3C810.31 608.9 791.856 609.9 788.764 621.3C786.869 628.5 784.874 635.6 782.979 642.8C782.081 646.2 781.183 649.7 780.186 653.1C779.687 655 779.188 656.8 778.69 658.7C778.49 659.3 778.39 659.9 778.191 660.6C777.293 663.2 777.991 662.5 780.485 658.3C782.58 657.7 784.674 657.2 786.769 656.6C789.063 657.7 789.263 657.8 787.268 656.7C786.37 656.2 785.472 655.6 784.575 655.1C784.076 654.7 782.879 653.7 782.28 653.1C779.986 650.9 778.69 648.6 776.894 645.9C771.807 638.4 764.027 631.4 754.251 634C744.875 636.4 741.284 645 739.19 653.6C736.995 662.3 736.097 671.4 736.496 680.4C736.796 687.1 742.082 692.9 748.965 692.9C755.349 692.6 761.533 686.9 761.234 680.1Z" fill="#ED6E49"/>
<path d="M479.347 671.4C492.813 689.6 506.179 707.7 519.645 725.9C523.635 731.3 530.418 734.1 536.702 730.4C541.989 727.3 545.181 718.8 541.191 713.3C527.725 695.1 514.359 677 500.893 658.8C496.903 653.4 490.12 650.6 483.836 654.3C478.549 657.5 475.357 666 479.347 671.4Z" fill="#4CB484"/>
<path d="M605.628 1014.3C614.306 996.1 624.181 978.4 635.053 961.4C627.472 960.4 619.892 959.4 612.311 958.4C618.994 977.7 627.373 996.5 637.347 1014.3C640.938 1008 644.529 1001.8 648.12 995.5C628.57 993.9 609.418 997.9 591.663 1006.1C585.578 1008.9 584.082 1017.8 587.174 1023.2C590.865 1029.5 598.047 1030.5 604.231 1027.7C617.996 1021.4 633.158 1019.3 648.12 1020.5C657.895 1021.3 663.182 1009.4 658.893 1001.7C649.916 985.7 642.335 969.1 636.35 951.8C632.759 941.6 619.592 939.5 613.607 948.8C602.635 965.8 592.86 983.4 584.182 1001.7C581.289 1007.8 582.486 1015.2 588.671 1018.8C594.057 1021.9 602.735 1020.4 605.628 1014.3Z" fill="#4CB484"/>
<path d="M158.559 50.7997C182.499 52.4997 206.338 51.1997 230.078 47.3997C236.163 46.3997 239.854 39.1997 239.056 33.6997C238.058 27.1997 233.17 23.4997 226.787 22.8997C205.042 20.6997 182.299 19.4997 162.649 30.5997C145.393 40.3997 127.139 65.9997 142.899 84.6997C158.559 103.3 189.481 94.3997 196.563 72.3997C199.755 62.5997 198.259 48.9997 190.479 41.5997C179.905 31.5997 166.24 38.8997 158.16 48.0997C149.083 58.4997 148.186 75.2997 161.751 82.4997C169.232 86.4997 178.01 84.1997 183.297 77.7997C185.391 75.2997 186.588 72.5997 187.586 69.4997C187.885 68.6997 188.284 67.7997 188.384 66.8997C188.583 66.0997 188.683 65.9997 188.384 66.6997C187.686 67.5997 186.888 68.2997 185.79 68.7997C183.596 68.7997 181.402 68.7997 179.207 68.7997C179.606 68.8997 180.005 68.8997 180.404 68.9997C186.987 70.1997 193.87 67.1997 195.765 60.2997C197.461 54.2997 193.77 46.0997 187.087 44.8997C174.818 42.7997 167.337 50.4997 163.946 61.4997C163.746 62.1997 163.547 62.7997 163.347 63.4997C164.145 59.3997 168.035 58.7997 174.918 61.5997C175.417 62.3997 175.816 65.6997 175.915 65.6997C175.716 65.5997 178.808 62.9997 179.107 62.4997C180.803 59.9997 180.504 62.9997 177.412 61.7997C175.616 60.6997 173.721 59.6997 171.926 58.5997C172.923 59.4997 173.122 59.5997 172.524 58.9997C171.926 58.2997 172.125 58.5997 172.923 59.9997C172.624 58.7997 173.222 61.9997 173.122 60.8997C173.322 62.9997 173.322 63.2997 172.524 65.8997C172.923 64.6997 171.626 67.3997 172.125 66.6997C172.125 66.7997 170.629 68.2997 170.23 68.6997C171.128 67.8997 168.434 69.4997 169.332 69.0997C169.532 68.9997 167.237 69.7997 166.739 69.8997C167.936 69.6997 164.444 69.8997 164.345 69.8997C165.841 69.9997 162.849 69.2997 163.547 69.6997C164.444 70.0997 161.652 68.7997 162.549 69.2997C159.657 67.4997 161.751 68.1997 161.851 68.5997C161.352 66.7997 164.145 62.1997 165.641 60.0997C170.729 53.3997 179.107 49.4997 187.985 47.5997C200.553 44.8997 214.019 46.5997 226.787 47.8997C225.689 39.6997 224.592 31.4997 223.495 23.2997C202.049 26.6997 180.205 27.2997 158.559 25.7997C151.876 25.2997 146.091 31.8997 146.091 38.2997C146.091 45.3997 151.777 50.2997 158.559 50.7997Z" fill="#4CB484"/>
<path d="M614.006 -32.0002C606.625 -22.9002 599.044 -13.9002 591.763 -4.60024C587.673 0.599758 584.681 6.39976 586.676 13.1998C587.573 16.1998 589.469 18.8998 591.563 21.1998C593.059 22.7998 592.76 21.9998 593.957 24.4998C593.359 23.2998 593.957 24.8998 593.957 25.2998C593.658 23.9998 594.057 25.3998 594.057 25.9998C594.157 28.8998 594.256 27.7998 593.658 30.1998C592.96 32.9998 591.264 35.8998 589.07 37.9998C583.085 43.8998 574.407 46.7998 566.327 49.4998C559.943 51.5998 555.754 58.0998 557.649 64.8998C559.345 71.1998 566.527 75.7998 573.01 73.5998C592.86 66.9998 614.804 56.4998 618.395 33.3998C619.193 28.0998 619.293 22.5998 617.697 17.3998C616.301 12.8998 613.308 6.39976 609.219 3.59976C606.625 0.599758 606.725 3.79976 609.318 13.0998C609.717 12.5998 610.116 12.0998 610.515 11.5998C611.712 10.5998 612.61 8.99976 613.607 7.79976C615.503 5.49976 617.298 3.19976 619.193 0.99976C623.283 -4.10024 627.472 -9.10024 631.562 -14.2002C635.851 -19.4002 636.649 -26.8002 631.562 -31.9002C627.273 -36.4002 618.296 -37.3002 614.006 -32.0002Z" fill="#4CB484"/>
<path d="M315.662 232.9C334.714 214.9 358.154 203.1 383.789 198C390.373 196.7 394.163 188.8 392.467 182.6C390.572 175.7 383.789 172.5 377.106 173.9C347.481 179.9 319.951 194.5 298.006 215.3C286.336 226.3 303.991 243.9 315.662 232.9Z" fill="#0F9352"/>
<path d="M252.123 670.1C244.741 677.7 243.744 689.8 249.529 698.6C256.112 708.6 269.977 711.4 279.753 704.3C289.229 697.4 293.418 684.4 286.236 674.2C279.453 664.5 266.287 661 255.913 667C248.931 671.1 247.734 680.9 253.419 686.6C258.506 691.8 264.591 692.8 271.573 691.9C278.057 691 282.147 682.4 280.251 676.5C277.957 669.4 271.873 666.8 264.89 667.8C266.785 667.5 269.379 667.4 270.975 669C270.177 675.5 269.279 682.1 268.481 688.6C270.775 687.3 266.187 689.2 268.481 688.7C266.486 688.9 266.187 689 267.583 689C266.985 688.9 266.486 688.9 265.888 688.8C266.885 689.1 266.985 689.1 265.987 688.7C264.99 688.2 264.99 688.3 265.987 688.7C266.885 689.3 266.885 689.3 266.087 688.7C265.289 688 265.289 688.1 266.087 688.8C265.09 687.4 264.89 687.1 265.389 687.9C265.888 688.7 265.688 688.3 264.99 686.7C265.289 687.8 265.289 687.8 265.09 686.7C264.89 685.9 264.89 685.1 265.189 684.3C264.591 687.2 266.287 681.9 265.09 684.6C266.087 683.4 266.287 683.1 265.588 683.8C264.89 684.4 265.189 684.3 266.386 683.3C264.092 684.3 268.78 683.2 266.087 683.5C266.586 683.4 267.184 683.4 267.683 683.3C266.287 683.3 266.486 683.4 268.381 683.5C268.88 683.7 269.279 684 269.778 684.2C268.681 683.5 268.88 683.7 270.376 684.9C268.681 683.3 271.673 687.2 270.376 685C269.179 683 270.975 687.5 270.476 685C270.775 686.4 270.277 687.3 270.576 685.6C270.775 684.4 269.778 688.6 270.576 685.8C270.875 684.9 270.676 685.3 270.077 687C268.88 688.4 268.681 688.7 269.578 687.7C274.067 683 274.566 674.6 269.578 670C264.79 665.6 256.91 665.1 252.123 670.1Z" fill="#8C878D"/>
<path d="M363.141 1016.6C379.201 1016.6 379.201 991.6 363.141 991.6C347.182 991.6 347.082 1016.6 363.141 1016.6Z" fill="#8C878D"/>
<path d="M395.46 995C411.519 995 411.519 970 395.46 970C379.5 970 379.4 995 395.46 995Z" fill="#8C878D"/>
<path d="M386.881 1044.7C402.941 1044.7 402.941 1019.7 386.881 1019.7C370.822 1019.7 370.822 1044.7 386.881 1044.7Z" fill="#8C878D"/>
<path d="M425.683 1027.4C441.743 1027.4 441.743 1002.4 425.683 1002.4C409.624 1002.4 409.624 1027.4 425.683 1027.4Z" fill="#8C878D"/>
<path d="M16.3195 567.3C32.3789 567.3 32.3789 542.3 16.3195 542.3C0.260189 542.3 0.260189 567.3 16.3195 567.3Z" fill="#F6BAD4"/>
<path d="M44.3485 621.3C60.4079 621.3 60.4079 596.3 44.3485 596.3C28.2892 596.3 28.1895 621.3 44.3485 621.3Z" fill="#F6BAD4"/>
<path d="M16.3195 642.9C32.3789 642.9 32.3789 617.9 16.3195 617.9C0.260189 617.9 0.260189 642.9 16.3195 642.9Z" fill="#F6BAD4"/>
<path d="M78.7614 100.8C94.8208 100.8 94.8208 75.7998 78.7614 75.7998C62.7021 75.7998 62.7021 100.8 78.7614 100.8Z" fill="#ED6E49"/>
<path d="M72.2779 144C88.3372 144 88.3372 119 72.2779 119C56.3183 119 56.2185 144 72.2779 144Z" fill="#ED6E49"/>
<path d="M35.6705 79.1997C51.7298 79.1997 51.7298 54.1997 35.6705 54.1997C19.6111 54.1997 19.6111 79.1997 35.6705 79.1997Z" fill="#ED6E49"/>
<path d="M33.5758 137.5C49.6352 137.5 49.6352 112.5 33.5758 112.5C17.5165 112.5 17.4167 137.5 33.5758 137.5Z" fill="#ED6E49"/>
<path d="M772.505 465.8C788.564 465.8 788.564 440.8 772.505 440.8C756.545 440.8 756.446 465.8 772.505 465.8Z" fill="#435BA2"/>
<path d="M811.307 442.1C827.366 442.1 827.366 417.1 811.307 417.1C795.247 417.1 795.247 442.1 811.307 442.1Z" fill="#435BA2"/>
<path d="M828.563 485.3C844.623 485.3 844.623 460.3 828.563 460.3C812.504 460.3 812.504 485.3 828.563 485.3Z" fill="#435BA2"/>
<path d="M783.278 526.3C799.337 526.3 799.337 501.3 783.278 501.3C767.318 501.3 767.219 526.3 783.278 526.3Z" fill="#435BA2"/>
<path d="M440.745 377.3C456.804 377.3 456.804 352.3 440.745 352.3C424.686 352.3 424.686 377.3 440.745 377.3Z" fill="#0F9352"/>
<path d="M475.258 379.4C491.317 379.4 491.317 354.4 475.258 354.4C459.198 354.4 459.099 379.4 475.258 379.4Z" fill="#0F9352"/>
<path d="M423.489 426.9C439.548 426.9 439.548 401.9 423.489 401.9C407.429 401.9 407.429 426.9 423.489 426.9Z" fill="#0F9352"/>
<path d="M460.096 422.6C476.155 422.6 476.155 397.6 460.096 397.6C444.136 397.6 444.037 422.6 460.096 422.6Z" fill="#0F9352"/>
<path d="M810.808 799.5C801.332 805 795.048 816.2 798.04 827.3C801.232 838.8 813.601 846 824.972 842.3C846.418 835.3 843.924 802.3 822.977 796.6C813.003 793.9 802.23 798.3 796.345 806.6C789.861 815.7 791.357 827.9 798.739 836C806.619 844.5 818.987 846.3 829.062 840.6C837.84 835.6 844.124 826.4 846.917 816.8C853.5 794.6 840.034 772.2 818.688 765.1C813.102 763.3 807.716 766.4 804.624 770.8C800.434 776.8 798.439 783.7 797.941 790.9C797.741 794.3 798.14 797.9 798.838 801.2C799.138 802.7 799.736 804.2 800.235 805.7C800.434 806.1 800.634 806.6 800.734 807C801.532 809.9 801.831 808.8 801.831 803.7C803.327 802.2 804.823 800.7 806.319 799.2C808.015 798.2 813.003 799.2 808.614 797.8C808.314 797.7 806.12 796.8 806.818 797.1C805.222 796.4 803.427 795.2 802.729 794.6C801.133 793.3 800.434 792.4 799.736 791C798.938 789.4 799.537 790.6 799.237 789.5C798.639 787.1 799.636 792.4 799.038 788.1C798.838 787 799.237 785.8 799.636 785C799.138 786 798.639 785.4 800.135 784.6C798.938 785.3 800.035 784.7 800.634 784.5C798.838 785.1 801.232 784 800.634 784.6C799.836 785.6 802.729 784 800.534 784.6C800.933 784.5 802.529 785 800.933 784.6C802.828 785.1 801.332 785.3 800.634 784.2C804.225 789.9 811.706 792.2 817.691 788.7C823.376 785.4 825.77 777.3 822.179 771.6C813.801 758.5 795.247 755.9 783.477 766.2C772.505 775.9 771.607 793.6 779.487 805.5C786.869 816.5 805.821 828.9 818.987 820.8C827.765 815.4 826.568 805.8 823.775 797.5C821.98 792.2 822.878 788.1 826.169 783.3C821.481 785.2 816.793 787.1 812.105 789C814.898 789.9 818.09 792 820.284 794.9C822.279 797.5 823.676 801.3 823.676 804.5C823.676 808.3 822.977 811.3 820.484 814.9C819.686 816.1 818.788 816.7 817.79 817.9C819.386 816 814.998 819.9 817.192 818.8C818.09 818.4 817.092 819 816.793 818.7C817.89 819.9 816.394 817.7 816.494 818C816.593 818.3 817.391 818.5 817.192 819.1C816.992 819.5 816.793 820.4 816.693 820.9C817.092 819.4 817.292 819.8 816.593 820.8C815.795 821.9 818.09 819.4 816.593 820.7C817.79 819.6 817.691 820.9 815.895 820.3C817.391 820.8 816.893 820.8 815.895 820.1C814.698 819.3 815.596 818.5 815.596 820.1C815.596 818.1 815.796 821.1 815.496 819.8C815.397 818.9 815.396 819.1 815.396 820.4C815.496 820.1 815.496 819.7 815.596 819.4C817.092 821.3 814 819.8 815.895 819.2C816.294 819.1 816.793 818.5 817.292 818.3C818.688 817.8 821.381 818.2 822.08 819.8C822.179 820.1 822.179 821.1 822.279 821.2C823.376 822.1 818.888 822.3 822.778 820.8C822.778 820.8 820.284 822.6 823.476 820.7C837.241 813 824.673 791.4 810.808 799.5Z" fill="#CE619B"/>
<path d="M725.325 902.4C733.205 919 743.179 934.3 754.85 948.4C759.139 953.6 768.016 952.8 772.505 948.4C777.692 943.2 776.794 936 772.505 930.7C762.231 918.2 753.852 904.3 746.87 889.7C743.977 883.6 735.299 882 729.813 885.2C723.529 888.9 722.432 896.2 725.325 902.4Z" fill="#FDD250"/>
<path d="M720.138 947.8C738.691 940.9 757.244 934.1 775.697 927.2C781.981 924.9 786.27 918.7 784.375 911.8C782.679 905.7 775.398 900.7 769.014 903.1C750.461 910 731.908 916.8 713.455 923.7C707.171 926 702.881 932.2 704.777 939.1C706.472 945.2 713.754 950.2 720.138 947.8Z" fill="#FDD250"/>
<path d="M568.123 258.9C567.225 281.6 565.429 304.3 562.337 326.9C561.44 333.6 563.933 340.3 571.015 342.3C576.801 343.9 585.479 340.3 586.376 333.6C589.768 308.8 592.062 284 593.059 259C593.359 252.2 587.174 246.5 580.591 246.5C573.609 246.4 568.322 252.1 568.123 258.9Z" fill="#EBCBB2"/>
<path d="M307.183 107.3C323.243 107.3 323.243 82.2998 307.183 82.2998C291.124 82.2998 291.124 107.3 307.183 107.3Z" fill="#EBCBB2"/>
<path d="M261.898 118.1C277.957 118.1 277.957 93.0997 261.898 93.0997C245.838 93.0997 245.838 118.1 261.898 118.1Z" fill="#EBCBB2"/>
<path d="M266.187 163.4C282.246 163.4 282.246 138.4 266.187 138.4C250.227 138.4 250.128 163.4 266.187 163.4Z" fill="#EBCBB2"/>
<path d="M315.761 144C331.821 144 331.821 119 315.761 119C299.702 119 299.702 144 315.761 144Z" fill="#EBCBB2"/>
<path d="M-3.13123 827.7C-2.433 822.9 -1.73477 815.7 0.659172 812.4C0.858667 812.1 2.85362 810.3 2.65412 810.5C4.15033 809.1 4.25008 810 3.25261 810.1C2.45463 810.1 5.34731 810.7 5.94579 811C7.54175 811.6 8.93821 812.3 10.5342 812.7C25.995 816.6 40.8574 803.8 41.0569 788.3C41.2564 772.2 16.3195 772.2 16.12 788.3C16.4193 787.3 16.4193 787.3 16.2198 788.2C16.0203 789 16.0203 789 16.2198 788.2C16.8183 787.6 16.8183 787.6 16.2198 788.2C15.6213 788.8 15.6213 788.8 16.2198 788.3C15.8208 788.5 15.4218 788.7 15.1226 788.9C15.5215 788.5 15.9205 788.4 16.519 788.4C16.8183 788.5 17.0178 788.5 17.317 788.6C16.519 788.4 15.721 788.2 15.0228 787.8C7.34225 785 0.559425 784.2 -7.12113 787.7C-20.4873 793.8 -25.0757 807.6 -27.0706 821.1C-28.0681 827.8 -25.3749 834.5 -18.3926 836.5C-12.6072 838.1 -4.12871 834.4 -3.13123 827.7Z" fill="#EBCBB2"/>
<path d="M60.5076 1031.1C65.5947 1049.9 68.7867 1068.9 69.7841 1088.4C70.0834 1095.1 75.2703 1100.9 82.2526 1100.9C88.7362 1100.9 95.12 1095.2 94.721 1088.4C93.6238 1066.8 90.2324 1045.4 84.5468 1024.5C80.3574 1009 56.3182 1015.6 60.5076 1031.1Z" fill="#EBCBB2"/>
<path d="M1864.64 136.4C1856.16 148.6 1853.77 165 1858.06 179.2C1860.35 186.8 1864.44 193 1869.43 199.2C1873.22 203.9 1876.41 207.5 1877.71 213.3C1877.91 214.2 1877.91 214.2 1877.81 213.4C1877.91 214.3 1878.01 215.3 1878.01 216.2C1878.11 217.6 1878.11 219 1878.11 220.4C1878.11 223.5 1877.91 226.6 1877.71 229.7C1877.31 236.2 1877.21 242.8 1878.7 249.3C1880.3 255.9 1883.79 262.1 1888.98 266.5C1891.57 268.8 1894.46 270.6 1897.36 272.6C1899.65 274.2 1896.76 272.3 1898.75 273.7C1900.45 274.9 1898.65 273.5 1898.55 271.9C1899.05 278.6 1903.94 284.4 1911.02 284.4C1917.41 284.4 1923.99 278.7 1923.49 271.9C1922.79 263.3 1918.7 257.6 1912.02 252.5C1909.93 251 1907.63 249.7 1905.64 248C1907.13 249.2 1904.54 246.9 1904.34 246.6C1905.54 248 1903.64 245.3 1903.44 244.9C1904.34 246.7 1902.94 243.1 1902.84 242.6C1902.64 241.7 1902.64 241.8 1902.74 242.7C1902.64 242 1902.64 241.4 1902.54 240.7C1902.34 237.7 1902.44 234.7 1902.54 231.7C1902.84 225.8 1903.44 219.9 1902.84 213.9C1902.15 206.6 1900.45 199.8 1896.46 193.6C1892.97 188.1 1888.28 183.5 1884.99 178.4C1879 169 1879.9 158.1 1886.19 148.9C1889.98 143.3 1887.18 135 1881.7 131.8C1875.51 128.3 1868.53 130.9 1864.64 136.4Z" fill="#F6BAD4"/>
<path d="M1843.89 766.1C1825.54 792 1809.88 819.6 1797.01 848.6C1794.32 854.8 1795.22 862 1801.5 865.7C1806.79 868.8 1815.76 867.4 1818.56 861.2C1831.42 832.2 1847.08 804.6 1865.44 778.7C1869.33 773.2 1866.44 764.8 1860.95 761.6C1854.67 758 1847.78 760.6 1843.89 766.1Z" fill="#F6BAD4"/>
<path d="M1880.7 776.8C1861.75 799.9 1847.28 825.8 1837.61 854.1C1835.41 860.5 1840.1 867.8 1846.29 869.5C1853.17 871.4 1859.45 867.2 1861.65 860.8C1869.83 836.8 1882.3 814.1 1898.35 794.5C1902.64 789.3 1903.44 781.9 1898.35 776.8C1893.97 772.4 1884.99 771.5 1880.7 776.8Z" fill="#F6BAD4"/>
<path d="M1884.29 499C1890.67 486.2 1901.55 479.5 1916.01 478.8C1925.19 478.3 1934.46 478.3 1943.24 475.3C1951.12 472.6 1957.9 468.5 1964.39 463.2C1970.27 458.4 1975.26 452.3 1979.15 445.9C1981.24 442.4 1982.74 438.7 1984.54 435C1985.23 433.6 1985.83 431.9 1986.83 430.8C1986.03 431.7 1988.93 430.1 1987.63 430.6C1995.11 427.9 2002.79 428.4 2010.07 424.8C2018.55 420.6 2023.64 413.2 2024.34 403.7C2024.83 397 2018.25 391.2 2011.87 391.2C2004.69 391.2 1999.9 396.9 1999.4 403.7C1999.5 401.7 2001.09 401.6 1999.4 402.3C2001.59 401.3 1996.51 403.5 1997.8 403C1995.81 403.8 1991.22 404.3 1988.33 404.8C1979.55 406.2 1971.77 409.5 1966.38 416.9C1962.19 422.7 1960.2 429.7 1956.21 435.7C1953.22 440 1948.13 445 1943.54 447.8C1937.95 451.2 1932.67 453 1925.59 453.4C1916.71 454 1907.73 453.8 1899.15 456.3C1883.69 460.8 1870.13 472 1862.94 486.5C1859.95 492.5 1861.35 500 1867.43 503.6C1872.72 506.7 1881.3 505.1 1884.29 499Z" fill="#CE5A99"/>
<path d="M1745.94 388.3C1759.91 398.5 1776.46 404.2 1793.62 405.8C1810.68 407.3 1830.73 404.8 1838.71 387.5C1842.5 379.4 1843.59 370.7 1844.79 361.9C1845.99 352.7 1846.69 343.3 1846.39 334C1845.79 316.8 1840.1 298.7 1823.84 290.4C1807.48 282 1788.33 288.2 1780.75 305.2C1776.46 314.7 1776.46 324.7 1778.16 334.8C1778.56 337 1778.96 339.1 1779.46 341.3C1779.66 342.3 1779.95 345.3 1780.55 346L1780.85 345.3C1780.95 345.2 1780.95 345.1 1781.05 344.9C1781.75 344.2 1781.75 344.2 1781.15 344.8C1781.25 344.9 1780.35 345.4 1780.05 345.5C1777.06 346.7 1774.67 346.4 1771.08 346.3C1766.19 346.2 1761.2 346.2 1756.41 347.3C1747.54 349.3 1738.96 356.1 1736.36 365.1C1730.28 385.7 1752.62 395.8 1768.98 397.5C1787.64 399.4 1807.09 392 1817.66 376.1C1828.13 360.4 1826.84 339.9 1815.36 325.3C1811.18 320 1802.1 320.9 1797.71 325.3C1792.52 330.5 1793.52 337.6 1797.71 343C1799.01 344.7 1799.41 347.4 1799.7 349.4C1800.5 354.7 1806.69 358.6 1811.77 358.6C1817.26 358.6 1822.25 354.7 1823.84 349.4C1827.83 335.6 1825.74 320.2 1817.66 308.2C1812.37 300.4 1801.3 299.9 1796.11 308.2C1787.83 321.4 1790.23 339.4 1801.4 350.1C1813.07 361.2 1830.73 343.5 1819.06 332.4C1816.76 330.3 1816.26 329 1815.96 326.8C1816.06 327.7 1815.96 325.4 1815.96 325.1C1815.96 323 1815.66 326.5 1815.96 324.5C1816.36 322.2 1816.06 323.1 1817.56 320.8C1810.38 320.8 1803.2 320.8 1796.01 320.8C1800.7 327.8 1801.9 334.9 1799.7 342.7C1807.68 342.7 1815.76 342.7 1823.74 342.7C1822.65 336 1819.45 330.5 1815.36 325.2C1809.48 331.1 1803.59 337 1797.71 342.9C1796.61 341.5 1798.81 345 1798.71 344.9C1797.81 343.1 1799.41 346.9 1799.41 346.9C1800.2 349.7 1800 348.7 1800 351.6C1800 355.7 1799.01 359.3 1796.11 363.5C1791.72 369.9 1782.05 373 1773.47 372.8C1769.38 372.7 1764.09 371.7 1761.4 370.3C1760.9 370 1759.61 369.8 1759.71 369.1C1759.71 369.3 1760.4 370 1760.3 370.3C1760.3 370.8 1760.2 372 1760.3 372.4C1760.2 372.7 1760.01 372.9 1759.71 373C1760.3 372.6 1760.9 372.2 1761.5 371.9C1762.3 371.5 1764.69 371.3 1766.79 371.3C1769.68 371.3 1772.67 371.5 1775.57 371.4C1782.45 371.2 1789.23 369.7 1795.02 365.7C1801 361.5 1805.19 355.2 1805.69 347.7C1806.09 340.9 1803.3 334.4 1802.4 327.7C1801.7 322.5 1802 317.5 1804.39 313.9C1805.49 312.3 1805.39 312.8 1806.79 311.6C1805.59 312.6 1808.98 311 1807.09 311.3C1807.98 311.2 1808.88 311.2 1809.78 311.3C1808.68 311.2 1808.98 311.3 1810.48 311.6C1813.17 312.4 1815.86 314.5 1817.36 316.8C1820.35 321.4 1821.25 327 1821.55 332.2C1822.25 344.7 1821.25 358.1 1818.46 370.3C1817.66 373.7 1817.26 375.5 1815.76 377.8C1815.66 377.9 1814.37 379.6 1815.27 378.5C1814.07 379.9 1815.17 379.1 1812.77 379.9C1807.19 381.7 1800.4 381.3 1794.62 380.8C1781.75 379.8 1769.28 374.4 1758.71 366.7C1753.22 362.7 1744.84 365.8 1741.65 371.2C1737.76 377.6 1740.45 384.3 1745.94 388.3Z" fill="#FED152"/>
<path d="M1892.17 561.5C1871.82 560.5 1862.25 587.3 1864.64 604C1866.14 614.5 1873.92 623.5 1884.69 625C1890.67 625.8 1897.06 624.3 1900.95 619.5C1904.74 614.9 1905.84 608.2 1903.84 602.6C1902.15 597.7 1897.46 593 1891.77 593.4C1874.12 594.8 1863.14 613.1 1860.45 629.3C1858.86 638.7 1860.65 648.6 1867.63 655.4C1873.82 661.5 1883.09 664.7 1891.47 661.7C1887.38 654.7 1883.39 647.8 1879.3 640.8C1867.93 650.8 1861.85 668.5 1869.83 682.4C1877.11 695 1894.07 700.9 1906.73 693C1920.4 684.6 1907.83 662.9 1894.17 671.4C1892.87 672.1 1892.77 672.2 1893.97 671.7C1895.36 671.7 1895.36 671.7 1893.87 671.7C1896.46 672.1 1893.17 671.5 1892.57 671.3C1893.67 671.8 1893.57 671.7 1892.27 671C1893.17 671.8 1893.07 671.7 1891.97 670.7C1890.97 669.6 1890.87 669.5 1891.67 670.4C1891.07 669.2 1890.87 669 1891.27 669.7C1891.27 670.2 1891.17 668.2 1891.17 667.6C1891.07 669.4 1891.97 664.6 1891.67 665.3C1892.67 662.6 1894.56 660.7 1896.96 658.5C1906.14 650.4 1896.46 633.4 1884.79 637.6C1882.4 638.5 1884.79 638.1 1885.79 638.2C1884.49 637.5 1884.29 637.3 1885.19 637.7C1885.59 638.5 1885.49 638.3 1884.69 637C1884.89 638.5 1884.59 636.2 1884.59 636.1C1884.59 634.2 1884.99 632.6 1885.59 630.8C1886.58 627.6 1888.18 624.6 1889.88 621.7C1890.97 619.9 1891.27 619.7 1892.27 618.6C1891.47 619 1891.67 618.9 1892.97 618.1C1892.57 618.3 1892.17 618.4 1891.77 618.4C1887.78 615.3 1883.79 612.3 1879.7 609.2C1879.9 608 1880.1 606.8 1880.3 605.6C1881.8 604.1 1883.29 602.6 1884.79 601.1C1888.08 599.7 1887.18 600.5 1889.48 600.9C1888.28 600.7 1888.98 599.2 1889.18 600.5C1888.68 598.3 1889.48 595.4 1890.08 593C1890.97 589.6 1891.07 589 1892.47 586.7C1892.77 586.2 1892.97 585.2 1893.57 585.3C1893.77 585.3 1888.68 586.1 1892.07 586.3C1898.75 586.6 1904.54 580.3 1904.54 573.8C1904.64 566.9 1898.95 561.8 1892.17 561.5Z" fill="#70C9EB"/>
<path d="M1874.91 967.5C1882.5 971.5 1890.08 975.4 1897.56 979.4C1903.14 982.4 1909.63 985.1 1913.22 989.6C1912.22 988.3 1914.31 991.5 1914.31 991.5C1913.92 990.8 1913.92 990.8 1914.21 991.6C1914.41 992.4 1914.41 992.5 1914.21 991.6C1914.81 990.4 1913.82 992.4 1913.92 992.4C1913.92 992.5 1912.62 993.9 1913.22 993.4C1911.22 994.9 1910.82 995.1 1908.23 995.4C1904.84 995.8 1901.35 994.8 1898.16 993.8C1884.39 989.2 1872.72 979.7 1858.36 976.3C1856.16 975.8 1853.97 975.5 1851.77 975.2C1850.78 975.1 1847.88 974.9 1847.88 974.5C1849.28 975 1850.38 975.8 1851.07 977C1851.37 977.6 1851.27 977 1850.58 975.3C1850.38 973.6 1849.48 971.8 1848.98 970.1C1846.59 961.9 1844.69 953.6 1843.39 945.2C1838.31 950.3 1833.12 955.5 1828.03 960.6C1841.5 965 1853.77 971.7 1865.04 980.2C1869.23 973 1873.42 965.8 1877.61 958.6C1873.52 956.8 1869.53 954.6 1866.24 951.6C1864.74 950.2 1863.04 948.5 1862.15 947.2C1861.95 946.9 1860.75 944.9 1861.25 945.4C1861.65 945.9 1860.85 945.6 1861.15 944.6C1860.25 947.8 1860.05 947.8 1857.36 949C1856.96 948.9 1856.66 948.9 1856.26 948.8C1857.46 949.2 1857.76 949.2 1857.06 948.9C1855.86 948.3 1858.86 950 1858.76 949.9C1858.06 949.5 1858.86 949.8 1859.25 950.8C1860.15 953.2 1860.75 955.7 1861.25 958.2C1863.34 969.4 1865.94 979.1 1873.52 987.9C1880.2 995.7 1890.18 1001.3 1900.25 1002.9C1906.43 1003.9 1912.52 1001.9 1914.91 995.7C1917.31 989.7 1915.11 983.7 1909.83 980.1C1899.05 972.8 1889.98 963 1883.49 951.7C1875.71 938.2 1872.92 922.2 1859.15 913C1844.89 903.5 1825.84 908.6 1819.26 924.6C1813.27 939.1 1817.96 955.9 1820.15 970.7C1821.15 977.4 1829.53 981.1 1835.51 979.4C1842.7 977.4 1845.19 970.7 1844.19 964C1843.59 960.2 1843.1 956.4 1842.5 952.5C1842 949.1 1841.7 947.5 1841.6 945.5C1841.4 943 1841.4 940.6 1841.4 938.1C1841.4 934.9 1840.8 939.2 1841.6 936.2C1841.6 936.1 1842.8 932.4 1841.9 934.5C1842 934.2 1843.59 931.6 1842.8 932.8C1842.3 933.6 1844.49 931.7 1842.6 933C1841.9 933.5 1844.69 932.8 1843 932.9C1841.4 933 1844.49 933.2 1845.09 933.4C1844.09 933 1847.18 934.8 1847.18 934.8C1846.09 933.9 1849.08 937 1848.88 936.7C1850.28 938.5 1851.37 941 1852.37 943.1C1857.46 954.1 1861.65 964.8 1869.03 974.6C1877.01 985.2 1886.39 994.1 1897.36 1001.6C1900.55 994 1903.74 986.4 1906.93 978.8C1896.36 977.1 1889.38 970.9 1886.98 960.8C1885.29 953.6 1884.79 946.4 1881.5 939.6C1878.51 933.3 1873.12 928.6 1866.64 925.9C1851.67 919.8 1834.62 930.1 1836.41 947.2C1838.01 962.5 1851.77 974.1 1864.94 980C1879.7 986.6 1890.38 968.1 1877.51 958.4C1864.54 948.6 1849.98 941.3 1834.52 936.3C1824.64 933.1 1817.76 942.9 1819.16 951.7C1820.45 959.5 1822.05 967.2 1824.24 974.9C1826.74 983.8 1829.23 993.4 1838.41 997.4C1845.19 1000.4 1851.57 999.7 1858.76 1002.5C1865.24 1005.1 1871.32 1008.8 1877.61 1011.9C1891.97 1019 1910.32 1025 1925.19 1015.2C1940.15 1005.4 1943.34 986.6 1931.87 972.7C1926.98 966.9 1920.3 962.8 1913.62 959.3C1904.94 954.7 1896.26 950.2 1887.58 945.6C1881.6 942.5 1874.02 944.1 1870.53 950.1C1867.13 956.1 1868.93 964.4 1874.91 967.5Z" fill="#ED6E49"/>
<path d="M1843 984.3C1851.67 990.9 1861.15 995.7 1871.22 999.7C1877.51 1002.1 1884.89 997 1886.58 991C1888.48 983.9 1884.19 978.1 1877.91 975.6C1869.93 972.5 1862.45 967.9 1855.56 962.8C1850.18 958.7 1841.6 961.9 1838.51 967.3C1834.72 973.6 1837.61 980.3 1843 984.3Z" fill="#ED6E49"/>
<path d="M1887.78 50.7997C1911.72 52.4997 1935.56 51.1997 1959.3 47.3997C1965.39 46.3997 1969.08 39.1997 1968.28 33.6997C1967.28 27.1997 1962.39 23.4997 1956.01 22.8997C1934.26 20.6997 1911.52 19.4997 1891.87 30.5997C1874.62 40.3997 1856.36 65.9997 1872.12 84.6997C1887.78 103.3 1918.7 94.3997 1925.79 72.3997C1928.98 62.5997 1927.48 48.9997 1919.7 41.5997C1909.13 31.5997 1895.46 38.8997 1887.38 48.0997C1878.31 58.4997 1877.41 75.2997 1890.97 82.4997C1898.45 86.4997 1907.23 84.1997 1912.52 77.7997C1914.61 75.2997 1915.81 72.5997 1916.81 69.4997C1917.11 68.6997 1917.51 67.7997 1917.61 66.8997C1917.81 66.0997 1917.91 65.9997 1917.61 66.6997C1916.91 67.5997 1916.11 68.2997 1915.01 68.7997C1912.82 68.7997 1910.62 68.7997 1908.43 68.7997C1908.83 68.8997 1909.23 68.8997 1909.63 68.9997C1916.21 70.1997 1923.09 67.1997 1924.99 60.2997C1926.68 54.2997 1922.99 46.0997 1916.31 44.8997C1904.04 42.7997 1896.56 50.4997 1893.17 61.4997C1892.97 62.1997 1892.77 62.7997 1892.57 63.4997C1893.37 59.3997 1897.26 58.7997 1904.14 61.5997C1904.64 62.3997 1905.04 65.6997 1905.14 65.6997C1904.94 65.5997 1908.03 62.9997 1908.33 62.4997C1910.03 59.9997 1909.73 62.9997 1906.63 61.7997C1904.84 60.6997 1902.94 59.6997 1901.15 58.5997C1902.15 59.4997 1902.34 59.5997 1901.75 58.9997C1901.15 58.2997 1901.35 58.5997 1902.15 59.9997C1901.85 58.7997 1902.44 61.9997 1902.35 60.8997C1902.54 62.9997 1902.54 63.2997 1901.75 65.8997C1902.15 64.6997 1900.85 67.3997 1901.35 66.6997C1901.35 66.7997 1899.85 68.2997 1899.45 68.6997C1900.35 67.8997 1897.66 69.4997 1898.55 69.0997C1898.75 68.9997 1896.46 69.7997 1895.96 69.8997C1897.16 69.6997 1893.67 69.8997 1893.57 69.8997C1895.06 69.9997 1892.07 69.2997 1892.77 69.6997C1893.67 70.0997 1890.87 68.7997 1891.77 69.2997C1888.88 67.4997 1890.97 68.1997 1891.07 68.5997C1890.57 66.7997 1893.37 62.1997 1894.86 60.0997C1899.95 53.3997 1908.33 49.4997 1917.21 47.5997C1929.78 44.8997 1943.24 46.5997 1956.01 47.8997C1954.91 39.6997 1953.81 31.4997 1952.72 23.2997C1931.27 26.6997 1909.43 27.2997 1887.78 25.7997C1881.1 25.2997 1875.31 31.8997 1875.31 38.2997C1875.31 45.3997 1881.1 50.2997 1887.78 50.7997Z" fill="#4CB484"/>
<path d="M1745.54 567.3C1761.6 567.3 1761.6 542.3 1745.54 542.3C1729.48 542.3 1729.48 567.3 1745.54 567.3Z" fill="#F6BAD4"/>
<path d="M1773.57 621.3C1789.63 621.3 1789.63 596.3 1773.57 596.3C1757.51 596.3 1757.51 621.3 1773.57 621.3Z" fill="#F6BAD4"/>
<path d="M1745.54 642.9C1761.6 642.9 1761.6 617.9 1745.54 617.9C1729.48 617.9 1729.48 642.9 1745.54 642.9Z" fill="#F6BAD4"/>
<path d="M1808.08 100.8C1824.14 100.8 1824.14 75.7998 1808.08 75.7998C1792.02 75.7998 1792.02 100.8 1808.08 100.8Z" fill="#ED6E49"/>
<path d="M1801.6 144C1817.66 144 1817.66 119 1801.6 119C1785.54 119 1785.54 144 1801.6 144Z" fill="#ED6E49"/>
<path d="M1764.99 79.1997C1781.05 79.1997 1781.05 54.1997 1764.99 54.1997C1748.93 54.1997 1748.93 79.1997 1764.99 79.1997Z" fill="#ED6E49"/>
<path d="M1762.8 137.5C1778.86 137.5 1778.86 112.5 1762.8 112.5C1746.74 112.5 1746.74 137.5 1762.8 137.5Z" fill="#ED6E49"/>
<path d="M1726.09 827.7C1726.79 822.9 1727.49 815.7 1729.88 812.4C1730.08 812.1 1732.08 810.3 1731.88 810.5C1733.37 809.1 1733.47 810 1732.47 810.1C1731.68 810.1 1734.57 810.7 1735.17 811C1736.76 811.6 1738.16 812.3 1739.76 812.7C1755.22 816.6 1770.08 803.8 1770.28 788.3C1770.48 772.2 1745.54 772.2 1745.34 788.3C1745.64 787.3 1745.64 787.3 1745.44 788.2C1745.24 789 1745.24 789 1745.44 788.2C1746.04 787.6 1746.04 787.6 1745.44 788.2C1744.84 788.8 1744.84 788.8 1745.44 788.3C1745.04 788.5 1744.64 788.7 1744.34 788.9C1744.74 788.5 1745.14 788.4 1745.74 788.4C1746.04 788.5 1746.24 788.5 1746.54 788.6C1745.74 788.4 1744.94 788.2 1744.24 787.8C1736.56 785 1729.78 784.2 1722.1 787.7C1708.73 793.8 1704.15 807.6 1702.15 821.1C1701.15 827.8 1703.85 834.5 1710.83 836.5C1716.61 838.1 1725.09 834.4 1726.09 827.7Z" fill="#EBCBB2"/>
<path d="M1789.83 1031.1C1794.92 1049.9 1798.11 1068.9 1799.11 1088.4C1799.41 1095.1 1804.59 1100.9 1811.57 1100.9C1818.06 1100.9 1824.44 1095.2 1824.04 1088.4C1822.95 1066.8 1819.55 1045.4 1813.87 1024.5C1809.58 1009 1785.54 1015.6 1789.83 1031.1Z" fill="#EBCBB2"/>
<path d="M1047.11 933.4C1040.93 924.5 1039.93 913.7 1045.41 904.5C1048.71 899 1053.59 894.4 1057.28 888.7C1061.17 882.5 1062.97 875.7 1063.67 868.4C1064.27 862.5 1063.67 856.6 1063.37 850.6C1063.27 847.8 1063.17 845.1 1063.27 842.3C1063.27 842 1063.87 838.4 1063.47 840.4C1063.57 839.7 1064.57 836.5 1064.37 837.1C1063.67 838.7 1066.26 834.4 1065.36 835.5C1064.47 836.6 1068.46 832.8 1066.56 834.4C1068.56 832.8 1070.85 831.5 1072.94 829.9C1079.63 824.9 1083.82 819.1 1084.42 810.5C1084.91 803.8 1078.33 798 1071.95 798C1064.77 798 1059.98 803.7 1059.48 810.5C1059.48 809.8 1059.58 809.1 1059.88 808.5C1060.58 807.7 1060.68 807.6 1060.08 808.2C1059.68 808.6 1059.18 809 1058.78 809.4C1059.68 808.7 1059.48 808.8 1058.28 809.7C1055.69 811.6 1052.99 813.3 1050.4 815.4C1045.11 819.7 1041.42 825.8 1039.73 832.4C1038.13 838.8 1038.23 845.4 1038.53 851.9C1038.73 855.2 1038.93 858.6 1039.03 861.9C1039.03 863.3 1039.03 864.7 1038.93 866.1C1038.93 867 1038.83 868 1038.73 868.9C1038.83 868.1 1038.83 868.1 1038.63 869C1037.43 874.6 1034.44 878 1030.85 882.5C1025.86 888.7 1021.77 894.7 1019.28 902.3C1014.69 916.6 1017.09 933.5 1025.66 945.9C1029.45 951.4 1036.64 954 1042.72 950.4C1048.11 947.3 1051 939 1047.11 933.4Z" fill="#F6BAD4"/>
<path d="M1549.14 320.9C1540.96 312.6 1530.39 307.4 1522.21 299.3C1519.21 296.3 1516.62 293 1515.92 288.9C1515.52 286.6 1516.62 283.6 1518.12 281.6C1523.4 274.8 1531.28 273.5 1539.96 276.5C1549.54 279.8 1556.92 287.7 1562.51 295.9C1565.7 300.6 1568.49 305.6 1571.28 310.5C1572.38 312.5 1573.28 315 1574.67 316.6C1575.37 317.4 1574.97 320.5 1575.27 316.2C1575.37 314.8 1574.18 317.2 1575.47 316.1C1570.68 320.3 1560.91 320.1 1554.43 318.5C1546.65 316.6 1539.06 311.9 1535.07 305.5C1534.97 305.4 1533.38 302.8 1533.48 302.7C1533.18 302.8 1534.97 303.5 1533.38 303.8C1533.28 304.1 1533.08 304.4 1532.98 304.6C1533.68 303.5 1533.78 303.3 1533.38 304C1533.48 304.7 1530.79 305.4 1533.48 304.1C1536.97 302.4 1532.28 304.3 1534.48 303.7C1536.57 303.1 1531.68 303.7 1535.47 303.5C1538.77 303.3 1534.48 303 1536.57 303.7C1537.47 304 1538.47 304.4 1539.76 305.2C1541.76 306.5 1543.65 308.3 1545.45 310.2C1546.15 310.9 1546.84 311.7 1547.54 312.5C1548.24 313.3 1548.94 314 1549.64 314.8C1549.54 314.6 1549.44 314.5 1549.44 314.2C1546.65 313.3 1552.43 305.4 1555.82 304.2C1554.33 304.1 1554.33 304.2 1555.72 304.3C1555.32 304.2 1555.02 304.1 1554.63 304C1553.13 303.2 1550.54 302.2 1548.44 301C1543.55 298.1 1539.86 295 1536.07 290.5C1534.68 288.9 1533.28 286.8 1531.88 284.5C1531.38 283.6 1530.89 282.8 1530.39 281.9C1529.89 281 1529.49 280.1 1529.09 279.2C1529.29 279.6 1529.39 279.9 1529.59 280.2C1528.99 282.3 1528.49 284.4 1527.89 286.5C1527.69 286.8 1527.59 287.1 1527.39 287.3C1525.6 288.4 1523.7 289.4 1521.91 290.5C1523.11 290.1 1523.4 289.9 1522.61 290.1C1521.81 290.2 1522.11 290.3 1523.4 290.3C1522.51 290 1525.8 290.9 1525.9 291C1528.39 291.7 1529.89 292.3 1531.88 293.3C1536.07 295.5 1539.66 298.5 1542.26 302.1C1543.45 303.8 1544.35 306.1 1544.95 307.2C1545.95 308.9 1544.45 308.2 1545.55 306.3C1547.04 303.8 1547.44 305.1 1549.04 304.4C1546.84 305.4 1548.34 303.6 1549.24 304.7C1550.54 306.3 1548.64 303.4 1548.94 304.3C1549.44 305.6 1548.24 301.4 1548.24 301.7C1548.44 303.3 1548.44 298.7 1548.44 299C1548.84 292.3 1542.46 286.5 1535.97 286.5C1528.89 286.5 1523.9 292.2 1523.5 299C1522.81 311.7 1529.19 324.7 1541.96 328.5C1555.52 332.5 1569.49 322.7 1569.89 308.4C1570.39 285.1 1543.65 265.5 1522.11 265.1C1515.72 265 1509.44 268.1 1506.35 273.7C1502.36 280.8 1505.75 288.5 1509.24 294.9C1514.53 304.5 1522.11 312.6 1530.89 318.9C1539.36 325 1550.54 330.9 1561.31 328.2C1568.29 326.4 1573.58 320.2 1573.98 313C1574.38 306 1570.68 300.7 1566.2 295.7C1558.42 287.1 1548.74 278.8 1536.57 278.3C1525.2 277.8 1513.13 284.5 1509.54 295.7C1502.46 317.9 1529.19 337.5 1547.64 342.2C1567.19 347.1 1604.5 340.8 1599.31 312.8C1598.21 307 1595.02 301.8 1592.13 296.7C1589.24 291.5 1586.25 286.3 1582.85 281.4C1575.87 271.4 1567.59 262.3 1556.82 256.4C1545.35 250.2 1531.08 247.1 1518.42 251.5C1506.35 255.7 1496.37 264.9 1492.38 277.1C1487.99 290.4 1493.48 304 1502.26 314.1C1510.64 323.7 1522.51 329.1 1531.38 338.1C1542.76 350.1 1560.41 332.4 1549.14 320.9Z" fill="#F6BAD4"/>
<path d="M1523.7 928C1547.74 920.9 1567.49 901.4 1574.18 877C1581.06 851.6 1572.88 823.3 1554.03 805.2C1542.46 794 1524.8 811.7 1536.37 822.9C1549.14 835.3 1554.63 853.7 1550.04 870.4C1545.75 886.3 1532.68 899.3 1517.02 904C1501.76 908.4 1508.24 932.6 1523.7 928Z" fill="#F6BAD4"/>
<path d="M1259.37 488.8C1259.37 483 1259.37 477.3 1259.37 471.5C1259.37 465 1253.69 458.7 1246.9 459C1240.12 459.3 1234.44 464.5 1234.44 471.5C1234.44 477.3 1234.44 483 1234.44 488.8C1234.44 495.3 1240.12 501.6 1246.9 501.3C1253.69 501 1259.37 495.8 1259.37 488.8Z" fill="#F6BAD4"/>
<path d="M1026.36 303.7C1008.01 277.8 992.349 250.2 979.481 221.2C976.788 215 967.811 213.6 962.424 216.7C956.041 220.4 955.243 227.6 957.936 233.8C970.803 262.8 986.464 290.4 1004.82 316.3C1008.71 321.8 1015.69 324.4 1021.87 320.8C1027.26 317.7 1030.25 309.3 1026.36 303.7Z" fill="#F6BAD4"/>
<path d="M1059.28 288C1043.22 268.4 1030.75 245.7 1022.57 221.7C1020.38 215.3 1013.99 211.1 1007.21 213C1001.03 214.7 996.338 222 998.533 228.4C1008.21 256.7 1022.67 282.6 1041.62 305.7C1045.91 310.9 1054.79 310.1 1059.28 305.7C1064.47 300.5 1063.57 293.2 1059.28 288Z" fill="#F6BAD4"/>
<path d="M1023.67 596.1C1030.85 610.6 1044.42 621.7 1059.88 626.3C1068.46 628.8 1077.53 628.6 1086.31 629.2C1093.39 629.7 1098.68 631.4 1104.27 634.8C1108.85 637.6 1114.04 642.5 1116.93 646.9C1120.92 652.8 1122.92 659.9 1127.11 665.7C1132.49 673 1140.27 676.4 1149.05 677.8C1152.34 678.3 1155.73 678.6 1158.83 679.7C1156.63 678.9 1162.52 681.3 1160.22 680.3C1162.02 681 1160.42 680.9 1160.22 678.9C1160.72 685.6 1165.61 691.4 1172.69 691.4C1179.08 691.4 1185.66 685.7 1185.16 678.9C1184.46 669.5 1179.28 662 1170.9 657.8C1163.61 654.2 1155.93 654.7 1148.45 652C1149.75 652.5 1146.96 650.9 1147.66 651.8C1146.66 650.7 1145.96 648.9 1145.36 647.6C1143.57 643.9 1142.17 640.2 1139.97 636.7C1135.98 630.2 1131 624.2 1125.21 619.4C1118.83 614.1 1111.95 610.1 1104.07 607.3C1095.29 604.3 1086.01 604.2 1076.83 603.8C1062.37 603 1051.5 596.3 1045.11 583.6C1042.12 577.6 1033.54 575.9 1028.06 579.1C1021.97 582.6 1020.68 590 1023.67 596.1Z" fill="#CE5A99"/>
<path d="M1521.11 517C1529.79 500.3 1538.37 483.7 1547.04 467C1539.86 467 1532.68 467 1525.5 467C1542.76 490.7 1557.62 516.1 1569.89 542.8C1572.68 548.9 1581.56 550.5 1586.94 547.3C1593.23 543.6 1594.22 536.4 1591.43 530.2C1579.26 503.5 1564.4 478.1 1547.04 454.4C1541.86 447.4 1530.19 445.3 1525.5 454.4C1516.82 471.1 1508.24 487.7 1499.56 504.4C1496.47 510.4 1498.07 518 1504.05 521.5C1509.64 524.7 1518.02 523 1521.11 517Z" fill="#CE5A99"/>
<path d="M1305.46 849.2C1308.85 852.7 1312.34 856.2 1315.73 859.7C1319.42 863.5 1323.01 867.9 1327.5 870.8C1332.59 874.1 1339.17 874.2 1344.46 871.2C1349.05 868.6 1351.84 864 1354.23 859.5C1363.01 843.1 1370.19 824.7 1373.08 806.2C1377.37 778.7 1338.47 784.5 1322.01 787C1312.84 788.4 1303.86 790.7 1295.18 794C1285.11 797.8 1273.64 802.3 1274.23 815.1C1274.83 827.1 1288.3 833.9 1296.98 840C1306.15 846.4 1315.43 852.6 1324.91 858.6C1332.59 863.5 1344.26 857.2 1343.66 847.8C1342.76 833.4 1336.78 819.9 1325.9 810.3C1324.11 817.3 1322.21 824.2 1320.42 831.2C1323.81 830.4 1327.4 831.4 1330.19 834.2C1334.58 838.5 1341.66 839.1 1346.55 835.2C1351.74 831.1 1352.44 824.9 1349.74 819.1C1350.24 820.1 1350.04 820 1349.44 820.7C1353.63 815.4 1354.63 808.2 1349.44 803C1345.16 798.7 1335.98 797.7 1331.79 803C1324.81 811.9 1323.51 821.3 1328.2 831.7C1334.68 826.7 1341.27 821.6 1347.75 816.6C1338.57 807.6 1326.1 804.4 1313.64 807.2C1304.86 809.2 1301.17 822 1308.15 828.1C1314.23 833.4 1318.12 840.4 1318.62 847.9C1324.91 844.3 1331.09 840.7 1337.38 837.1C1329 831.8 1320.72 826.3 1312.54 820.7C1308.45 817.9 1304.36 815 1300.37 812.1C1299.97 811.8 1299.27 811.2 1298.77 811C1298.37 810.7 1298.07 810.3 1297.68 810C1297.08 813.6 1296.58 817.1 1295.98 820.7C1297.08 820.8 1300.67 818.7 1301.77 818.3C1310.44 815 1319.52 812.6 1328.7 811.3C1333.19 810.7 1337.67 810.4 1342.16 810.3C1344.56 810.2 1346.95 810.3 1349.34 810.3C1350.54 810.3 1351.74 810.4 1352.94 810.5C1353.53 810.5 1354.13 810.6 1354.73 810.6C1357.03 810.9 1356.03 810.3 1351.74 809C1350.64 807.2 1349.64 805.3 1348.55 803.5C1348.95 801 1348.95 800.6 1348.65 802.2C1348.45 803.1 1348.25 804 1348.05 804.8C1347.65 806.5 1347.25 808.3 1346.85 810C1346.05 813.2 1345.16 816.3 1344.16 819.5C1342.26 825.6 1340.07 831.6 1337.47 837.4C1336.08 840.4 1334.68 843.3 1333.09 846.2C1332.39 847.4 1331.39 848.8 1330.99 850.1C1328.2 854 1331.49 853.9 1340.97 849.8C1340.47 849.3 1340.07 848.9 1339.57 848.4C1334.78 842.4 1328.5 837.1 1323.11 831.6C1311.74 820 1294.08 837.7 1305.46 849.2Z" fill="#435BA2"/>
<path d="M1288.8 308.4C1291.39 300.5 1289.1 293.1 1286.5 285.7C1285.91 283.9 1285.21 282.1 1284.91 280.2C1285.21 282.1 1285.21 277.8 1285.11 280C1284.61 280.9 1284.71 280.7 1285.51 279.3C1284.91 280 1285.11 279.8 1286.11 278.7C1284.91 279.7 1288.1 277.5 1288.1 277.5C1289.2 277 1290.59 276.9 1293.09 277.4C1296.38 278 1299.37 279.9 1302.06 281.8C1307.25 285.5 1311.44 290.2 1314.43 295.6C1317.03 300.3 1317.63 305.7 1316.23 309.9C1315.73 311.4 1314.33 313.7 1313.34 314.8C1311.94 316.3 1311.34 316.8 1308.65 317.4C1310.24 317 1306.75 317.4 1307.75 317.5C1305.95 317.3 1304.76 316.9 1303.36 316.2C1300.97 315 1298.87 313.2 1297.28 311.1C1292.79 305.4 1290.89 297.8 1289.1 290.9C1284.91 275.4 1260.87 282 1265.06 297.5C1269.95 315.7 1278.32 334 1297.38 340.5C1315.83 346.8 1333.58 335 1339.77 317.6C1345.85 300.7 1338.27 282.7 1326.7 270.3C1314.03 256.6 1294.28 246.6 1276.13 255.4C1266.85 259.9 1260.27 269.3 1260.07 279.8C1259.97 284.5 1261.37 289.1 1262.96 293.5C1263.56 295.3 1264.16 297.1 1264.76 298.9C1265.36 300.7 1265.26 299.8 1264.76 301.5C1262.66 307.9 1267.25 315.2 1273.44 316.9C1280.32 319 1286.7 314.8 1288.8 308.4Z" fill="#435BA2"/>
<path d="M1677.41 898.3C1680.21 889.7 1680.41 881 1678.91 872.1C1677.91 865.6 1669.53 861.4 1663.55 863.4C1656.57 865.7 1653.67 871.8 1654.87 878.8C1654.67 877.3 1654.97 881.1 1654.97 881.1C1654.97 882.5 1654.97 883.9 1654.87 885.4C1654.87 885.9 1654.77 886.3 1654.77 886.8C1654.87 885.8 1654.77 886.1 1654.47 887.7C1654.07 889.1 1653.77 890.4 1653.28 891.8C1651.28 898 1655.67 905.7 1661.95 907.2C1668.94 908.6 1675.22 905 1677.41 898.3Z" fill="#435BA2"/>
<path d="M919.433 715.7C929.208 708.6 940.181 703.6 952.15 701.9C956.838 701.2 962.524 701.2 967.511 701.5C969.905 701.7 972.997 701.8 975.092 702.9C975.491 703.1 976.189 703.8 977.187 705.6C978.883 708.7 979.98 715.2 980.678 720C981.675 726.9 982.174 733.9 982.374 740.9C982.473 746.1 982.573 751.7 981.576 756.5C980.977 759.2 980.279 761.8 978.982 764.1C978.484 765 977.985 765.9 977.386 766.7C978.484 765.3 974.494 769.4 975.89 768.3C974.793 769.2 973.496 770 972.199 770.5C972.798 770.3 973.596 770.1 971.302 770.8C970.005 771.2 968.409 771.5 967.212 770.7C968.21 771.4 965.317 768.8 966.015 769.7C964.22 767.2 963.821 766.3 963.222 763.6C960.33 750.2 971.402 737 962.923 723.9C954.843 711.5 940.779 711.4 927.612 711.2C926.515 711.2 925.119 711.2 924.021 711C923.024 710.8 922.126 710.6 923.024 710.9C922.625 710.7 922.226 710.5 921.727 710.2C920.431 709.4 920.131 709.2 920.929 709.6C921.029 709.5 921.328 711.4 921.328 711.4C921.328 712 921.029 712.3 920.929 712.8C920.83 714.1 922.027 712.4 921.129 712.8C920.929 712.9 924.919 711 923.024 711.7C924.321 711.2 925.817 710.8 927.213 710.5C936.789 708.2 948.36 709.7 955.542 717.1C956.739 718.3 958.634 720.9 959.731 723.7C959.232 722.4 959.931 724.5 959.931 724.6C960.13 725.1 961.028 729.5 960.828 728C961.028 729.4 960.928 730.7 960.928 732.1C961.028 734.4 961.227 731.7 960.729 734.1C960.13 736.8 959.232 738.7 958.734 739.4C964.619 745.3 970.504 751.2 976.389 757.1C980.479 751.8 983.77 746.4 984.768 739.6C976.788 739.6 968.708 739.6 960.729 739.6C963.023 747.4 961.826 754.4 957.038 761.5C964.22 761.5 971.402 761.5 978.583 761.5C978.085 760.8 977.586 760 977.287 759.2C977.785 760.4 977.287 758.8 977.187 758.4C976.987 757.8 976.987 756.4 976.987 757.8C976.987 757.5 977.087 754.4 976.987 755.5C977.187 753.4 977.785 752 980.08 749.9C991.75 738.8 974.095 721.1 962.424 732.2C951.153 742.9 948.859 760.9 957.138 774.1C962.325 782.4 973.396 781.9 978.683 774.1C986.763 762.1 988.857 746.8 984.867 732.9C983.371 727.6 978.384 723.7 972.798 723.7C967.711 723.7 961.626 727.5 960.729 732.9C960.429 735 960.03 737.6 958.734 739.3C954.544 744.6 953.547 751.8 958.734 757C963.023 761.3 972.2 762.3 976.389 757C987.261 743.3 988.458 726.1 981.077 710.4C973.795 695 957.636 686.7 941.378 684.8C926.016 683 903.474 687.5 897.788 704.1C894.596 713.3 898.287 723.1 905.768 729C913.249 734.9 922.027 736 931.303 735.9C934.994 735.9 937.687 735.5 940.58 736.5C941.777 736.9 941.777 736.9 942.076 737.2C943.771 738.9 941.477 737.1 941.777 736.5C940.58 738.8 939.981 743.5 939.482 746.6C938.585 751.7 937.787 756.9 938.186 762.1C939.383 779.7 952.051 797.6 971.402 795.8C1013.99 792 1010 736.6 1003.82 706.6C1001.92 697.6 998.034 688.8 990.553 683.2C982.174 676.8 970.604 676 960.429 676.2C941.477 676.6 922.426 682.7 907.064 694C901.678 698 898.985 704.9 902.576 711.1C905.468 716.6 913.947 719.7 919.433 715.7Z" fill="#FED152"/>
<path d="M1411.89 636C1426.35 640.5 1440.71 645 1455.18 649.6C1457.37 641.6 1459.57 633.5 1461.76 625.5C1449.49 622.4 1437.22 619.3 1424.95 616.2C1409.39 612.3 1402.71 636.4 1418.37 640.3C1430.64 643.4 1442.91 646.5 1455.18 649.6C1470.74 653.6 1477.12 630.3 1461.76 625.5C1447.3 621 1432.93 616.5 1418.47 611.9C1403.21 607.1 1396.63 631.2 1411.89 636Z" fill="#FED152"/>
<path d="M1150.85 281.6C1165.41 284.5 1179.87 279.4 1190.05 268.5C1200.62 257.2 1204.51 242.3 1206.41 227.3C1208.2 213.3 1209.5 197.9 1204.31 184.4C1198.63 169.7 1187.16 159.8 1171.49 157.7C1164.81 156.8 1159.03 164.1 1159.03 170.2C1159.03 177.7 1164.81 181.8 1171.49 182.7C1169.9 182.5 1173.09 183.5 1172.09 183C1171.69 182.8 1173.49 183.7 1173.79 183.9C1175.58 184.9 1175.78 185.1 1177.28 186.8C1179.47 189.2 1180.97 192.5 1181.77 195.7C1184.26 205.2 1182.97 215.9 1181.67 225.5C1180.57 233.5 1178.58 242.7 1173.79 249.1C1171.59 252 1168.9 254.3 1165.41 256C1162.72 257.3 1159.82 257.9 1157.43 257.4C1150.85 256.1 1143.96 259.3 1142.07 266.1C1140.47 272.4 1144.26 280.3 1150.85 281.6Z" fill="#FED152"/>
<path d="M1426.45 181C1421.66 162.9 1416.77 144.9 1411.99 126.8C1407.8 111.3 1383.76 117.9 1387.95 133.4C1392.73 151.5 1397.62 169.5 1402.41 187.6C1406.5 203.2 1430.64 196.6 1426.45 181Z" fill="#70C9EB"/>
<path d="M1378.27 198.2C1401.31 195.5 1424.26 192.8 1447.3 190.1C1453.98 189.3 1459.77 184.9 1459.77 177.6C1459.77 171.4 1454.08 164.3 1447.3 165.1C1424.26 167.8 1401.31 170.5 1378.27 173.2C1371.59 174 1365.8 178.4 1365.8 185.7C1365.8 191.8 1371.49 199 1378.27 198.2Z" fill="#70C9EB"/>
<path d="M1289 1046C1289.6 1039.3 1292.09 1031.7 1295.68 1025.4C1298.77 1020.1 1303.76 1012.8 1309.45 1010.4C1311.74 1009.4 1312.84 1009.9 1314.93 1011.2C1316.93 1012.5 1319.22 1014.8 1321.22 1017.2C1323.31 1019.7 1325.7 1023.3 1327.5 1026.6C1328.4 1028.2 1329.2 1029.8 1329.49 1031.6C1329.3 1030.5 1329.3 1035.6 1329.59 1033.4C1329.1 1034.9 1329.1 1035.1 1329.49 1034.2C1328.7 1035.5 1328.6 1035.7 1329.2 1034.9C1331.89 1034.3 1327.5 1034.6 1329.89 1034.6C1331.19 1034.9 1330.99 1034.8 1329.49 1034.5C1330.39 1035 1330.19 1034.9 1328.9 1034.2C1327.6 1033.5 1327.4 1033.4 1325.9 1031.9C1321.52 1027.3 1319.82 1018.5 1312.64 1014.7C1302.56 1009.2 1290.89 1015.5 1283.11 1022.2C1276.33 1028 1271.64 1036 1269.25 1044.6C1266.16 1055.9 1278.12 1063 1287.6 1058.7C1296.98 1054.4 1301.37 1045.2 1305.95 1036.6C1306.75 1035.2 1307.85 1033.1 1308.55 1032.2C1308.65 1032 1311.14 1029 1309.74 1030.7C1308.65 1032 1308.85 1029.5 1309.84 1030.7C1309.65 1030.4 1308.35 1030.1 1309.94 1030.9C1309.05 1030.4 1308.55 1030.3 1307.95 1029.5C1307.45 1028.8 1306.85 1023.9 1306.75 1026.8C1306.45 1033.5 1312.74 1039.3 1319.22 1039.3C1326.2 1039.3 1331.39 1033.6 1331.69 1026.8C1332.49 1009.8 1312.04 1001.2 1298.47 1008.6C1291.99 1012.1 1287.4 1018.3 1284.11 1024.7C1282.71 1027.4 1281.52 1030.1 1279.92 1032.7C1278.22 1035.5 1277.93 1035.9 1275.03 1037.2C1281.12 1041.9 1287.2 1046.6 1293.39 1051.3C1294.88 1046 1298.07 1041.5 1303.06 1038.6C1303.06 1038.6 1304.56 1037.5 1304.16 1038C1305.06 1037.1 1308.15 1038.2 1302.46 1036.7C1298.37 1035.6 1298.77 1034.9 1300.27 1037.9C1302.06 1041.7 1304.16 1045 1306.85 1048.2C1318.42 1062 1341.46 1065 1351.04 1047.2C1360.32 1029.9 1348.75 1010.2 1336.78 997.6C1330.99 991.4 1323.51 986.7 1315.03 985.6C1304.76 984.3 1295.98 988.8 1288.5 995.4C1273.84 1008.3 1265.76 1027.1 1263.96 1046.4C1263.36 1053.1 1270.15 1058.9 1276.43 1058.9C1283.81 1058.5 1288.4 1052.7 1289 1046Z" fill="#70C9EB"/>
<path d="M1647.09 738.9C1650.68 730.8 1654.67 722.7 1657.86 714.5C1661.45 705.5 1658.36 695.8 1649.29 691.7C1642.2 688.5 1633.82 687.3 1626.34 685.4C1618.06 683.3 1609.79 681.1 1601.51 679C1585.95 675 1579.36 699.1 1594.92 703.1C1602.9 705.1 1610.78 707.2 1618.76 709.2C1622.55 710.2 1626.34 711.2 1630.23 712.1C1632.13 712.6 1634.02 713.1 1635.92 713.6C1636.92 713.8 1637.81 714.1 1638.81 714.3C1641.51 715.2 1640.61 714.4 1636.12 712.1C1635.52 710 1635.02 707.9 1634.42 705.8C1634.92 704.7 1634.92 705 1634.32 706.5C1633.92 707 1633.63 707.7 1633.43 708.4C1632.63 710.2 1631.83 712 1631.03 713.8C1629.14 718 1627.34 722.1 1625.45 726.3C1622.65 732.5 1623.65 739.7 1629.93 743.4C1635.42 746.5 1644.4 745.1 1647.09 738.9Z" fill="#70C9EB"/>
<path d="M1053.09 496C1049.7 496.2 1054.79 497 1054.59 497C1053.89 497.1 1053.79 496.1 1053.49 495.6C1053.49 495.6 1051.8 492.2 1052.5 493.8C1051.9 492.4 1051.5 490.8 1051.1 489.3C1050.5 486.8 1049.8 484.1 1050.2 481.8C1050 483.2 1049.2 481.6 1050.5 481.4C1048.21 481.8 1049.1 482.6 1045.81 481.2C1044.32 479.7 1042.82 478.2 1041.32 476.7C1041.12 475.5 1040.93 474.3 1040.73 473.1C1044.72 470 1048.71 467 1052.8 463.9C1053.19 463.9 1053.69 464 1053.99 464.2C1052.7 463.4 1052.5 463.3 1053.29 463.7C1052.3 462.5 1052 462.4 1050.9 460.6C1049.2 457.8 1047.61 454.7 1046.61 451.5C1046.01 449.6 1045.61 448.1 1045.61 446.2C1045.61 445.7 1045.91 443.8 1045.71 445.3C1046.51 444 1046.61 443.7 1046.21 444.6C1045.31 445 1045.61 444.9 1046.81 444.1C1045.71 444.2 1043.42 443.9 1045.81 444.7C1057.48 448.9 1067.16 431.9 1057.98 423.8C1055.59 421.7 1053.79 420 1052.6 416.9C1052 415.3 1052.3 413.1 1052.3 412.6C1051.9 413.3 1052.1 413.1 1052.7 411.9C1051.9 412.8 1052 412.7 1053 411.6C1054.09 410.6 1054.19 410.5 1053.29 411.3C1054.49 410.7 1054.69 410.5 1053.99 410.8C1052.3 411.1 1058.38 410 1054.89 410.5C1056.39 410.6 1056.39 410.6 1054.99 410.5C1053.79 409.9 1053.89 410 1055.19 410.8C1068.85 419.3 1081.42 397.7 1067.76 389.2C1055.09 381.3 1038.03 387.2 1030.85 399.8C1022.87 413.7 1028.96 431.4 1040.33 441.4C1044.42 434.4 1048.41 427.5 1052.5 420.5C1044.12 417.5 1034.74 420.6 1028.66 426.8C1021.67 433.8 1019.78 443.5 1021.47 452.9C1024.27 469.1 1035.24 487.3 1052.8 488.8C1058.48 489.3 1063.07 484.5 1064.86 479.6C1069.15 467.6 1059.68 456.2 1047.41 457C1035.94 457.7 1027.26 467.3 1025.76 478.3C1023.37 495 1032.85 521.8 1053.29 520.8C1059.98 520.5 1065.76 515.3 1065.76 508.3C1065.56 502 1059.88 495.7 1053.09 496Z" fill="#70C9EB"/>
<path d="M1703.15 60.4998C1718.61 35.7998 1725.69 5.7998 1722.5 -23.2002C1721.8 -29.9002 1717.31 -35.7002 1710.03 -35.7002C1703.85 -35.7002 1696.87 -30.0002 1697.56 -23.2002C1700.26 1.8998 1694.97 26.4998 1681.6 47.8998C1673.03 61.5998 1694.57 74.1998 1703.15 60.4998Z" fill="#70C9EB"/>
<path d="M1299.07 597.6C1301.86 590.6 1304.66 583.6 1307.55 576.5C1308.55 574.1 1310.04 569.9 1310.74 568.6C1311.04 567.9 1311.34 567.3 1311.74 566.7C1312.54 565.5 1312.14 565.8 1310.64 567.6C1310.74 568.7 1307.75 565.4 1312.14 568C1313.83 569 1318.42 568.9 1320.62 569.3C1324.11 569.8 1327.5 570.4 1330.99 570.9C1338.57 572.1 1346.05 573.2 1353.63 574.4C1360.32 575.4 1367 572.7 1368.99 565.7C1370.59 559.8 1367 551.3 1360.32 550.3C1350.84 548.9 1341.46 547.4 1331.99 546C1323.11 544.6 1312.94 541.5 1304.06 543.7C1293.98 546.3 1289.8 554.7 1286.2 563.6C1282.51 572.8 1278.92 581.9 1275.23 591.1C1272.74 597.4 1277.93 604.8 1283.91 606.5C1290.79 608.3 1296.58 603.9 1299.07 597.6Z" fill="#ED6E49"/>
<path d="M1048.41 136.5C1062.07 129.3 1077.63 123.2 1089.3 112.9C1101.77 101.9 1103.77 82.9997 1091.3 70.9997C1077.93 58.1997 1059.28 60.9997 1043.82 67.7997C1037.14 70.6997 1030.85 74.3997 1024.27 77.5997C1017.68 80.7997 1011.4 81.9997 1004.82 83.0997C993.845 84.9997 989.456 93.1997 986.464 102.9C983.671 111.9 981.576 121.1 980.08 130.4C978.683 139.1 985.466 149 995.441 145.8C1010.9 140.8 1025.46 133.5 1038.43 123.7C1051.3 114 1040.63 95.4997 1025.86 102.1C1012.7 108 998.832 119.7 997.336 134.9C995.64 151.9 1012.5 162.4 1027.56 156.2C1033.94 153.6 1039.33 148.8 1042.42 142.5C1045.71 135.7 1046.21 128.6 1047.91 121.3C1050.2 111.2 1057.28 105 1067.86 103.3C1064.67 95.6997 1061.47 88.0997 1058.28 80.4997C1047.31 87.8997 1037.93 96.7997 1029.95 107.5C1022.57 117.3 1018.48 128 1013.3 139C1012.3 141.1 1011.2 143.6 1009.8 145.4C1008.41 147.2 1007.41 148.1 1005.91 148.8C1006.71 148.4 1002.52 149.4 1003.72 149.4C1005.22 149.3 1004.22 149.5 1003.32 149.1C1005.02 149.8 1003.92 150.1 1003.62 149C1004.12 151 1003.12 148 1002.92 147.6C1003.82 149.6 1002.72 146.3 1002.62 145.9C1002.52 145.5 1002.42 145.1 1002.42 144.6C1002.52 145.5 1002.62 145.6 1002.52 144.7C1002.42 142.2 1002.42 139.8 1002.62 137.3C1002.82 134.1 1003.02 133.8 1003.62 129.7C1004.22 125.9 1004.72 122.1 1005.32 118.2C1006.31 111.5 1003.62 104.8 996.638 102.8C990.753 101.2 982.274 104.8 981.277 111.5C979.182 125.7 974.693 142.1 979.781 156.1C985.965 172.9 1005.32 179.2 1020.28 169.2C1033.84 160.2 1036.64 144.6 1044.22 131.2C1050.8 119.6 1059.98 109.5 1070.95 102.1C1076.04 98.5997 1078.63 92.3997 1076.04 86.4997C1073.34 80.3997 1067.66 78.2997 1061.37 79.2997C1051.5 80.8997 1041.82 86.2997 1035.14 93.6997C1027.16 102.6 1024.57 112.5 1022.37 124C1021.87 126.5 1021.38 129 1020.48 131.4C1020.38 131.8 1019.48 133.2 1019.98 132.2C1020.38 131.3 1018.28 133.4 1019.98 132.3C1019.28 132.7 1018.58 133.2 1017.88 133.5C1019.88 132.7 1016.69 133.1 1017.98 133.3C1020.88 133.7 1020.58 134.3 1022.07 136.4C1022.37 137.8 1022.47 138 1022.37 136.9C1022.37 136 1022.37 136 1022.47 136.7C1021.77 137.5 1022.97 135.5 1022.97 135.6C1024.07 134.1 1025.07 132.7 1026.86 131.1C1030.35 127.9 1034.44 125.5 1038.83 123.6C1034.64 116.4 1030.45 109.2 1026.26 102C1014.99 110.5 1002.72 117.2 989.257 121.6C994.344 126.7 999.531 131.9 1004.62 137C1005.91 128.9 1007.71 120.9 1010 113C1010.6 111.1 1011.7 108.9 1011.9 106.9C1012.1 106.3 1012.3 105.7 1012.5 105.2C1011.8 106.4 1010.8 107.2 1009.31 107.8C1009.31 107.5 1011 107.4 1011.6 107.3C1014.39 106.8 1017.09 106.6 1019.78 106C1034.14 102.6 1045.71 92.9997 1059.58 88.4997C1065.16 86.6997 1070.65 85.7997 1074.64 88.8997C1073.44 87.9997 1075.74 90.6997 1074.94 89.3997C1075.14 89.7997 1076.14 91.7997 1075.64 90.7997C1075.74 90.5997 1075.74 90.3997 1075.84 90.1997C1075.34 91.5997 1075.34 91.8997 1075.84 90.9997C1075.84 91.0997 1073.94 93.8997 1074.74 92.8997C1071.25 97.1997 1065.36 99.7997 1059.88 102.7C1052 106.8 1044.22 110.9 1036.34 115.1C1030.35 118.2 1028.56 126.6 1031.85 132.2C1034.84 138.1 1042.42 139.7 1048.41 136.5Z" fill="#ED6E49"/>
<path d="M1016.49 119.7C1023.37 114.5 1030.75 110 1038.83 106.9C1045.12 104.5 1049.4 98.4998 1047.51 91.4998C1045.81 85.4998 1038.53 80.2998 1032.15 82.7998C1022.07 86.6998 1012.6 91.5998 1003.92 98.1998C998.533 102.3 995.74 109 999.431 115.3C1002.52 120.5 1011 123.8 1016.49 119.7Z" fill="#ED6E49"/>
<path d="M1685.09 1061.4C1692.78 1045.6 1702.75 1031.4 1715.32 1019.2C1720.6 1014.1 1726.89 1009.2 1733.37 1006.4C1739.66 1003.6 1746.14 1002.6 1751.23 1005C1757.31 1007.9 1764.69 1006.7 1768.28 1000.5C1771.48 995.1 1769.88 986.3 1763.8 983.4C1720.51 962.9 1680.01 1014.9 1663.55 1048.8C1660.66 1054.9 1661.85 1062.3 1668.04 1065.9C1673.42 1069.1 1682.1 1067.5 1685.09 1061.4Z" fill="#ED6E49"/>
<path d="M1626.44 402.4C1626.04 411.4 1626.94 420.4 1629.14 429.2C1631.23 437.8 1634.82 446.4 1644.2 448.8C1653.97 451.3 1661.75 444.3 1666.84 436.9C1668.64 434.2 1669.93 431.9 1672.23 429.7C1672.83 429.1 1674.02 428.1 1674.52 427.7C1675.42 427.1 1676.32 426.6 1677.21 426.1C1679.21 425.1 1679.01 425.1 1676.72 426.2C1674.62 425.6 1672.53 425.1 1670.43 424.5C1668.14 420.5 1667.34 419.5 1668.04 421.6C1668.34 422.4 1668.54 423.3 1668.74 424.1C1669.23 426 1669.73 427.8 1670.23 429.7C1671.13 433.1 1672.03 436.6 1673.03 440C1674.92 447.2 1676.92 454.3 1678.81 461.5C1681.9 472.9 1700.36 473.9 1702.85 461.5C1704.84 451.6 1707.44 441.9 1710.83 432.4C1704.75 434.9 1698.66 437.4 1692.48 439.9C1704.25 447.6 1712.82 459.5 1716.91 473C1721.5 488.4 1745.54 481.8 1740.95 466.4C1735.07 446.5 1722.4 429.7 1705.04 418.4C1697.86 413.7 1689.28 418.7 1686.69 425.9C1683.3 435.4 1680.61 445.1 1678.71 455C1686.69 455 1694.77 455 1702.75 455C1699.66 443.5 1696.57 432 1693.47 420.4C1691.88 414.5 1690.38 408.5 1685.39 404.7C1679.01 399.8 1671.33 401 1664.65 404.7C1660.16 407.2 1655.87 410.6 1652.48 414.5C1650.58 416.7 1648.79 419 1647.29 421.4C1646.39 422.8 1644.9 424.2 1644.6 425.3C1642.3 427.1 1643.6 427.5 1648.69 426.5C1650.98 425.5 1652.68 425.7 1654.07 427C1654.67 426.7 1655.57 431.3 1654.17 426.2C1653.47 423.6 1652.78 420.9 1652.28 418.3C1651.28 413.1 1651.18 407.9 1651.38 402.6C1651.68 395.8 1645.49 390.1 1638.91 390.1C1631.93 389.9 1626.74 395.6 1626.44 402.4Z" fill="#ED6E49"/>
<path d="M1391.14 423.7C1404.6 405.5 1417.97 387.4 1431.44 369.2C1435.43 363.8 1432.33 355.2 1426.95 352.1C1420.56 348.4 1413.88 351.1 1409.89 356.6C1396.43 374.8 1383.06 392.9 1369.59 411.1C1365.6 416.5 1368.7 425.1 1374.08 428.2C1380.37 431.9 1387.05 429.1 1391.14 423.7Z" fill="#4CB484"/>
<path d="M1474.33 80.7997C1483.01 98.9997 1492.88 116.7 1503.75 133.7C1509.74 143 1523 140.9 1526.5 130.7C1532.48 113.4 1540.06 96.7997 1549.04 80.7997C1553.33 73.0997 1548.04 61.1997 1538.27 61.9997C1523.2 63.1997 1508.14 61.0997 1494.38 54.7997C1488.29 51.9997 1480.91 53.0997 1477.32 59.2997C1474.23 64.6997 1475.62 73.5997 1481.81 76.3997C1499.56 84.5997 1518.72 88.5997 1538.27 86.9997C1534.68 80.6997 1531.08 74.4997 1527.49 68.1997C1517.42 85.9997 1509.14 104.8 1502.46 124.1C1510.04 123.1 1517.62 122.1 1525.2 121.1C1514.23 104.1 1504.45 86.4997 1495.77 68.1997C1492.88 62.0997 1484.2 60.4997 1478.72 63.6997C1472.63 67.3997 1471.44 74.6997 1474.33 80.7997Z" fill="#4CB484"/>
<path d="M1048.71 1056.7C1070.35 1055.2 1092.2 1055.8 1113.64 1059.2C1114.74 1051 1115.84 1042.8 1116.93 1034.6C1104.66 1035.9 1091.4 1037.7 1079.13 1035.1C1073.74 1034 1069.65 1032.6 1065.36 1030.2C1061.47 1028 1058.38 1025.6 1055.89 1022.3C1054.29 1020.3 1051.6 1015.6 1052.1 1013.8C1052 1014 1051 1014.9 1052.2 1013.7C1052.7 1013.1 1052.8 1013.2 1053.89 1012.7C1053.99 1012.6 1056.09 1012.4 1057.18 1012.6C1058.08 1012.7 1060.28 1013.7 1060.38 1013.8C1061.07 1014.4 1061.87 1015.1 1062.37 1015.8C1061.57 1014.8 1063.07 1017.9 1062.67 1016.5C1063.47 1019 1063.47 1019.2 1063.27 1021.7C1063.27 1022.3 1062.57 1023.2 1062.07 1023.7C1063.87 1022.6 1065.76 1021.6 1067.56 1020.5C1070.65 1019.3 1071.05 1022.3 1069.25 1019.8C1068.95 1019.3 1065.86 1016.7 1066.06 1016.6C1065.96 1016.6 1065.56 1019.9 1065.06 1020.7C1058.18 1023.5 1054.29 1022.9 1053.49 1018.8C1053.69 1019.4 1053.89 1020.1 1054.09 1020.8C1057.48 1031.8 1064.96 1039.6 1077.23 1037.4C1083.92 1036.2 1087.61 1028.1 1085.91 1022C1084.02 1015 1077.23 1012.1 1070.55 1013.3C1070.15 1013.4 1069.75 1013.4 1069.35 1013.5C1071.55 1013.5 1073.74 1013.5 1075.94 1013.5C1078.23 1013.9 1079.33 1018 1078.13 1014.1C1077.33 1011.6 1076.44 1009 1075.14 1006.8C1071.95 1001.3 1065.76 997.6 1059.28 997.8C1045.91 998.3 1038.23 1013.1 1042.52 1024.9C1046.21 1035.1 1058.18 1046.1 1069.45 1045.5C1082.42 1044.9 1088.51 1030.2 1088.11 1018.8C1087.21 995.2 1060.48 979.3 1039.73 991.7C1028.76 998.2 1024.57 1011 1028.36 1023C1031.55 1033.1 1038.13 1041.3 1046.51 1047.7C1066.76 1063 1092.69 1061.9 1116.63 1059.5C1122.82 1058.9 1128.11 1055.2 1128.9 1048.7C1129.6 1043.1 1126.21 1036 1119.93 1035C1096.19 1031.3 1072.35 1029.9 1048.41 1031.6C1041.72 1032.1 1035.94 1037 1035.94 1044.1C1036.24 1050.6 1041.92 1057.2 1048.71 1056.7Z" fill="#4CB484"/>
<path d="M1521.81 1096.8C1517.92 1092 1514.03 1087.2 1510.04 1082.4C1508.14 1080.1 1506.35 1077.8 1504.45 1075.6C1503.45 1074.3 1502.36 1073.1 1501.36 1071.8C1500.76 1071 1500.16 1070.3 1499.46 1069.5C1499.27 1072.8 1499.07 1076.2 1498.87 1079.5C1500.46 1079.1 1503.06 1074.7 1503.85 1073.6C1505.45 1071.3 1506.75 1068.6 1507.54 1065.9C1509.34 1060.5 1509.34 1054.8 1508.44 1049.3C1504.75 1026.2 1482.91 1015.7 1463.06 1009.1C1456.67 1007 1449.39 1011.6 1447.7 1017.8C1445.8 1024.6 1449.99 1031 1456.37 1033.2C1464.15 1035.8 1472.73 1038.6 1478.52 1044.1C1480.91 1046.4 1482.71 1049.1 1483.51 1051.8C1484.2 1054.4 1484.1 1053.8 1484.1 1056C1484.1 1056.2 1483.9 1058.6 1484 1057.7C1484.1 1056.5 1483.11 1059.9 1484 1058.1C1482.51 1061.2 1479.12 1063.5 1477.32 1067.9C1474.53 1074.8 1477.02 1081.1 1481.41 1086.7C1488.79 1096.1 1496.47 1105.3 1504.05 1114.6C1508.34 1119.8 1517.22 1119 1521.71 1114.6C1527 1109.3 1526.1 1102 1521.81 1096.8Z" fill="#4CB484"/>
<path d="M1188.25 867.2C1210.2 888 1237.73 902.6 1267.35 908.6C1273.94 909.9 1280.82 906.7 1282.71 899.9C1284.41 893.7 1280.62 885.9 1274.04 884.5C1248.5 879.4 1224.96 867.5 1205.91 849.6C1194.24 838.5 1176.58 856.2 1188.25 867.2Z" fill="#0F9352"/>
<path d="M1159.92 394.7C1158.13 392.8 1161.52 396.4 1161.02 397C1160.82 396.5 1160.72 396 1160.62 395.5C1160.72 396.1 1160.82 396.7 1160.92 397.3C1160.92 396.9 1160.92 396.5 1160.92 396.1C1161.02 395.1 1160.92 395.6 1160.72 397.5C1161.02 396.5 1161.02 396.5 1160.62 397.5C1160.12 398.5 1160.12 398.5 1160.62 397.6C1162.62 395.7 1158.63 399.6 1160.62 397.7C1159.23 398.7 1158.93 399 1159.73 398.5C1160.52 398.1 1160.22 398.2 1158.73 399C1157.03 399.1 1156.63 399.2 1157.63 399.2C1158.63 399.2 1158.23 399.2 1156.53 399.1C1159.53 399.4 1153.94 398.7 1156.83 399.3C1156.43 399 1156.13 398.7 1155.74 398.5C1156.63 399.5 1156.63 399.3 1155.54 398C1156.23 400.4 1155.04 395.5 1155.64 398.3C1155.44 397.4 1156.13 394 1155.44 395.9C1155.64 395.4 1155.83 394.9 1156.03 394.4C1155.34 395.5 1155.54 395.3 1156.53 393.8C1155.04 395.6 1158.63 392.4 1156.43 393.9C1154.54 395.1 1158.13 393.3 1156.73 393.7C1155.74 393.9 1156.23 393.9 1158.03 393.6C1156.93 393.6 1156.93 393.6 1158.03 393.8C1159.13 394 1159.13 394 1158.13 393.8C1159.82 394.6 1160.02 394.7 1158.93 394C1159.72 400.5 1160.62 407.1 1161.42 413.6C1159.82 415.2 1157.23 415 1155.34 414.8C1161.72 415.7 1169 413.2 1170.7 406.1C1171.99 400.2 1168.9 391.7 1162.02 390.7C1155.04 389.7 1148.95 390.8 1143.87 396C1138.18 401.7 1139.48 411.6 1146.36 415.6C1156.03 421.3 1168.9 418.5 1175.68 409.7C1183.56 399.4 1180.47 385.6 1170.2 378.3C1160.22 371.3 1147.16 374 1140.17 383.7C1133.89 392.4 1135.19 405 1142.47 412.6C1146.96 417.3 1155.64 417.5 1160.12 412.6C1164.61 407.3 1164.81 399.7 1159.92 394.7Z" fill="#8C878D"/>
<path d="M1253.39 90.8998C1269.45 90.8998 1269.45 65.8998 1253.39 65.8998C1237.33 65.8998 1237.33 90.8998 1253.39 90.8998Z" fill="#8C878D"/>
<path d="M1285.71 112.5C1301.77 112.5 1301.77 87.4998 1285.71 87.4998C1269.65 87.4998 1269.65 112.5 1285.71 112.5Z" fill="#8C878D"/>
<path d="M1277.03 62.7998C1293.09 62.7998 1293.09 37.7998 1277.03 37.7998C1261.07 37.7998 1260.97 62.7998 1277.03 62.7998Z" fill="#8C878D"/>
<path d="M1315.83 80.0997C1331.89 80.0997 1331.89 55.0997 1315.83 55.0997C1299.77 55.0997 1299.77 80.0997 1315.83 80.0997Z" fill="#8C878D"/>
<path d="M906.466 540.1C922.525 540.1 922.525 515.1 906.466 515.1C890.407 515.1 890.407 540.1 906.466 540.1Z" fill="#F6BAD4"/>
<path d="M934.495 486.1C950.554 486.1 950.554 461.1 934.495 461.1C918.436 461.1 918.436 486.1 934.495 486.1Z" fill="#F6BAD4"/>
<path d="M906.466 464.5C922.525 464.5 922.525 439.5 906.466 439.5C890.407 439.5 890.407 464.5 906.466 464.5Z" fill="#F6BAD4"/>
<path d="M969.008 1006.7C985.067 1006.7 985.067 981.7 969.008 981.7C952.948 981.7 952.948 1006.7 969.008 1006.7Z" fill="#ED6E49"/>
<path d="M962.524 963.5C978.583 963.5 978.583 938.5 962.524 938.5C946.465 938.5 946.465 963.5 962.524 963.5Z" fill="#ED6E49"/>
<path d="M925.917 1028.3C941.976 1028.3 941.976 1003.3 925.917 1003.3C909.857 1003.3 909.857 1028.3 925.917 1028.3Z" fill="#ED6E49"/>
<path d="M923.722 970C939.782 970 939.782 945 923.722 945C907.663 945 907.663 970 923.722 970Z" fill="#ED6E49"/>
<path d="M1662.75 641.7C1678.81 641.7 1678.81 616.7 1662.75 616.7C1646.69 616.7 1646.69 641.7 1662.75 641.7Z" fill="#435BA2"/>
<path d="M1701.55 665.4C1717.61 665.4 1717.61 640.4 1701.55 640.4C1685.49 640.4 1685.49 665.4 1701.55 665.4Z" fill="#435BA2"/>
<path d="M1718.71 622.2C1734.77 622.2 1734.77 597.2 1718.71 597.2C1702.75 597.2 1702.65 622.2 1718.71 622.2Z" fill="#435BA2"/>
<path d="M1673.52 581.2C1689.58 581.2 1689.58 556.2 1673.52 556.2C1657.46 556.2 1657.46 581.2 1673.52 581.2Z" fill="#435BA2"/>
<path d="M1330.89 730.2C1346.95 730.2 1346.95 705.2 1330.89 705.2C1314.93 705.2 1314.83 730.2 1330.89 730.2Z" fill="#0F9352"/>
<path d="M1365.4 728.1C1381.46 728.1 1381.46 703.1 1365.4 703.1C1349.34 703.1 1349.34 728.1 1365.4 728.1Z" fill="#0F9352"/>
<path d="M1313.73 680.5C1329.79 680.5 1329.79 655.5 1313.73 655.5C1297.68 655.5 1297.68 680.5 1313.73 680.5Z" fill="#0F9352"/>
<path d="M1350.34 684.9C1366.4 684.9 1366.4 659.9 1350.34 659.9C1334.28 659.9 1334.28 684.9 1350.34 684.9Z" fill="#0F9352"/>
<path d="M1713.52 261.4C1712.23 260.7 1711.93 260.5 1712.53 260.8C1712.73 260.9 1712.82 261.1 1712.82 261.3C1711.83 261.1 1712.63 259.6 1712.33 260.6C1711.53 262.7 1712.23 264 1708.64 263.9C1707.54 263.9 1707.04 263.8 1706.14 263.3C1705.84 263.2 1704.35 261 1705.44 262.3C1705.64 263.2 1705.64 263 1705.44 261.8C1705.44 262.2 1705.44 262.6 1705.44 263C1705.64 261.8 1705.64 261.6 1705.44 262.5C1705.14 263.4 1705.24 263.3 1705.64 262.2C1705.64 263.8 1704.55 262.5 1705.54 262.4C1705.44 262.4 1709.23 261.3 1705.94 261.9C1706.24 261.8 1706.54 261.7 1706.84 261.7C1707.94 261.9 1708.04 261.9 1707.14 261.7C1706.74 262 1707.54 261.9 1706.24 261.2C1706.74 261.4 1707.74 263 1706.94 261.8C1706.14 260.5 1707.14 262.3 1707.14 262.8C1707.14 263.8 1706.64 263.5 1706.44 264.2C1706.44 264 1707.94 262.4 1706.74 263.5C1706.94 263.2 1707.94 263.8 1707.14 263.4C1706.04 262.8 1707.14 264.2 1707.04 263.9C1707.24 264.7 1709.53 266.1 1709.93 266.7C1712.73 270.5 1713.52 273.7 1713.52 277.7C1713.52 284.6 1708.14 291.1 1701.95 293.2C1706.64 295.1 1711.33 297 1716.02 298.9C1712.82 294.4 1711.83 290.3 1713.32 285.4C1716.02 276.7 1717.91 267.2 1708.74 261.4C1695.67 253.1 1676.52 265.8 1669.24 276.7C1661.26 288.5 1662.15 306.3 1673.23 316C1685 326.3 1703.45 323.7 1711.93 310.6C1715.52 304.9 1713.12 296.8 1707.44 293.5C1701.45 290 1694.07 292.3 1690.38 298C1690.68 297.5 1691.58 296.2 1691.18 297.3C1690.58 297.7 1690.48 297.7 1691.08 297.4C1691.88 297.1 1691.58 297.1 1690.28 297.5C1691.68 297.9 1690.58 297.6 1689.98 297.4C1691.78 298.2 1689.18 297.4 1690.08 297.4C1691.28 297.4 1688.09 296.4 1689.98 297.4C1689.18 297 1689.28 295.9 1689.48 296.7C1689.88 298.2 1689.18 295.8 1689.08 295.3C1688.79 293.8 1688.69 296.8 1688.99 293.9C1689.18 292.4 1688.99 292.5 1689.38 291.6C1690.18 289.8 1690.58 289.4 1692.18 287.9C1693.27 286.8 1694.77 285.9 1696.77 284.9C1695.87 285.3 1697.76 284.5 1697.86 284.5C1698.56 284.3 1699.26 284 1699.96 283.8C1702.05 283.3 1700.86 283 1696.27 282.8C1694.77 281.3 1693.27 279.8 1691.78 278.3C1691.88 273.5 1691.58 272.1 1690.98 274.3C1690.78 275 1690.48 275.7 1690.18 276.3C1689.58 277.8 1689.18 279.2 1688.79 280.8C1688.09 284.1 1687.69 287.7 1687.89 291.1C1688.39 298.3 1690.38 305.3 1694.57 311.2C1697.66 315.6 1703.15 318.8 1708.64 316.9C1727.09 310.7 1740.45 292.8 1738.26 272.9C1736.07 253.4 1716.52 228.8 1694.97 241.1C1685.69 246.4 1680.01 257.6 1682.9 268.2C1685.59 278.3 1695.27 285.5 1705.54 286.2C1727.29 287.7 1738.46 258.7 1722.7 244.3C1712.43 234.9 1696.96 238.2 1690.08 249.9C1683.1 261.7 1689.78 276.2 1700.76 282.5C1714.92 291.1 1727.49 269.5 1713.52 261.4Z" fill="#CE619B"/>
<path d="M1637.02 192.7C1643.9 178.1 1652.38 164.2 1662.65 151.7C1666.94 146.5 1667.74 139.1 1662.65 134C1658.26 129.6 1649.29 128.8 1645 134C1633.33 148.2 1623.35 163.4 1615.47 180C1612.58 186.1 1613.78 193.5 1619.96 197.1C1625.45 200.4 1634.12 198.9 1637.02 192.7Z" fill="#FDD250"/>
<path d="M1603.7 158.8C1622.25 165.7 1640.81 172.5 1659.26 179.4C1665.54 181.7 1672.93 176.8 1674.62 170.7C1676.52 163.7 1672.23 157.7 1665.94 155.3C1647.39 148.4 1628.84 141.6 1610.38 134.7C1604.1 132.4 1596.72 137.3 1595.02 143.4C1593.03 150.4 1597.32 156.4 1603.7 158.8Z" fill="#FDD250"/>
<path d="M1483.21 823.6C1482.21 798.6 1479.91 773.8 1476.52 749C1475.63 742.3 1467.05 738.7 1461.16 740.3C1453.98 742.3 1451.59 749 1452.48 755.7C1455.58 778.2 1457.37 800.9 1458.27 823.7C1458.57 830.4 1463.85 836.2 1470.74 836.2C1477.32 836.1 1483.51 830.3 1483.21 823.6Z" fill="#EBCBB2"/>
<path d="M1197.33 1000.2C1213.39 1000.2 1213.39 975.2 1197.33 975.2C1181.27 975.2 1181.27 1000.2 1197.33 1000.2Z" fill="#EBCBB2"/>
<path d="M1152.14 989.4C1168.2 989.4 1168.2 964.4 1152.14 964.4C1136.08 964.4 1136.08 989.4 1152.14 989.4Z" fill="#EBCBB2"/>
<path d="M1156.43 944.1C1172.49 944.1 1172.49 919.1 1156.43 919.1C1140.37 919.1 1140.37 944.1 1156.43 944.1Z" fill="#EBCBB2"/>
<path d="M1206.01 963.5C1222.07 963.5 1222.07 938.5 1206.01 938.5C1189.95 938.5 1189.95 963.5 1206.01 963.5Z" fill="#EBCBB2"/>
<path d="M862.976 261.4C864.971 274.9 869.559 288.8 882.925 294.8C890.207 298.1 896.99 297.7 904.271 295C904.172 295 908.86 293.3 906.665 294.1C904.072 295.1 906.865 291.9 906.466 294.3C906.266 294.2 906.167 294 905.967 293.9C907.064 295 907.164 295.1 906.466 294.4C906.366 294.2 906.366 294 906.266 293.7C906.665 295.2 906.665 295.3 906.366 294.2C906.566 310.3 931.502 310.3 931.303 294.2C931.103 278.6 916.241 266.1 900.78 269.8C899.184 270.2 897.688 270.9 896.192 271.5C895.593 271.7 892.402 272.3 893.499 272.4C894.396 272.4 894.895 273.4 892.9 272C893.598 272.6 890.806 270 890.905 270.1C888.412 266.8 887.713 259.6 887.115 254.8C886.117 248.1 877.739 244.4 871.754 246.1C864.572 248 861.978 254.7 862.976 261.4Z" fill="#EBCBB2"/>
<path d="M974.793 57.9997C980.479 37.0997 983.77 15.6997 984.967 -5.90027C985.366 -12.6003 978.982 -18.4003 972.499 -18.4003C965.417 -18.4003 960.429 -12.7003 960.03 -5.90027C959.033 13.4997 955.941 32.5997 950.754 51.3997C946.465 66.8997 970.504 73.4997 974.793 57.9997Z" fill="#EBCBB2"/>
</svg>
