<svg width="40" height="33" viewBox="0 0 40 33" fill="none" xmlns="http://www.w3.org/2000/svg">
<path d="M0.817046 13.3335C0.817046 13.4076 0.854083 13.4816 0.878774 13.5557C2.01458 18.4816 3.16272 23.4076 4.28618 28.3335C4.70593 30.21 5.73063 31.5557 7.53309 32.2717C8.71828 32.7409 9.96519 32.6174 11.1998 32.5804C11.1751 32.5804 11.1504 32.5557 11.1257 32.5434C8.87877 32.2594 7.24914 30.8026 6.71828 28.6174C6.36025 27.1113 6.02692 25.6174 5.6689 24.1113C4.82939 20.4816 3.98988 16.8396 3.15038 13.21C2.91581 12.1977 3.15038 11.3335 3.91581 10.6174C4.26149 10.2964 4.70593 10.173 5.12569 10.0125C4.68124 10.0125 4.24914 10.0001 3.8047 9.9878C3.76766 9.9878 3.73063 9.9878 3.69359 9.9878C2.3726 9.91373 1.34791 10.3582 0.817046 11.6545C0.792354 11.7038 0.71828 11.9014 0.742971 11.9014C0.742971 11.9014 0.681243 12.5927 0.8047 13.3211L0.817046 13.3335Z" fill="#F5AD3E"/>
<path d="M16.213 4.27165C16.213 3.61733 16.2254 2.95066 16.2377 2.29634C16.2377 1.35807 16.8674 0.679058 17.8056 0.666712C19.3982 0.642021 20.9908 0.642021 22.5834 0.666712C23.5217 0.679058 24.139 1.35807 24.1513 2.29634C24.1513 2.95066 24.1637 3.61733 24.176 4.27165V10C24.176 11.284 24.176 12.5556 24.1513 13.8396C24.1513 14.0988 24.2748 14.1235 24.4847 14.1235C25.2995 14.1235 26.1019 14.1235 26.9167 14.1235C27.3242 14.1235 27.6451 14.247 27.8056 14.6297C27.9661 15.0124 27.8303 15.3334 27.5464 15.6297C25.3488 17.8889 23.1513 20.1605 20.9538 22.4198C20.3859 23 19.9785 23 19.4106 22.4198C17.213 20.1605 15.0155 17.8889 12.818 15.6297C12.534 15.3457 12.3982 15.0247 12.5587 14.642C12.7192 14.2593 13.0526 14.1235 13.4476 14.1358C14.2624 14.1358 15.0649 14.1358 15.8797 14.1358C16.0772 14.1358 16.213 14.1112 16.213 13.8519C16.2007 12.5679 16.2007 11.2963 16.1884 10.0124C16.1884 8.09881 16.1884 6.19758 16.1884 4.284L16.213 4.27165Z" fill="#EE706C"/>
<path d="M24.1738 10.0001V4.27166C27.6677 4.27166 31.1738 4.25932 34.6677 4.27166C36.4578 4.27166 37.5442 5.69141 37.1368 7.4445C36.9393 8.29635 36.7417 9.14821 36.5565 9.98771C33.3837 9.98771 30.1985 9.98771 27.0257 9.98771C26.0751 9.98771 25.1244 9.98771 24.1738 9.98771V10.0001Z" fill="#F8AD3E"/>
<path d="M16.2131 4.2717C16.2131 6.18528 16.2131 8.08651 16.2131 10.0001C12.8674 10.0001 9.53409 10.0001 6.18841 10.0001C5.99088 9.13589 5.81804 8.2717 5.59582 7.41985C5.16372 5.79022 6.38595 4.2717 7.87977 4.28404C10.139 4.28404 12.3983 4.28404 14.6575 4.2717C15.1761 4.2717 15.6946 4.2717 16.2131 4.2717Z" fill="#F8AD3E"/>
<path d="M7.87846 4.284C6.38463 4.27166 5.15006 5.79018 5.59451 7.41981C5.82907 8.27166 5.98957 9.1482 6.1871 10.0001C5.84142 10.0001 5.4834 10.0124 5.13772 10.0247C4.69327 10.0247 4.26117 10.0124 3.81673 10.0001C3.59451 9.04943 3.34759 8.09882 3.16241 7.12351C2.90315 5.79017 3.86611 4.48153 5.22414 4.29635C6.10068 4.17289 6.98957 4.20993 7.87846 4.29635V4.284Z" fill="#EC8D05"/>
<path d="M12.7062 25.679C12.2618 26.0988 11.9778 26.0741 11.6198 25.5926C11.4963 24.4445 12.3111 23.4445 13.4716 23.3334C14.5581 23.2223 15.5827 24.0741 15.6939 25.1729C15.7432 25.6173 15.5334 25.926 15.1753 25.9753C14.842 26.0247 14.5951 25.7902 14.5087 25.3457C14.4099 24.8025 14.1136 24.5185 13.6445 24.5185C13.1753 24.5185 12.879 24.8025 12.7803 25.3457C12.7556 25.4568 12.7309 25.5679 12.7062 25.679Z" fill="#464251"/>
<path d="M28.7662 25.6051C28.4082 26.0866 28.1242 26.0989 27.6798 25.6915C27.6428 25.531 27.6181 25.3705 27.581 25.21C27.4946 24.8026 27.1613 24.531 26.7415 24.531C26.3218 24.531 25.9884 24.7903 25.8897 25.21C25.8773 25.2717 25.865 25.3335 25.8526 25.3952C25.7786 25.8026 25.5193 26.0248 25.1983 25.9878C24.8526 25.9384 24.6551 25.6421 24.6798 25.2224C24.7662 24.1112 25.8156 23.2347 26.902 23.3458C28.0625 23.4693 28.8773 24.4693 28.7539 25.6174L28.7662 25.6051Z" fill="#464251"/>
<path d="M20.1882 28.3951C19.4351 28.3705 18.7807 28.1112 18.2622 27.5556C17.9906 27.2593 17.9783 26.926 18.2252 26.6791C18.4598 26.4445 18.7807 26.4569 19.077 26.7161C19.8548 27.3951 20.5338 27.3951 21.2993 26.7161C21.5832 26.4569 21.9042 26.4445 22.1511 26.6791C22.398 26.9137 22.398 27.2593 22.1264 27.5556C21.6079 28.1112 20.9536 28.3705 20.2005 28.3951H20.1882Z" fill="#454150"/>
<path d="M31.4827 32.5432C31.421 32.5802 31.3469 32.5926 31.2852 32.5556C31.3469 32.5185 31.421 32.5185 31.4827 32.5432Z" fill="#F5AD3E"/>
<path d="M39.5452 11.7284C39.0637 10.4198 38.0514 9.96296 36.7427 10.0123C36.681 10.0123 36.6193 10.0123 36.5576 10C33.3847 10 30.1995 10 27.0267 10C26.0761 10 25.1255 10 24.1748 10C24.1748 11.284 24.1748 12.5556 24.1501 13.8395C24.1501 14.0988 24.2736 14.1235 24.4835 14.1235C25.2983 14.1235 26.1008 14.1235 26.9156 14.1235C27.323 14.1235 27.644 14.2469 27.8045 14.6296C27.965 15.0123 27.8292 15.3333 27.5452 15.6296C25.3477 17.8889 23.1501 20.1605 20.9526 22.4198C20.3847 23 19.9773 23 19.4094 22.4198C17.2119 20.1605 15.0143 17.8889 12.8168 15.6296C12.5329 15.3457 12.3971 15.0247 12.5576 14.642C12.7181 14.2593 13.0514 14.1235 13.4464 14.1358C14.2613 14.1358 15.0637 14.1358 15.8785 14.1358C16.0761 14.1358 16.2119 14.1111 16.2119 13.8519C16.1995 12.5679 16.1995 11.2963 16.1872 10.0123C12.8415 10.0123 9.50817 10.0123 6.16249 10.0123C5.81681 10.0123 5.45879 10.0247 5.11311 10.037C4.69336 10.1975 4.24891 10.3086 3.90323 10.642C3.1378 11.358 2.90323 12.2222 3.1378 13.2346C3.97731 16.8642 4.81682 20.5062 5.65632 24.1358C6.002 25.642 6.34768 27.1481 6.7057 28.642C7.22422 30.8272 8.8662 32.284 11.1131 32.5679C11.1378 32.5679 11.1625 32.5926 11.1872 32.6049C11.4588 32.6049 11.718 32.6049 11.9897 32.6049C18.2366 32.6049 24.4958 32.6049 30.7427 32.6049C30.9156 32.6049 31.1008 32.5802 31.2736 32.5802C31.3353 32.5432 31.4094 32.5432 31.4711 32.5679C33.6193 32.4938 35.4958 30.8395 36.0143 28.5926C37.1748 23.5556 38.3477 18.5062 39.5082 13.4691C39.5329 13.3704 39.5576 11.8025 39.5329 11.7531L39.5452 11.7284Z" fill="#F8EA6B"/>
</svg>
