<svg width="19" height="14" viewBox="0 0 19 14" fill="none" xmlns="http://www.w3.org/2000/svg">
<path d="M18.3559 0.972953C18.341 0.931822 18.3221 0.892372 18.2996 0.855202C18.2906 0.830538 18.2802 0.806502 18.2683 0.783242C18.2101 0.722793 18.1449 0.670064 18.0744 0.626241L17.968 0.58699H17.8429H1.46476C1.42109 0.582169 1.37706 0.582169 1.33339 0.58699L1.22703 0.626241C1.19394 0.645048 1.16253 0.666942 1.1332 0.691658C1.0993 0.716681 1.06786 0.745169 1.03936 0.776701C1.02745 0.799953 1.017 0.82399 1.00808 0.84866C0.941914 0.918862 0.89633 1.00738 0.8767 1.10379C0.875084 1.12993 0.875084 1.15615 0.8767 1.18229V12.9574C0.8767 13.1309 0.942611 13.2973 1.05993 13.42C1.17726 13.5427 1.33638 13.6116 1.5023 13.6116H17.7678C17.9337 13.6116 18.0929 13.5427 18.2102 13.42C18.3275 13.2973 18.3934 13.1309 18.3934 12.9574V1.18229C18.395 1.15615 18.395 1.12993 18.3934 1.10379C18.3853 1.05893 18.3727 1.01508 18.3559 0.972953ZM15.9286 1.83646L9.63506 6.89977L3.34155 1.83646H15.9286ZM17.1422 12.3033H2.12789V2.49064L9.25345 8.2212C9.36284 8.30926 9.49701 8.35701 9.63506 8.35701C9.77311 8.35701 9.90728 8.30926 10.0167 8.2212L17.1422 2.49064V12.3033Z" fill="#B5B5B5"/>
</svg>
