<svg width="103" height="19" viewBox="0 0 103 19" fill="none" xmlns="http://www.w3.org/2000/svg">
<path d="M12.766 10.816C11.7433 11.2493 10.7467 11.5787 9.776 11.804C8.82267 12.012 7.89533 12.116 6.994 12.116C4.77533 12.116 3.05067 11.5787 1.82 10.504C0.606667 9.42933 0 7.89533 0 5.902V0H2.548V5.616C2.548 6.968 2.964 8.008 3.796 8.736C4.628 9.464 5.78933 9.828 7.28 9.828C8.164 9.828 9.06533 9.71533 9.984 9.49C10.92 9.26467 11.83 8.93533 12.714 8.502L12.766 10.816ZM12.324 18.2V0H14.898V18.2H12.324Z" fill="#282828"/>
<path d="M28.6085 18.2V15.288L28.4785 14.742V9.776C28.4785 8.71867 28.1665 7.904 27.5425 7.332C26.9359 6.74267 26.0172 6.448 24.7865 6.448C23.9719 6.448 23.1745 6.58667 22.3945 6.864C21.6145 7.124 20.9559 7.47933 20.4185 7.93L19.3785 6.058C20.0892 5.486 20.9385 5.05267 21.9265 4.758C22.9319 4.446 23.9805 4.29 25.0725 4.29C26.9619 4.29 28.4179 4.74933 29.4405 5.668C30.4632 6.58667 30.9745 7.99067 30.9745 9.88V18.2H28.6085ZM24.0845 18.356C23.0619 18.356 22.1605 18.1827 21.3805 17.836C20.6179 17.4893 20.0285 17.0127 19.6125 16.406C19.1965 15.782 18.9885 15.08 18.9885 14.3C18.9885 13.5547 19.1619 12.8787 19.5085 12.272C19.8725 11.6653 20.4532 11.18 21.2505 10.816C22.0652 10.452 23.1572 10.27 24.5265 10.27H28.8945V12.064H24.6305C23.3825 12.064 22.5419 12.272 22.1085 12.688C21.6752 13.104 21.4585 13.6067 21.4585 14.196C21.4585 14.872 21.7272 15.418 22.2645 15.834C22.8019 16.2327 23.5472 16.432 24.5005 16.432C25.4365 16.432 26.2512 16.224 26.9445 15.808C27.6552 15.392 28.1665 14.7853 28.4785 13.988L28.9725 15.704C28.6432 16.5187 28.0625 17.1687 27.2305 17.654C26.3985 18.122 25.3499 18.356 24.0845 18.356Z" fill="#282828"/>
<path d="M41.4751 18.356C40.0711 18.356 38.8144 18.0527 37.7051 17.446C36.6131 16.8393 35.7551 16.0073 35.1311 14.95C34.5071 13.8927 34.1951 12.6793 34.1951 11.31C34.1951 9.94067 34.5071 8.72733 35.1311 7.67C35.7551 6.61267 36.6131 5.78933 37.7051 5.2C38.8144 4.59333 40.0711 4.29 41.4751 4.29C42.7231 4.29 43.8324 4.54133 44.8031 5.044C45.7911 5.52933 46.5537 6.25733 47.0911 7.228L45.1931 8.45C44.7424 7.774 44.1877 7.28 43.5291 6.968C42.8877 6.63867 42.1944 6.474 41.4491 6.474C40.5477 6.474 39.7417 6.67333 39.0311 7.072C38.3204 7.47067 37.7571 8.034 37.3411 8.762C36.9251 9.47267 36.7171 10.322 36.7171 11.31C36.7171 12.298 36.9251 13.156 37.3411 13.884C37.7571 14.612 38.3204 15.1753 39.0311 15.574C39.7417 15.9727 40.5477 16.172 41.4491 16.172C42.1944 16.172 42.8877 16.016 43.5291 15.704C44.1877 15.3747 44.7424 14.872 45.1931 14.196L47.0911 15.392C46.5537 16.3453 45.7911 17.082 44.8031 17.602C43.8324 18.1047 42.7231 18.356 41.4751 18.356Z" fill="#282828"/>
<path d="M52.8749 18.2V5.954L53.4989 6.604H47.8309V4.42H60.4149V6.604H54.7729L55.3709 5.954V18.2H52.8749Z" fill="#282828"/>
<path d="M68.2598 18.356C66.8731 18.356 65.6424 18.0527 64.5677 17.446C63.4931 16.8393 62.6438 16.0073 62.0198 14.95C61.3958 13.8753 61.0838 12.662 61.0838 11.31C61.0838 9.94067 61.3958 8.72733 62.0198 7.67C62.6438 6.61267 63.4931 5.78933 64.5677 5.2C65.6424 4.59333 66.8731 4.29 68.2598 4.29C69.6291 4.29 70.8511 4.59333 71.9258 5.2C73.0178 5.78933 73.8671 6.61267 74.4737 7.67C75.0977 8.71 75.4098 9.92333 75.4098 11.31C75.4098 12.6793 75.0977 13.8927 74.4737 14.95C73.8671 16.0073 73.0178 16.8393 71.9258 17.446C70.8511 18.0527 69.6291 18.356 68.2598 18.356ZM68.2598 16.172C69.1438 16.172 69.9324 15.9727 70.6257 15.574C71.3364 15.1753 71.8911 14.612 72.2897 13.884C72.6884 13.1387 72.8877 12.2807 72.8877 11.31C72.8877 10.322 72.6884 9.47267 72.2897 8.762C71.8911 8.034 71.3364 7.47067 70.6257 7.072C69.9324 6.67333 69.1438 6.474 68.2598 6.474C67.3757 6.474 66.5871 6.67333 65.8938 7.072C65.2004 7.47067 64.6458 8.034 64.2298 8.762C63.8138 9.47267 63.6058 10.322 63.6058 11.31C63.6058 12.2807 63.8138 13.1387 64.2298 13.884C64.6458 14.612 65.2004 15.1753 65.8938 15.574C66.5871 15.9727 67.3757 16.172 68.2598 16.172Z" fill="#282828"/>
<path d="M81.2362 18.2V5.954L81.8602 6.604H76.1922V4.42H88.7762V6.604H83.1342L83.7322 5.954V18.2H81.2362Z" fill="#282828"/>
<path d="M99.7785 18.2V15.288L99.6485 14.742V9.776C99.6485 8.71867 99.3365 7.904 98.7125 7.332C98.1058 6.74267 97.1871 6.448 95.9565 6.448C95.1418 6.448 94.3445 6.58667 93.5645 6.864C92.7845 7.124 92.1258 7.47933 91.5885 7.93L90.5485 6.058C91.2591 5.486 92.1085 5.05267 93.0965 4.758C94.1018 4.446 95.1505 4.29 96.2425 4.29C98.1318 4.29 99.5878 4.74933 100.61 5.668C101.633 6.58667 102.144 7.99067 102.144 9.88V18.2H99.7785ZM95.2545 18.356C94.2318 18.356 93.3305 18.1827 92.5505 17.836C91.7878 17.4893 91.1985 17.0127 90.7825 16.406C90.3665 15.782 90.1585 15.08 90.1585 14.3C90.1585 13.5547 90.3318 12.8787 90.6785 12.272C91.0424 11.6653 91.6231 11.18 92.4205 10.816C93.2351 10.452 94.3271 10.27 95.6965 10.27H100.064V12.064H95.8005C94.5525 12.064 93.7118 12.272 93.2785 12.688C92.8451 13.104 92.6285 13.6067 92.6285 14.196C92.6285 14.872 92.8971 15.418 93.4345 15.834C93.9718 16.2327 94.7171 16.432 95.6705 16.432C96.6065 16.432 97.4211 16.224 98.1145 15.808C98.8251 15.392 99.3365 14.7853 99.6485 13.988L100.142 15.704C99.8131 16.5187 99.2325 17.1687 98.4005 17.654C97.5685 18.122 96.5198 18.356 95.2545 18.356Z" fill="#282828"/>
</svg>
