<svg width="25" height="26" viewBox="0 0 25 26" fill="none" xmlns="http://www.w3.org/2000/svg">
<path d="M24.7037 13.474C24.7037 12.4647 24.6218 11.7282 24.4445 10.9644H12.9169V15.5198H19.6833C19.547 16.6519 18.8103 18.3568 17.1732 19.5024L17.1503 19.6549L20.7951 22.4779L21.0476 22.5031C23.3667 20.3617 24.7037 17.2111 24.7037 13.474Z" fill="#4285F4"/>
<path d="M12.9177 25.4764C16.2327 25.4764 19.0157 24.3852 21.0484 22.5031L17.174 19.5024C16.1372 20.2253 14.7457 20.7299 12.9177 20.7299C9.67087 20.7299 6.91517 18.5886 5.93284 15.6289L5.78885 15.6412L1.9989 18.5736L1.94934 18.7113C3.96836 22.7212 8.1156 25.4764 12.9177 25.4764Z" fill="#34A853"/>
<path d="M5.93252 15.629C5.67333 14.8652 5.52332 14.0468 5.52332 13.2013C5.52332 12.3556 5.67333 11.5373 5.91888 10.7735L5.91202 10.6108L2.07458 7.63129L1.94902 7.69099C1.11689 9.35499 0.639404 11.2236 0.639404 13.2013C0.639404 15.1789 1.11689 17.0474 1.94902 18.7114L5.93252 15.629Z" fill="#FBBC05"/>
<path d="M12.9177 5.67247C15.2232 5.67247 16.7784 6.66812 17.6651 7.50017L21.1302 4.11764C19.0021 2.13997 16.2327 0.926086 12.9177 0.926086C8.1156 0.926086 3.96836 3.68117 1.94934 7.69104L5.9192 10.7735C6.91517 7.81384 9.67087 5.67247 12.9177 5.67247Z" fill="#EB4335"/>
</svg>
