<svg width="234" height="36" viewBox="0 0 234 36" fill="none" xmlns="http://www.w3.org/2000/svg">
<path d="M4.272 26.84C4.816 27.352 5.44 27.864 6.144 28.376C6.88 28.856 7.824 29.096 8.976 29.096C10.416 29.096 11.504 28.712 12.24 27.944C13.008 27.144 13.392 25.896 13.392 24.2V3.896H20.496V25.16C20.496 26.984 20.192 28.552 19.584 29.864C19.008 31.176 18.224 32.264 17.232 33.128C16.24 33.96 15.104 34.584 13.824 35C12.576 35.384 11.264 35.576 9.888 35.576C8.768 35.576 7.744 35.464 6.816 35.24C5.888 35.048 5.04 34.792 4.272 34.472C3.536 34.12 2.848 33.72 2.208 33.272C1.568 32.824 0.976 32.36 0.432 31.88L4.272 26.84ZM26.265 12.536H33.369V25.112C33.369 26.456 33.673 27.528 34.281 28.328C34.921 29.128 35.849 29.528 37.065 29.528C38.281 29.528 39.193 29.128 39.801 28.328C40.409 27.528 40.713 26.456 40.713 25.112V12.536H47.865V25.112C47.865 28.408 46.889 30.984 44.937 32.84C42.985 34.664 40.361 35.576 37.065 35.576C33.737 35.576 31.097 34.664 29.145 32.84C27.225 30.984 26.265 28.408 26.265 25.112V12.536ZM52.5964 18.488H66.6604V24.488H52.5964V18.488ZM71.9336 0.439999H79.0376V14.792C79.8696 13.96 80.7656 13.288 81.7256 12.776C82.7176 12.264 83.9176 12.008 85.3256 12.008C86.7656 12.008 88.0936 12.264 89.3096 12.776C90.5576 13.288 91.6296 14.04 92.5256 15.032C93.4216 16.024 94.1096 17.256 94.5896 18.728C95.1016 20.2 95.3576 21.896 95.3576 23.816C95.3576 25.544 95.1016 27.144 94.5896 28.616C94.1096 30.056 93.4216 31.288 92.5256 32.312C91.6296 33.336 90.5576 34.136 89.3096 34.712C88.0936 35.288 86.7656 35.576 85.3256 35.576C83.9816 35.576 82.7976 35.368 81.7736 34.952C80.7496 34.504 79.8216 33.912 78.9896 33.176V35H71.9336V0.439999ZM83.6456 29.768C85.2136 29.768 86.4296 29.192 87.2936 28.04C88.1576 26.888 88.5896 25.464 88.5896 23.768C88.5896 22.04 88.1416 20.632 87.2456 19.544C86.3496 18.424 85.1336 17.864 83.5976 17.864C82.0296 17.864 80.7976 18.44 79.9016 19.592C79.0376 20.712 78.6056 22.104 78.6056 23.768C78.6056 25.72 79.0856 27.208 80.0456 28.232C81.0056 29.256 82.2056 29.768 83.6456 29.768ZM114.694 32.84C113.862 33.672 112.95 34.328 111.958 34.808C110.998 35.288 109.83 35.528 108.454 35.528C107.014 35.528 105.67 35.272 104.422 34.76C103.206 34.248 102.15 33.496 101.254 32.504C100.358 31.512 99.6541 30.28 99.1421 28.808C98.6301 27.336 98.3741 25.64 98.3741 23.72C98.3741 21.992 98.6301 20.408 99.1421 18.968C99.6541 17.528 100.358 16.296 101.254 15.272C102.15 14.248 103.206 13.464 104.422 12.92C105.67 12.344 107.014 12.056 108.454 12.056C109.766 12.056 110.918 12.264 111.91 12.68C112.934 13.096 113.862 13.672 114.694 14.408V12.536H121.798V35H114.694V32.84ZM110.134 29.672C111.702 29.672 112.918 29.112 113.782 27.992C114.646 26.872 115.078 25.464 115.078 23.768C115.078 21.848 114.598 20.392 113.638 19.4C112.71 18.408 111.526 17.912 110.086 17.912C108.518 17.912 107.302 18.472 106.438 19.592C105.606 20.68 105.19 22.072 105.19 23.768C105.19 25.496 105.622 26.92 106.486 28.04C107.35 29.128 108.566 29.672 110.134 29.672ZM125.546 3.896H149.018V10.136H140.858V35H133.754V10.136H125.546V3.896ZM160.011 29.672C160.843 29.672 161.563 29.512 162.171 29.192C162.811 28.872 163.339 28.456 163.755 27.944C164.203 27.4 164.523 26.776 164.715 26.072C164.939 25.336 165.051 24.568 165.051 23.768C165.051 22.968 164.939 22.216 164.715 21.512C164.523 20.776 164.203 20.152 163.755 19.64C163.339 19.096 162.811 18.664 162.171 18.344C161.563 18.024 160.843 17.864 160.011 17.864C159.179 17.864 158.443 18.024 157.803 18.344C157.195 18.664 156.667 19.096 156.219 19.64C155.803 20.152 155.483 20.776 155.259 21.512C155.035 22.216 154.923 22.968 154.923 23.768C154.923 24.568 155.035 25.336 155.259 26.072C155.483 26.776 155.803 27.4 156.219 27.944C156.667 28.456 157.195 28.872 157.803 29.192C158.443 29.512 159.179 29.672 160.011 29.672ZM160.011 35.72C158.187 35.72 156.539 35.416 155.067 34.808C153.627 34.168 152.379 33.32 151.323 32.264C150.299 31.176 149.515 29.912 148.971 28.472C148.427 27 148.155 25.432 148.155 23.768C148.155 22.104 148.427 20.552 148.971 19.112C149.515 17.672 150.299 16.408 151.323 15.32C152.379 14.232 153.627 13.384 155.067 12.776C156.539 12.136 158.187 11.816 160.011 11.816C161.835 11.816 163.467 12.136 164.907 12.776C166.379 13.384 167.627 14.232 168.651 15.32C169.707 16.408 170.507 17.672 171.051 19.112C171.595 20.552 171.867 22.104 171.867 23.768C171.867 25.432 171.595 27 171.051 28.472C170.507 29.912 169.707 31.176 168.651 32.264C167.627 33.32 166.379 34.168 164.907 34.808C163.467 35.416 161.835 35.72 160.011 35.72ZM186.73 29.672C187.562 29.672 188.282 29.512 188.89 29.192C189.53 28.872 190.058 28.456 190.474 27.944C190.922 27.4 191.242 26.776 191.434 26.072C191.658 25.336 191.77 24.568 191.77 23.768C191.77 22.968 191.658 22.216 191.434 21.512C191.242 20.776 190.922 20.152 190.474 19.64C190.058 19.096 189.53 18.664 188.89 18.344C188.282 18.024 187.562 17.864 186.73 17.864C185.898 17.864 185.162 18.024 184.522 18.344C183.914 18.664 183.386 19.096 182.938 19.64C182.522 20.152 182.202 20.776 181.978 21.512C181.754 22.216 181.642 22.968 181.642 23.768C181.642 24.568 181.754 25.336 181.978 26.072C182.202 26.776 182.522 27.4 182.938 27.944C183.386 28.456 183.914 28.872 184.522 29.192C185.162 29.512 185.898 29.672 186.73 29.672ZM186.73 35.72C184.906 35.72 183.258 35.416 181.786 34.808C180.346 34.168 179.098 33.32 178.042 32.264C177.018 31.176 176.234 29.912 175.69 28.472C175.146 27 174.874 25.432 174.874 23.768C174.874 22.104 175.146 20.552 175.69 19.112C176.234 17.672 177.018 16.408 178.042 15.32C179.098 14.232 180.346 13.384 181.786 12.776C183.258 12.136 184.906 11.816 186.73 11.816C188.554 11.816 190.186 12.136 191.626 12.776C193.098 13.384 194.346 14.232 195.37 15.32C196.426 16.408 197.226 17.672 197.77 19.112C198.314 20.552 198.586 22.104 198.586 23.768C198.586 25.432 198.314 27 197.77 28.472C197.226 29.912 196.426 31.176 195.37 32.264C194.346 33.32 193.098 34.168 191.626 34.808C190.186 35.416 188.554 35.72 186.73 35.72ZM203.043 0.439999H210.147V35H203.043V0.439999ZM216.784 27.944C217.648 28.488 218.688 29.032 219.904 29.576C221.152 30.12 222.448 30.392 223.792 30.392C225.424 30.392 226.24 29.864 226.24 28.808C226.24 28.264 226 27.864 225.52 27.608C225.072 27.32 224.432 27.016 223.6 26.696L221.248 25.784C220.32 25.464 219.488 25.112 218.752 24.728C218.048 24.312 217.424 23.832 216.88 23.288C216.368 22.712 215.968 22.072 215.68 21.368C215.424 20.632 215.296 19.752 215.296 18.728C215.296 17.736 215.488 16.824 215.872 15.992C216.288 15.128 216.864 14.392 217.6 13.784C218.336 13.176 219.216 12.696 220.24 12.344C221.296 11.992 222.464 11.816 223.744 11.816C225.6 11.816 227.152 12.072 228.4 12.584C229.648 13.096 230.784 13.672 231.808 14.312L229.552 18.776C228.912 18.456 228.08 18.088 227.056 17.672C226.064 17.256 225.088 17.048 224.128 17.048C223.424 17.048 222.864 17.208 222.448 17.528C222.064 17.816 221.872 18.2 221.872 18.68C221.872 19.224 222.048 19.64 222.4 19.928C222.752 20.184 223.344 20.472 224.176 20.792L226.432 21.608C227.36 21.928 228.224 22.264 229.024 22.616C229.824 22.968 230.512 23.4 231.088 23.912C231.696 24.392 232.16 24.984 232.48 25.688C232.832 26.36 233.008 27.192 233.008 28.184C233.008 29.24 232.816 30.232 232.432 31.16C232.048 32.056 231.488 32.856 230.752 33.56C230.016 34.232 229.088 34.76 227.968 35.144C226.88 35.528 225.6 35.72 224.128 35.72C222.112 35.72 220.272 35.416 218.608 34.808C216.944 34.168 215.52 33.48 214.336 32.744L216.784 27.944Z" fill="#282828"/>
</svg>
