<svg width="286" height="550" viewBox="0 0 286 550" fill="none" xmlns="http://www.w3.org/2000/svg">
<path d="M129.399 280.1C120.92 292.3 118.526 308.7 122.815 322.9C125.109 330.5 129.199 336.7 134.186 342.9C137.977 347.6 141.169 351.2 142.465 357C142.665 357.9 142.665 357.9 142.565 357.1C142.665 358 142.765 359 142.765 359.9C142.864 361.3 142.864 362.7 142.864 364.1C142.864 367.2 142.665 370.3 142.465 373.4C142.066 379.9 141.967 386.5 143.463 393C145.059 399.6 148.55 405.8 153.737 410.2C156.33 412.5 159.223 414.3 162.116 416.3C164.41 417.9 161.517 416 163.512 417.4C165.208 418.6 163.412 417.2 163.313 415.6C163.811 422.3 168.699 428.1 175.781 428.1C182.165 428.1 188.748 422.4 188.25 415.6C187.551 407 183.462 401.3 176.779 396.2C174.684 394.7 172.39 393.4 170.395 391.7C171.891 392.9 169.298 390.6 169.098 390.3C170.295 391.7 168.4 389 168.2 388.6C169.098 390.4 167.702 386.8 167.602 386.3C167.402 385.4 167.402 385.5 167.502 386.4C167.402 385.7 167.402 385.1 167.303 384.4C167.103 381.4 167.203 378.4 167.303 375.4C167.602 369.5 168.2 363.6 167.602 357.6C166.904 350.3 165.208 343.5 161.218 337.3C157.727 331.8 153.039 327.2 149.747 322.1C143.762 312.7 144.66 301.8 150.944 292.6C154.734 287 151.941 278.7 146.455 275.5C140.271 272 133.189 274.6 129.399 280.1Z" fill="#F6BAD4" fill-opacity="0.68"/>
<path d="M10.5994 532C24.564 542.2 41.1221 547.9 58.2787 549.5C75.3355 551 95.3848 548.5 103.365 531.2C107.155 523.1 108.252 514.4 109.449 505.6C110.646 496.4 111.344 487 111.045 477.7C110.447 460.5 104.761 442.4 88.5022 434.1C72.1436 425.7 52.9921 431.9 45.4113 448.9C41.1221 458.4 41.1221 468.4 42.8178 478.5C43.2168 480.7 43.6158 482.8 44.1146 485C44.314 486 44.6133 489 45.2118 489.7L45.511 489C45.6108 488.9 45.6108 488.8 45.7105 488.6C46.4087 487.9 46.4087 487.9 45.8103 488.5C45.91 488.6 45.0123 489.1 44.713 489.2C41.7206 490.4 39.3267 490.1 35.7358 490C30.8481 489.9 25.8608 489.9 21.0729 491C12.1954 493 3.61708 499.8 1.02364 508.8C-5.06095 529.4 17.2825 539.5 33.6411 541.2C52.2938 543.1 71.7446 535.7 82.3178 519.8C92.7913 504.1 91.4946 483.6 80.0236 469C75.8343 463.7 66.7572 464.6 62.3683 469C57.1815 474.2 58.1789 481.3 62.3683 486.7C63.6651 488.4 64.064 491.1 64.3633 493.1C65.1613 498.4 71.3456 502.3 76.4327 502.3C81.9188 502.3 86.9062 498.4 88.5022 493.1C92.4921 479.3 90.3974 463.9 82.3178 451.9C77.0312 444.1 65.9592 443.6 60.7724 451.9C52.4933 465.1 54.8873 483.1 66.059 493.8C77.7294 504.9 95.3848 487.2 83.7143 476.1C81.4201 474 80.9214 472.7 80.6221 470.5C80.7219 471.4 80.6221 469.1 80.6221 468.8C80.6221 466.7 80.3229 470.2 80.6221 468.2C81.0211 465.9 80.7219 466.8 82.2181 464.5C75.0363 464.5 67.8544 464.5 60.6726 464.5C65.3608 471.5 66.5577 478.6 64.3633 486.4C72.3431 486.4 80.4226 486.4 88.4024 486.4C87.3052 479.7 84.1133 474.2 80.0236 468.9C74.1385 474.8 68.2534 480.7 62.3683 486.6C61.2711 485.2 63.4656 488.7 63.3658 488.6C62.4681 486.8 64.064 490.6 64.064 490.6C64.862 493.4 64.6625 492.4 64.6625 495.3C64.6625 499.4 63.6651 503 60.7724 507.2C56.3835 513.6 46.708 516.7 38.1297 516.5C34.0401 516.4 28.7534 515.4 26.0603 514C25.5615 513.7 24.2648 513.5 24.3645 512.8C24.3645 513 25.0628 513.7 24.963 514C24.963 514.5 24.8633 515.7 24.963 516.1C24.8633 516.4 24.6638 516.6 24.3645 516.7C24.963 516.3 25.5615 515.9 26.16 515.6C26.958 515.2 29.3519 515 31.4466 515C34.3393 515 37.3317 515.2 40.2244 515.1C47.107 514.9 53.8898 513.4 59.6752 509.4C65.66 505.2 69.8494 498.9 70.3481 491.4C70.7471 484.6 67.9542 478.1 67.0565 471.4C66.3582 466.2 66.6575 461.2 69.0514 457.6C70.1486 456 70.0489 456.5 71.4454 455.3C70.2484 456.3 73.6398 454.7 71.7446 455C72.6423 454.9 73.5401 454.9 74.4378 455C73.3406 454.9 73.6398 455 75.136 455.3C77.8292 456.1 80.5224 458.2 82.0186 460.5C85.011 465.1 85.9087 470.7 86.208 475.9C86.9062 488.4 85.9087 501.8 83.1158 514C82.3178 517.4 81.9188 519.2 80.4226 521.5C80.3229 521.6 79.0262 523.3 79.9239 522.2C78.7269 523.6 79.8242 522.8 77.4302 523.6C71.8444 525.4 65.0615 525 59.2762 524.5C46.4087 523.5 33.9403 518.1 23.3671 510.4C17.881 506.4 9.50218 509.5 6.31026 514.9C2.42011 521.3 5.11329 528 10.5994 532Z" fill="#70C9EB" fill-opacity="0.68"/>
<path d="M152.54 194.5C176.479 196.2 200.319 194.9 224.059 191.1C230.143 190.1 233.834 182.9 233.036 177.4C232.038 170.9 227.151 167.2 220.767 166.6C199.022 164.4 176.28 163.2 156.629 174.3C139.373 184.1 121.119 209.7 136.879 228.4C152.54 247 183.461 238.1 190.543 216.1C193.735 206.3 192.239 192.7 184.459 185.3C173.886 175.3 160.22 182.6 152.141 191.8C143.064 202.2 142.166 219 155.732 226.2C163.213 230.2 171.99 227.9 177.277 221.5C179.372 219 180.569 216.3 181.566 213.2C181.865 212.4 182.264 211.5 182.364 210.6C182.564 209.8 182.663 209.7 182.364 210.4C181.666 211.3 180.868 212 179.771 212.5C177.576 212.5 175.382 212.5 173.187 212.5C173.586 212.6 173.985 212.6 174.384 212.7C180.968 213.9 187.85 210.9 189.746 204C191.441 198 187.751 189.8 181.067 188.6C168.799 186.5 161.317 194.2 157.926 205.2C157.727 205.9 157.527 206.5 157.328 207.2C158.126 203.1 162.016 202.5 168.898 205.3C169.397 206.1 169.796 209.4 169.896 209.4C169.696 209.3 172.788 206.7 173.088 206.2C174.783 203.7 174.484 206.7 171.392 205.5C169.597 204.4 167.701 203.4 165.906 202.3C166.903 203.2 167.103 203.3 166.504 202.7C165.906 202 166.105 202.3 166.903 203.7C166.604 202.5 167.203 205.7 167.103 204.6C167.302 206.7 167.302 207 166.504 209.6C166.903 208.4 165.607 211.1 166.105 210.4C166.105 210.5 164.609 212 164.21 212.4C165.108 211.6 162.415 213.2 163.312 212.8C163.512 212.7 161.218 213.5 160.719 213.6C161.916 213.4 158.425 213.6 158.325 213.6C159.821 213.7 156.829 213 157.527 213.4C158.425 213.8 155.632 212.5 156.53 213C153.637 211.2 155.732 211.9 155.831 212.3C155.333 210.5 158.126 205.9 159.622 203.8C164.709 197.1 173.088 193.2 181.965 191.3C194.533 188.6 207.999 190.3 220.767 191.6C219.67 183.4 218.573 175.2 217.475 167C196.03 170.4 174.185 171 152.54 169.5C145.857 169 140.071 175.6 140.071 182C140.071 189.1 145.757 194 152.54 194.5Z" fill="#4CB484" fill-opacity="0.68"/>
<path d="M72.7418 244.5C88.8011 244.5 88.8011 219.5 72.7418 219.5C56.6824 219.5 56.6824 244.5 72.7418 244.5Z" fill="#ED6E49" fill-opacity="0.68"/>
<path d="M66.2581 287.7C82.3175 287.7 82.3175 262.7 66.2581 262.7C50.2985 262.7 50.1988 287.7 66.2581 287.7Z" fill="#ED6E49" fill-opacity="0.68"/>
<path d="M29.651 222.9C45.7103 222.9 45.7103 197.9 29.651 197.9C13.5916 197.9 13.5916 222.9 29.651 222.9Z" fill="#ED6E49" fill-opacity="0.68"/>
<path d="M27.5566 281.2C43.6159 281.2 43.6159 256.2 27.5566 256.2C11.4972 256.2 11.3975 281.2 27.5566 281.2Z" fill="#ED6E49" fill-opacity="0.68"/>
<path d="M45.795 68.663C54.473 51.963 63.0513 35.363 71.7293 18.663C64.5475 18.663 57.3657 18.663 50.1839 18.663C67.4402 42.363 82.3026 67.763 94.5715 94.463C97.3644 100.563 106.242 102.163 111.628 98.963C117.912 95.263 118.91 88.063 116.117 81.863C103.948 55.163 89.0854 29.763 71.7293 6.06296C66.5424 -0.937035 54.872 -3.03704 50.1839 6.06296C41.5058 22.763 32.9276 39.363 24.2495 56.063C21.1574 62.063 22.7533 69.663 28.7382 73.163C34.324 76.363 42.7028 74.663 45.795 68.663Z" fill="#CE5A99" fill-opacity="0.68"/>
<path d="M208.203 296.505C209.001 298.805 208.702 297.805 208.602 297.105C208.702 297.505 208.203 299.305 208.602 297.805C208.203 299.405 207.704 301.005 207.206 302.505C206.009 305.905 204.712 309.205 204.113 312.905C202.418 323.105 206.108 332.805 214.188 339.205C230.746 352.205 251.394 344.605 265.757 332.105C278.824 320.605 287.702 303.505 284.61 285.805C281.617 268.405 265.757 254.105 247.703 256.205C224.562 258.905 213.889 280.505 208.402 300.705C204.213 316.305 228.252 322.905 232.442 307.305C234.337 300.405 236.232 292.905 240.621 287.105C242.217 285.005 244.312 283.205 246.705 282.005C248.102 281.305 249.299 280.905 251.094 280.705C249.997 280.805 253.588 281.205 251.992 280.805C255.982 281.605 258.376 284.605 259.573 288.405C259.872 289.305 260.072 290.205 260.271 291.105C260.271 290.305 260.271 290.305 260.271 291.205C260.471 292.805 260.471 294.505 260.171 296.105C259.972 297.505 258.575 301.105 257.777 302.705C254.885 308.205 250.596 312.905 245.409 316.505C242.716 318.405 239.723 320.205 236.432 320.905C234.038 321.405 232.541 321.305 231.444 320.805C231.245 320.705 228.551 318.905 229.449 319.605C228.452 318.505 228.152 318.305 228.851 319.005C228.053 317.705 227.953 317.405 228.452 318.305C228.551 320.205 228.551 316.205 228.252 318.105C228.452 316.205 229.25 314.305 229.848 312.605C232.442 305.105 234.836 297.805 232.142 289.905C230.048 283.505 223.564 279.305 216.781 281.205C210.697 282.905 206.009 290.105 208.203 296.505Z" fill="#FED152" fill-opacity="0.68"/>
</svg>
