<svg width="332" height="931" viewBox="0 0 332 931" fill="none" xmlns="http://www.w3.org/2000/svg">
<path d="M249.881 192.456C226.176 201.098 201.015 201.174 177.017 193.339C170.607 191.267 163.487 196.897 162.205 202.947C160.676 210.168 165.441 215.663 171.851 217.734C199.56 226.865 230.397 226.055 257.744 216.144C272.806 210.667 265.041 186.999 249.881 192.456Z" fill="#70C9EB" fill-opacity="0.68"/>
<path d="M295.801 463.605C305.789 459.399 316.561 460.66 324.425 467.934C329.124 472.293 332.611 478.028 337.423 482.819C342.683 487.91 348.963 491.075 355.96 493.271C361.608 495.078 367.504 495.715 373.436 496.666C376.196 497.148 378.858 497.61 381.577 498.288C381.87 498.35 385.268 499.681 383.394 498.876C384.058 499.119 386.982 500.758 386.436 500.438C385.016 499.424 388.685 502.852 387.795 501.746C386.905 500.639 389.796 505.33 388.623 503.145C389.775 505.428 390.572 507.941 391.703 510.322C395.21 517.896 400.016 523.196 408.305 525.564C414.757 527.44 421.795 522.201 423.117 515.955C424.605 508.929 420.021 503.065 413.472 501.168C414.157 501.313 414.821 501.555 415.346 501.972C415.984 502.821 416.061 502.94 415.598 502.23C415.289 501.757 415.001 501.186 414.693 500.713C415.191 501.736 415.135 501.52 414.502 500.162C413.181 497.232 412.076 494.245 410.559 491.272C407.447 485.21 402.244 480.335 396.139 477.309C390.208 474.422 383.731 473.152 377.31 472.098C374.04 471.61 370.673 471.1 367.423 470.514C366.054 470.224 364.684 469.934 363.335 469.546C362.455 469.36 361.497 469.055 360.637 468.771C361.399 469.034 361.399 469.035 360.56 468.653C355.33 466.322 352.623 462.69 348.965 458.244C343.933 452.081 338.91 446.837 331.992 442.823C318.953 435.371 301.923 434.212 288.015 440.035C281.849 442.604 277.818 449.091 280.079 455.789C281.996 461.701 289.516 466.251 295.801 463.605Z" fill="#F6BAD4" fill-opacity="0.68"/>
<path d="M324.65 733.789C320.523 736.382 316.376 739.072 312.249 741.665C307.767 744.488 302.719 747.09 298.951 750.88C294.669 755.173 293.207 761.593 295.047 767.386C296.64 772.414 300.562 776.099 304.468 779.374C318.693 791.359 335.206 802.197 352.706 808.859C378.72 818.753 381.106 779.494 382.07 762.875C382.601 753.607 382.211 744.348 380.781 735.174C379.15 724.531 377.125 712.377 364.478 710.31C352.615 708.41 343.172 720.175 335.407 727.401C327.244 735.052 319.257 742.843 311.424 750.871C305.039 757.369 308.785 770.092 318.105 771.454C332.378 773.559 346.825 770.501 358.469 761.853C351.993 758.646 345.636 755.363 339.159 752.156C339.24 755.64 337.517 758.945 334.199 761.098C329.083 764.5 327.029 771.304 329.832 776.894C332.768 782.818 338.689 784.785 344.921 783.352C343.84 783.633 343.979 783.459 343.418 782.728C347.735 787.925 354.572 790.392 360.734 786.395C365.829 783.09 368.709 774.319 364.392 769.123C357.131 760.448 348.204 757.232 337.058 759.664C340.607 767.043 344.232 774.54 347.78 781.919C358.486 774.806 364.2 763.271 364.044 750.493C363.906 741.491 352.148 735.228 344.734 740.795C338.289 745.65 330.634 748.005 323.194 746.94C325.414 753.833 327.654 760.629 329.874 767.523C336.795 760.424 343.891 753.464 351.064 746.622C354.651 743.201 358.335 739.801 361.999 736.499C362.375 736.171 363.107 735.612 363.406 735.165C363.782 734.837 364.235 734.627 364.611 734.299C361.213 732.968 357.893 731.755 354.495 730.423C354.17 731.476 355.48 735.424 355.644 736.58C357.075 745.754 357.542 755.131 356.913 764.378C356.57 768.894 355.933 773.347 355.101 777.759C354.703 780.122 354.109 782.443 353.613 784.785C353.365 785.956 353.019 787.106 352.673 788.257C352.549 788.842 352.328 789.407 352.204 789.993C351.435 792.175 352.228 791.323 354.389 787.397C356.377 786.696 358.443 786.114 360.431 785.413C362.794 786.322 363.185 786.404 361.682 785.78C360.843 785.399 360.004 785.017 359.262 784.656C357.682 783.913 356.004 783.15 354.423 782.408C351.458 780.964 348.611 779.444 345.687 777.805C340.112 774.687 334.697 771.297 329.56 767.558C326.915 765.57 324.367 763.603 321.86 761.441C320.831 760.51 319.668 759.244 318.479 758.584C315.242 755.044 314.658 758.285 316.706 768.405C317.298 768.02 317.772 767.713 318.365 767.328C325.227 763.888 331.714 758.838 338.21 754.708C351.914 745.987 338.256 725.047 324.65 733.789Z" fill="#435BA2" fill-opacity="0.68"/>
<path d="M135.531 676.916C141.961 678.889 148.88 682.904 154.299 687.722C158.844 691.845 164.952 698.237 166.122 704.296C166.625 706.748 165.908 707.717 164.203 709.497C162.518 711.18 159.792 712.948 157.031 714.402C154.151 715.933 150.133 717.529 146.533 718.602C144.782 719.149 143.051 719.598 141.228 719.518C142.346 719.551 137.356 718.494 139.446 719.243C138.082 718.444 137.887 718.403 138.685 718.979C137.578 717.929 137.403 717.79 138.062 718.542C138.091 721.301 138.707 716.945 138.211 719.287C137.648 720.493 137.788 720.319 138.391 718.917C137.716 719.692 137.855 719.517 138.809 718.394C139.762 717.27 139.901 717.096 141.679 715.943C147.088 712.602 156.048 712.766 161.254 706.528C168.722 697.811 164.976 685.089 160.034 676.089C155.765 668.252 148.91 662.008 140.992 657.884C130.578 652.518 121.152 662.757 123.396 672.919C125.66 682.982 133.751 689.182 141.214 695.453C142.418 696.523 144.245 698.032 144.981 698.901C145.156 699.04 147.574 702.101 146.2 700.383C145.156 699.04 147.56 699.753 146.18 700.481C146.515 700.348 147.077 699.141 145.963 700.537C146.638 699.762 146.84 699.295 147.746 698.875C148.534 698.532 153.452 698.962 150.636 698.263C144.143 696.583 137.167 701.529 135.824 707.872C134.377 714.702 138.879 720.958 145.469 722.659C161.935 726.962 174.585 708.739 170.156 693.935C168.075 686.867 162.96 681.093 157.381 676.547C155.029 674.622 152.636 672.891 150.423 670.791C148.035 668.552 147.706 668.177 147.033 665.077C141.174 670.056 135.316 675.035 129.436 680.112C134.311 682.673 138.053 686.728 139.856 692.208C139.856 692.208 140.623 693.9 140.216 693.406C140.911 694.471 139.194 697.268 141.839 692.016C143.763 688.243 144.365 688.779 141.12 689.621C137.03 690.59 133.368 691.956 129.679 693.928C113.782 702.388 106.073 724.308 121.503 737.364C136.506 750.023 158.175 742.785 172.982 733.686C180.246 729.31 186.394 722.965 189.227 714.899C192.627 705.117 190.043 695.597 185.136 686.911C175.554 669.894 158.836 658.095 140.326 652.34C133.896 650.366 126.816 655.8 125.514 661.948C124.377 669.252 129.1 674.942 135.531 676.916Z" fill="#70C9EB" fill-opacity="0.68"/>
<path d="M174.846 439.621C171.829 461.107 166.717 482.354 158.947 502.63C166.742 505.402 174.537 508.174 182.331 510.946C183.602 498.674 184.589 485.323 189.675 473.859C191.867 468.817 194.084 465.106 197.32 461.407C200.278 458.057 203.267 455.53 207.012 453.774C209.299 452.627 214.455 450.966 216.113 451.827C215.938 451.688 215.264 450.525 216.19 451.945C216.674 452.557 216.555 452.634 216.817 453.811C216.894 453.929 216.656 456.02 216.233 457.052C215.949 457.909 214.516 459.849 214.398 459.926C213.666 460.485 212.816 461.12 212.028 461.463C213.171 460.89 209.828 461.711 211.281 461.611C208.67 461.874 208.474 461.832 206.07 461.119C205.483 460.995 204.747 460.125 204.361 459.534C205.065 461.518 205.651 463.58 206.355 465.564C206.888 468.838 203.871 468.606 206.688 467.368C207.24 467.179 210.424 464.692 210.48 464.908C210.501 464.811 207.355 463.737 206.676 463.083C205.363 455.77 206.756 452.088 210.932 452.157C210.304 452.228 209.577 452.278 208.851 452.328C197.387 453.367 188.207 459.07 187.817 471.528C187.606 478.315 194.766 483.604 201.085 483.208C208.326 482.805 212.568 476.77 212.779 469.983C212.764 469.572 212.846 469.182 212.831 468.771C212.376 470.917 211.922 473.064 211.467 475.211C210.601 477.373 206.362 477.597 210.426 477.234C213.037 476.971 215.766 476.631 218.187 475.819C224.229 473.835 229.13 468.552 230.278 462.167C232.558 448.988 219.67 438.408 207.237 440.159C196.494 441.656 183.253 451.087 181.505 462.239C179.405 475.049 192.526 484.047 203.761 486.018C227.035 490.029 248.128 467.171 240.296 444.305C236.21 432.224 224.556 425.474 212.031 426.696C201.489 427.726 192.103 432.468 184.106 439.339C164.942 455.978 160.645 481.578 158.034 505.495C157.339 511.669 159.864 517.608 166.058 519.735C171.391 521.578 179.04 519.732 181.32 513.791C189.858 491.333 196.167 468.3 199.464 444.528C200.359 437.886 196.764 431.211 189.818 429.741C183.397 428.687 175.762 432.882 174.846 439.621Z" fill="#4CB484" fill-opacity="0.68"/>
<path d="M331.323 615.4C306.428 632.559 286.441 656.467 274.433 684.206C271.798 690.377 273.502 697.773 279.762 701.036C285.476 703.98 293.892 701.888 296.626 695.737C306.906 671.812 323.425 651.248 344.883 636.318C358.16 627.201 344.502 606.262 331.323 615.4Z" fill="#0F9352" fill-opacity="0.68"/>
<path d="M240.273 372.011C236.946 387.722 261.404 392.901 264.731 377.19C268.058 361.48 243.6 356.3 240.273 372.011Z" fill="#ED6E49" fill-opacity="0.68"/>
<path d="M283.879 374.618C280.552 390.329 305.01 395.509 308.337 379.798C311.664 364.087 287.206 358.907 283.879 374.618Z" fill="#ED6E49" fill-opacity="0.68"/>
<path d="M228.068 325.38C224.741 341.091 249.199 346.27 252.526 330.559C255.853 314.849 231.396 309.669 228.068 325.38Z" fill="#ED6E49" fill-opacity="0.68"/>
<path d="M285.559 335.312C282.232 351.023 306.689 356.202 310.016 340.491C313.344 324.78 288.886 319.601 285.559 335.312Z" fill="#ED6E49" fill-opacity="0.68"/>
<path d="M312.868 912.987C337.533 917.191 362.27 920.085 387.234 921.905C393.975 922.415 399.274 914.768 398.928 908.679C398.459 901.239 392.401 897.509 385.66 896.999C363.008 895.363 340.428 892.416 317.937 888.571C311.32 887.475 304.551 891.446 303.125 898.179C301.859 904.64 306.252 911.892 312.868 912.987Z" fill="#EBCBB2" fill-opacity="0.68"/>
<path d="M199.328 596.726C196.001 612.437 220.459 617.616 223.786 601.905C227.113 586.194 202.655 581.015 199.328 596.726Z" fill="#EBCBB2" fill-opacity="0.68"/>
<path d="M219.256 554.758C215.928 570.469 240.386 575.649 243.713 559.938C247.04 544.227 222.583 539.047 219.256 554.758Z" fill="#EBCBB2" fill-opacity="0.68"/>
<path d="M262.684 568.339C259.357 584.05 283.815 589.229 287.142 573.519C290.469 557.808 266.011 552.628 262.684 568.339Z" fill="#EBCBB2" fill-opacity="0.68"/>
<path d="M233.434 612.819C230.107 628.53 254.564 633.709 257.891 617.998C261.219 602.287 236.761 597.108 233.434 612.819Z" fill="#EBCBB2" fill-opacity="0.68"/>
<path d="M31.2207 819.97C36.0557 820.79 40.9472 821.826 45.5549 823.719C48.3865 824.828 51.0582 826.21 53.73 827.591C54.2756 827.911 54.8213 828.23 55.2898 828.431C55.1148 828.292 54.9398 828.153 54.6876 827.896C53.0548 828.366 59.7221 815.708 55.328 817.632C47.014 821.173 37.0617 825.693 30.4288 833.363C25.8419 838.611 22.9072 845.228 25.4 852.282C27.6461 858.569 33.3396 861.61 38.9766 864.435C49.8593 870.003 60.8398 875.591 71.7225 881.158C73.3757 873.351 75.0496 865.447 76.7029 857.64C66.6044 857.541 56.5775 858.069 46.581 859.418C38.9999 860.464 32.3311 867.82 35.4412 875.82C43.0188 895.063 56.7319 910.916 74.9602 920.894C89.0754 928.574 100.611 906.444 86.3974 898.744C74.017 892.044 64.173 881.089 59.0786 867.979C55.3723 873.413 51.6659 878.848 47.9389 884.38C57.9354 883.03 67.9829 882.405 78.0608 882.602C90.7084 882.732 93.5532 864.472 83.0412 859.085C76.3901 855.739 69.8574 852.316 63.2063 848.971C60.066 847.388 56.828 845.784 53.7084 844.104C51.953 843.223 50.2953 842.362 48.5399 841.48C47.9942 841.161 47.4279 840.939 46.7844 840.599C44.4269 839.182 44.967 840.01 48.5592 843.32C48.7122 845.493 48.7674 847.646 48.9204 849.82C47.369 851.836 47.2298 852.011 48.7192 850.287C49.3944 849.512 50.1674 848.758 50.8425 847.984C51.3372 847.579 52.5635 846.615 53.2744 846.154C55.902 844.365 58.4207 843.573 61.4341 842.376C69.8253 838.953 78.2854 832.792 77.767 822.69C77.3617 813.02 69.6922 807.725 61.7128 803.894C53.6562 799.945 44.9396 797.181 36.0522 795.707C29.4356 794.611 22.6661 798.582 21.2402 805.315C20.2111 811.622 24.5062 818.854 31.2207 819.97Z" fill="#ED6E49" fill-opacity="0.68"/>
<path d="M182.012 793.081C183.418 808.163 184.844 823.147 186.348 838.25C187.882 854.174 211.978 852.854 211.289 836.802C210.798 824.157 210.307 811.512 209.816 798.867C209.225 782.836 184.186 784.263 184.875 800.315C185.366 812.96 185.857 825.605 186.348 838.25C194.629 837.76 203.008 837.291 211.289 836.802C209.883 821.72 208.457 806.736 206.953 791.633C205.517 775.729 180.499 777.058 182.012 793.081Z" fill="#FED152" fill-opacity="0.68"/>
<path d="M233.332 61.1035C234.285 59.9799 234.543 59.7286 234.126 60.2519C233.986 60.4264 233.77 60.4826 233.574 60.4411C233.977 59.5067 235.279 60.5982 234.362 60.0982C232.473 58.8825 231.057 59.2962 231.899 55.8039C232.126 54.7305 232.327 54.2633 233.002 53.4886C233.162 53.2166 235.624 52.2087 234.125 53.0128C233.203 53.0215 233.399 53.0629 234.614 53.1164C234.223 53.0335 233.832 52.9506 233.44 52.8677C234.573 53.3115 234.769 53.353 233.93 52.9713C233.111 52.4921 233.188 52.6104 234.182 53.2286C232.617 52.8971 234.116 52.0931 234.007 53.0896C234.027 52.992 234.318 56.9281 234.413 53.5836C234.449 53.897 234.485 54.2105 234.423 54.5033C234 55.5352 233.979 55.6328 234.361 54.7959C234.15 54.3435 234.083 55.1448 235.036 54.0213C234.737 54.4677 232.965 55.1122 234.304 54.5801C235.742 54.0688 233.774 54.6716 233.285 54.5681C232.307 54.3609 232.703 53.9351 232.06 53.595C232.256 53.6364 233.511 55.4316 232.683 54.0327C232.935 54.29 232.141 55.1415 232.698 54.4437C233.512 53.4946 231.915 54.278 232.229 54.2426C231.405 54.272 229.56 56.2264 228.891 56.4924C224.595 58.4375 221.299 58.5551 217.386 57.7264C210.635 56.2969 205.392 49.6808 204.619 43.1955C201.789 47.3883 198.959 51.581 196.129 55.7738C201.193 53.5835 205.41 53.4571 209.894 55.936C217.847 60.3732 226.748 64.1954 234.324 56.4194C245.151 45.3556 236.694 23.9884 227.539 14.6066C217.649 4.35524 200.049 1.54571 188.265 10.3678C175.75 19.7487 174.471 38.3403 185.53 49.3489C190.362 54.0429 198.783 53.379 203.189 48.5005C207.853 43.3706 207.132 35.6729 202.32 30.8814C202.748 31.2778 203.833 32.4253 202.84 31.8071C202.573 31.1387 202.593 31.0411 202.763 31.6888C202.891 32.5316 202.953 32.2388 202.83 30.8873C202.15 32.1706 202.67 31.1594 202.99 30.6154C201.835 32.2061 203.155 29.8347 202.969 30.7129C202.721 31.8839 204.361 28.9685 202.99 30.6154C203.547 29.9176 204.602 30.2431 203.778 30.2725C202.228 30.3521 204.721 30.1662 205.23 30.1722C206.76 30.1902 203.846 29.4711 206.621 30.3647C208.047 30.8706 207.99 30.6547 208.788 31.2315C210.384 32.3851 210.692 32.8583 211.829 34.7304C212.678 36.0317 213.249 37.6819 213.814 39.8407C213.608 38.8796 213.998 40.8995 213.978 40.9971C214.029 41.7216 214.177 42.4668 214.228 43.1913C214.284 45.3442 214.825 44.2353 215.971 39.7879C217.749 38.6349 219.526 37.4819 221.304 36.3289C225.979 37.421 227.41 37.4183 225.382 36.377C224.739 36.0369 224.116 35.599 223.591 35.182C222.247 34.2857 220.96 33.6053 219.478 32.8835C216.394 31.5167 212.955 30.3806 209.587 29.8714C202.44 28.8676 195.179 29.369 188.539 32.2451C183.594 34.3586 179.326 39.0627 180.049 44.8234C182.291 64.1608 197.033 80.9456 216.956 82.9216C236.488 84.8147 264.605 70.785 257.035 47.1587C253.772 36.9854 243.993 29.1028 233.024 29.7366C222.585 30.2789 213.537 38.2527 210.723 48.1588C204.751 69.1211 230.807 86.0586 248.16 73.6238C259.484 65.5202 259.459 49.7112 249.439 40.5539C239.341 31.2784 223.771 34.8123 215.335 44.2413C203.987 56.3164 222.514 73.087 233.332 61.1035Z" fill="#CE619B" fill-opacity="0.68"/>
</svg>
