<svg width="297" height="649" viewBox="0 0 297 649" fill="none" xmlns="http://www.w3.org/2000/svg">
<path d="M153.207 449.902C160.02 437.326 171.114 430.998 185.592 430.788C194.781 430.599 204.052 430.913 212.926 428.212C220.893 425.781 227.811 421.913 234.471 416.835C240.515 412.237 245.706 406.31 249.811 400.045C252.023 396.618 253.643 392.971 255.563 389.334C256.308 387.958 256.964 386.28 257.998 385.214C257.17 386.087 260.115 384.585 258.802 385.041C266.371 382.596 274.03 383.356 281.429 380.005C290.045 376.094 295.38 368.871 296.399 359.4C297.125 352.721 290.742 346.701 284.362 346.485C277.184 346.241 272.206 351.776 271.477 358.555C271.644 356.56 273.243 356.514 271.524 357.156C273.751 356.231 268.593 358.257 269.906 357.802C267.885 358.534 263.282 358.878 260.374 359.28C251.554 360.382 243.666 363.416 238.032 370.63C233.649 376.284 231.418 383.213 227.227 389.074C224.091 393.27 218.837 398.095 214.157 400.738C208.459 403.947 203.114 405.567 196.023 405.727C187.13 406.026 178.165 405.522 169.507 407.73C153.902 411.704 139.965 422.438 132.296 436.686C129.103 442.582 130.244 450.125 136.203 453.929C141.382 457.206 150.009 455.897 153.207 449.902Z" fill="#CE5A99" fill-opacity="0.68"/>
<path d="M18.6863 334.58C32.2975 345.247 48.6531 351.505 65.7456 353.685C82.7419 355.762 102.864 353.942 111.425 336.922C115.488 328.955 116.879 320.298 118.373 311.543C119.881 302.389 120.897 293.018 120.913 283.713C120.898 266.503 115.828 248.221 99.86 239.375C83.7953 230.426 64.4448 235.973 56.2926 252.707C51.6842 262.056 51.3456 272.05 52.6982 282.202C53.0225 284.414 53.3501 286.527 53.774 288.742C53.9395 289.748 54.137 292.757 54.7114 293.477L55.0342 292.787C55.1373 292.691 55.1406 292.591 55.2471 292.394C55.9686 291.718 55.9687 291.718 55.3503 292.298C55.4466 292.401 54.5323 292.87 54.2299 292.96C51.1985 294.058 48.8161 293.677 45.2307 293.456C40.3492 293.19 35.3648 293.021 30.5424 293.958C21.6022 295.657 12.7986 302.162 9.90182 311.069C3.12304 331.451 25.1115 342.302 41.4032 344.555C59.9809 347.086 79.6712 340.349 90.7768 324.816C101.776 309.48 101.174 288.948 90.2044 273.968C86.1969 268.529 77.0946 269.121 72.5592 273.37C67.1992 278.391 67.9557 285.521 71.9598 291.06C73.1982 292.802 73.5055 295.514 73.7368 297.523C74.3549 302.847 80.4036 306.955 85.4878 307.127C90.9707 307.313 96.0873 303.584 97.8618 298.341C102.317 284.684 100.745 269.222 93.0764 256.955C88.057 248.981 77.0083 248.106 71.5434 256.225C62.822 269.137 64.6049 287.208 75.4078 298.28C86.6957 309.769 104.94 292.677 93.6525 281.189C91.4308 279.012 90.9763 277.696 90.7517 275.487C90.8209 276.39 90.7991 274.088 90.8093 273.788C90.8804 271.689 90.4628 275.177 90.8296 273.188C91.3062 270.903 90.9768 271.792 92.55 269.544C85.3723 269.301 78.1945 269.058 71.0168 268.815C75.4652 275.97 76.4211 283.106 73.9638 290.827C81.939 291.098 90.0139 291.371 97.9891 291.641C97.1194 284.908 94.1156 279.303 90.2078 273.868C84.1262 279.565 78.0447 285.262 71.9632 290.96C70.914 289.523 72.9886 293.096 72.8923 292.992C72.0561 291.163 73.5224 295.015 73.5224 295.015C74.2251 297.84 74.0596 296.834 73.9613 299.732C73.8225 303.83 72.7037 307.394 69.6705 311.494C65.0674 317.741 55.2923 320.512 46.7258 320.021C42.6418 319.783 37.3922 318.605 34.7479 317.114C34.2596 316.797 32.9705 316.554 33.0939 315.857C33.0871 316.057 33.7612 316.781 33.6514 317.077C33.6344 317.577 33.4941 318.773 33.5802 319.176C33.4704 319.472 33.2643 319.665 32.9618 319.755C33.5735 319.376 34.1851 318.996 34.7934 318.717C35.6045 318.344 38.0039 318.225 40.0974 318.296C42.9884 318.394 45.9722 318.695 48.8666 318.693C55.752 318.726 62.5818 317.457 68.4993 313.655C74.6229 309.66 79.0234 303.506 79.7758 296.027C80.4049 289.244 77.8337 282.654 77.1634 275.927C76.6416 270.706 77.11 265.719 79.6245 262.203C80.7753 260.641 80.6587 261.137 82.095 259.985C80.8649 260.944 84.3086 259.46 82.4043 259.695C83.3049 259.626 84.2021 259.656 85.0959 259.786C84.0027 259.649 84.2983 259.759 85.7835 260.11C88.4481 261.001 91.0686 263.191 92.486 265.54C95.321 270.239 96.0286 275.866 96.1516 281.073C96.426 293.59 94.9752 306.948 91.7707 319.046C90.858 322.418 90.3984 324.203 88.8251 326.451C88.722 326.548 87.3685 328.203 88.303 327.134C87.0593 328.492 88.1829 327.73 85.7633 328.448C80.1197 330.058 73.3543 329.429 67.5892 328.733C54.7631 327.298 42.4847 321.479 32.1783 313.425C26.8308 309.242 18.3517 312.056 14.9787 317.345C10.8741 323.609 13.3388 330.397 18.6863 334.58Z" fill="#FED152" fill-opacity="0.68"/>
<path d="M158.966 512.633C138.663 510.945 128.185 537.405 130.012 554.177C131.152 564.721 138.623 573.98 149.339 575.844C155.293 576.846 161.724 575.563 165.775 570.897C169.719 566.428 171.042 559.769 169.238 554.105C167.709 549.15 163.183 544.294 157.487 544.502C139.794 545.303 128.209 563.221 124.969 579.32C123.055 588.661 124.514 598.616 131.262 605.648C137.236 611.954 146.399 615.467 154.875 612.752C151.025 605.618 147.271 598.587 143.42 591.452C131.717 601.061 125.036 618.545 132.541 632.707C139.392 645.547 156.139 652.018 169.067 644.551C183.009 636.619 171.183 614.506 157.238 622.538C155.918 623.194 155.815 623.29 157.028 622.831C158.424 622.878 158.424 622.878 156.929 622.828C159.507 623.315 156.238 622.604 155.646 622.384C156.726 622.921 156.63 622.817 155.357 622.074C156.227 622.904 156.131 622.801 155.069 621.764C154.109 620.631 154.013 620.528 154.78 621.454C154.222 620.234 154.029 620.028 154.404 620.741C154.388 621.241 154.356 619.238 154.376 618.639C154.215 620.434 155.275 615.667 154.952 616.357C156.041 613.692 157.999 611.858 160.466 609.74C169.912 601.955 160.818 584.637 149.012 588.44C146.589 589.258 148.995 588.939 149.988 589.073C148.716 588.33 148.523 588.123 149.407 588.553C149.779 589.366 149.686 589.163 148.932 587.837C149.081 589.343 148.86 587.034 148.863 586.934C148.928 585.035 149.381 583.449 150.04 581.671C151.145 578.506 152.842 575.562 154.635 572.721C155.792 570.959 156.098 570.77 157.132 569.704C156.321 570.077 156.524 569.984 157.847 569.228C157.441 569.414 157.039 569.501 156.64 569.487C152.758 566.254 148.872 563.12 144.889 559.884C145.129 558.691 145.369 557.499 145.609 556.306C147.156 554.858 148.702 553.409 150.248 551.961C153.585 550.673 152.661 551.442 154.94 551.92C153.751 551.679 154.499 550.204 154.655 551.51C154.231 549.294 155.126 546.423 155.806 544.044C156.818 540.677 156.938 540.08 158.412 537.829C158.728 537.339 158.961 536.347 159.556 536.467C159.755 536.474 154.644 537.101 158.027 537.416C164.696 537.942 170.691 531.841 170.911 525.345C171.245 518.453 165.735 513.163 158.966 512.633Z" fill="#70C9EB" fill-opacity="0.68"/>
<path d="M12.2246 513.464C28.2747 514.008 29.1214 489.022 13.0713 488.478C-2.97884 487.934 -3.82553 512.92 12.2246 513.464Z" fill="#F6BAD4" fill-opacity="0.68"/>
<path d="M38.4092 568.382C54.4593 568.926 55.306 543.941 39.2559 543.397C23.2057 542.853 22.359 567.838 38.4092 568.382Z" fill="#F6BAD4" fill-opacity="0.68"/>
<path d="M9.66455 589.021C25.7147 589.565 26.5614 564.579 10.5112 564.035C-5.5389 563.491 -6.38559 588.477 9.66455 589.021Z" fill="#F6BAD4" fill-opacity="0.68"/>
<path d="M90.5303 49.3499C106.58 49.8938 107.427 24.9081 91.377 24.3642C75.3268 23.8203 74.4801 48.806 90.5303 49.3499Z" fill="#ED6E49" fill-opacity="0.68"/>
<path d="M82.5874 92.3057C98.6375 92.8496 99.4842 67.8639 83.4341 67.32C67.384 66.7761 66.5373 91.7618 82.5874 92.3057Z" fill="#ED6E49" fill-opacity="0.68"/>
<path d="M48.1953 26.3028C64.2454 26.8466 65.0921 1.86099 49.042 1.3171C32.9919 0.773207 32.1452 25.7589 48.1953 26.3028Z" fill="#ED6E49" fill-opacity="0.68"/>
<path d="M44.0278 84.4951C60.078 85.039 60.9246 60.0534 44.8745 59.5095C28.8244 58.9656 27.9777 83.9512 44.0278 84.4951Z" fill="#ED6E49" fill-opacity="0.68"/>
<path d="M-101.22 344.625C-101.924 353.606 -101.331 362.632 -99.4362 371.501C-97.6339 380.167 -94.3364 388.884 -85.0468 391.6C-75.3618 394.429 -67.3489 387.697 -62.0141 380.474C-60.1282 377.836 -58.7543 375.581 -56.387 373.46C-55.7685 372.881 -54.5383 371.922 -54.0263 371.539C-53.1088 370.97 -52.1947 370.5 -51.2805 370.031C-49.2529 369.099 -49.4522 369.092 -51.7824 370.114C-53.8555 369.444 -55.932 368.873 -58.0052 368.202C-60.1626 364.127 -60.9263 363.1 -60.2996 365.223C-60.0276 366.033 -59.8587 366.939 -59.6865 367.745C-59.2524 369.661 -58.8149 371.477 -58.3808 373.393C-57.5987 376.821 -56.82 380.349 -55.9382 383.781C-54.288 391.041 -52.5347 398.205 -50.8844 405.465C-48.1801 416.963 -29.7712 418.587 -26.859 406.279C-24.5299 396.452 -21.6094 386.846 -17.8982 377.466C-24.064 379.758 -30.2298 382.051 -36.4952 384.34C-24.9926 392.434 -16.8222 404.618 -13.1921 418.249C-9.12795 433.795 15.1209 428.013 11.0567 412.467C5.84895 392.379 -6.24274 375.159 -23.2061 363.278C-30.2247 358.337 -38.9674 363.044 -41.8032 370.152C-45.5144 379.532 -48.5345 389.135 -50.7639 398.965C-42.7887 399.235 -34.7138 399.509 -26.7386 399.779C-29.4395 388.181 -32.1404 376.583 -34.8379 364.885C-36.2331 358.934 -37.5253 352.887 -42.3811 348.92C-48.5953 343.807 -56.3122 344.746 -63.1167 348.218C-67.6874 350.564 -72.0892 353.817 -75.6108 357.6C-77.5794 359.734 -79.4518 361.972 -81.0284 364.32C-81.9731 365.689 -83.5158 367.038 -83.8521 368.127C-86.2059 369.848 -84.9235 370.292 -79.8055 369.465C-77.4787 368.543 -75.7907 368.8 -74.4391 370.147C-73.8308 369.867 -73.0894 374.495 -74.3123 369.351C-74.9221 366.728 -75.5285 364.006 -75.9389 361.391C-76.7597 356.16 -76.6833 350.96 -76.3044 345.67C-75.7751 338.884 -81.7628 332.977 -88.3424 332.754C-95.3139 332.318 -100.691 337.839 -101.22 344.625Z" fill="#ED6E49" fill-opacity="0.68"/>
<path d="M-9.41514 206.655C-10.6874 205.912 -10.9797 205.702 -10.3917 206.022C-10.1957 206.128 -10.1028 206.332 -10.1095 206.532C-11.0997 206.298 -10.2513 204.826 -10.5843 205.815C-11.4529 207.887 -10.7992 209.21 -14.3847 208.988C-15.4813 208.951 -15.9763 208.834 -16.8566 208.304C-17.1523 208.194 -18.5731 205.945 -17.5205 207.281C-17.3516 208.187 -17.3448 207.987 -17.5036 206.781C-17.5171 207.181 -17.5307 207.581 -17.5442 207.981C-17.3042 206.788 -17.2974 206.588 -17.5273 207.481C-17.8568 208.37 -17.7538 208.274 -17.3178 207.188C-17.372 208.787 -18.4245 207.45 -17.4242 207.384C-17.5239 207.381 -13.6984 206.41 -17.0085 206.898C-16.7061 206.808 -16.4036 206.719 -16.1045 206.729C-15.0147 206.966 -14.9151 206.969 -15.8055 206.739C-16.2144 207.025 -15.4135 206.952 -16.6858 206.209C-16.1941 206.425 -15.2513 208.058 -16.0082 206.832C-16.7617 205.506 -15.8258 207.338 -15.8428 207.838C-15.8766 208.838 -16.3649 208.521 -16.588 209.214C-16.5812 209.014 -15.0317 207.465 -16.2653 208.524C-16.0557 208.231 -15.0791 208.865 -15.8631 208.438C-16.9394 207.801 -15.8901 209.237 -15.9797 208.934C-15.8074 209.74 -13.5619 211.217 -13.1835 211.831C-10.5208 215.723 -9.83171 218.948 -9.96718 222.946C-10.2009 229.842 -15.8043 236.156 -22.0562 238.045C-17.4351 240.103 -12.814 242.16 -8.19292 244.218C-11.2306 239.613 -12.0886 235.481 -10.4273 230.635C-7.44101 222.031 -5.22525 212.6 -14.2003 206.493C-26.9786 197.755 -46.5493 209.799 -54.1958 220.446C-62.5707 231.969 -62.2763 249.79 -51.5392 259.859C-40.1246 270.552 -21.5938 268.578 -12.6764 255.773C-8.89455 250.198 -11.0128 242.021 -16.5834 238.531C-22.4462 234.83 -29.9012 236.879 -33.7828 242.45C-33.4668 241.961 -32.5256 240.692 -32.9616 241.778C-33.5733 242.157 -33.673 242.154 -33.0647 241.874C-32.257 241.602 -32.5561 241.591 -33.8656 241.947C-32.4835 242.394 -33.5699 242.057 -34.1612 241.837C-32.3939 242.698 -34.9588 241.81 -34.0616 241.841C-32.8653 241.881 -36.0215 240.774 -34.1612 241.837C-34.9452 241.41 -34.8083 240.314 -34.636 241.121C-34.288 242.633 -34.9046 240.211 -34.9874 239.708C-35.2356 238.199 -35.4369 241.194 -35.0396 238.305C-34.7894 236.813 -34.9922 236.906 -34.5629 236.02C-33.7045 234.248 -33.2922 233.862 -31.6464 232.417C-30.5125 231.355 -28.9867 230.506 -26.959 229.574C-27.8698 229.943 -25.9485 229.208 -25.8488 229.212C-25.1442 229.035 -24.4362 228.759 -23.7316 228.583C-21.6212 228.154 -22.8074 227.814 -27.3864 227.458C-28.8309 225.909 -30.2755 224.359 -31.72 222.809C-31.4578 218.015 -31.7094 216.606 -32.382 218.784C-32.6051 219.477 -32.9279 220.167 -33.2473 220.756C-33.8963 222.235 -34.3425 223.621 -34.7954 225.206C-35.605 228.481 -36.1256 232.065 -36.0414 235.47C-35.7868 242.683 -34.0301 249.746 -30.0429 255.785C-27.1015 260.287 -21.7269 263.671 -16.1796 261.958C2.47304 256.386 16.4378 238.949 14.9186 218.986C13.3858 199.423 -5.32033 174.175 -27.27 185.738C-36.7207 190.721 -42.7823 201.722 -40.2503 212.414C-37.9007 222.6 -28.4747 230.123 -18.2303 231.171C3.4514 233.406 15.5988 204.801 0.335447 189.876C-9.6143 180.133 -25.178 182.908 -32.4529 194.368C-39.8308 205.925 -33.6427 220.643 -22.8901 227.311C-9.02539 236.385 4.26717 215.223 -9.41514 206.655Z" fill="#CE619B" fill-opacity="0.68"/>
</svg>
