<svg width="413" height="793" viewBox="0 0 413 793" fill="none" xmlns="http://www.w3.org/2000/svg">
<path d="M308.499 239.998C302.208 253.457 302.626 270.026 309.258 283.295C312.806 290.396 317.887 295.814 323.852 301.08C328.383 305.07 332.139 308.078 334.399 313.575C334.748 314.428 334.748 314.428 334.514 313.656C334.765 314.526 335.033 315.495 335.185 316.382C335.52 317.745 335.757 319.125 335.994 320.504C336.519 323.56 336.848 326.649 337.176 329.738C337.884 336.211 338.903 342.733 341.478 348.886C344.169 355.12 348.659 360.639 354.516 364.097C357.462 365.925 360.618 367.209 363.807 368.691C366.339 369.879 363.166 368.496 365.37 369.538C367.244 370.434 365.238 369.358 364.868 367.798C366.494 374.317 372.294 379.205 379.273 378.006C385.565 376.925 391.088 370.193 389.445 363.575C387.301 355.218 382.305 350.293 374.855 346.398C372.536 345.274 370.055 344.382 367.801 343.044C369.479 343.973 366.533 342.146 366.286 341.884C367.703 343.061 365.378 340.721 365.113 340.36C366.303 341.982 364.317 338.671 364.134 338.195C363.785 337.342 363.802 337.44 364.052 338.31C363.836 337.637 363.734 337.046 363.517 336.373C362.813 333.45 362.403 330.476 361.993 327.503C361.289 321.637 360.88 315.721 359.274 309.909C357.35 302.833 354.527 296.418 349.545 290.983C345.173 286.154 339.773 282.414 335.665 277.945C328.175 269.695 327.214 258.8 331.85 248.669C334.637 242.508 330.479 234.801 324.53 232.576C317.842 230.174 311.401 233.918 308.499 239.998Z" fill="#F6BAD4" fill-opacity="0.68"/>
<path d="M389.267 594.033C393.391 580.337 402.972 571.893 417.108 568.754C426.067 566.707 435.21 565.136 443.353 560.693C450.662 556.698 456.653 551.508 462.145 545.187C467.132 539.46 471.015 532.603 473.765 525.637C475.237 521.833 476.085 517.933 477.228 513.982C477.679 512.484 477.981 510.707 478.778 509.454C478.144 510.476 480.724 508.41 479.53 509.122C486.446 505.194 494.1 504.386 500.667 499.605C508.312 494.03 512.072 485.876 511.152 476.395C510.509 469.707 503.038 465.106 496.747 466.187C489.669 467.403 485.915 473.831 486.575 480.617C486.335 478.629 487.891 478.261 486.338 479.238C488.332 477.881 483.69 480.91 484.884 480.198C483.053 481.324 478.616 482.594 475.849 483.576C467.435 486.443 460.326 491.013 456.271 499.218C453.124 505.643 452.343 512.88 449.427 519.469C447.206 524.214 443.039 530.003 438.991 533.54C434.062 537.836 429.156 540.506 422.244 542.099C413.596 544.194 404.715 545.517 396.684 549.433C382.208 556.486 370.735 569.822 366.113 585.329C364.179 591.749 366.826 598.904 373.432 601.422C379.167 603.582 387.351 600.552 389.267 594.033Z" fill="#CE5A99" fill-opacity="0.68"/>
<path d="M234.17 508.36C249.66 516.048 266.945 518.862 284.124 517.533C301.189 516.123 320.525 510.264 325.46 491.863C327.824 483.238 327.432 474.478 327.122 465.602C326.744 456.333 325.84 446.95 323.97 437.835C320.468 420.985 311.799 404.109 294.37 398.682C276.825 393.174 259 402.527 254.407 420.565C251.789 430.654 253.482 440.51 256.864 450.177C257.63 452.278 258.378 454.28 259.242 456.363C259.608 457.315 260.411 460.221 261.12 460.81L261.296 460.069C261.377 459.954 261.36 459.855 261.425 459.641C261.994 458.833 261.995 458.833 261.506 459.526C261.622 459.607 260.821 460.252 260.543 460.401C257.797 462.091 255.387 462.201 251.831 462.71C246.997 463.439 242.082 464.284 237.55 466.179C229.139 469.653 221.836 477.807 220.804 487.117C218.296 508.45 242.027 514.62 258.437 513.525C277.142 512.239 295.059 501.652 302.787 484.192C310.451 466.945 305.701 446.96 291.923 434.514C286.897 430 278.104 432.424 274.523 437.503C270.292 443.507 272.477 450.335 277.52 454.948C279.086 456.404 279.937 458.997 280.57 460.918C282.254 466.006 289.01 468.802 294.023 467.941C299.43 467.012 303.685 462.324 304.361 456.83C305.956 442.554 301.284 427.731 291.289 417.272C284.758 410.48 273.761 411.862 270.055 420.921C264.13 435.332 269.538 452.667 282.36 461.32C295.742 470.284 310.145 449.85 296.763 440.886C294.147 439.205 293.435 438.008 292.767 435.891C293.018 436.761 292.53 434.511 292.479 434.215C292.124 432.146 292.422 435.646 292.378 433.624C292.382 431.29 292.239 432.227 293.324 429.707C286.246 430.923 279.168 432.139 272.09 433.356C277.896 439.461 280.278 446.255 279.436 454.314C287.3 452.963 295.263 451.595 303.128 450.244C300.912 443.826 296.835 438.946 291.907 434.415C287.106 441.227 282.305 448.038 277.504 454.849C276.185 453.655 278.941 456.733 278.825 456.652C277.636 455.03 279.852 458.504 279.852 458.504C281.113 461.129 280.747 460.177 281.238 463.035C281.932 467.076 281.559 470.793 279.419 475.422C276.177 482.473 267.166 487.166 258.678 488.422C254.631 489.016 249.251 488.926 246.36 488.002C245.817 487.791 244.506 487.813 244.485 487.106C244.519 487.304 245.326 487.875 245.278 488.188C245.363 488.681 245.468 489.88 245.634 490.257C245.586 490.57 245.424 490.801 245.146 490.95C245.668 490.455 246.19 489.959 246.729 489.562C247.448 489.033 249.773 488.43 251.838 488.075C254.688 487.586 257.671 487.276 260.505 486.688C267.255 485.325 273.686 482.698 278.71 477.776C283.897 472.623 286.959 465.705 286.181 458.229C285.423 451.459 281.569 445.526 279.55 439.075C277.981 434.068 277.429 429.09 279.179 425.136C279.99 423.374 279.976 423.883 281.149 422.464C280.139 423.653 283.21 421.501 281.393 422.118C282.261 421.867 283.146 421.715 284.048 421.662C282.949 421.749 283.261 421.797 284.786 421.839C287.576 422.172 290.586 423.785 292.45 425.799C296.178 429.826 298.012 435.193 299.187 440.267C301.992 452.468 303.278 465.844 302.591 478.34C302.38 481.826 302.292 483.668 301.207 486.188C301.126 486.303 300.135 488.198 300.834 486.962C299.891 488.545 300.837 487.571 298.613 488.764C293.413 491.484 286.66 492.239 280.874 492.726C268.023 493.919 254.82 490.708 243.096 484.91C237.012 481.897 229.279 486.371 227.047 492.233C224.297 499.2 228.086 505.347 234.17 508.36Z" fill="#FED152" fill-opacity="0.68"/>
<path d="M407.618 654.297C387.394 656.757 382.494 684.791 387.682 700.845C390.934 710.94 400.126 718.492 410.997 718.146C417.031 717.921 423.069 715.362 426.09 709.973C429.047 704.797 428.994 698.008 426.079 692.827C423.578 688.285 418.162 684.447 412.626 685.804C395.463 690.173 387.748 710.067 387.837 726.489C387.856 736.023 391.302 745.476 399.335 750.996C406.463 755.96 416.147 757.543 423.897 753.168C418.681 746.961 413.58 740.837 408.364 734.63C398.851 746.411 395.851 764.886 406.07 777.234C415.38 788.419 433.091 791.362 444.238 781.431C456.284 770.839 440.223 751.58 428.194 762.272C427.034 763.181 426.953 763.297 428.048 762.601C429.424 762.365 429.424 762.365 427.95 762.618C430.574 762.573 427.228 762.539 426.604 762.443C427.77 762.75 427.655 762.669 426.258 762.198C427.279 762.835 427.163 762.753 425.913 761.953C424.743 761.038 424.628 760.957 425.567 761.708C424.774 760.627 424.543 760.464 425.055 761.086C425.14 761.579 424.703 759.625 424.601 759.033C424.808 760.824 424.88 755.941 424.703 756.682C425.229 753.852 426.775 751.659 428.762 749.085C436.435 739.548 424.02 724.432 413.229 730.548C411.022 731.84 413.314 731.04 414.314 730.97C412.918 730.5 412.687 730.336 413.64 730.579C414.168 731.299 414.036 731.119 413.03 729.973C413.48 731.418 412.796 729.202 412.779 729.103C412.457 727.23 412.579 725.586 412.864 723.711C413.306 720.388 414.371 717.161 415.551 714.016C416.327 712.056 416.588 711.808 417.385 710.555C416.666 711.084 416.846 710.952 417.989 709.944C417.629 710.209 417.253 710.375 416.86 710.442C412.402 708.063 407.962 705.782 403.407 703.419C403.4 702.203 403.393 700.986 403.387 699.77C404.607 698.038 405.828 696.306 407.049 694.575C410.056 692.637 409.306 693.578 411.635 693.584C410.422 693.589 410.856 691.993 411.273 693.24C410.408 691.156 410.704 688.163 410.887 685.696C411.196 682.193 411.193 681.585 412.18 679.082C412.39 678.539 412.417 677.519 413.024 677.516C413.221 677.483 408.343 679.133 411.719 678.755C418.356 677.919 422.991 670.731 421.89 664.324C420.82 657.507 414.353 653.444 407.618 654.297Z" fill="#70C9EB" fill-opacity="0.68"/>
<path d="M316.811 151.715C340.693 149.336 363.968 144.018 386.722 136.253C392.549 134.237 394.967 126.516 393.249 121.231C391.165 114.993 385.722 112.175 379.329 112.664C357.525 114.178 334.908 116.847 317.421 131.114C302.074 143.695 288.418 172.016 307.118 187.777C325.701 203.457 354.67 189.449 357.924 166.567C359.41 156.368 355.633 143.218 346.711 137.243C334.598 129.177 322.366 138.686 315.961 149.121C308.776 160.908 310.736 177.618 325.325 182.417C333.375 185.092 341.637 181.339 345.763 174.136C347.405 171.317 348.127 168.454 348.585 165.229C348.745 164.39 348.985 163.436 348.931 162.532C348.992 161.71 349.074 161.594 348.897 162.335C348.362 163.34 347.694 164.165 346.697 164.844C344.534 165.215 342.372 165.587 340.209 165.958C340.619 165.989 341.012 165.922 341.422 165.953C348.114 166.021 354.389 161.899 355.088 154.777C355.744 148.577 350.718 141.12 343.928 141.069C331.481 141.077 325.411 149.933 323.932 161.348C323.854 162.072 323.759 162.697 323.681 163.421C323.773 159.245 327.505 157.995 334.762 159.589C335.389 160.293 336.341 163.477 336.44 163.461C336.226 163.396 338.833 160.31 339.044 159.766C340.292 157.015 340.505 160.023 337.254 159.364C335.298 158.583 333.261 157.919 331.305 157.139C332.441 157.857 332.654 157.922 331.963 157.432C331.254 156.843 331.502 157.105 332.525 158.35C332.027 157.218 333.159 160.27 332.874 159.203C333.427 161.239 333.477 161.534 333.131 164.232C333.321 162.982 332.5 165.862 332.873 165.088C332.89 165.187 331.67 166.918 331.344 167.38C332.094 166.44 329.71 168.473 330.527 167.926C330.707 167.794 328.581 168.971 328.107 169.154C329.253 168.754 325.846 169.542 325.747 169.559C327.239 169.404 324.171 169.221 324.927 169.497C325.879 169.74 322.907 168.931 323.876 169.272C320.72 167.988 322.904 168.323 323.07 168.7C322.273 167.011 324.247 162.004 325.366 159.681C329.245 152.217 336.842 146.954 345.27 143.578C357.199 138.789 370.759 138.184 383.562 137.303C381.092 129.407 378.622 121.512 376.152 113.616C355.592 120.598 334.164 124.889 312.578 127.076C305.906 127.715 301.322 135.199 302.406 141.507C303.608 148.504 310.14 152.354 316.811 151.715Z" fill="#4CB484" fill-opacity="0.68"/>
<path d="M264.088 684.843C279.915 682.123 275.682 657.484 259.854 660.204C244.027 662.923 248.26 687.562 264.088 684.843Z" fill="#F6BAD4" fill-opacity="0.68"/>
<path d="M246.73 214.489C262.558 211.77 258.324 187.131 242.497 189.85C226.67 192.57 230.903 217.208 246.73 214.489Z" fill="#ED6E49" fill-opacity="0.68"/>
<path d="M247.657 258.163C263.484 255.444 259.251 230.805 243.423 233.524C227.596 236.244 231.829 260.883 247.657 258.163Z" fill="#ED6E49" fill-opacity="0.68"/>
<path d="M200.605 200.498C216.432 197.778 212.198 173.139 196.371 175.859C180.544 178.578 184.777 203.217 200.605 200.498Z" fill="#ED6E49" fill-opacity="0.68"/>
<path d="M208.314 258.328C224.142 255.608 219.908 230.969 204.081 233.689C188.254 236.408 192.487 261.047 208.314 258.328Z" fill="#ED6E49" fill-opacity="0.68"/>
<path d="M34.3798 673.274C40.1046 655.346 45.748 637.533 51.4727 619.604C44.3946 620.821 37.3165 622.037 30.2384 623.253C51.2589 643.688 70.2078 666.205 86.8208 690.442C90.6064 695.981 99.6266 696.054 104.393 691.988C109.96 687.278 109.724 680.013 105.921 674.375C89.4067 650.121 70.4578 627.605 49.3391 607.186C43.0417 601.166 31.1842 601.072 28.1048 610.835C22.38 628.763 16.7366 646.576 11.0119 664.504C8.9804 670.941 11.8403 678.161 18.3314 680.597C24.3785 682.805 32.3483 679.711 34.3798 673.274Z" fill="#CE5A99" fill-opacity="0.68"/>
<path d="M118.787 542.492C119.918 551.43 122.326 560.148 125.979 568.449C129.5 576.57 134.495 584.438 144.143 585.215C154.2 586.024 160.683 577.807 164.443 569.653C165.756 566.688 166.644 564.201 168.533 561.645C169.021 560.952 170.031 559.764 170.455 559.285C171.238 558.542 172.038 557.897 172.838 557.252C174.635 555.929 174.439 555.963 172.364 557.435C170.198 557.199 168.049 557.06 165.883 556.824C162.944 553.27 161.988 552.42 163.032 554.371C163.463 555.109 163.811 555.962 164.144 556.717C164.957 558.505 165.753 560.194 166.566 561.983C168.027 565.181 169.504 568.479 171.063 571.661C174.15 578.436 177.319 585.096 180.406 591.871C185.384 602.582 203.74 600.443 204.098 587.8C204.388 577.705 205.301 567.706 207.035 557.769C201.461 561.263 195.888 564.757 190.216 568.268C203.12 573.864 213.59 584.14 219.906 596.752C227.036 611.153 249.611 600.577 242.481 586.177C233.311 567.561 217.981 553.148 198.962 544.951C191.088 541.535 183.48 547.915 182.144 555.45C180.41 565.387 179.398 575.403 179.207 585.481C187.071 584.13 195.034 582.762 202.899 581.411C197.904 570.6 192.909 559.79 187.897 548.881C185.325 543.337 182.835 537.677 177.276 534.776C170.154 531.028 162.788 533.511 156.828 538.289C152.827 541.513 149.176 545.591 146.494 550.009C144.999 552.498 143.619 555.069 142.55 557.687C141.903 559.219 140.665 560.852 140.557 561.987C138.6 564.15 139.946 564.324 144.79 562.477C146.882 561.103 148.587 561.013 150.184 562.058C150.723 561.661 152.386 566.042 150.146 561.253C149.018 558.808 147.873 556.266 146.941 553.788C145.077 548.832 144.098 543.724 143.397 538.466C142.541 531.714 135.481 527.143 128.992 528.258C122.077 529.243 117.93 535.739 118.787 542.492Z" fill="#ED6E49" fill-opacity="0.68"/>
<path d="M180.732 388.782C179.335 388.312 179.006 388.166 179.647 388.36C179.861 388.425 179.993 388.605 180.027 388.802C179.01 388.774 179.542 387.16 179.417 388.197C178.986 390.401 179.894 391.564 176.338 392.074C175.257 392.26 174.748 392.246 173.779 391.905C173.467 391.857 171.62 389.942 172.921 391.037C173.27 391.891 173.236 391.694 172.837 390.545C172.904 390.939 172.972 391.333 173.04 391.727C173.033 390.511 172.999 390.314 172.955 391.235C172.813 392.172 172.894 392.057 173.101 390.905C173.372 392.482 172.07 391.387 173.036 391.119C172.938 391.136 176.488 389.41 173.345 390.559C173.623 390.41 173.901 390.26 174.196 390.21C175.311 390.221 175.409 390.204 174.491 390.159C174.148 390.522 174.918 390.289 173.521 389.818C174.047 389.931 175.301 391.339 174.311 390.291C173.305 389.145 174.592 390.75 174.677 391.243C174.846 392.229 174.304 392.017 174.226 392.741C174.192 392.544 175.396 390.714 174.402 392.001C174.548 391.671 175.633 392.094 174.779 391.834C173.596 391.429 174.914 392.623 174.765 392.344C175.097 393.099 177.595 394.09 178.09 394.614C181.486 397.886 182.815 400.905 183.492 404.847C184.66 411.647 180.452 418.966 174.713 422.082C179.655 423.161 184.597 424.24 189.539 425.318C185.632 421.424 183.954 417.552 184.599 412.469C185.78 403.439 186.039 393.755 176.013 389.593C161.729 383.626 145.005 399.385 139.674 411.361C133.808 424.342 137.707 441.733 150.261 449.418C163.606 457.576 181.352 451.889 187.49 437.542C190.064 431.316 186.333 423.739 180.171 421.449C173.68 419.013 166.794 422.53 164.122 428.772C164.333 428.229 164.997 426.796 164.79 427.947C164.268 428.443 164.17 428.46 164.709 428.063C165.444 427.632 165.149 427.683 163.939 428.297C165.383 428.454 164.251 428.344 163.627 428.249C165.532 428.733 162.841 428.384 163.726 428.232C164.905 428.029 161.59 427.584 163.627 428.249C162.773 427.99 162.685 426.889 163.017 427.643C163.665 429.054 162.57 426.807 162.387 426.331C161.838 424.903 162.248 427.877 162.052 424.968C161.994 423.456 161.815 423.588 162.055 422.634C162.537 420.725 162.862 420.263 164.181 418.514C165.077 417.244 166.399 416.104 168.195 414.781C167.378 415.327 169.111 414.217 169.209 414.201C169.863 413.885 170.501 413.471 171.155 413.156C173.135 412.308 171.904 412.216 167.348 412.795C165.62 411.57 163.891 410.345 162.163 409.12C161.448 404.373 160.916 403.044 160.699 405.313C160.621 406.037 160.444 406.778 160.251 407.42C159.915 408.999 159.759 410.447 159.637 412.091C159.507 415.462 159.724 419.077 160.496 422.394C162.207 429.406 165.358 435.967 170.486 441.072C174.279 444.885 180.228 447.11 185.313 444.308C202.45 435.073 212.592 415.168 207.059 395.927C201.594 377.08 178.16 356.146 159.009 371.917C150.764 378.712 147.057 390.713 151.703 400.67C156.068 410.168 166.823 415.625 177.067 414.575C198.752 412.372 204.851 381.899 186.88 370.375C175.163 362.851 160.484 368.721 155.682 381.418C150.799 394.23 159.841 407.389 171.721 411.74C187.137 417.817 195.866 394.401 180.732 388.782Z" fill="#CE619B" fill-opacity="0.68"/>
<path d="M274.845 24.0676C277.424 27.8861 279.888 31.6228 282.467 35.4412C283.558 37.0801 284.65 38.719 285.741 40.3578C286.056 41.014 286.354 41.5715 286.947 42.0784C287.808 43.5539 287.842 43.751 287.164 42.7514C287.398 40.5804 287.534 38.4262 287.769 36.2552C291.688 33.1467 292.454 32.3048 290.05 33.6309C289.494 33.9294 288.823 34.1462 288.267 34.4446C286.484 35.2584 284.701 36.0721 282.918 36.8858C279.073 38.6624 275.114 40.3574 271.27 42.134C263.744 45.4564 256.333 48.8605 248.807 52.1829C234.149 58.7601 244.718 81.3973 259.376 74.8201C267.18 71.3484 274.967 67.7782 282.771 64.3066C289.822 61.1672 297.877 58.5657 304.315 54.2126C312.567 48.6348 313.873 38.5681 308.908 30.2893C304.357 22.6497 299.07 15.4409 294.159 8.06592C290.357 2.42841 281.37 2.55194 276.587 6.51929C270.708 11.1821 271.043 18.4301 274.845 24.0676Z" fill="#70C9EB" fill-opacity="0.68"/>
</svg>
