<svg width="211" height="1202" viewBox="0 0 211 1202" fill="none" xmlns="http://www.w3.org/2000/svg">
<path d="M29.5909 176.278C22.4166 163.904 22.8057 151.139 30.1807 138.677C34.8134 130.74 39.9184 122.994 42.2441 114.014C44.3263 105.949 44.6357 98.0294 43.7784 89.6992C43.0093 82.1439 40.6607 74.6227 37.4578 67.8525C35.6882 64.1774 33.4223 60.8921 31.321 57.3568C30.5363 56.0034 29.4462 54.5681 29.0767 53.1299C29.389 54.2914 29.645 50.9956 29.3489 52.3535C31.2115 44.6213 35.8557 38.4835 36.857 30.4226C38.0161 21.0321 34.6369 12.7123 27.0891 6.90125C21.7694 2.79769 13.3037 5.10265 9.79058 10.4329C5.83829 16.4294 7.96269 23.5638 13.3659 27.7224C11.7509 26.5385 12.5457 25.1509 12.197 26.952C12.5697 24.5694 11.607 30.0276 11.9032 28.6697C11.4733 30.7757 9.36569 34.8819 8.19127 37.5723C4.52964 45.6718 3.00337 53.9841 6.21783 62.5538C8.75507 69.2436 13.5019 74.7615 16.316 81.3948C18.2595 86.2597 19.6347 93.2589 19.4475 98.6308C19.2123 105.166 17.8059 110.571 14.2425 116.704C9.85805 124.446 4.75071 131.832 2.11732 140.37C-2.63377 155.756 -0.747632 173.246 7.40694 187.222C10.7699 193.023 17.8006 195.984 24.1549 192.885C29.6525 190.177 33.0373 182.134 29.5909 176.278Z" fill="#CE5A99" fill-opacity="0.68"/>
<path d="M86.1127 204.093C74.0796 220.533 91.1867 243.277 106.448 250.468C116.038 254.997 127.835 253.454 135.015 245.285C138.977 240.728 141.238 234.572 139.371 228.683C137.616 222.986 132.625 218.383 126.852 216.967C121.827 215.686 115.323 217.014 112.528 221.982C103.981 237.493 113.223 256.726 125.267 267.889C132.237 274.395 141.491 278.344 151.011 276.256C159.508 274.449 167.285 268.465 169.391 259.818C161.296 259.381 153.339 258.915 145.243 258.477C147.335 273.475 158.766 288.296 174.763 289.283C189.29 290.137 203.548 279.225 203.924 264.301C204.43 248.268 179.395 246.82 178.972 262.908C178.843 264.375 178.872 264.514 179.113 263.239C179.881 262.073 179.881 262.073 179.058 263.322C180.819 261.377 178.507 263.795 178.01 264.185C179.032 263.544 178.893 263.572 177.595 264.27C178.757 263.961 178.619 263.989 177.18 264.355C175.713 264.582 175.574 264.61 176.765 264.439C175.434 264.279 175.157 264.335 175.961 264.387C176.378 264.662 174.654 263.645 174.153 263.315C175.601 264.389 172.087 260.998 172.507 261.633C170.801 259.314 170.258 256.686 169.738 253.476C168.025 241.357 148.506 240.08 145.591 252.136C145.025 254.63 146.008 252.411 146.641 251.633C145.343 252.33 145.066 252.387 145.894 251.857C146.781 251.965 146.559 251.938 145.035 251.889C146.397 252.548 144.312 251.532 144.229 251.477C142.642 250.431 141.526 249.217 140.352 247.727C138.229 245.133 136.603 242.15 135.115 239.138C134.215 237.231 134.213 236.871 133.844 235.433C133.738 236.32 133.765 236.098 133.81 234.575C133.758 235.018 133.622 235.406 133.402 235.74C128.618 237.365 123.917 239.045 119.078 240.754C118.186 239.927 117.294 239.1 116.402 238.273C115.973 236.198 115.544 234.124 115.115 232.049C115.757 228.53 115.931 229.72 117.528 228.025C116.702 228.914 115.834 227.505 117.029 228.054C114.918 227.26 112.936 224.998 111.261 223.177C108.916 220.557 108.47 220.143 107.318 217.711C107.065 217.186 106.34 216.47 106.753 216.025C106.863 215.858 104.731 220.546 106.765 217.824C110.693 212.409 108.617 204.112 103.189 200.535C97.4831 196.654 90.0959 198.595 86.1127 204.093Z" fill="#70C9EB" fill-opacity="0.68"/>
<path d="M10.2629 329.714C19.1007 316.305 -1.77321 302.547 -10.611 315.956C-19.4487 329.365 1.4252 343.123 10.2629 329.714Z" fill="#F6BAD4" fill-opacity="0.68"/>
<path d="M70.7751 336.028C79.6129 322.619 58.739 308.861 49.9013 322.27C41.0635 335.679 61.9374 349.437 70.7751 336.028Z" fill="#F6BAD4" fill-opacity="0.68"/>
<path d="M73.3855 371.318C82.2232 357.909 61.3493 344.151 52.5116 357.56C43.6739 370.969 64.5478 384.727 73.3855 371.318Z" fill="#F6BAD4" fill-opacity="0.68"/>
<path d="M3.44947 852.301C8.23817 851.395 13.0817 850.407 17.8704 849.501C23.0743 848.511 28.7242 847.934 33.6158 845.782C39.1707 843.35 42.8771 837.909 43.2816 831.844C43.6357 826.582 41.332 821.718 38.8921 817.243C30.0294 800.889 18.6184 784.766 4.76365 772.17C-15.8372 753.455 -32.4027 789.128 -39.3726 804.246C-43.2538 812.679 -46.2737 821.44 -48.2941 830.502C-50.6654 841.005 -53.2208 853.059 -42.204 859.603C-31.8552 865.707 -18.7669 858.206 -8.89801 854.317C1.49584 850.177 11.7776 845.844 22.0021 841.233C30.3201 837.517 31.4823 824.306 23.3044 819.632C10.787 812.457 -3.77841 810.025 -17.7773 813.82C-12.9207 819.172 -8.20242 824.551 -3.34581 829.903C-2.14742 826.631 0.663639 824.183 4.53851 823.392C10.5441 822.093 14.9425 816.51 14.3759 810.283C13.807 803.696 9.01454 799.701 2.68969 798.758C3.79911 798.892 3.60583 799.003 3.86094 799.888C1.74118 793.474 -3.72158 788.679 -10.9178 790.148C-16.8685 791.363 -22.7535 798.474 -20.6338 804.889C-17.0452 815.617 -9.91023 821.873 1.35327 823.682C0.746522 815.516 0.111191 807.213 -0.495554 799.048C-13.0603 801.757 -22.5938 810.407 -27.1175 822.358C-30.2781 830.788 -21.6218 840.914 -12.686 838.441C-4.91231 836.277 3.07323 836.881 9.60986 840.592C10.0623 833.364 10.4598 826.219 10.9122 818.991C1.87591 823.07 -7.27243 826.956 -16.4494 830.704C-21.0379 832.577 -25.7098 834.396 -30.3269 836.132C-30.797 836.3 -31.6822 836.553 -32.1237 836.859C-32.5938 837.027 -33.0924 837.057 -33.5625 837.225C-30.886 839.706 -28.2381 842.048 -25.5616 844.529C-24.8743 843.668 -24.6516 839.514 -24.3817 838.378C-22.3614 829.316 -19.3701 820.416 -15.4054 812.039C-13.4362 807.961 -11.2165 804.048 -8.82981 800.245C-7.59588 798.191 -6.19492 796.247 -4.87749 794.248C-4.21878 793.249 -3.47657 792.305 -2.73436 791.36C-2.40501 790.86 -1.99215 790.416 -1.66279 789.916C-0.149773 788.166 -1.19965 788.668 -4.64548 791.534C-6.75222 791.46 -8.88761 791.247 -10.9943 791.172C-12.8622 789.464 -13.1962 789.243 -12.0249 790.374C-11.3832 791.036 -10.7416 791.697 -10.1834 792.304C-8.98353 793.573 -7.70014 794.897 -6.50029 796.165C-4.26757 798.593 -2.17328 801.048 -0.0503543 803.642C3.99991 808.581 7.80205 813.716 11.2176 819.073C12.9539 821.89 14.6068 824.652 16.1499 827.58C16.7676 828.824 17.3876 830.427 18.2534 831.475C19.9728 835.954 21.7007 833.15 23.4922 822.982C22.8003 823.123 22.2468 823.236 21.5548 823.377C13.9102 824.073 6.02669 826.403 -1.52978 827.874C-17.473 830.985 -12.4103 855.467 3.44947 852.301Z" fill="#435BA2" fill-opacity="0.68"/>
<path d="M158.711 974.345C153.446 970.158 148.473 963.894 145.189 957.428C142.465 951.93 139.115 943.748 140.24 937.68C140.667 935.214 141.689 934.573 143.927 933.54C146.11 932.59 149.293 931.94 152.395 931.595C155.635 931.222 159.958 931.204 163.702 931.521C165.532 931.652 167.307 931.866 168.974 932.607C167.946 932.168 172.204 934.975 170.532 933.514C171.51 934.756 171.677 934.866 171.145 934.038C171.791 935.419 171.904 935.613 171.565 934.673C172.546 932.094 170.381 935.923 171.699 933.925C172.663 933.007 172.47 933.119 171.396 934.203C172.307 933.728 172.114 933.84 170.816 934.537C169.518 935.235 169.325 935.346 167.249 935.77C160.993 936.903 152.712 933.476 145.587 937.382C135.45 942.767 134.288 955.978 135.601 966.161C136.711 975.016 140.81 983.333 146.673 990.065C154.407 998.865 166.922 992.778 168.547 982.5C170.116 972.305 164.85 963.577 160.194 955.014C159.465 953.577 158.315 951.505 157.948 950.427C157.836 950.233 156.703 946.5 157.354 948.602C157.836 950.233 155.858 948.691 157.409 948.519C157.049 948.52 156.085 949.438 157.631 948.545C156.719 949.02 156.361 949.381 155.364 949.441C154.505 949.472 150.085 947.275 152.451 948.954C157.881 952.891 166.182 950.836 169.75 945.423C173.592 939.593 171.687 932.125 166.174 928.133C152.419 918.111 133.985 930.452 132.699 945.851C132.053 953.191 134.705 960.434 138.237 966.704C139.723 969.356 141.318 971.841 142.611 974.605C144.016 977.561 144.185 978.031 143.679 981.162C150.951 978.668 158.224 976.174 165.552 973.597C161.95 969.431 159.949 964.29 160.272 958.529C160.272 958.529 160.177 956.675 160.375 957.283C160.118 956.038 162.738 954.062 158.357 957.984C155.188 960.793 154.823 960.075 158.151 960.476C162.312 961.068 166.22 961.135 170.374 960.648C188.264 958.581 203.449 940.993 193.856 923.202C184.517 905.936 161.701 904.756 144.593 907.816C136.233 909.235 128.191 912.895 122.607 919.368C115.868 927.231 114.794 937.037 116.188 946.915C118.89 966.257 130.141 983.349 145.267 995.47C150.532 999.656 159.107 997.185 162.566 991.938C166.294 985.555 163.976 978.532 158.711 974.345Z" fill="#70C9EB" fill-opacity="0.68"/>
<path d="M99.3617 506.351C94.5747 498.895 90.0072 491.106 84.9172 483.928C79.3787 475.977 69.578 473.221 61.1594 478.544C54.5902 482.696 48.9773 489.031 43.2739 494.232C36.9644 499.989 30.5713 505.691 24.2618 511.448C12.3587 522.239 28.8582 540.998 40.7613 530.207C46.8227 524.645 52.9126 519.221 58.974 513.659C61.8949 511.045 64.8157 508.43 67.708 505.677C69.1684 504.37 70.6288 503.063 72.0893 501.756C72.8052 501.033 73.5497 500.448 74.2657 499.726C76.4992 497.972 75.3372 498.282 70.9467 500.764C68.8639 500.108 66.836 499.368 64.7532 498.712C64.1093 497.691 64.3598 497.856 65.2828 499.181C65.4808 499.789 65.9005 500.424 66.3752 500.976C67.439 502.633 68.5028 504.29 69.5666 505.947C72.0304 509.84 74.4656 513.596 76.9295 517.49C80.5692 523.234 87.1298 526.363 93.6774 523.152C99.2849 520.278 103.056 512.011 99.3617 506.351Z" fill="#70C9EB" fill-opacity="0.68"/>
<path d="M35.4087 1180.87C46.068 1161.97 58.5904 1144.06 73.2312 1128.02C66.9884 1122.6 60.7457 1117.17 54.5028 1111.74C48.8365 1122.7 43.0386 1134.76 34.1159 1143.58C30.2333 1147.47 26.8137 1150.11 22.4494 1152.37C18.4717 1154.41 14.7661 1155.67 10.6385 1155.94C8.09027 1156.17 2.68392 1155.83 1.45546 1154.43C1.56756 1154.62 1.7701 1155.95 1.42686 1154.29C1.20035 1153.54 1.33872 1153.51 1.52506 1152.32C1.49646 1152.18 2.48221 1150.32 3.25302 1149.52C3.83055 1148.82 5.87313 1147.54 6.01152 1147.51C6.89674 1147.26 7.92035 1146.98 8.77929 1146.95C7.50519 1147.06 10.917 1147.52 9.52847 1147.08C12.055 1147.79 12.222 1147.9 14.1996 1149.45C14.7006 1149.78 15.0678 1150.85 15.2108 1151.55C15.2804 1149.44 15.4884 1147.31 15.5581 1145.2C16.2578 1141.96 18.9822 1143.28 15.9067 1143.4C15.3246 1143.38 11.452 1144.53 11.4783 1144.31C11.4234 1144.39 13.9592 1146.54 14.3527 1147.4C12.903 1154.68 10.2612 1157.6 6.39875 1156.01C7.00951 1156.18 7.70375 1156.39 8.398 1156.61C19.4489 1159.83 30.0785 1157.88 34.9934 1146.43C37.6693 1140.19 32.9372 1132.65 26.9108 1130.71C20.0231 1128.44 13.869 1132.5 11.1931 1138.74C11.0571 1139.13 10.8375 1139.46 10.7014 1139.85C11.909 1138.02 13.1167 1136.19 14.3244 1134.36C15.9209 1132.66 19.948 1134 16.0329 1132.85C13.5064 1132.14 10.8415 1131.46 8.29099 1131.34C1.94217 1130.97 -4.55054 1134.1 -7.95158 1139.62C-14.8897 1151.06 -6.75906 1165.62 5.4538 1168.53C16.0014 1171.06 31.773 1167.12 37.4749 1157.38C44.11 1146.22 35.1846 1133.05 25.4465 1127.11C5.24753 1114.87 -22.7395 1128.44 -23.8038 1152.59C-24.4148 1165.33 -16.0328 1175.87 -3.92745 1179.31C6.26217 1182.2 16.7317 1181.22 26.6864 1177.75C50.6045 1169.26 63.9582 1147 75.1285 1125.69C78.0309 1120.2 77.8509 1113.75 72.8628 1109.5C68.5713 1105.84 60.7768 1104.76 56.4836 1109.46C40.3298 1127.24 26.0414 1146.38 14.2866 1167.3C11.0262 1173.16 11.9337 1180.69 17.8619 1184.59C23.4538 1187.92 32.0934 1186.8 35.4087 1180.87Z" fill="#4CB484" fill-opacity="0.68"/>
<path d="M-46.0206 960.066C-16.5771 953.19 10.7636 938.238 32.0765 916.804C36.7849 912.023 37.9007 904.515 33.2659 899.191C29.0224 894.363 20.4238 893.235 15.6319 897.962C-2.67888 916.476 -25.5696 929.582 -50.9998 935.639C-66.6903 939.275 -61.6275 963.757 -46.0206 960.066Z" fill="#0F9352" fill-opacity="0.68"/>
<path d="M26.8225 439.783C35.6602 426.375 14.7864 412.617 5.94862 426.026C-2.88912 439.434 17.9848 453.192 26.8225 439.783Z" fill="#435BA2" fill-opacity="0.68"/>
<path d="M67.9641 420.428C76.8018 407.02 55.928 393.262 47.0902 406.67C38.2525 420.079 59.1264 433.837 67.9641 420.428Z" fill="#435BA2" fill-opacity="0.68"/>
<path d="M41.3351 382.33C50.1729 368.921 29.299 355.163 20.4613 368.572C11.6784 381.898 32.4974 395.739 41.3351 382.33Z" fill="#435BA2" fill-opacity="0.68"/>
<path d="M79.8938 689.799C58.471 676.874 36.5016 665.141 13.9283 654.325C7.84008 651.388 0.113437 656.569 -1.78931 662.363C-4.07168 669.46 0.205145 675.146 6.29338 678.084C26.7816 687.884 46.7231 698.877 66.2541 710.675C72.013 714.112 79.765 712.89 83.5526 707.144C87.0921 701.592 85.6526 693.236 79.8938 689.799Z" fill="#EBCBB2" fill-opacity="0.68"/>
<path d="M70.0242 1025.68C78.8619 1012.27 57.988 998.512 49.1503 1011.92C40.3125 1025.33 61.1864 1039.09 70.0242 1025.68Z" fill="#EBCBB2" fill-opacity="0.68"/>
<path d="M36.1404 1057.46C44.9781 1044.05 24.1042 1030.3 15.2665 1043.71C6.42875 1057.11 27.3026 1070.87 36.1404 1057.46Z" fill="#EBCBB2" fill-opacity="0.68"/>
<path d="M0.676997 1028.95C9.51474 1015.54 -11.3592 1001.79 -20.1969 1015.19C-29.0346 1028.6 -8.16074 1042.36 0.676997 1028.95Z" fill="#EBCBB2" fill-opacity="0.68"/>
<path d="M44.157 998.237C52.9947 984.828 32.1208 971.07 23.2831 984.479C14.4454 997.888 35.3192 1011.65 44.157 998.237Z" fill="#EBCBB2" fill-opacity="0.68"/>
<path d="M157.889 849.228C162.091 834.676 166.239 820.206 170.357 805.598C174.748 790.214 151.835 782.639 146.612 797.833C142.448 809.783 138.285 821.733 134.122 833.683C128.815 848.821 152.643 856.642 157.867 841.448C162.03 829.498 166.194 817.548 170.357 805.598C162.47 803.028 154.499 800.403 146.612 797.833C142.41 812.385 138.263 826.855 134.144 841.462C129.67 856.792 153.444 864.696 157.889 849.228Z" fill="#FED152" fill-opacity="0.68"/>
</svg>
