<svg width="1920" height="760" viewBox="0 0 1920 760" fill="none" xmlns="http://www.w3.org/2000/svg">
<g clip-path="url(#clip0_384_606)">
<rect width="1920" height="760" fill="white"/>
<path d="M230.72 613.93C219.92 696.15 220.7 794.84 402.28 802.74C409.09 799.67 415.76 795.93 422.29 791.4C422.94 791.02 423.49 790.66 423.91 790.31C509.14 729.24 499.15 593.96 411.69 543.1C383.31 526.17 349.58 518.31 327.9 514.79C327.9 514.79 241.51 531.71 230.71 613.93H230.72Z" fill="#FCC009"/>
<path d="M226.94 532.28C212.12 541.31 186.42 566.63 174.53 598.92C168.3 615.84 166.51 626.92 163.67 649.52C160.88 700.05 178.59 730.04 179.06 731.44C196.52 783.01 253.7 806.4 309.29 813.86C342.7 816.65 373.72 815.63 402.28 802.75C220.7 794.85 219.92 696.16 230.72 613.94C241.52 531.71 327.91 514.8 327.91 514.8C315.12 512.73 306.53 512.16 305.72 512.13C291.2 511.67 250.54 515.24 226.94 532.28Z" fill="#F9B91C"/>
<path d="M229.6 452.73C221.15 456.89 216.08 440.22 209.58 434.45C208 432.54 206.35 430.62 204.53 428.67C194.71 418.11 176.85 413.43 149.87 420.61C126.82 426.74 105.81 443.5 89.6299 461.96C86.1999 465.88 82.9699 469.87 79.9999 473.85C65.8599 492.83 63.2199 519.05 81.7699 536.64C81.8799 536.81 94.0699 544.46 85.7499 556C84.5999 557.99 83.6899 560.29 83.1099 563.04C80.3699 575.94 96.1699 584.4 105.14 577.41C105.94 578.12 127.64 563.42 139.06 554.43C140.78 553.08 244.48 477.3 242.48 477.74C243.11 477.25 243.75 476.76 244.39 476.27C258.39 465.49 245.91 444.71 229.6 452.73Z" fill="#FCC009"/>
<path d="M600.25 717.58C580.23 716.58 567.69 700.44 559.69 683.63C550.98 665.34 547.87 644.89 544.8 625.05C544.16 620.91 547.98 617.03 551.93 616.73C556.38 616.39 559.61 619.71 560.25 623.86C562.85 640.67 565.54 657.63 572.08 673.44C576.54 684.21 585.41 701.46 599.05 702.14C603.23 702.35 607.02 704.72 607.37 709.27C607.66 713.03 604.45 717.8 600.24 717.59L600.25 717.58Z" fill="#5AC0EE"/>
<path d="M856.31 713.44C872.48 710.68 882.8 696.46 888.53 682.18C895.25 665.43 895.79 646.88 896.23 629.07C896.33 624.89 898.88 621.09 903.36 620.75C907.21 620.45 911.79 623.67 911.68 627.88C911.14 649.46 910.22 671.34 901.43 691.42C893.18 710.25 878.29 725.34 857.49 728.9C853.36 729.61 849.47 725.67 849.17 721.77C848.82 717.27 852.16 714.15 856.3 713.45L856.31 713.44Z" fill="#77C7F0"/>
<path d="M866.58 686.68C849.4 650.57 811.5 630.52 773.44 624.98C773.16 622.71 772.86 620.46 772.53 618.25C767.18 582.03 748.12 542.94 710.22 531.84C709.59 531.66 708.95 531.54 708.32 531.37C700.1 532.61 630.91 544.99 627.36 611.35C627.36 611.35 618.63 658.02 638.98 695.69C638.98 695.69 608.37 842.38 830.21 803.33V803.39C830.4 803.3 830.6 803.22 830.79 803.12C874.91 781.63 886.6 728.8 866.56 686.68H866.58Z" fill="#77C7F0"/>
<path d="M638.99 695.68C618.63 658.01 627.37 611.34 627.37 611.34C630.92 544.98 700.11 532.6 708.33 531.36C666.84 520.13 620.29 537.37 599.39 575.98C579.89 612 580.02 653.88 590.69 692.81C592.08 697.9 594.07 702.84 596.55 707.51C592.92 728.13 593.5 749.39 603.98 768.36C615.15 788.58 633.86 803.69 655.94 810.44C687.95 820.23 725.83 822.86 759.11 821.29C766.28 820.95 773.49 819.71 780.37 817.59C797.83 815.15 814.99 810.68 830.22 803.36V803.3C608.39 842.35 638.99 695.66 638.99 695.66V695.68Z" fill="#5AC0EE"/>
<path d="M996.8 717.08C981.24 716.49 965.88 711.76 953.91 701.56C947.84 696.38 943.4 689.64 940.23 682.37C936.45 673.67 933.15 664.74 929.68 655.91C928.03 651.72 931.49 646.75 935.51 645.65C940.24 644.35 944.12 647.27 945.77 651.48C948.63 658.77 951.48 666.45 954.43 673.48C957.24 680.19 959.94 684.68 965.06 689.21C965.6 689.69 966.14 690.16 966.71 690.6C965.75 689.84 967.82 691.38 967.79 691.36C968.98 692.18 970.21 692.95 971.47 693.66C974.67 695.47 975.96 696.05 979.07 697.12C982.18 698.19 985.3 698.99 988.49 699.58C989.22 699.71 989.95 699.84 990.68 699.95C991.5 700.07 990.14 699.92 991.54 700.05C993.3 700.21 995.05 700.35 996.81 700.41C1001.31 700.58 1005.15 704.12 1005.15 708.75C1005.15 713.14 1001.33 717.26 996.81 717.09L996.8 717.08Z" fill="#EBB0BE"/>
<path d="M1294.44 806.92C1315.24 770.63 1306.35 726.07 1284.45 692.64C1282.52 689.7 1280.49 686.81 1278.48 683.91C1266.22 656.49 1248.17 633.37 1228.17 608.97C1210 586.8 1189.49 560.52 1162.66 549.5C1139.86 534.12 1115.04 544.36 1094.39 561C1073.68 577.68 1055.25 597.42 1039.46 618.96C1022.39 660 1000.91 726.15 1023.55 757.91C1057.73 805.85 1129.16 770.81 1129.16 770.81C1129.16 770.81 1132.19 810.2 1186.24 827.24C1221.58 838.38 1251.78 836.64 1268.45 834.1C1278.88 827.3 1287.89 818.34 1294.44 806.91V806.92Z" fill="#F6B7C7"/>
<path d="M1186.24 827.25C1132.19 810.21 1129.16 770.82 1129.16 770.82C1129.16 770.82 1057.73 805.86 1023.55 757.92C1000.91 726.16 1022.38 660.01 1039.46 618.97C1034.16 626.2 1029.16 633.63 1024.48 641.21C1005.99 671.15 990.31 706.25 984.85 741.2C977.83 786.16 1000.81 832.68 1051.31 833.92C1080.03 834.63 1101.96 820.48 1118.21 800.34C1131.37 822.91 1153.18 839.83 1180.41 846.66C1194.66 850.23 1209.98 851.18 1224.87 849.38L1263.29 837.23C1265.05 836.25 1266.77 835.22 1268.45 834.12C1251.77 836.66 1221.58 838.4 1186.24 827.26V827.25Z" fill="#EBB0BE"/>
<path d="M1700.25 557.39C1699.82 551.41 1697.97 545.99 1694.69 541.13C1692.36 535.96 1688.86 531.65 1684.21 528.19C1679.83 524.4 1674.86 521.93 1669.3 520.78C1663.85 518.64 1658.15 518.01 1652.22 518.89C1648.44 519.83 1644.67 520.76 1640.89 521.7C1633.79 524.56 1627.83 528.97 1623.02 534.93C1616.81 543.39 1613.19 553.19 1613.53 563.7C1612.05 577.37 1609.69 591.61 1603.83 603.86C1595.91 620.43 1579.29 623.67 1562.58 627.01C1536.43 632.23 1492.53 639.66 1488.39 602.4C1488.3 601.55 1488.12 600.75 1487.92 599.99C1487.74 596.78 1487.59 593.57 1487.5 590.35C1487.07 574.95 1475.33 561.28 1461.01 555.04C1448.42 561.81 1430.1 576.71 1432.59 605.48C1436.34 648.8 1465.49 763.52 1570.07 760.2C1631.4 758.26 1667.45 748.81 1686.8 741.33C1690.09 736.25 1693.02 730.84 1695.52 725.07C1716.32 677 1707.09 624.85 1701.58 574.72C1701.69 572.55 1701.68 570.35 1701.43 568.12L1700.25 557.4V557.39Z" fill="#EE706C"/>
<path d="M1570.06 760.19C1465.48 763.51 1436.33 648.79 1432.58 605.47C1430.09 576.7 1448.41 561.8 1461 555.03C1454.1 552.02 1446.6 550.72 1439.47 551.83C1414.57 555.7 1400.29 575.41 1400.96 599.85C1402.27 647.41 1414.6 699.52 1442.88 738.63C1473.67 781.22 1525.38 795.79 1575.83 796.35C1619.76 796.84 1663.01 778.03 1686.79 741.31C1667.44 748.79 1631.38 758.24 1570.06 760.18V760.19Z" fill="#DC6965"/>
<path d="M1128.5 615.29C1145.58 626.46 1158.66 644.71 1171 660.69C1185.24 679.13 1196.87 697.88 1200.92 721.05C1204.34 740.59 1228.27 751.57 1246.06 746.68C1266.69 741.01 1275.12 721.13 1271.69 701.54C1266.27 670.55 1249.79 643.77 1230.93 619.18C1211.65 594.04 1192.34 569.45 1165.53 551.91C1125.89 525.98 1089.07 589.5 1128.49 615.29H1128.5Z" fill="#F6B7C7"/>
<path d="M476.05 687.89C503.76 694.6 517.04 715.75 523.82 736.36C531.19 758.77 530.17 781.99 529.26 804.51C529.07 809.21 522.71 812.37 517.12 811.6C510.82 810.73 507.17 806.19 507.36 801.48C508.13 782.39 508.83 763.13 503.84 744.02C500.44 731 492.57 709.69 473.68 705.11C467.9 703.71 463.22 700.06 463.92 694.99C464.5 690.8 470.24 686.49 476.06 687.9L476.05 687.89Z" fill="#FCC009"/>
<path d="M736.82 685.77C741.133 685.77 744.63 682.273 744.63 677.96C744.63 673.647 741.133 670.15 736.82 670.15C732.506 670.15 729.01 673.647 729.01 677.96C729.01 682.273 732.506 685.77 736.82 685.77Z" fill="#222323"/>
<path d="M677.48 681.18C681.793 681.18 685.29 677.683 685.29 673.37C685.29 669.057 681.793 665.56 677.48 665.56C673.167 665.56 669.67 669.057 669.67 673.37C669.67 677.683 673.167 681.18 677.48 681.18Z" fill="#222323"/>
<path d="M1173.11 660.32C1178.26 660.32 1182.43 656.147 1182.43 651C1182.43 645.853 1178.26 641.68 1173.11 641.68C1167.96 641.68 1163.79 645.853 1163.79 651C1163.79 656.147 1167.96 660.32 1173.11 660.32Z" fill="#222323"/>
<path d="M1108.63 656.95C1113.78 656.95 1117.95 652.777 1117.95 647.63C1117.95 642.483 1113.78 638.31 1108.63 638.31C1103.48 638.31 1099.31 642.483 1099.31 647.63C1099.31 652.777 1103.48 656.95 1108.63 656.95Z" fill="#222323"/>
<path d="M693.05 688.51C692.81 691.83 692.95 695.52 694.43 698.57C695.72 701.25 698.4 703.62 701.18 704.64C706.78 706.69 714.65 705.24 717.87 699.83C718.88 698.13 719.44 696.36 719.65 694.39C719.79 693.04 719.76 691.67 719.85 690.31C720.02 687.88 718.09 685.4 715.57 685.32C713.05 685.24 710.76 687 710.58 689.6C710.51 690.62 710.5 691.65 710.45 692.67C710.43 693.12 710.4 693.57 710.34 694.01C710.31 694.22 710.15 695.03 710.34 694.15C710.53 693.27 710.32 694.17 710.24 694.38C710.2 694.49 710.1 694.95 709.99 695C709.92 695.03 710.55 694.03 710.28 694.44C710.22 694.54 710.16 694.64 710.1 694.74C709.97 694.95 709.81 695.14 709.66 695.34C709.58 695.45 709.25 695.82 709.71 695.3C710.19 694.75 709.73 695.25 709.61 695.36C709.42 695.53 708.75 696.01 709.55 695.5C710.35 694.99 709.75 695.36 709.55 695.46C709.37 695.55 709.19 695.63 709 695.71C708.9 695.75 708.8 695.79 708.7 695.83C708.08 696.09 709.17 695.64 709.18 695.68C709.18 695.69 707.86 696.04 707.74 696.06C707.5 696.11 707.25 696.16 707 696.2C706.78 696.23 705.78 696.31 706.67 696.27C707.56 696.23 706.64 696.25 706.42 696.24C706.15 696.22 705.88 696.2 705.61 696.17C705.36 696.14 705.12 696.11 704.87 696.08C704.76 696.06 704.64 696.03 704.53 696.02C703.99 695.97 705.59 696.31 705.11 696.15C704.73 696.02 704.34 695.92 703.97 695.77C703.94 695.76 703.73 695.64 703.71 695.65C703.74 695.63 704.63 696.2 704.35 695.97C704.17 695.82 703.95 695.72 703.77 695.58C703.69 695.52 703.61 695.44 703.52 695.38C703.12 695.13 704.07 695.87 703.99 695.82C703.8 695.7 703.63 695.48 703.48 695.32C703.3 695.13 703.12 694.94 702.95 694.74C702.81 694.58 702.27 693.83 702.77 694.57C703.27 695.31 702.81 694.56 702.71 694.35C702.67 694.25 702.64 694.14 702.58 694.04C702.34 693.59 702.86 695.04 702.74 694.52C702.6 693.93 702.45 693.35 702.36 692.74C702.31 692.41 702.28 692.08 702.25 691.75C702.24 691.61 702.2 691.08 702.25 691.78C702.29 692.53 702.25 691.8 702.25 691.64C702.23 690.84 702.26 690.05 702.32 689.25C702.49 686.82 700.57 684.34 698.04 684.26C695.53 684.18 693.23 685.94 693.05 688.54V688.51Z" fill="#222323"/>
<path d="M1124.06 669.82C1123.82 673.14 1123.96 676.83 1125.44 679.88C1126.73 682.56 1129.41 684.93 1132.19 685.95C1137.79 688 1145.66 686.55 1148.88 681.14C1149.89 679.44 1150.45 677.67 1150.66 675.7C1150.8 674.35 1150.77 672.98 1150.86 671.62C1151.03 669.19 1149.1 666.71 1146.58 666.63C1144.06 666.55 1141.77 668.31 1141.59 670.91C1141.52 671.93 1141.51 672.96 1141.46 673.98C1141.44 674.43 1141.41 674.88 1141.35 675.32C1141.32 675.53 1141.16 676.34 1141.35 675.46C1141.54 674.58 1141.33 675.48 1141.25 675.69C1141.21 675.8 1141.11 676.26 1141 676.31C1140.93 676.34 1141.56 675.34 1141.29 675.75C1141.23 675.85 1141.17 675.95 1141.11 676.05C1140.98 676.26 1140.82 676.45 1140.67 676.65C1140.59 676.76 1140.26 677.13 1140.72 676.61C1141.2 676.06 1140.74 676.56 1140.62 676.67C1140.43 676.84 1139.76 677.32 1140.56 676.81C1141.36 676.3 1140.76 676.67 1140.56 676.77C1140.38 676.86 1140.2 676.94 1140.01 677.02C1139.91 677.06 1139.81 677.1 1139.71 677.14C1139.09 677.4 1140.18 676.95 1140.19 676.99C1140.19 677 1138.87 677.35 1138.75 677.37C1138.51 677.42 1138.26 677.47 1138.01 677.51C1137.79 677.54 1136.79 677.62 1137.68 677.58C1138.57 677.54 1137.65 677.56 1137.43 677.55C1137.16 677.53 1136.89 677.51 1136.62 677.48C1136.37 677.45 1136.13 677.42 1135.88 677.39C1135.77 677.37 1135.65 677.34 1135.54 677.33C1135 677.28 1136.6 677.62 1136.12 677.46C1135.74 677.33 1135.35 677.23 1134.98 677.08C1134.95 677.07 1134.74 676.95 1134.72 676.96C1134.75 676.94 1135.64 677.51 1135.36 677.28C1135.18 677.13 1134.96 677.03 1134.78 676.89C1134.7 676.83 1134.62 676.75 1134.53 676.69C1134.13 676.44 1135.08 677.18 1135 677.13C1134.81 677.01 1134.64 676.79 1134.49 676.63C1134.31 676.44 1134.13 676.25 1133.96 676.05C1133.82 675.89 1133.28 675.14 1133.78 675.88C1134.28 676.62 1133.82 675.87 1133.72 675.66C1133.68 675.56 1133.65 675.45 1133.59 675.35C1133.35 674.9 1133.87 676.35 1133.75 675.83C1133.61 675.24 1133.46 674.66 1133.37 674.05C1133.32 673.72 1133.29 673.39 1133.26 673.06C1133.25 672.92 1133.21 672.39 1133.26 673.09C1133.3 673.84 1133.26 673.11 1133.26 672.95C1133.24 672.15 1133.27 671.36 1133.33 670.56C1133.5 668.13 1131.58 665.65 1129.05 665.57C1126.54 665.49 1124.24 667.25 1124.06 669.85V669.82Z" fill="#222323"/>
<path d="M355.55 684.86C360.388 684.86 364.31 680.938 364.31 676.1C364.31 671.262 360.388 667.34 355.55 667.34C350.712 667.34 346.79 671.262 346.79 676.1C346.79 680.938 350.712 684.86 355.55 684.86Z" fill="#2D2C00"/>
<path d="M275.7 673.8C280.538 673.8 284.46 669.878 284.46 665.04C284.46 660.202 280.538 656.28 275.7 656.28C270.862 656.28 266.94 660.202 266.94 665.04C266.94 669.878 270.862 673.8 275.7 673.8Z" fill="#2D2C00"/>
<path d="M287.89 694.32C290.93 703.37 301.28 707.43 309.85 709.01C313.09 709.61 317.7 709.27 320.86 708.48C326.13 707.15 332 704.97 335.11 700.19C336.96 697.34 337.05 693.22 334.02 691.04C331.37 689.13 326.85 689.08 324.87 692.13C324.72 692.36 324.06 693.28 322.69 694.13C321.64 694.78 320.16 695.33 318.38 695.75C316.94 696.08 312.59 696.15 310.93 695.92C308.67 695.61 306.17 694.45 305.04 693.93C302.71 692.87 301.14 691.34 299.95 689.35C298.2 686.41 294.48 684.4 291.44 685.81C288.06 687.38 286.74 690.86 287.9 694.32H287.89Z" fill="#2D2C00"/>
<path d="M1117.96 675.43C1119.89 675.43 1119.89 672.43 1117.96 672.43C1116.03 672.43 1116.03 675.43 1117.96 675.43Z" fill="#F6B7C7"/>
<path d="M1273.24 702.63C1287.9 702.2 1303.16 699.29 1315.72 691.38C1321.73 687.6 1326.14 682.59 1329.63 676.44C1334.18 668.39 1338.12 659.96 1342.31 651.71C1344.35 647.69 1350 646.54 1353.72 648.72C1357.8 651.11 1358.76 656.1 1356.71 660.13C1352.23 668.96 1348.12 678.14 1343.01 686.63C1338.26 694.5 1331.92 700.9 1324.14 705.79C1309.14 715.23 1290.73 718.8 1273.24 719.32C1262.5 719.64 1262.51 702.96 1273.24 702.64V702.63Z" fill="#F6B7C7"/>
<path d="M1604.45 674.8C1608.36 674.8 1611.53 671.63 1611.53 667.72C1611.53 663.81 1608.36 660.64 1604.45 660.64C1600.54 660.64 1597.37 663.81 1597.37 667.72C1597.37 671.63 1600.54 674.8 1604.45 674.8Z" fill="#222323"/>
<path d="M1520.47 687.6C1524.38 687.6 1527.55 684.43 1527.55 680.52C1527.55 676.61 1524.38 673.44 1520.47 673.44C1516.56 673.44 1513.39 676.61 1513.39 680.52C1513.39 684.43 1516.56 687.6 1520.47 687.6Z" fill="#222323"/>
<path d="M1541.62 701.58C1558.16 699.27 1573.7 692.6 1590.23 690.27C1597.37 689.26 1596.18 678.09 1589 679.11C1572.47 681.44 1556.92 688.11 1540.39 690.42C1533.24 691.42 1534.44 702.59 1541.62 701.58Z" fill="#222323"/>
<path d="M1431.53 725.36C1436.11 752.92 1421.59 779.17 1416.94 805.76C1415.38 814.68 1429.25 816.89 1430.81 807.99C1435.72 779.94 1450.33 752.98 1445.49 723.83C1444.01 714.95 1430.05 716.43 1431.53 725.36Z" fill="#DC6965"/>
<path d="M82.8901 576.29C84.7901 618.41 116.19 654.84 158.39 660.73C163.46 661.44 168.59 659.49 170.08 654.09C171.3 649.65 168.56 643.12 163.44 642.4C129.76 637.7 103.45 610.71 101.89 576.28C101.34 564.1 82.3401 564.04 82.8901 576.28V576.29Z" fill="#F9B91C"/>
<path d="M1704.42 632.96C1735.41 622.42 1754.45 592.9 1779.32 573.38C1787.66 566.83 1797.62 579.92 1789.3 586.46C1763.07 607.06 1743.34 637.08 1710.57 648.22C1700.59 651.61 1694.38 636.38 1704.42 632.97V632.96Z" fill="#EE706C"/>
<path d="M1782.06 565.936L1766.82 570.655C1766.39 570.789 1766.15 571.248 1766.28 571.681L1778.13 609.919C1778.26 610.351 1778.72 610.593 1779.15 610.459L1794.39 605.74C1794.82 605.606 1795.06 605.147 1794.93 604.714L1783.09 566.476C1782.95 566.044 1782.49 565.802 1782.06 565.936Z" fill="#505862"/>
<path d="M1773.65 570.4L1762.94 573.72C1753.02 576.79 1742.08 574.58 1733.69 567.8C1732.75 567.04 1731.87 566.27 1731.03 565.49C1724.99 559.85 1720.31 552.14 1717.55 543.23L1708.72 514.72C1706.9 508.83 1709.63 502.76 1714.82 501.15C1720.01 499.54 1725.7 503.01 1727.52 508.9L1736.35 537.41C1737.83 542.2 1740.21 546.22 1743.23 549.04C1743.69 549.48 1744.16 549.88 1744.65 550.27C1747.88 552.88 1752.25 553.68 1756.34 552.42L1767.05 549.1C1772.24 547.49 1777.93 550.96 1779.75 556.85C1781.57 562.74 1778.84 568.81 1773.65 570.42V570.4Z" fill="#7CAE5E"/>
<path d="M1785.14 566.84L1774.43 570.16C1769.24 571.77 1763.55 568.3 1761.73 562.41C1759.91 556.52 1762.64 550.45 1767.83 548.84L1778.54 545.52C1782.63 544.25 1785.78 541.13 1786.96 537.15C1787.14 536.54 1787.3 535.95 1787.42 535.36C1788.33 531.29 1788.02 526.63 1786.53 521.84L1777.7 493.33C1775.88 487.44 1778.61 481.37 1783.8 479.76C1788.99 478.15 1794.68 481.62 1796.5 487.51L1805.33 516.02C1808.09 524.93 1808.6 533.93 1806.79 542.04C1806.55 543.12 1806.26 544.26 1805.91 545.42C1802.82 555.75 1795.06 563.76 1785.13 566.84H1785.14Z" fill="#8AC168"/>
<path d="M1748.08 457.32L1734.78 461.44C1735.68 468.19 1738.81 484.77 1749.28 506.09C1762.18 532.34 1768.54 538.76 1783.72 545.56C1789.77 540 1792.3 530.51 1789.43 521.24L1774.65 473.52C1770.83 461.2 1758.94 453.95 1748.08 457.31V457.32Z" fill="#F4ED89"/>
<path d="M1749.29 506.09C1738.81 484.77 1735.69 468.19 1734.79 461.44L1732.02 462.3C1721.16 465.66 1715.45 478.38 1719.26 490.69L1734.04 538.41C1737.86 550.73 1749.75 557.98 1760.61 554.62L1776.68 549.64C1779.37 548.81 1781.74 547.39 1783.73 545.56C1768.55 538.76 1762.19 532.34 1749.29 506.09Z" fill="#EDD073"/>
<path d="M1763.99 497.693L1780.52 492.572L1782.94 500.366L1766.4 505.488C1766.02 505.606 1765.61 505.389 1765.49 505.007L1763.51 498.607C1763.39 498.225 1763.61 497.812 1763.99 497.693Z" fill="#2C7E45"/>
<path d="M1771.2 520.949L1787.73 515.827L1790.15 523.622L1773.61 528.743C1773.23 528.862 1772.82 528.644 1772.7 528.262L1770.72 521.862C1770.6 521.48 1770.82 521.067 1771.2 520.949Z" fill="#2C7E45"/>
<path d="M1744.08 512.215L1727.54 517.337L1725.13 509.542L1741.66 504.421C1742.04 504.302 1742.46 504.52 1742.57 504.902L1744.56 511.302C1744.67 511.684 1744.46 512.097 1744.08 512.215Z" fill="#2C7E45"/>
<path d="M1751.28 535.47L1734.74 540.592L1732.33 532.797L1748.86 527.675C1749.24 527.557 1749.66 527.775 1749.77 528.157L1751.76 534.557C1751.88 534.939 1751.66 535.352 1751.28 535.47Z" fill="#2C7E45"/>
<path d="M1817.23 613.55L1764.77 629.8C1760.59 631.1 1756.2 627.65 1755.94 622.87L1755.61 616.82C1755.43 613.57 1757.28 610.7 1760.13 609.82L1809.77 594.44C1812.62 593.56 1815.76 594.88 1817.45 597.66L1820.6 602.84C1823.09 606.93 1821.41 612.25 1817.23 613.55Z" fill="#8AC168"/>
<path d="M1786.78 572.44C1786.13 571.91 1785.43 571.52 1784.56 571.55C1783.69 571.58 1782.9 571.94 1782.27 572.53C1781.26 573.49 1781.17 574.96 1781.11 576.25C1781.02 578.36 1781.26 580.5 1781.74 582.55C1781.99 583.59 1782.29 584.66 1782.77 585.62C1783.41 586.88 1784.8 587.74 1786.23 587.64C1788.86 587.45 1790.58 585.13 1790.76 582.64C1790.84 581.54 1790.52 580.3 1789.88 579.4C1789.49 578.85 1789.03 578.35 1788.58 577.85C1788.38 577.63 1788.71 578 1788.7 578C1788.7 578 1788.33 577.46 1788.6 577.84C1788.75 578.06 1788.66 577.94 1788.63 577.82C1788.69 577.99 1788.71 578.16 1788.67 578.33C1788.63 578.55 1788.64 578.56 1788.71 578.35L1783.8 577.69V580.99L1788.71 580.33C1788.61 580.02 1788.52 579.7 1788.44 579.38C1788.4 579.22 1788.37 579.06 1788.34 578.9C1788.33 578.84 1788.32 578.77 1788.31 578.7C1788.28 578.51 1788.29 578.57 1788.33 578.87C1788.22 578.78 1788.28 578.13 1788.27 577.98C1788.27 577.62 1788.27 577.26 1788.31 576.89H1783.31L1783.07 580.12C1782.97 581.43 1784.29 582.68 1785.57 582.62C1787.01 582.56 1787.96 581.52 1788.07 580.12L1788.31 576.89C1788.41 575.58 1787.09 574.33 1785.81 574.39C1784.37 574.45 1783.42 575.49 1783.31 576.89C1783.19 578.48 1783.39 580.13 1783.88 581.65C1784.26 582.84 1785.37 583.61 1786.62 583.44C1787.87 583.27 1788.79 582.24 1788.79 580.98V577.68C1788.79 576.43 1787.84 575.39 1786.62 575.22C1785.32 575.05 1784.32 575.83 1783.88 577.01C1783.43 578.2 1783.78 579.63 1784.48 580.66C1784.8 581.13 1785.19 581.6 1785.6 582C1785.95 582.34 1785.41 581.61 1785.67 582.07C1785.93 582.53 1785.63 582.15 1785.68 582C1785.71 582.09 1785.74 582.19 1785.77 582.28C1785.83 582.55 1785.82 582.47 1785.76 582.05C1785.76 582.19 1785.77 582.35 1785.77 582.49C1785.77 582.98 1785.91 581.89 1785.77 582.49C1785.75 582.56 1785.73 582.63 1785.71 582.7C1785.62 582.95 1785.65 582.89 1785.8 582.51C1785.79 582.51 1785.57 582.85 1785.58 582.89C1785.83 582.58 1785.86 582.53 1785.69 582.72C1785.5 582.9 1785.55 582.86 1785.85 582.63L1785.72 582.72C1785.48 582.85 1785.54 582.83 1785.88 582.67C1785.61 582.74 1785.68 582.73 1786.09 582.67C1786.28 582.67 1786.45 582.71 1786.61 582.8C1786.77 582.86 1786.91 582.95 1787.03 583.07C1787.25 583.38 1787.29 583.42 1787.14 583.19C1787.05 583 1787.04 583 1787.14 583.19C1787.22 583.39 1787.23 583.39 1787.15 583.19C1787.02 582.73 1786.86 582.29 1786.73 581.83C1786.6 581.37 1786.5 580.91 1786.41 580.45C1786.37 580.25 1786.33 580.05 1786.3 579.85C1786.28 579.72 1786.26 579.58 1786.24 579.45C1786.28 579.75 1786.29 579.8 1786.26 579.61C1786.17 578.7 1786.1 577.79 1786.11 576.88C1786.11 576.41 1786.15 575.93 1786.18 575.46C1786.21 574.92 1786.02 575.97 1786.2 575.46C1785.76 576.72 1784.31 576.83 1783.27 575.99C1783.8 576.42 1784.33 576.72 1785.04 576.72C1785.65 576.72 1786.39 576.45 1786.81 575.99C1787.65 575.08 1787.89 573.33 1786.81 572.45L1786.78 572.44Z" fill="#EE706C"/>
<g opacity="0.68">
<path d="M159.83 -64.81C151.33 -52.61 148.93 -36.21 153.23 -22.01C155.53 -14.41 159.63 -8.21003 164.63 -2.01003C168.43 2.68996 171.63 6.28996 172.93 12.09C173.064 12.69 173.097 12.7233 173.03 12.19C173.13 13.09 173.23 14.09 173.23 14.99C173.33 16.39 173.33 17.79 173.33 19.19C173.33 22.29 173.13 25.39 172.93 28.49C172.53 34.99 172.43 41.59 173.93 48.09C175.53 54.69 179.03 60.89 184.23 65.29C186.83 67.59 189.73 69.39 192.63 71.39C194.93 72.99 192.03 71.09 194.03 72.49C195.73 73.69 193.93 72.29 193.83 70.69C194.33 77.39 199.23 83.19 206.33 83.19C212.73 83.19 219.33 77.49 218.83 70.69C218.13 62.09 214.03 56.39 207.33 51.29C205.23 49.79 202.93 48.49 200.93 46.79C202.43 47.99 199.83 45.69 199.63 45.39C200.83 46.79 198.93 44.09 198.73 43.69C199.63 45.49 198.23 41.89 198.13 41.39C197.93 40.49 197.93 40.59 198.03 41.49C197.93 40.79 197.93 40.19 197.83 39.49C197.63 36.49 197.73 33.49 197.83 30.49C198.13 24.59 198.73 18.69 198.13 12.69C197.43 5.38996 195.73 -1.41003 191.73 -7.61003C188.23 -13.11 183.53 -17.71 180.23 -22.81C174.23 -32.21 175.13 -43.11 181.43 -52.31C185.23 -57.91 182.43 -66.21 176.93 -69.41C170.73 -72.91 163.63 -70.31 159.83 -64.81Z" fill="#F6BAD4"/>
<path d="M652.53 -22.6101C668.23 -17.9101 681.33 -4.91009 685.63 10.9899C690.13 27.6899 684.73 46.0899 671.93 58.4899C660.33 69.6899 678.03 87.2899 689.63 76.1899C708.53 57.9899 716.63 29.7899 709.83 4.38991C703.23 -20.0101 683.33 -39.5101 659.23 -46.6101C643.73 -51.3101 637.13 -27.2101 652.53 -22.6101Z" fill="#F6BAD4"/>
<path d="M458.03 49.79C463.33 44.3899 468.63 39.0899 473.93 33.6899C474.63 32.9899 475.33 32.2899 476.03 31.5899C466.73 27.4899 463.33 27.1899 465.63 30.6899C466.13 31.9899 467.03 33.1899 467.73 34.3899C469.43 37.5899 471.03 40.79 472.53 43.99C475.03 49.49 477.13 55.29 479.03 60.99C480.13 64.39 481.13 67.8899 481.93 71.29C482.33 72.99 482.73 74.7899 483.13 76.4899C483.23 77.0899 483.33 77.6899 483.53 78.2899C484.03 80.7899 484.03 80.5899 483.63 77.8899C484.73 76.0899 485.73 74.1899 486.83 72.3899C488.03 71.1899 492.93 71.09 489.03 70.8899C487.83 70.79 486.63 70.9899 485.43 71.0899C483.03 71.1899 480.63 71.19 478.23 71.19C473.43 71.09 468.63 70.89 463.93 70.19C454.73 68.89 445.53 66.3899 436.83 63.1899C435.43 62.6899 433.13 61.1899 431.73 61.09C429.63 59.8899 429.73 61.59 431.93 66.19C431.23 71.19 431.63 72.8899 433.33 71.0899C433.13 71.1899 435.03 69.7899 434.73 69.9899C438.63 66.9899 442.83 64.19 446.93 61.29C455.33 55.3899 463.93 49.79 472.63 44.29C466.33 40.69 460.13 37.09 453.83 33.49C453.33 40.99 449.43 47.99 443.33 53.29C436.33 59.3899 440.03 72.1899 448.83 74.1899C461.33 76.99 473.73 73.6899 483.03 64.79C476.53 59.79 469.93 54.6899 463.43 49.6899C458.73 60.09 460.03 69.4899 467.03 78.3899C471.23 83.6899 480.33 82.7899 484.73 78.3899C489.93 73.1899 488.93 65.9899 484.73 60.6899C485.33 61.4899 485.43 61.29 485.03 62.29C487.63 56.59 487.13 50.1899 481.83 46.1899C476.83 42.4899 469.93 42.6899 465.43 47.1899C462.53 49.9899 458.93 50.8899 455.63 50.1899C457.43 57.1899 459.33 64.0899 461.13 71.0899C472.13 61.4899 478.03 47.9899 478.93 33.5899C479.53 24.1899 467.83 17.9899 460.13 22.7899C451.93 27.8899 443.93 33.1899 435.93 38.6899C432.13 41.3899 428.33 43.99 424.53 46.79C420.13 49.99 415.33 52.99 412.33 57.59C397.43 80.59 434.73 89.99 450.13 93.1899C459.73 95.1899 469.53 96.2899 479.33 96.3899C489.83 96.4899 503.93 96.7899 507.93 84.7899C510.93 75.9899 506.23 64.09 503.53 55.49C500.63 46.19 496.93 37.0899 492.73 28.3899C488.03 18.5899 481.03 4.98995 467.63 8.48995C461.43 10.0899 457.33 15.2899 453.03 19.6899C448.93 23.8899 444.73 28.09 440.63 32.2899C429.03 43.59 446.73 61.29 458.03 49.79Z" fill="#435CA3"/>
<path d="M789.13 -10.4101C789.53 -9.01009 789.93 -7.71009 790.33 -6.31009C791.23 -2.91009 790.43 -7.61009 790.73 -4.01009C790.83 -2.61009 790.83 -1.21009 790.83 0.289913C790.83 0.689913 790.43 4.28991 790.73 2.58991C789.73 8.98991 792.43 16.3899 799.43 17.9899C805.43 19.3899 813.73 16.1899 814.83 9.28991C816.23 0.389914 816.13 -8.31009 813.33 -16.9101C811.33 -23.1101 804.63 -27.8101 797.93 -25.6101C791.63 -23.8101 786.93 -17.1101 789.13 -10.4101Z" fill="#435CA3"/>
<path d="M40.7302 187.09C54.7302 197.29 71.3302 202.99 88.5302 204.59C105.63 206.09 125.73 203.59 133.73 186.29C137.53 178.19 138.63 169.49 139.83 160.69C141.03 151.49 141.73 142.09 141.43 132.79C140.83 115.59 135.13 97.49 118.83 89.19C102.43 80.79 83.2302 86.99 75.6302 103.99C71.3302 113.49 71.3302 123.49 73.0302 133.59C73.4302 135.79 73.8302 137.89 74.3302 140.09C74.5302 141.09 74.8302 144.09 75.4302 144.79L75.7302 144.09C75.8302 143.99 75.8302 143.89 75.9302 143.69C76.3969 143.223 76.4302 143.19 76.0302 143.59C76.1302 143.69 75.2302 144.19 74.9302 144.29C71.9302 145.49 69.5302 145.19 65.9302 145.09C61.0302 144.99 56.0302 144.99 51.2302 146.09C42.3302 148.09 33.7302 154.89 31.1302 163.89C25.0302 184.49 47.4302 194.59 63.8302 196.29C82.5302 198.19 102.03 190.79 112.63 174.89C123.13 159.19 121.83 138.69 110.33 124.09C106.13 118.79 97.0302 119.69 92.6302 124.09C87.4302 129.29 88.4302 136.39 92.6302 141.79C93.9302 143.49 94.3302 146.19 94.6302 148.19C95.4302 153.49 101.63 157.39 106.73 157.39C112.23 157.39 117.23 153.49 118.83 148.19C122.83 134.39 120.73 118.99 112.63 106.99C107.33 99.19 96.2302 98.69 91.0302 106.99C82.7302 120.19 85.1302 138.19 96.3302 148.89C108.03 159.99 125.73 142.29 114.03 131.19C111.73 129.09 111.23 127.79 110.93 125.59C111.03 126.49 110.93 124.19 110.93 123.89C110.93 121.79 110.63 125.29 110.93 123.29C111.33 120.99 111.03 121.89 112.53 119.59H90.9302C95.6302 126.59 96.8302 133.69 94.6302 141.49H118.73C117.63 134.79 114.43 129.29 110.33 123.99C104.43 129.89 98.5302 135.79 92.6302 141.69C91.5302 140.29 93.7302 143.79 93.6302 143.69C92.7302 141.89 94.3302 145.69 94.3302 145.69C95.1302 148.49 94.9302 147.49 94.9302 150.39C94.9302 154.49 93.9302 158.09 91.0302 162.29C86.6302 168.69 76.9302 171.79 68.3302 171.59C64.2302 171.49 58.9302 170.49 56.2302 169.09C55.7302 168.79 54.4302 168.59 54.5302 167.89C54.5302 168.09 55.2302 168.79 55.1302 169.09C55.1302 169.59 55.0302 170.79 55.1302 171.19C55.0302 171.49 54.8302 171.69 54.5302 171.79C55.1302 171.39 55.7302 170.99 56.3302 170.69C57.1302 170.29 59.5302 170.09 61.6302 170.09C64.5302 170.09 67.5302 170.29 70.4302 170.19C77.3302 169.99 84.1302 168.49 89.9302 164.49C95.9302 160.29 100.13 153.99 100.63 146.49C101.03 139.69 98.2302 133.19 97.3302 126.49C96.6302 121.29 96.9302 116.29 99.3302 112.69C100.43 111.09 100.33 111.59 101.73 110.39C100.53 111.39 103.93 109.79 102.03 110.09C102.93 109.99 103.83 109.99 104.73 110.09C103.63 109.99 103.93 110.09 105.43 110.39C108.13 111.19 110.83 113.29 112.33 115.59C115.33 120.19 116.23 125.79 116.53 130.99C117.23 143.49 116.23 156.89 113.43 169.09C112.63 172.49 112.23 174.29 110.73 176.59C110.63 176.69 109.33 178.39 110.23 177.29C109.03 178.69 110.13 177.89 107.73 178.69C102.13 180.49 95.3302 180.09 89.5302 179.59C76.6302 178.59 64.1302 173.19 53.5302 165.49C48.0302 161.49 39.6302 164.59 36.4302 169.99C32.5302 176.39 35.2302 183.09 40.7302 187.09Z" fill="#FED254"/>
<path d="M1575.19 -51.83C1591.69 -17.93 1632.29 34.07 1675.69 13.57C1681.79 10.67 1683.39 1.97003 1680.19 -3.52997C1676.49 -9.82997 1669.19 -10.93 1663.09 -8.02997C1657.99 -5.62997 1651.49 -6.62997 1645.19 -9.42997C1638.69 -12.23 1632.39 -17.13 1627.09 -22.23C1614.49 -34.43 1604.49 -48.63 1596.79 -64.43C1593.79 -70.53 1585.19 -72.13 1579.69 -68.93C1573.49 -65.33 1572.29 -57.93 1575.19 -51.83Z" fill="#EE6F4B"/>
<path d="M320.91 124.76C313.51 133.86 305.91 142.86 298.61 152.16C294.51 157.36 291.51 163.16 293.51 169.96C294.41 172.96 296.31 175.66 298.41 177.96C299.91 179.56 299.61 178.76 300.81 181.26C300.21 180.06 300.81 181.66 300.81 182.06C300.51 180.76 300.91 182.16 300.91 182.76C301.01 185.66 301.11 184.56 300.51 186.96C299.81 189.76 298.11 192.66 295.91 194.76C289.91 200.66 281.21 203.56 273.11 206.26C266.71 208.36 262.51 214.86 264.41 221.66C266.11 227.96 273.31 232.56 279.81 230.36C299.71 223.76 321.71 213.26 325.31 190.16C326.11 184.86 326.21 179.36 324.61 174.16C323.21 169.66 320.21 163.16 316.11 160.36C313.51 157.36 313.61 160.56 316.21 169.86C316.61 169.36 317.01 168.86 317.41 168.36C318.61 167.36 319.51 165.76 320.51 164.56C322.41 162.26 324.21 159.96 326.11 157.76C330.21 152.66 334.41 147.66 338.51 142.56C342.81 137.36 343.61 129.96 338.51 124.86C334.21 120.36 325.21 119.46 320.91 124.76Z" fill="#4FB585"/>
<path d="M340.53 31.69C359.63 13.69 383.13 1.89 408.83 -3.21C415.43 -4.51 419.23 -12.41 417.53 -18.61C415.63 -25.51 408.83 -28.71 402.13 -27.31C372.43 -21.31 344.83 -6.71 322.83 14.09C311.13 25.09 328.83 42.69 340.53 31.69Z" fill="#139453"/>
<path d="M593.63 57.69C592.73 80.39 590.93 103.09 587.83 125.69C586.93 132.39 589.43 139.09 596.53 141.09C602.33 142.69 611.03 139.09 611.93 132.39C615.33 107.59 617.63 82.79 618.63 57.79C618.93 50.99 612.73 45.29 606.13 45.29C599.13 45.19 593.83 50.89 593.63 57.69Z" fill="#EBCBB2"/>
<path d="M1893.43 -64.81C1884.93 -52.61 1882.53 -36.21 1886.83 -22.01C1889.13 -14.41 1893.23 -8.21003 1898.23 -2.01003C1902.03 2.68996 1905.23 6.28996 1906.53 12.09C1906.66 12.69 1906.7 12.7233 1906.63 12.19C1906.73 13.09 1906.83 14.09 1906.83 14.99C1906.93 16.39 1906.93 17.79 1906.93 19.19C1906.93 22.29 1906.73 25.39 1906.53 28.49C1906.13 34.99 1906.03 41.59 1907.53 48.09C1909.13 54.69 1912.63 60.89 1917.83 65.29C1920.43 67.59 1923.33 69.39 1926.23 71.39C1928.53 72.99 1925.63 71.09 1927.63 72.49C1929.33 73.69 1927.53 72.29 1927.43 70.69C1927.93 77.39 1932.83 83.19 1939.93 83.19C1946.33 83.19 1952.93 77.49 1952.43 70.69C1951.73 62.09 1947.63 56.39 1940.93 51.29C1938.83 49.79 1936.53 48.49 1934.53 46.79C1936.03 47.99 1933.43 45.69 1933.23 45.39C1934.43 46.79 1932.53 44.09 1932.33 43.69C1933.23 45.49 1931.83 41.89 1931.73 41.39C1931.53 40.49 1931.53 40.59 1931.63 41.49C1931.53 40.79 1931.53 40.19 1931.43 39.49C1931.23 36.49 1931.33 33.49 1931.43 30.49C1931.73 24.59 1932.33 18.69 1931.73 12.69C1931.03 5.38996 1929.33 -1.41003 1925.33 -7.61003C1921.83 -13.11 1917.13 -17.71 1913.83 -22.81C1907.83 -32.21 1908.73 -43.11 1915.03 -52.31C1918.83 -57.91 1916.03 -66.21 1910.53 -69.41C1904.33 -72.91 1897.33 -70.31 1893.43 -64.81Z" fill="#F6BAD4"/>
<path d="M1774.43 187.09C1788.43 197.29 1805.03 202.99 1822.23 204.59C1839.33 206.09 1859.43 203.59 1867.43 186.29C1871.23 178.19 1872.33 169.49 1873.53 160.69C1874.73 151.49 1875.43 142.09 1875.13 132.79C1874.53 115.59 1868.83 97.49 1852.53 89.19C1836.13 80.79 1816.93 86.99 1809.33 103.99C1805.03 113.49 1805.03 123.49 1806.73 133.59C1807.13 135.79 1807.53 137.89 1808.03 140.09C1808.23 141.09 1808.53 144.09 1809.13 144.79L1809.43 144.09C1809.53 143.99 1809.53 143.89 1809.63 143.69C1810.1 143.223 1810.13 143.19 1809.73 143.59C1809.83 143.69 1808.93 144.19 1808.63 144.29C1805.63 145.49 1803.23 145.19 1799.63 145.09C1794.73 144.99 1789.73 144.99 1784.93 146.09C1776.03 148.09 1767.43 154.89 1764.83 163.89C1758.73 184.49 1781.13 194.59 1797.53 196.29C1816.23 198.19 1835.73 190.79 1846.33 174.89C1856.83 159.19 1855.53 138.69 1844.03 124.09C1839.83 118.79 1830.73 119.69 1826.33 124.09C1821.13 129.29 1822.13 136.39 1826.33 141.79C1827.63 143.49 1828.03 146.19 1828.33 148.19C1829.13 153.49 1835.33 157.39 1840.43 157.39C1845.93 157.39 1850.93 153.49 1852.53 148.19C1856.53 134.39 1854.43 118.99 1846.33 106.99C1841.03 99.19 1829.93 98.69 1824.73 106.99C1816.43 120.19 1818.83 138.19 1830.03 148.89C1841.73 159.99 1859.43 142.29 1847.73 131.19C1845.43 129.09 1844.93 127.79 1844.63 125.59C1844.73 126.49 1844.63 124.19 1844.63 123.89C1844.63 121.79 1844.33 125.29 1844.63 123.29C1845.03 120.99 1844.73 121.89 1846.23 119.59H1824.63C1829.33 126.59 1830.53 133.69 1828.33 141.49H1852.43C1851.33 134.79 1848.13 129.29 1844.03 123.99C1838.13 129.89 1832.23 135.79 1826.33 141.69C1825.23 140.29 1827.43 143.79 1827.33 143.69C1826.43 141.89 1828.03 145.69 1828.03 145.69C1828.83 148.49 1828.63 147.49 1828.63 150.39C1828.63 154.49 1827.63 158.09 1824.73 162.29C1820.33 168.69 1810.63 171.79 1802.03 171.59C1797.93 171.49 1792.63 170.49 1789.93 169.09C1789.43 168.79 1788.13 168.59 1788.23 167.89C1788.23 168.09 1788.93 168.79 1788.83 169.09C1788.83 169.59 1788.73 170.79 1788.83 171.19C1788.73 171.49 1788.53 171.69 1788.23 171.79C1788.83 171.39 1789.43 170.99 1790.03 170.69C1790.83 170.29 1793.23 170.09 1795.33 170.09C1798.23 170.09 1801.23 170.29 1804.13 170.19C1811.03 169.99 1817.83 168.49 1823.63 164.49C1829.63 160.29 1833.83 153.99 1834.33 146.49C1834.73 139.69 1831.93 133.19 1831.03 126.49C1830.33 121.29 1830.63 116.29 1833.03 112.69C1834.13 111.09 1834.03 111.59 1835.43 110.39C1834.23 111.39 1837.63 109.79 1835.73 110.09C1836.63 109.99 1837.53 109.99 1838.43 110.09C1837.33 109.99 1837.63 110.09 1839.13 110.39C1841.83 111.19 1844.53 113.29 1846.03 115.59C1849.03 120.19 1849.93 125.79 1850.23 130.99C1850.93 143.49 1849.93 156.89 1847.13 169.09C1846.33 172.49 1845.93 174.29 1844.43 176.59C1844.33 176.69 1843.03 178.39 1843.93 177.29C1842.73 178.69 1843.83 177.89 1841.43 178.69C1835.83 180.49 1829.03 180.09 1823.23 179.59C1810.33 178.59 1797.83 173.19 1787.23 165.49C1781.73 161.49 1773.33 164.59 1770.13 169.99C1766.23 176.39 1768.93 183.09 1774.43 187.09Z" fill="#FED254"/>
<path d="M1690.99 227.27C1707.09 227.27 1707.09 202.27 1690.99 202.27C1674.89 202.27 1674.89 227.27 1690.99 227.27Z" fill="#EE6F4B"/>
<path d="M1684.49 270.47C1700.59 270.47 1700.59 245.47 1684.49 245.47C1668.39 245.47 1668.39 270.47 1684.49 270.47Z" fill="#EE6F4B"/>
<path d="M1647.79 205.67C1663.89 205.67 1663.89 180.67 1647.79 180.67C1631.69 180.67 1631.69 205.67 1647.79 205.67Z" fill="#EE6F4B"/>
<path d="M1645.59 263.97C1661.69 263.97 1661.69 238.97 1645.59 238.97C1629.49 238.97 1629.49 263.97 1645.59 263.97Z" fill="#EE6F4B"/>
<path d="M1577.13 119.69C1568.93 111.39 1558.33 106.19 1550.13 98.09C1547.13 95.09 1544.53 91.79 1543.83 87.69C1543.43 85.39 1544.53 82.39 1546.03 80.39C1551.33 73.59 1559.23 72.29 1567.93 75.29C1577.53 78.59 1584.93 86.49 1590.53 94.69C1593.73 99.39 1596.53 104.39 1599.33 109.29C1600.43 111.29 1601.33 113.79 1602.73 115.39C1603.43 116.19 1603.03 119.29 1603.33 114.99C1603.43 113.59 1602.23 115.99 1603.53 114.89C1598.73 119.09 1588.93 118.89 1582.43 117.29C1574.63 115.39 1567.03 110.69 1563.03 104.29C1562.93 104.19 1561.33 101.59 1561.43 101.49C1561.13 101.59 1562.93 102.29 1561.33 102.59C1561.23 102.89 1561.03 103.19 1560.93 103.39C1561.63 102.29 1561.73 102.09 1561.33 102.79C1561.43 103.49 1558.73 104.19 1561.43 102.89C1564.93 101.19 1560.23 103.09 1562.43 102.49C1564.53 101.89 1559.63 102.49 1563.43 102.29C1566.73 102.09 1562.43 101.79 1564.53 102.49C1565.43 102.79 1566.43 103.19 1567.73 103.99C1569.73 105.29 1571.63 107.09 1573.43 108.99C1574.13 109.69 1574.83 110.49 1575.53 111.29C1576.23 112.09 1576.93 112.79 1577.63 113.59C1577.53 113.39 1577.43 113.29 1577.43 112.99C1574.63 112.09 1580.43 104.19 1583.83 102.99C1582.33 102.89 1582.33 102.99 1583.73 103.09C1583.33 102.99 1583.03 102.89 1582.63 102.79C1581.13 101.99 1578.53 100.99 1576.43 99.79C1571.53 96.89 1567.83 93.79 1564.03 89.29C1562.63 87.69 1561.23 85.59 1559.83 83.29C1559.33 82.39 1558.83 81.59 1558.33 80.69C1557.83 79.79 1557.43 78.89 1557.03 77.99C1557.23 78.39 1557.33 78.69 1557.53 78.99C1556.93 81.09 1556.43 83.19 1555.83 85.29C1555.63 85.59 1555.53 85.89 1555.33 86.09C1553.53 87.19 1551.63 88.19 1549.83 89.29C1551.03 88.89 1551.33 88.69 1550.53 88.89C1549.73 88.99 1550.03 89.09 1551.33 89.09C1550.43 88.79 1553.73 89.69 1553.83 89.79C1556.33 90.49 1557.83 91.09 1559.83 92.09C1564.03 94.29 1567.63 97.29 1570.23 100.89C1571.43 102.59 1572.33 104.89 1572.93 105.99C1573.93 107.69 1572.43 106.99 1573.53 105.09C1575.03 102.59 1575.43 103.89 1577.03 103.19C1574.83 104.19 1576.33 102.39 1577.23 103.49C1578.53 105.09 1576.63 102.19 1576.93 103.09C1577.43 104.39 1576.23 100.19 1576.23 100.49C1576.43 102.09 1576.43 97.49 1576.43 97.79C1576.83 91.09 1570.43 85.29 1563.93 85.29C1556.83 85.29 1551.83 90.99 1551.43 97.79C1550.73 110.49 1557.13 123.49 1569.93 127.29C1583.53 131.29 1597.53 121.49 1597.93 107.19C1598.43 83.89 1571.63 64.29 1550.03 63.89C1543.63 63.79 1537.33 66.89 1534.23 72.49C1530.23 79.59 1533.63 87.29 1537.13 93.69C1542.43 103.29 1550.03 111.39 1558.83 117.69C1567.33 123.79 1578.53 129.69 1589.33 126.99C1596.33 125.19 1601.63 118.99 1602.03 111.79C1602.43 104.79 1598.73 99.49 1594.23 94.49C1586.43 85.89 1576.73 77.59 1564.53 77.09C1553.13 76.59 1541.03 83.29 1537.43 94.49C1530.33 116.69 1557.13 136.29 1575.63 140.99C1595.23 145.89 1632.63 139.59 1627.43 111.59C1626.33 105.79 1623.13 100.59 1620.23 95.49C1617.33 90.29 1614.33 85.09 1610.93 80.19C1603.93 70.19 1595.63 61.09 1584.83 55.19C1573.33 48.99 1559.03 45.89 1546.33 50.29C1534.23 54.49 1524.23 63.69 1520.23 75.89C1515.83 89.19 1521.33 102.79 1530.13 112.89C1538.53 122.49 1550.43 127.89 1559.33 136.89C1570.73 148.89 1588.43 131.19 1577.13 119.69Z" fill="#F6BAD4"/>
<path d="M1053.03 102.49C1034.63 76.59 1018.93 48.99 1006.03 19.99C1003.33 13.79 994.33 12.39 988.93 15.49C982.53 19.19 981.73 26.39 984.43 32.59C997.33 61.59 1013.03 89.19 1031.43 115.09C1035.33 120.59 1042.33 123.19 1048.53 119.59C1053.93 116.49 1056.93 108.09 1053.03 102.49Z" fill="#F6BAD4"/>
<path d="M1086.03 86.79C1069.93 67.19 1057.43 44.49 1049.23 20.49C1047.03 14.09 1040.63 9.89001 1033.83 11.79C1027.63 13.49 1022.93 20.79 1025.13 27.19C1034.83 55.49 1049.33 81.39 1068.33 104.49C1072.63 109.69 1081.53 108.89 1086.03 104.49C1091.23 99.29 1090.33 91.99 1086.03 86.79Z" fill="#F6BAD4"/>
<path d="M1316.13 107.19C1318.73 99.29 1316.43 91.89 1313.83 84.49C1313.23 82.69 1312.53 80.89 1312.23 78.99C1312.53 80.89 1312.53 76.59 1312.43 78.79C1311.93 79.69 1312.03 79.49 1312.83 78.09C1312.23 78.79 1312.43 78.59 1313.43 77.49C1312.23 78.49 1315.43 76.29 1315.43 76.29C1316.53 75.79 1317.93 75.69 1320.43 76.19C1323.73 76.79 1326.73 78.69 1329.43 80.59C1334.63 84.29 1338.83 88.99 1341.83 94.39C1344.43 99.09 1345.03 104.49 1343.63 108.69C1343.13 110.19 1341.73 112.49 1340.73 113.59C1339.33 115.09 1338.73 115.59 1336.03 116.19C1337.63 115.79 1334.13 116.19 1335.13 116.29C1333.33 116.09 1332.13 115.69 1330.73 114.99C1328.33 113.79 1326.23 111.99 1324.63 109.89C1320.13 104.19 1318.23 96.59 1316.43 89.69C1312.23 74.19 1288.13 80.79 1292.33 96.29C1297.23 114.49 1305.63 132.79 1324.73 139.29C1343.23 145.59 1361.03 133.79 1367.23 116.39C1373.33 99.49 1365.73 81.49 1354.13 69.09C1341.43 55.39 1321.63 45.39 1303.43 54.19C1294.13 58.69 1287.53 68.09 1287.33 78.59C1287.23 83.29 1288.63 87.89 1290.23 92.29C1290.83 94.09 1291.43 95.89 1292.03 97.69C1292.63 99.49 1292.53 98.59 1292.03 100.29C1289.93 106.69 1294.53 113.99 1300.73 115.69C1307.63 117.79 1314.03 113.59 1316.13 107.19Z" fill="#435CA3"/>
<path d="M1177.83 80.39C1192.43 83.29 1206.93 78.19 1217.13 67.29C1227.73 55.99 1231.63 41.09 1233.53 26.09C1235.33 12.09 1236.63 -3.30997 1231.43 -16.81C1225.73 -31.51 1214.23 -41.41 1198.53 -43.51C1191.83 -44.41 1186.03 -37.11 1186.03 -31.01C1186.03 -23.51 1191.83 -19.41 1198.53 -18.51C1196.93 -18.71 1200.13 -17.71 1199.13 -18.21C1198.73 -18.41 1200.53 -17.51 1200.83 -17.31C1202.63 -16.31 1202.83 -16.11 1204.33 -14.41C1206.53 -12.01 1208.03 -8.70998 1208.83 -5.50998C1211.33 3.99002 1210.03 14.69 1208.73 24.29C1207.63 32.29 1205.63 41.49 1200.83 47.89C1198.63 50.79 1195.93 53.09 1192.43 54.79C1189.73 56.09 1186.83 56.69 1184.43 56.19C1177.83 54.89 1170.93 58.09 1169.03 64.89C1167.43 71.19 1171.23 79.09 1177.83 80.39Z" fill="#FED254"/>
<path d="M1468.31 41.69C1463.51 23.59 1458.61 5.58996 1453.81 -12.51C1449.61 -28.01 1425.51 -21.41 1429.71 -5.91004C1434.51 12.19 1439.41 30.19 1444.21 48.29C1448.31 63.89 1472.51 57.29 1468.31 41.69Z" fill="#71C9EB"/>
<path d="M1420.01 58.89C1443.11 56.19 1466.11 53.49 1489.21 50.79C1495.91 49.99 1501.71 45.59 1501.71 38.29C1501.71 32.09 1496.01 24.99 1489.21 25.79C1466.11 28.49 1443.11 31.19 1420.01 33.89C1413.31 34.69 1407.51 39.09 1407.51 46.39C1407.51 52.49 1413.21 59.69 1420.01 58.89Z" fill="#71C9EB"/>
<path d="M1809.36 297.93C1818.06 316.13 1827.96 333.83 1838.86 350.83C1844.86 360.13 1858.16 358.03 1861.66 347.83C1867.66 330.53 1875.26 313.93 1884.26 297.93C1888.56 290.23 1883.26 278.33 1873.46 279.13C1858.36 280.33 1843.26 278.23 1829.46 271.93C1823.36 269.13 1815.96 270.23 1812.36 276.43C1809.26 281.83 1810.66 290.73 1816.86 293.53C1834.66 301.73 1853.86 305.73 1873.46 304.13C1869.86 297.83 1866.26 291.63 1862.66 285.33C1852.56 303.13 1844.26 321.93 1837.56 341.23C1845.16 340.23 1852.76 339.23 1860.36 338.23C1849.36 321.23 1839.56 303.63 1830.86 285.33C1827.96 279.23 1819.26 277.63 1813.76 280.83C1807.66 284.53 1806.46 291.83 1809.36 297.93Z" fill="#4FB585"/>
<path d="M1797.09 55.28C1813.19 55.28 1813.19 30.28 1797.09 30.28C1780.99 30.28 1780.99 55.28 1797.09 55.28Z" fill="#8D878D"/>
<path d="M1788.39 5.57996C1804.49 5.57996 1804.49 -19.42 1788.39 -19.42C1772.29 -19.42 1772.29 5.57996 1788.39 5.57996Z" fill="#8D878D"/>
<path d="M1827.29 22.88C1843.39 22.88 1843.39 -2.12 1827.29 -2.12C1811.19 -2.12 1811.19 22.88 1827.29 22.88Z" fill="#8D878D"/>
<path d="M1720.29 124.04C1727.19 109.44 1735.69 95.54 1745.99 83.04C1750.29 77.84 1751.09 70.44 1745.99 65.34C1741.59 60.94 1732.59 60.14 1728.29 65.34C1716.59 79.54 1706.59 94.74 1698.69 111.34C1695.79 117.44 1696.99 124.84 1703.19 128.44C1708.69 131.74 1717.39 130.24 1720.29 124.04Z" fill="#FDD251"/>
<path d="M1686.89 90.14C1705.49 97.04 1724.09 103.84 1742.59 110.74C1748.89 113.04 1756.29 108.14 1757.99 102.04C1759.89 95.04 1755.59 89.04 1749.29 86.64C1730.69 79.74 1712.09 72.94 1693.59 66.04C1687.29 63.74 1679.89 68.64 1678.19 74.74C1676.19 81.74 1680.49 87.74 1686.89 90.14Z" fill="#FDD251"/>
<path d="M889.23 60.19C891.23 73.69 895.83 87.59 909.23 93.59C916.53 96.89 923.33 96.49 930.63 93.79C930.53 93.79 935.23 92.09 933.03 92.89C930.43 93.89 933.23 90.69 932.83 93.09C932.63 92.99 932.53 92.79 932.33 92.69C933.43 93.79 933.53 93.89 932.83 93.19C932.73 92.99 932.73 92.79 932.63 92.49C933.03 93.99 933.03 94.09 932.73 92.99C932.93 109.09 957.93 109.09 957.73 92.99C957.53 77.39 942.63 64.89 927.13 68.59C925.53 68.99 924.03 69.69 922.53 70.29C921.93 70.49 918.73 71.09 919.83 71.19C920.73 71.19 921.23 72.19 919.23 70.79C919.93 71.39 917.13 68.79 917.23 68.89C914.73 65.59 914.03 58.39 913.43 53.59C912.43 46.89 904.03 43.19 898.03 44.89C890.83 46.79 888.23 53.49 889.23 60.19Z" fill="#EBCBB2"/>
<path d="M115.8 347.4C121.5 326.5 124.8 305.1 126 283.5C126.4 276.8 120 271 113.5 271C106.4 271 101.4 276.7 101 283.5C100 302.9 96.9 322 91.7 340.8C87.4 356.3 111.5 362.9 115.8 347.4Z" fill="#EBCBB2"/>
</g>
</g>
<defs>
<clipPath id="clip0_384_606">
<rect width="1920" height="760" fill="white"/>
</clipPath>
</defs>
</svg>
