<svg width="1176" height="868" viewBox="0 0 1176 868" fill="none" xmlns="http://www.w3.org/2000/svg">
<path d="M178.062 766.694C190.696 788.534 195.147 813.299 191.605 838.293C190.68 844.966 197.462 850.999 203.643 851.209C211.02 851.459 215.603 845.811 216.527 839.138C220.7 810.263 214.538 780.037 200.022 754.831C192.009 740.951 170.053 752.714 178.062 766.694Z" fill="#70C9EB" fill-opacity="0.68"/>
<path d="M1153.98 153.194C1167.59 163.861 1183.95 170.118 1201.04 172.299C1218.04 174.375 1238.16 172.556 1246.72 155.536C1250.78 147.569 1252.18 138.911 1253.67 130.157C1255.18 121.003 1256.19 111.632 1256.21 102.327C1256.19 85.1164 1251.12 66.8342 1235.16 57.9883C1219.09 49.0391 1199.74 54.587 1191.59 71.3205C1186.98 80.6698 1186.64 90.664 1187.99 100.816C1188.32 103.028 1188.65 105.14 1189.07 107.356C1189.24 108.362 1189.43 111.37 1190.01 112.09L1190.33 111.401C1190.43 111.304 1190.44 111.204 1190.54 111.008C1191.27 110.332 1191.27 110.332 1190.65 110.911C1190.74 111.015 1189.83 111.484 1189.53 111.574C1186.49 112.672 1184.11 112.291 1180.53 112.069C1175.65 111.804 1170.66 111.635 1165.84 112.572C1156.9 114.27 1148.09 120.776 1145.2 129.683C1138.42 150.065 1160.41 160.916 1176.7 163.169C1195.28 165.7 1214.97 158.963 1226.07 143.43C1237.07 128.093 1236.47 107.561 1225.5 92.5812C1221.49 87.1423 1212.39 87.7344 1207.86 91.9832C1202.5 97.0046 1203.25 104.134 1207.26 109.673C1208.49 111.416 1208.8 114.128 1209.03 116.137C1209.65 121.461 1215.7 125.568 1220.78 125.74C1226.27 125.926 1231.38 122.197 1233.16 116.955C1237.61 103.298 1236.04 87.8355 1228.37 75.5687C1223.35 67.5941 1212.3 66.7194 1206.84 74.839C1198.12 87.7511 1199.9 105.822 1210.7 116.894C1221.99 128.383 1240.24 111.291 1228.95 99.8021C1226.73 97.6256 1226.27 96.3095 1226.05 94.1006C1226.12 95.0034 1226.1 92.7014 1226.11 92.4016C1226.18 90.3028 1225.76 93.7906 1226.13 91.8019C1226.6 89.5167 1226.27 90.4061 1227.85 88.1581C1220.67 87.9148 1213.49 87.6716 1206.31 87.4284C1210.76 94.5831 1211.72 101.72 1209.26 109.441C1217.24 109.711 1225.31 109.985 1233.29 110.255C1232.42 103.522 1229.41 97.9167 1225.5 92.4813C1219.42 98.1786 1213.34 103.876 1207.26 109.573C1206.21 108.137 1208.29 111.709 1208.19 111.606C1207.35 109.776 1208.82 113.628 1208.82 113.628C1209.52 116.454 1209.36 115.448 1209.26 118.346C1209.12 122.444 1208 126.008 1204.97 130.107C1200.36 136.355 1190.59 139.125 1182.02 138.635C1177.94 138.397 1172.69 137.218 1170.04 135.728C1169.56 135.411 1168.27 135.167 1168.39 134.471C1168.38 134.671 1169.06 135.394 1168.95 135.691C1168.93 136.19 1168.79 137.386 1168.88 137.789C1168.77 138.086 1168.56 138.279 1168.26 138.369C1168.87 137.989 1169.48 137.61 1170.09 137.33C1170.9 136.957 1173.3 136.839 1175.39 136.91C1178.28 137.008 1181.27 137.309 1184.16 137.307C1191.05 137.34 1197.88 136.071 1203.8 132.269C1209.92 128.274 1214.32 122.119 1215.07 114.641C1215.7 107.858 1213.13 101.267 1212.46 94.5407C1211.94 89.32 1212.41 84.333 1214.92 80.8161C1216.07 79.2542 1215.96 79.7505 1217.39 78.5985C1216.16 79.5574 1219.6 78.0732 1217.7 78.3088C1218.6 78.2393 1219.5 78.2697 1220.39 78.4C1219.3 78.2629 1219.59 78.373 1221.08 78.7235C1223.74 79.6143 1226.36 81.8043 1227.78 84.1536C1230.62 88.8523 1231.32 94.4795 1231.45 99.6867C1231.72 112.203 1230.27 125.562 1227.07 137.66C1226.15 141.031 1225.69 142.817 1224.12 145.065C1224.02 145.161 1222.66 146.816 1223.6 145.747C1222.36 147.106 1223.48 146.344 1221.06 147.062C1215.42 148.672 1208.65 148.042 1202.89 147.347C1190.06 145.911 1177.78 140.092 1167.47 132.039C1162.13 127.855 1153.65 130.67 1150.28 135.958C1146.17 142.223 1148.64 149.01 1153.98 153.194Z" fill="#FED152" fill-opacity="0.68"/>
<path d="M1147.52 332.078C1163.57 332.621 1164.42 307.636 1148.37 307.092C1132.32 306.548 1131.47 331.534 1147.52 332.078Z" fill="#F6BAD4" fill-opacity="0.68"/>
<path d="M1173.71 386.996C1189.76 387.54 1190.6 362.554 1174.55 362.01C1158.5 361.466 1157.66 386.452 1173.71 386.996Z" fill="#F6BAD4" fill-opacity="0.68"/>
<path d="M1144.96 407.634C1161.01 408.178 1161.86 383.193 1145.81 382.649C1129.76 382.105 1128.91 407.09 1144.96 407.634Z" fill="#F6BAD4" fill-opacity="0.68"/>
<path d="M924.922 274.206C934.161 257.809 943.296 241.509 952.535 225.113C945.357 224.869 938.18 224.626 931.002 224.383C947.446 248.654 961.439 274.542 972.797 301.643C975.382 307.834 984.2 309.734 989.691 306.718C996.097 303.233 997.338 296.071 994.757 289.78C983.499 262.683 969.505 236.794 952.962 212.52C948.015 205.348 936.422 202.854 931.429 211.79C922.19 228.187 913.054 244.487 903.816 260.883C900.522 266.775 901.86 274.425 907.723 278.125C913.197 281.513 921.628 280.097 924.922 274.206Z" fill="#CE5A99" fill-opacity="0.68"/>
<path d="M811.732 389.438C826.034 394.425 840.237 399.409 854.537 404.496C857.001 396.575 859.468 388.554 861.932 380.633C849.776 377.12 837.619 373.606 825.462 370.092C810.042 365.667 802.547 389.527 818.066 393.955C830.223 397.469 842.38 400.983 854.537 404.496C869.953 409.021 877.122 385.951 861.932 380.633C847.63 375.646 833.427 370.662 819.127 365.575C804.037 360.261 796.642 384.124 811.732 389.438Z" fill="#FED152" fill-opacity="0.68"/>
<path d="M1043.32 500.245C1047.18 492.271 1051.44 484.311 1054.91 476.224C1058.8 467.351 1056.04 457.551 1047.11 453.146C1040.14 449.708 1031.8 448.225 1024.39 446.073C1016.19 443.694 1007.99 441.215 999.786 438.836C984.369 434.311 976.974 458.174 992.39 462.699C1000.3 464.968 1008.1 467.334 1016.01 469.603C1019.76 470.73 1023.52 471.858 1027.38 472.889C1029.25 473.453 1031.13 474.017 1033.01 474.581C1034 474.815 1034.88 475.145 1035.87 475.379C1038.54 476.369 1037.67 475.539 1033.26 473.089C1032.73 470.97 1032.3 468.854 1031.78 466.735C1032.31 465.652 1032.3 465.952 1031.65 467.431C1031.24 467.917 1030.91 468.607 1030.69 469.3C1029.83 471.072 1028.97 472.844 1028.12 474.616C1026.08 478.749 1024.15 482.786 1022.11 486.919C1019.11 493.021 1019.86 500.251 1026.02 504.161C1031.39 507.445 1040.41 506.35 1043.32 500.245Z" fill="#70C9EB" fill-opacity="0.68"/>
<path d="M1034.08 163.239C1033.37 172.22 1033.97 181.245 1035.86 190.115C1037.66 198.781 1040.96 207.497 1050.25 210.213C1059.94 213.043 1067.95 206.311 1073.28 199.087C1075.17 196.449 1076.54 194.195 1078.91 192.074C1079.53 191.494 1080.76 190.535 1081.27 190.152C1082.19 189.583 1083.1 189.114 1084.02 188.645C1086.04 187.713 1085.84 187.706 1083.51 188.728C1081.44 188.057 1079.36 187.486 1077.29 186.816C1075.13 182.74 1074.37 181.714 1075 183.836C1075.27 184.646 1075.44 185.552 1075.61 186.359C1076.04 188.274 1076.48 190.09 1076.92 192.006C1077.7 195.434 1078.48 198.963 1079.36 202.395C1081.01 209.655 1082.76 216.818 1084.41 224.078C1087.12 235.577 1105.53 237.201 1108.44 224.892C1110.77 215.066 1113.69 205.459 1117.4 196.079C1111.23 198.372 1105.07 200.664 1098.8 202.954C1110.3 211.048 1118.47 223.231 1122.1 236.862C1126.17 252.409 1150.42 246.627 1146.35 231.08C1141.15 210.992 1129.05 193.773 1112.09 181.891C1105.07 176.951 1096.33 181.658 1093.49 188.766C1089.78 198.145 1086.76 207.749 1084.53 217.579C1092.51 217.849 1100.58 218.123 1108.56 218.393C1105.86 206.795 1103.16 195.197 1100.46 183.498C1099.06 177.548 1097.77 171.501 1092.92 167.534C1086.7 162.42 1078.98 163.36 1072.18 166.831C1067.61 169.178 1063.21 172.431 1059.69 176.213C1057.72 178.348 1055.85 180.586 1054.27 182.934C1053.32 184.303 1051.78 185.651 1051.44 186.74C1049.09 188.462 1050.37 188.905 1055.49 188.078C1057.82 187.156 1059.51 187.414 1060.86 188.76C1061.47 188.481 1062.21 193.109 1060.98 187.964C1060.37 185.342 1059.77 182.62 1059.36 180.004C1058.54 174.774 1058.61 169.573 1058.99 164.283C1059.52 157.497 1053.53 151.591 1046.95 151.368C1039.98 150.932 1034.61 156.453 1034.08 163.239Z" fill="#ED6E49" fill-opacity="0.68"/>
<path d="M356.552 744.926C372.602 745.47 373.449 720.484 357.398 719.941C341.348 719.397 340.502 744.382 356.552 744.926Z" fill="#ED6E49" fill-opacity="0.68"/>
<path d="M351.535 701.532C367.585 702.076 368.431 677.09 352.381 676.546C336.331 676.002 335.485 700.988 351.535 701.532Z" fill="#ED6E49" fill-opacity="0.68"/>
<path d="M312.754 765.055C328.804 765.598 329.651 740.613 313.601 740.069C297.55 739.525 296.704 764.511 312.754 765.055Z" fill="#ED6E49" fill-opacity="0.68"/>
<path d="M312.536 706.714C328.586 707.258 329.432 682.272 313.382 681.728C297.332 681.184 296.486 706.17 312.536 706.714Z" fill="#ED6E49" fill-opacity="0.68"/>
<path d="M1062.26 403.631C1078.31 404.175 1079.16 379.189 1063.11 378.645C1047.06 378.101 1046.21 403.087 1062.26 403.631Z" fill="#435BA2" fill-opacity="0.68"/>
<path d="M1100.24 428.632C1116.29 429.176 1117.13 404.19 1101.08 403.646C1085.03 403.102 1084.19 428.088 1100.24 428.632Z" fill="#435BA2" fill-opacity="0.68"/>
<path d="M1118.85 386.037C1134.9 386.581 1135.74 361.595 1119.69 361.052C1103.74 360.511 1102.8 385.493 1118.85 386.037Z" fill="#435BA2" fill-opacity="0.68"/>
<path d="M1075.07 343.53C1091.12 344.074 1091.97 319.089 1075.92 318.545C1059.87 318.001 1059.02 342.987 1075.07 343.53Z" fill="#435BA2" fill-opacity="0.68"/>
<path d="M1125.88 25.2687C1124.61 24.5251 1124.32 24.3151 1124.9 24.6352C1125.1 24.7419 1125.19 24.9452 1125.19 25.1451C1124.2 24.9114 1125.05 23.4393 1124.71 24.4286C1123.84 26.5004 1124.5 27.8233 1120.91 27.6017C1119.82 27.5645 1119.32 27.4477 1118.44 26.9176C1118.14 26.8075 1116.72 24.5581 1117.78 25.8945C1117.94 26.8007 1117.95 26.6009 1117.79 25.3948C1117.78 25.7946 1117.77 26.1944 1117.75 26.5941C1117.99 25.4016 1118 25.2017 1117.77 26.0944C1117.44 26.9838 1117.54 26.8872 1117.98 25.8013C1117.92 27.4004 1116.87 26.064 1117.87 25.9978C1117.77 25.9945 1121.6 25.0235 1118.29 25.5116C1118.59 25.4218 1118.89 25.332 1119.19 25.3422C1120.28 25.5792 1120.38 25.5826 1119.49 25.3523C1119.08 25.6386 1119.88 25.5657 1118.61 24.8222C1119.1 25.039 1120.05 26.6718 1119.29 25.4455C1118.53 24.1192 1119.47 25.9519 1119.45 26.4517C1119.42 27.4511 1118.93 27.1344 1118.71 27.8272C1118.72 27.6273 1120.26 26.0789 1119.03 27.1377C1119.24 26.8447 1120.22 27.4781 1119.43 27.0513C1118.36 26.4145 1119.41 27.8509 1119.32 27.5476C1119.49 28.3539 1121.73 29.8309 1122.11 30.444C1124.78 34.3364 1125.46 37.5616 1125.33 41.5593C1125.1 48.4554 1119.49 54.7692 1113.24 56.6586C1117.86 58.7163 1122.48 60.7739 1127.1 62.8316C1124.07 58.2261 1123.21 54.0947 1124.87 49.2481C1127.86 40.6443 1130.07 31.214 1121.1 25.1065C1108.32 16.3687 1088.75 28.4128 1081.1 39.06C1072.73 50.583 1073.02 68.4032 1083.76 78.4726C1095.17 89.1653 1113.7 87.1917 1122.62 74.3864C1126.4 68.8113 1124.28 60.6349 1118.71 57.1442C1112.85 53.4435 1105.4 55.4922 1101.51 61.0639C1101.83 60.5744 1102.77 59.3055 1102.33 60.3913C1101.72 60.7709 1101.62 60.7675 1102.23 60.4879C1103.04 60.2151 1102.74 60.205 1101.43 60.5608C1102.81 61.0079 1101.73 60.6709 1101.14 60.4508C1102.9 61.3111 1100.34 60.4237 1101.23 60.4541C1102.43 60.4947 1099.27 59.3871 1101.14 60.4508C1100.35 60.024 1100.49 58.928 1100.66 59.7343C1101.01 61.2469 1100.39 58.8246 1100.31 58.3216C1100.06 56.8123 1099.86 59.8072 1100.26 56.919C1100.51 55.4266 1100.3 55.5198 1100.73 54.6338C1101.59 52.8619 1102 52.4756 1103.65 51.0305C1104.78 49.9683 1106.31 49.1195 1108.34 48.1876C1107.43 48.557 1109.35 47.8217 1109.45 47.825C1110.15 47.6488 1110.86 47.3726 1111.56 47.1964C1113.68 46.7676 1112.49 46.4272 1107.91 46.072C1106.47 44.5221 1105.02 42.9723 1103.58 41.4225C1103.84 36.6286 1103.59 35.2193 1102.91 37.3978C1102.69 38.0906 1102.37 38.7801 1102.05 39.3696C1101.4 40.8485 1100.95 42.2342 1100.5 43.8197C1099.69 47.0942 1099.17 50.6786 1099.26 54.0834C1099.51 61.2962 1101.27 68.3598 1105.25 74.3983C1108.19 78.9005 1113.57 82.2844 1119.12 80.5713C1137.77 74.9998 1151.73 57.5628 1150.21 37.5999C1148.68 18.0367 1129.98 -7.21128 1108.03 4.35198C1098.58 9.33477 1092.51 20.3358 1095.05 31.0277C1097.4 41.2131 1106.82 48.7366 1117.07 49.7842C1138.75 52.0198 1150.9 23.4148 1135.63 8.48928C1125.68 -1.25329 1110.12 1.52119 1102.84 12.9814C1095.47 24.5381 1101.65 39.2562 1112.41 45.9242C1126.27 54.9989 1139.56 33.837 1125.88 25.2687Z" fill="#CE619B" fill-opacity="0.68"/>
<path d="M876.656 579.346C876.506 554.326 875.053 529.463 872.504 504.562C871.833 497.836 863.382 493.947 857.446 495.347C850.201 497.103 847.581 503.718 848.252 510.444C850.58 533.036 851.605 555.784 851.73 578.601C851.803 585.307 856.89 591.283 863.768 591.516C870.351 591.639 876.729 586.052 876.656 579.346Z" fill="#EBCBB2" fill-opacity="0.68"/>
<path d="M51.5902 805.837C50.318 805.093 50.0257 804.883 50.6136 805.203C50.8096 805.31 50.9026 805.513 50.8958 805.713C49.9057 805.48 50.754 804.007 50.4211 804.997C49.5524 807.069 50.2062 808.391 46.6207 808.17C45.5241 808.133 45.0291 808.016 44.1488 807.486C43.8531 807.376 42.4323 805.126 43.4849 806.463C43.6538 807.369 43.6605 807.169 43.5018 805.963C43.4882 806.363 43.4747 806.763 43.4612 807.162C43.7012 805.97 43.7079 805.77 43.4781 806.663C43.1485 807.552 43.2516 807.455 43.6876 806.37C43.6334 807.969 42.5809 806.632 43.5811 806.566C43.4814 806.563 47.307 805.592 43.9969 806.08C44.2993 805.99 44.6018 805.9 44.9009 805.91C45.9907 806.147 46.0903 806.151 45.1999 805.92C44.7909 806.207 45.5918 806.134 44.3196 805.39C44.8112 805.607 45.754 807.24 44.9971 806.014C44.2437 804.687 45.1795 806.52 45.1626 807.02C45.1287 808.019 44.6405 807.703 44.4174 808.395C44.4242 808.196 45.9737 806.647 44.7401 807.706C44.9497 807.413 45.9263 808.046 45.1423 807.619C44.066 806.983 45.1152 808.419 45.0257 808.116C45.198 808.922 47.4435 810.399 47.8219 811.012C50.4845 814.905 51.1737 818.13 51.0382 822.128C50.8045 829.024 45.2011 835.337 38.9492 837.227C43.5703 839.284 48.1914 841.342 52.8125 843.4C49.7748 838.794 48.9168 834.663 50.5781 829.816C53.5644 821.213 55.7801 811.782 46.805 805.675C34.0267 796.937 14.4561 808.981 6.80955 819.628C-1.5653 831.151 -1.27093 848.971 9.46617 859.041C20.8808 869.733 39.4116 867.76 48.3289 854.955C52.1108 849.379 49.9926 841.203 44.422 837.712C38.5591 834.012 31.1042 836.06 27.2226 841.632C27.5386 841.143 28.4798 839.874 28.0437 840.96C27.4321 841.339 27.3324 841.336 27.9407 841.056C28.7484 840.783 28.4493 840.773 27.1397 841.129C28.5218 841.576 27.4355 841.239 26.8441 841.019C28.6115 841.879 26.0466 840.992 26.9438 841.022C28.1401 841.063 24.9839 839.955 26.8441 841.019C26.0601 840.592 26.1971 839.496 26.3694 840.302C26.7173 841.815 26.1008 839.393 26.018 838.89C25.7697 837.38 25.5685 840.375 25.9658 837.487C26.2159 835.995 26.0132 836.088 26.4424 835.202C27.3009 833.43 27.7132 833.044 29.359 831.599C30.4928 830.536 32.0187 829.688 34.0463 828.756C33.1356 829.125 35.0569 828.39 35.1566 828.393C35.8612 828.217 36.5691 827.941 37.2737 827.765C39.3842 827.336 38.198 826.995 33.619 826.64C32.1744 825.09 30.7299 823.541 29.2853 821.991C29.5476 817.197 29.296 815.787 28.6234 817.966C28.4003 818.659 28.0774 819.348 27.7581 819.938C27.1091 821.417 26.6629 822.802 26.21 824.388C25.4004 827.662 24.8798 831.247 24.964 834.652C25.2186 841.864 26.9753 848.928 30.9625 854.966C33.9039 859.469 39.2784 862.853 44.8257 861.139C63.4784 855.568 77.4432 838.131 75.924 818.168C74.3912 798.605 55.685 773.357 33.7354 784.92C24.2847 789.903 18.223 800.904 20.7551 811.596C23.1046 821.781 32.5307 829.305 42.7751 830.352C64.4568 832.588 76.6042 803.983 61.3408 789.057C51.3911 779.315 35.8274 782.089 28.5525 793.55C21.1745 805.106 27.3627 819.824 38.1152 826.492C51.98 835.567 65.2725 814.405 51.5902 805.837Z" fill="#CE619B" fill-opacity="0.68"/>
</svg>
