<svg width="175" height="27" viewBox="0 0 175 27" fill="none" xmlns="http://www.w3.org/2000/svg">
<path d="M3.204 19.88C3.612 20.264 4.08 20.648 4.608 21.032C5.16 21.392 5.868 21.572 6.732 21.572C7.812 21.572 8.628 21.284 9.18 20.708C9.756 20.108 10.044 19.172 10.044 17.9V2.672H15.372V18.62C15.372 19.988 15.144 21.164 14.688 22.148C14.256 23.132 13.668 23.948 12.924 24.596C12.18 25.22 11.328 25.688 10.368 26C9.432 26.288 8.448 26.432 7.416 26.432C6.576 26.432 5.808 26.348 5.112 26.18C4.416 26.036 3.78 25.844 3.204 25.604C2.652 25.34 2.136 25.04 1.656 24.704C1.176 24.368 0.732 24.02 0.324 23.66L3.204 19.88ZM19.6988 9.152H25.0268V18.584C25.0268 19.592 25.2548 20.396 25.7108 20.996C26.1908 21.596 26.8868 21.896 27.7988 21.896C28.7108 21.896 29.3948 21.596 29.8508 20.996C30.3068 20.396 30.5348 19.592 30.5348 18.584V9.152H35.8987V18.584C35.8987 21.056 35.1668 22.988 33.7028 24.38C32.2388 25.748 30.2708 26.432 27.7988 26.432C25.3028 26.432 23.3228 25.748 21.8588 24.38C20.4188 22.988 19.6988 21.056 19.6988 18.584V9.152ZM39.4473 13.616H49.9953V18.116H39.4473V13.616ZM53.9502 0.079999H59.2782V10.844C59.9022 10.22 60.5742 9.716 61.2942 9.332C62.0382 8.948 62.9382 8.756 63.9942 8.756C65.0742 8.756 66.0702 8.948 66.9822 9.332C67.9182 9.716 68.7222 10.28 69.3942 11.024C70.0662 11.768 70.5822 12.692 70.9422 13.796C71.3262 14.9 71.5182 16.172 71.5182 17.612C71.5182 18.908 71.3262 20.108 70.9422 21.212C70.5822 22.292 70.0662 23.216 69.3942 23.984C68.7222 24.752 67.9182 25.352 66.9822 25.784C66.0702 26.216 65.0742 26.432 63.9942 26.432C62.9862 26.432 62.0982 26.276 61.3302 25.964C60.5622 25.628 59.8662 25.184 59.2422 24.632V26H53.9502V0.079999ZM62.7342 22.076C63.9102 22.076 64.8222 21.644 65.4702 20.78C66.1182 19.916 66.4422 18.848 66.4422 17.576C66.4422 16.28 66.1062 15.224 65.4342 14.408C64.7622 13.568 63.8502 13.148 62.6982 13.148C61.5222 13.148 60.5982 13.58 59.9262 14.444C59.2782 15.284 58.9542 16.328 58.9542 17.576C58.9542 19.04 59.3142 20.156 60.0342 20.924C60.7542 21.692 61.6542 22.076 62.7342 22.076ZM86.0206 24.38C85.3966 25.004 84.7126 25.496 83.9686 25.856C83.2486 26.216 82.3726 26.396 81.3406 26.396C80.2606 26.396 79.2526 26.204 78.3166 25.82C77.4046 25.436 76.6126 24.872 75.9406 24.128C75.2686 23.384 74.7406 22.46 74.3566 21.356C73.9726 20.252 73.7806 18.98 73.7806 17.54C73.7806 16.244 73.9726 15.056 74.3566 13.976C74.7406 12.896 75.2686 11.972 75.9406 11.204C76.6126 10.436 77.4046 9.848 78.3166 9.44C79.2526 9.008 80.2606 8.792 81.3406 8.792C82.3246 8.792 83.1886 8.948 83.9326 9.26C84.7006 9.572 85.3966 10.004 86.0206 10.556V9.152H91.3486V26H86.0206V24.38ZM82.6006 22.004C83.7766 22.004 84.6886 21.584 85.3366 20.744C85.9846 19.904 86.3086 18.848 86.3086 17.576C86.3086 16.136 85.9486 15.044 85.2286 14.3C84.5326 13.556 83.6446 13.184 82.5646 13.184C81.3886 13.184 80.4766 13.604 79.8286 14.444C79.2046 15.26 78.8926 16.304 78.8926 17.576C78.8926 18.872 79.2166 19.94 79.8646 20.78C80.5126 21.596 81.4246 22.004 82.6006 22.004ZM94.1594 2.672H111.763V7.352H105.643V26H100.315V7.352H94.1594V2.672ZM120.009 22.004C120.633 22.004 121.173 21.884 121.629 21.644C122.109 21.404 122.505 21.092 122.817 20.708C123.153 20.3 123.393 19.832 123.537 19.304C123.705 18.752 123.789 18.176 123.789 17.576C123.789 16.976 123.705 16.412 123.537 15.884C123.393 15.332 123.153 14.864 122.817 14.48C122.505 14.072 122.109 13.748 121.629 13.508C121.173 13.268 120.633 13.148 120.009 13.148C119.385 13.148 118.833 13.268 118.353 13.508C117.897 13.748 117.501 14.072 117.165 14.48C116.853 14.864 116.613 15.332 116.445 15.884C116.277 16.412 116.193 16.976 116.193 17.576C116.193 18.176 116.277 18.752 116.445 19.304C116.613 19.832 116.853 20.3 117.165 20.708C117.501 21.092 117.897 21.404 118.353 21.644C118.833 21.884 119.385 22.004 120.009 22.004ZM120.009 26.54C118.641 26.54 117.405 26.312 116.301 25.856C115.221 25.376 114.285 24.74 113.493 23.948C112.725 23.132 112.137 22.184 111.729 21.104C111.321 20 111.117 18.824 111.117 17.576C111.117 16.328 111.321 15.164 111.729 14.084C112.137 13.004 112.725 12.056 113.493 11.24C114.285 10.424 115.221 9.788 116.301 9.332C117.405 8.852 118.641 8.612 120.009 8.612C121.377 8.612 122.601 8.852 123.681 9.332C124.785 9.788 125.721 10.424 126.489 11.24C127.281 12.056 127.881 13.004 128.289 14.084C128.697 15.164 128.901 16.328 128.901 17.576C128.901 18.824 128.697 20 128.289 21.104C127.881 22.184 127.281 23.132 126.489 23.948C125.721 24.74 124.785 25.376 123.681 25.856C122.601 26.312 121.377 26.54 120.009 26.54ZM140.048 22.004C140.672 22.004 141.212 21.884 141.668 21.644C142.148 21.404 142.544 21.092 142.856 20.708C143.192 20.3 143.432 19.832 143.576 19.304C143.744 18.752 143.828 18.176 143.828 17.576C143.828 16.976 143.744 16.412 143.576 15.884C143.432 15.332 143.192 14.864 142.856 14.48C142.544 14.072 142.148 13.748 141.668 13.508C141.212 13.268 140.672 13.148 140.048 13.148C139.424 13.148 138.872 13.268 138.392 13.508C137.936 13.748 137.54 14.072 137.204 14.48C136.892 14.864 136.652 15.332 136.484 15.884C136.316 16.412 136.232 16.976 136.232 17.576C136.232 18.176 136.316 18.752 136.484 19.304C136.652 19.832 136.892 20.3 137.204 20.708C137.54 21.092 137.936 21.404 138.392 21.644C138.872 21.884 139.424 22.004 140.048 22.004ZM140.048 26.54C138.68 26.54 137.444 26.312 136.34 25.856C135.26 25.376 134.324 24.74 133.532 23.948C132.764 23.132 132.176 22.184 131.768 21.104C131.36 20 131.156 18.824 131.156 17.576C131.156 16.328 131.36 15.164 131.768 14.084C132.176 13.004 132.764 12.056 133.532 11.24C134.324 10.424 135.26 9.788 136.34 9.332C137.444 8.852 138.68 8.612 140.048 8.612C141.416 8.612 142.64 8.852 143.72 9.332C144.824 9.788 145.76 10.424 146.528 11.24C147.32 12.056 147.92 13.004 148.328 14.084C148.736 15.164 148.94 16.328 148.94 17.576C148.94 18.824 148.736 20 148.328 21.104C147.92 22.184 147.32 23.132 146.528 23.948C145.76 24.74 144.824 25.376 143.72 25.856C142.64 26.312 141.416 26.54 140.048 26.54ZM152.282 0.079999H157.61V26H152.282V0.079999ZM162.588 20.708C163.236 21.116 164.016 21.524 164.928 21.932C165.864 22.34 166.836 22.544 167.844 22.544C169.068 22.544 169.68 22.148 169.68 21.356C169.68 20.948 169.5 20.648 169.14 20.456C168.804 20.24 168.324 20.012 167.7 19.772L165.936 19.088C165.24 18.848 164.616 18.584 164.064 18.296C163.536 17.984 163.068 17.624 162.66 17.216C162.276 16.784 161.976 16.304 161.76 15.776C161.568 15.224 161.472 14.564 161.472 13.796C161.472 13.052 161.616 12.368 161.904 11.744C162.216 11.096 162.648 10.544 163.2 10.088C163.752 9.632 164.412 9.272 165.18 9.008C165.972 8.744 166.848 8.612 167.808 8.612C169.2 8.612 170.364 8.804 171.3 9.188C172.236 9.572 173.088 10.004 173.856 10.484L172.164 13.832C171.684 13.592 171.06 13.316 170.292 13.004C169.548 12.692 168.816 12.536 168.096 12.536C167.568 12.536 167.148 12.656 166.836 12.896C166.548 13.112 166.404 13.4 166.404 13.76C166.404 14.168 166.536 14.48 166.8 14.696C167.064 14.888 167.508 15.104 168.132 15.344L169.824 15.956C170.52 16.196 171.168 16.448 171.768 16.712C172.368 16.976 172.884 17.3 173.316 17.684C173.772 18.044 174.12 18.488 174.36 19.016C174.624 19.52 174.756 20.144 174.756 20.888C174.756 21.68 174.612 22.424 174.324 23.12C174.036 23.792 173.616 24.392 173.064 24.92C172.512 25.424 171.816 25.82 170.976 26.108C170.16 26.396 169.2 26.54 168.096 26.54C166.584 26.54 165.204 26.312 163.956 25.856C162.708 25.376 161.64 24.86 160.752 24.308L162.588 20.708Z" fill="#282828"/>
</svg>
