<svg width="14" height="14" viewBox="0 0 14 14" fill="none" xmlns="http://www.w3.org/2000/svg">
<path d="M9.77317 7.04151C10.421 6.53463 10.8938 5.83955 11.1259 5.05297C11.358 4.26639 11.3378 3.42742 11.0681 2.65279C10.7984 1.87815 10.2927 1.20637 9.62124 0.730909C8.94978 0.255444 8.146 -6.10352e-05 7.32173 -6.10352e-05C6.49746 -6.10352e-05 5.69368 0.255444 5.02222 0.730909C4.35076 1.20637 3.84501 1.87815 3.57533 2.65279C3.30565 3.42742 3.28545 4.26639 3.51755 5.05297C3.74964 5.83955 4.22248 6.53463 4.87029 7.04151C3.76026 7.4838 2.79171 8.21736 2.06792 9.16402C1.34412 10.1107 0.892198 11.2349 0.760333 12.4169C0.750788 12.5032 0.758428 12.5905 0.782816 12.6739C0.807204 12.7573 0.847863 12.835 0.902471 12.9028C1.01276 13.0395 1.17317 13.1272 1.34841 13.1463C1.52366 13.1655 1.69939 13.1147 1.83693 13.005C1.97448 12.8953 2.06259 12.7358 2.08186 12.5615C2.22696 11.2769 2.84286 10.0905 3.81189 9.22899C4.78092 8.36747 6.03515 7.89121 7.33495 7.89121C8.63474 7.89121 9.88897 8.36747 10.858 9.22899C11.827 10.0905 12.4429 11.2769 12.588 12.5615C12.606 12.723 12.6835 12.8721 12.8055 12.9801C12.9275 13.0881 13.0854 13.1473 13.2488 13.1463H13.3215C13.4947 13.1265 13.653 13.0394 13.7619 12.904C13.8708 12.7686 13.9215 12.5959 13.9029 12.4235C13.7705 11.2381 13.3161 10.111 12.5886 9.16289C11.8611 8.21478 10.8878 7.48145 9.77317 7.04151ZM7.32173 6.57494C6.79898 6.57494 6.28797 6.42078 5.85332 6.13195C5.41868 5.84312 5.07991 5.4326 4.87986 4.95229C4.67981 4.47199 4.62747 3.94347 4.72945 3.43358C4.83144 2.92369 5.08317 2.45533 5.4528 2.08772C5.82244 1.72011 6.29339 1.46976 6.80609 1.36834C7.3188 1.26691 7.85023 1.31897 8.33319 1.51792C8.81614 1.71687 9.22893 2.05377 9.51935 2.48604C9.80978 2.9183 9.96479 3.42651 9.96479 3.94639C9.96479 4.64352 9.68633 5.31211 9.19066 5.80506C8.69499 6.29801 8.02271 6.57494 7.32173 6.57494Z" fill="#B5B5B5"/>
</svg>
