<svg width="53" height="45" viewBox="0 0 53 45" fill="none" xmlns="http://www.w3.org/2000/svg">
<path d="M14.2573 35.7502C14.0445 35.7596 13.9239 35.769 13.873 35.7753C14.0001 35.769 14.1239 35.7596 14.2477 35.7534H14.2573V35.7502Z" fill="#EE706C"/>
<path d="M44.3696 29.7361C44.3633 29.7642 44.3538 29.8612 44.3379 30.0584C44.3379 30.0396 44.3442 30.024 44.3442 30.0083C44.3538 29.9176 44.3601 29.8268 44.3696 29.7361Z" fill="#EE706C"/>
<path d="M52.8596 23.7031C52.7135 21.4251 50.9925 19.4788 48.5729 19.4788C46.366 19.4788 44.14 21.4157 44.2861 23.7031C44.4068 25.5743 44.5465 27.433 44.4068 29.3105C44.3973 29.4513 44.3814 29.5953 44.3655 29.7361C44.3718 29.6954 44.3655 29.8143 44.3401 30.0083C44.3337 30.0772 44.3242 30.146 44.321 30.2148C44.3242 30.1585 44.3306 30.1053 44.3337 30.0615C44.3242 30.1272 44.3115 30.1992 44.2988 30.2743C44.1781 30.9439 44.0162 31.6042 43.8066 32.2519C43.7876 32.3145 43.7114 32.521 43.6479 32.6994C43.5621 32.8809 43.4161 33.2063 43.378 33.2783C43.2446 33.5255 43.0953 33.7601 42.9493 34.0011C42.889 34.1012 42.8159 34.1982 42.7461 34.2921C42.5079 34.5205 42.2825 34.7677 42.0475 34.9993C41.9871 35.0587 41.9427 35.1057 41.9078 35.1432C41.8887 35.1526 41.8697 35.162 41.8443 35.1745C41.5204 35.3529 41.2028 35.55 40.8853 35.7378C40.7424 35.8222 40.5868 35.8817 40.4407 35.9568C41.2759 35.55 40.5582 35.9067 40.336 35.9693C39.92 36.0913 39.5072 36.2196 39.0817 36.3135C38.8531 36.3636 38.6213 36.4074 38.3895 36.4449C37.9386 36.4856 37.4845 36.5138 37.0304 36.5075C36.8462 36.5075 36.6621 36.4856 36.4811 36.4825C36.462 36.4825 36.4493 36.4825 36.4366 36.4825C36.4271 36.4825 36.4239 36.4794 36.4144 36.4762C36.0714 36.3886 35.6872 36.2384 35.3411 36.1852C35.2522 36.1445 35.1601 36.1007 35.0744 36.0507C34.8235 35.9005 34.579 35.7127 34.3218 35.5813C35.2046 36.0382 34.3758 35.6001 34.0837 35.3091C34.036 35.259 33.8296 35.0243 33.6867 34.8679C33.5661 34.6958 33.3883 34.4486 33.3438 34.3797C33.1692 34.1012 33.0072 33.8133 32.8548 33.5192C32.7976 33.4066 32.7437 33.2908 32.6865 33.1813C32.315 31.9014 31.9816 30.6467 31.664 29.3512V29.3199C31.6418 29.0696 31.6164 28.8224 31.6037 28.5721C31.5847 28.1809 31.5751 27.7898 31.6005 27.3986C31.7212 25.324 29.8795 23.4841 27.8822 23.2494C25.7261 22.9959 23.8463 24.2288 23.1795 26.2753C23.1064 26.5037 23.0239 26.729 22.9381 26.9543C22.9 27.0607 22.8556 27.1639 22.8143 27.2672C22.3697 28.1997 21.9125 29.1165 21.3759 30.0021C21.0806 30.4933 20.7662 30.9721 20.436 31.4415C20.3947 31.4978 20.255 31.6887 20.1502 31.8326C20.0136 31.9953 19.766 32.2988 19.6929 32.3771C19.2769 32.8464 18.8356 33.3002 18.3688 33.7226C18.1338 33.9385 17.8861 34.1388 17.6416 34.3453C18.2894 33.804 17.6416 34.3328 17.3336 34.5299C17.0605 34.7051 16.7811 34.871 16.4953 35.0243C16.4223 35.065 16.1429 35.1964 15.965 35.284C15.7777 35.3497 15.4665 35.4624 15.3808 35.4874C15.0093 35.5969 14.6377 35.6752 14.2599 35.7597C14.2757 35.7597 14.2916 35.7597 14.3107 35.7597C14.2916 35.7597 14.2726 35.7597 14.2503 35.7628L14.2186 35.769C14.0503 35.8066 13.7359 35.8035 13.8757 35.7847C13.8407 35.7847 13.8058 35.791 13.7677 35.7878C13.393 35.7816 13.0215 35.7878 12.65 35.7722C12.5325 35.7659 12.415 35.7534 12.2975 35.744C12.2753 35.7378 12.2499 35.7315 12.2213 35.7252C11.7672 35.622 11.3227 35.5062 10.8718 35.3904C10.8083 35.3748 10.7606 35.3654 10.7225 35.356C10.6939 35.331 10.6495 35.2997 10.586 35.2559C10.3859 35.1182 10.1287 34.9398 10.097 34.9398C9.95408 34.8021 9.81436 34.6613 9.66512 34.533C9.63654 34.5111 9.61431 34.4924 9.59526 34.4767C9.57303 34.4267 9.54128 34.3641 9.49365 34.2765C9.36981 34.0543 9.2555 33.804 9.12531 33.5818C9.09038 33.491 9.05545 33.4003 9.03005 33.3096C8.94431 33.006 8.85223 32.7056 8.78237 32.3958C8.68711 31.9828 8.64583 31.2412 8.69663 32.1048C8.649 31.3038 8.58232 30.5152 8.60772 29.7111C8.61725 29.3449 8.63948 28.9788 8.67123 28.6159C8.68076 28.5032 8.73474 28.0808 8.75696 27.8836C8.79189 27.6959 8.83 27.4706 8.84587 27.3955C8.90621 27.0888 8.97289 26.7822 9.04592 26.4787C9.17929 25.9217 9.33806 25.3741 9.52223 24.8296C10.2589 22.6674 8.67123 20.2142 6.52786 19.6321C4.18762 18.9969 1.99344 20.4113 1.25358 22.5829C-0.991402 29.1728 -0.686568 38.3568 5.96264 42.3778C9.64289 44.6026 14.7965 44.8028 18.7562 43.2351C21.5346 42.1337 23.8177 40.4095 25.7579 38.288C27.4249 40.9947 29.8223 43.1882 32.8834 44.2803C37.1447 45.7979 42.7492 44.831 46.4263 42.2933C49.7128 40.0278 51.8022 36.5138 52.5389 32.6524C53.1136 29.6485 53.0501 26.7321 52.8564 23.7063L52.8596 23.7031ZM42.6984 34.3578C42.6762 34.3922 42.6508 34.4235 42.6317 34.4579C42.6508 34.4267 42.673 34.3922 42.6984 34.3578ZM42.8127 34.2201C42.9271 34.095 43.0064 34.0355 42.8127 34.2201V34.2201Z" fill="#EE706C"/>
<path d="M16.6636 13.5554C18.7213 14.0185 21.2838 12.9452 21.741 10.7141C22.0618 9.15581 22.3825 7.5975 22.7032 6.03607C23.1319 3.9552 22.0967 1.54264 19.8199 1.03259C17.7623 0.569477 15.1998 1.64277 14.7425 3.87384C14.4218 5.43214 14.1011 6.99045 13.7804 8.55189C13.3517 10.6328 14.3869 13.0453 16.6636 13.5554Z" fill="#EE706C"/>
<path d="M34.4678 11.0834C34.9695 11.9282 35.9507 12.7324 36.9351 12.9514C38.9006 13.3926 41.6695 12.36 42.0125 10.1102C42.3205 8.09504 42.5174 6.10804 42.4412 4.07098C42.3586 1.9463 40.6026 -0.0970244 38.3132 0.00310776C36.1476 0.100111 34.0963 1.79297 34.1852 4.07098C34.2138 4.83761 34.2201 5.60112 34.1852 6.36776C34.1662 6.74951 34.1376 7.13126 34.1027 7.51302C34.0868 7.69138 33.928 8.79596 34.055 7.9511C33.8836 9.07445 33.8645 10.0664 34.471 11.0865L34.4678 11.0834Z" fill="#EE706C"/>
</svg>
