<svg width="47" height="48" viewBox="0 0 47 48" fill="none" xmlns="http://www.w3.org/2000/svg">
<path d="M41.5611 13.6685C44.5644 13.6685 46.9991 11.2207 46.9991 8.20112C46.9991 5.18155 44.5644 2.7337 41.5611 2.7337C38.5577 2.7337 36.123 5.18155 36.123 8.20112C36.123 11.2207 38.5577 13.6685 41.5611 13.6685Z" fill="#EE706C"/>
<path d="M5.43802 10.9348C8.44135 10.9348 10.876 8.48698 10.876 5.46741C10.876 2.44784 8.44135 0 5.43802 0C2.43468 0 0 2.44784 0 5.46741C0 8.48698 2.43468 10.9348 5.43802 10.9348Z" fill="#EE706C"/>
<path d="M3.87602 26.7435C4.92478 36.3466 9.39172 47.34 20.4503 47.9727C30.6233 48.5545 37.5335 38.8186 40.8351 30.4301C41.8761 27.7823 39.6931 24.6424 37.1722 23.9434C34.193 23.1193 31.7692 24.9666 30.7204 27.6261C30.2931 28.7117 30.8602 27.4347 30.4058 28.3681C30.1805 28.8367 29.963 29.3092 29.7221 29.7701C29.2677 30.641 28.7744 31.4923 28.2306 32.3085C27.9742 32.6951 27.7101 33.0779 27.4304 33.4489C28.1218 32.5311 27.2245 33.6597 27.1352 33.7613C26.5875 34.3861 26.001 34.9836 25.3756 35.5343C25.1348 35.7452 24.1521 36.413 25.2202 35.6905C24.9095 35.9014 24.6065 36.1201 24.288 36.3193C23.9695 36.5184 23.6626 36.6824 23.3441 36.8582C23.181 36.948 22.2293 37.3542 23.0178 37.0339C23.8064 36.7137 22.6954 37.1237 22.5284 37.1745C22.2138 37.2721 21.8914 37.3346 21.5729 37.4205C20.4426 37.7252 22.1206 37.4635 21.6972 37.4127C21.3981 37.3776 21.0602 37.444 20.7533 37.4401C20.7067 37.4401 19.9764 37.3932 19.9764 37.3893C20.0153 37.1667 21.2466 37.7017 20.1473 37.3581C19.856 37.2682 19.5492 37.155 19.2501 37.0808C20.5746 37.401 19.7434 37.3385 19.3433 37.0925C19.0869 36.9324 18.7762 36.7215 18.5043 36.5887C17.6381 36.1708 19.1646 37.3268 18.4965 36.5887C18.0149 36.0537 17.4749 35.5851 17.0127 35.0266C17.8673 36.0615 17.071 35.0461 16.935 34.8313C16.7136 34.4838 16.5078 34.1284 16.3174 33.7691C16.1154 33.3864 15.929 32.9958 15.7464 32.6053C16.1387 33.4684 15.7192 32.496 15.5988 32.1562C14.9851 30.391 14.4724 27.8252 14.3559 26.7396C14.049 23.9082 12.1651 21.4674 9.11205 21.4674C6.51734 21.4674 3.55751 23.8926 3.86825 26.7396L3.87602 26.7435Z" fill="#EE706C"/>
</svg>
