<svg width="54" height="40" viewBox="0 0 54 40" fill="none" xmlns="http://www.w3.org/2000/svg">
<path d="M27.6338 28.4854C27.6196 28.6548 27.5891 28.8189 27.572 28.9845C27.5153 29.5528 27.7715 28.5264 27.5599 29.0824C27.5257 29.2767 26.9676 30.4884 27.186 30.0977C26.7546 30.7806 26.406 31.3436 25.5397 31.4453C25.7239 31.4407 24.7093 31.2843 25.0008 31.3752C24.925 31.3555 24.5236 30.9703 24.7645 31.2501C23.7423 30.11 23.5443 29.1266 23.4737 27.5529C23.019 23.9421 17.4247 24.7602 17.9258 28.3802C17.9715 39.118 32.1958 39.9155 33.1949 29.1734C33.4847 25.5656 27.9228 24.857 27.6304 28.485L27.6338 28.4854Z" fill="#EE706C"/>
<path d="M20.3689 13.8032C19.3157 11.5121 18.2515 9.22643 17.1731 6.94589C16.2024 4.89441 15.3385 1.76032 12.8911 1.1151C9.96299 0.341908 8.6327 3.31412 7.31665 5.31898C5.90478 7.46608 4.49248 9.61655 3.0806 11.7637C2.20519 13.0936 2.30939 14.8906 3.62968 15.9032C4.82222 16.8213 6.86683 16.6804 7.74308 15.3437C8.80304 13.7318 9.85923 12.1229 10.9192 10.5109L10.9276 10.4983C11.292 9.9441 12.1149 10.0014 12.3978 10.6014C12.4221 10.6524 12.4435 10.6995 12.4678 10.7505C13.3106 12.543 14.1459 14.3414 14.9741 16.1424C16.5551 19.5844 21.9608 17.267 20.3689 13.8032Z" fill="#EE706C"/>
<path d="M51.1892 17.6161C50.136 15.325 49.0718 13.0394 47.9934 10.7588C47.0227 8.70734 46.1588 5.57325 43.7114 4.92802C40.7833 4.15484 39.453 7.12705 38.137 9.1319C36.7251 11.279 35.3128 13.4295 33.9009 15.5766C33.0255 16.9065 33.1297 18.7036 34.45 19.7162C35.6425 20.6342 37.6871 20.4934 38.5634 19.1566C39.6234 17.5447 40.6795 15.9358 41.7395 14.3239L41.7479 14.3112C42.1123 13.757 42.9352 13.8143 43.2181 14.4143C43.2424 14.4653 43.2638 14.5125 43.2881 14.5634C44.1309 16.3559 44.9662 18.1544 45.7944 19.9554C47.3754 23.3973 52.7811 21.08 51.1892 17.6161Z" fill="#EE706C"/>
</svg>
