<svg width="53" height="38" viewBox="0 0 53 38" fill="none" xmlns="http://www.w3.org/2000/svg">
<path d="M18.7583 9.08922C16.2936 6.9645 13.8319 4.84323 11.3672 2.71851C9.98699 1.52728 7.61063 2.14919 6.63183 3.50313C5.47954 5.09613 6.06832 6.94592 7.45149 8.14059C8.52978 9.07035 9.611 10.0035 10.6893 10.9333C8.9013 11.6606 7.07589 12.2956 5.20855 12.8158C3.44792 13.304 2.1325 14.7938 2.49044 16.6838C2.79893 18.3217 4.67893 19.852 6.453 19.3586C10.5468 18.2225 14.4952 16.7433 18.2623 14.8097C20.6762 13.5715 20.6853 10.7508 18.7613 9.09265L18.7583 9.08922Z" fill="#EE706C"/>
<path d="M49.8601 18.8129L45.3645 14.6172C44.851 14.1371 44.3376 13.657 43.8209 13.1766C44.1454 13.0682 44.4499 12.9646 44.7091 12.8601C46.2783 12.2217 47.8439 11.5863 49.413 10.9479C53.4469 9.30772 50.5293 3.29247 46.4954 4.93266C44.2428 5.84816 41.9867 6.76654 39.7342 7.68205C37.4143 8.62346 34.3974 9.85037 34.9787 12.9387C35.3855 15.0872 37.7521 16.625 39.2715 18.0445C41.0703 19.7234 42.8662 21.399 44.6651 23.0779C45.9955 24.3188 47.9401 24.7364 49.4514 23.4956C50.7353 22.4416 51.1964 20.0606 49.8601 18.8129Z" fill="#EE706C"/>
<path d="M16.3695 24.1736C14.8783 36.7944 31.9376 39.408 34.6753 27.0548C36.148 23.0178 29.7565 20.6743 28.302 24.7256C28.0194 26.3628 26.8457 28.0524 25.97 28.5606C24.897 29.3185 23.5216 27.8862 23.3262 26.8873C23.2418 26.6639 23.0731 25.6197 23.0861 25.4715C24.3391 20.9005 17.1489 19.4851 16.3695 24.1736Z" fill="#EE706C"/>
</svg>
