<svg width="25" height="40" viewBox="0 0 25 40" fill="none" xmlns="http://www.w3.org/2000/svg">
<path d="M15.4197 26.7655H10.1481C9.58898 26.7655 9.13574 27.2187 9.13574 27.7778V35.2593C9.13574 35.8184 9.58898 36.2717 10.1481 36.2717H15.4197C15.9788 36.2717 16.432 35.8184 16.432 35.2593V27.7778C16.432 27.2187 15.9788 26.7655 15.4197 26.7655Z" fill="#505862"/>
<path d="M12.4181 27.1852H9.51682C6.82546 27.1852 4.2946 25.963 2.73904 23.926C2.5662 23.7038 2.40571 23.4692 2.25756 23.247C1.19583 21.605 0.62793 19.6173 0.62793 17.4815V10.6791C0.62793 9.27167 1.76373 8.13586 3.17114 8.13586C4.57855 8.13586 5.71435 9.27167 5.71435 10.6791V17.4815C5.71435 18.6297 5.9983 19.6667 6.52916 20.4815C6.61558 20.605 6.68966 20.7285 6.78842 20.8519C7.38102 21.642 8.40571 22.1112 9.51682 22.1112H12.4181C13.8255 22.1112 14.9613 23.247 14.9613 24.6544C14.9613 26.0618 13.8255 27.1976 12.4181 27.1976V27.1852Z" fill="#EE706C"/>
<path d="M15.5411 27.1852H12.6399C11.2325 27.1852 10.0967 26.0494 10.0967 24.642C10.0967 23.2346 11.2325 22.0988 12.6399 22.0988H15.5411C16.6522 22.0988 17.6646 21.6297 18.2572 20.8396C18.3436 20.7161 18.43 20.605 18.5041 20.4815C19.035 19.6544 19.3189 18.6173 19.3189 17.4815V10.6791C19.3189 9.27167 20.4547 8.13586 21.8621 8.13586C23.2695 8.13586 24.4053 9.27167 24.4053 10.6791V17.4815C24.4053 19.605 23.8374 21.605 22.7757 23.247C22.6399 23.4692 22.4794 23.6914 22.3066 23.926C20.751 25.9754 18.2201 27.1852 15.5288 27.1852H15.5411Z" fill="#E97979"/>
<path d="M14.7619 0.814697H11.157C10.8607 2.34556 10.3669 6.17272 11.3175 11.5184C12.4903 18.111 13.5767 19.9382 16.8113 22.4443C18.7372 21.6419 20.0829 19.7406 20.0829 17.5307V6.14803C20.0829 3.20976 17.7002 0.827043 14.7619 0.827043V0.814697Z" fill="#F4ED89"/>
<path d="M11.3303 11.5307C10.3673 6.18502 10.8735 2.35786 11.1698 0.826996H10.4167C7.47842 0.826996 5.0957 3.20971 5.0957 6.14798V17.543C5.0957 20.4813 7.47842 22.864 10.4167 22.864H14.7624C15.4908 22.864 16.1821 22.7159 16.8118 22.4566C13.5772 19.9505 12.5031 18.1233 11.3179 11.5307H11.3303Z" fill="#EDD073"/>
<path d="M16.2432 10.6666H20.0827V12.5307H16.2432C15.7864 12.5307 15.416 12.1604 15.416 11.7036V11.4814C15.416 11.0246 15.7864 10.6542 16.2432 10.6542V10.6666Z" fill="#DC6965"/>
<path d="M16.2432 16.2221H20.0827V18.0863H16.2432C15.7864 18.0863 15.416 17.7159 15.416 17.2591V17.0369C15.416 16.5801 15.7864 16.2097 16.2432 16.2097V16.2221Z" fill="#DC6965"/>
<path d="M8.92186 12.5308H5.08236V10.6666H8.92186C9.37865 10.6666 9.74902 11.0369 9.74902 11.4937V11.716C9.74902 12.1728 9.37865 12.5431 8.92186 12.5431V12.5308Z" fill="#DC6965"/>
<path d="M8.92186 18.0863H5.08236V16.2221H8.92186C9.37865 16.2221 9.74902 16.5925 9.74902 17.0493V17.2715C9.74902 17.7283 9.37865 18.0987 8.92186 18.0987V18.0863Z" fill="#DC6965"/>
<path d="M19.8893 39.5308H5.67947C4.54367 39.5308 3.72885 38.4814 4.02515 37.4197L4.40786 36.074C4.61774 35.358 5.28441 34.8518 6.06218 34.8518H19.5066C20.2721 34.8518 20.9511 35.3456 21.1609 36.074L21.5437 37.4197C21.84 38.4814 21.0251 39.5308 19.8893 39.5308V39.5308Z" fill="#EE706C"/>
</svg>
