<svg width="40" height="44" viewBox="0 0 40 44" fill="none" xmlns="http://www.w3.org/2000/svg">
<path d="M32.3378 19.281C29.2859 11.3986 17.3489 10.0222 11.8452 15.8438C7.31558 20.8304 6.47854 28.8407 8.81929 35.2978C10.4341 39.7542 16.0674 44 20.7415 44C32.9637 44 36.6674 30.4616 32.3378 19.281ZM25.5119 32.4434C25.1341 33.7634 22.9637 34.5945 21.4822 34.5945C19.26 34.5945 17.6526 33.0865 17.2193 32.0072C16.5934 30.4503 16.8082 27.0544 16.9415 25.1966C17.0748 23.3388 18.3934 21.8458 20.1674 21.5863C21.3822 21.4096 22.6193 21.6127 23.2711 22.0865C24.7489 23.1621 26.1785 29.6869 25.5119 32.4397V32.4434Z" fill="#EE706C"/>
<path d="M34.8141 10.5299C37.6778 10.5299 39.9993 8.17271 39.9993 5.26496C39.9993 2.3572 37.6778 0 34.8141 0C31.9504 0 29.6289 2.3572 29.6289 5.26496C29.6289 8.17271 31.9504 10.5299 34.8141 10.5299Z" fill="#EE706C"/>
<path d="M5.18518 10.906C8.04888 10.906 10.3704 8.54878 10.3704 5.64103C10.3704 2.73327 8.04888 0.376068 5.18518 0.376068C2.32149 0.376068 0 2.73327 0 5.64103C0 8.54878 2.32149 10.906 5.18518 10.906Z" fill="#EE706C"/>
</svg>
