<svg width="37" height="38" viewBox="0 0 37 38" fill="none" xmlns="http://www.w3.org/2000/svg">
<path d="M30.9837 10.4005C33.6228 10.4005 35.7623 8.22749 35.7623 5.54693C35.7623 2.86638 33.6228 0.693359 30.9837 0.693359C28.3445 0.693359 26.2051 2.86638 26.2051 5.54693C26.2051 8.22749 28.3445 10.4005 30.9837 10.4005Z" fill="#EE706C"/>
<path d="M30.9844 10.5738C28.2538 10.5738 26.0352 8.3204 26.0352 5.54693C26.0352 2.77346 28.2538 0.52002 30.9844 0.52002C33.715 0.52002 35.9337 2.77346 35.9337 5.54693C35.9337 8.3204 33.715 10.5738 30.9844 10.5738ZM30.9844 0.866703C28.4449 0.866703 26.3765 2.96761 26.3765 5.54693C26.3765 8.12626 28.4449 10.2272 30.9844 10.2272C33.5239 10.2272 35.5924 8.12626 35.5924 5.54693C35.5924 2.96761 33.5239 0.866703 30.9844 0.866703Z" fill="#EE706C"/>
<path d="M8.79813 9.70714C11.4373 9.70714 13.5767 7.53413 13.5767 4.85357C13.5767 2.17302 11.4373 0 8.79813 0C6.15898 0 4.01953 2.17302 4.01953 4.85357C4.01953 7.53413 6.15898 9.70714 8.79813 9.70714Z" fill="#EE706C"/>
<path d="M0.00254774 22.9158C0.360943 30.4354 5.99969 36.1487 13.1949 37.4488C18.5367 38.416 24.9707 38.3224 29.7527 35.3929C33.0295 33.3856 34.8522 30.2551 36.4291 26.8403C37.5248 24.4689 37.0845 21.6053 34.7156 20.2013C32.6438 18.9705 29.2783 19.5599 28.1792 21.9416C27.657 23.0753 27.1586 24.2263 26.5204 25.2975C26.3497 25.5818 26.1278 25.8522 25.9708 26.1434C25.7592 26.4381 25.865 26.3029 26.278 25.7413C26.1551 25.8938 26.0254 26.0429 25.8923 26.1885C25.6739 26.393 25.452 26.608 25.2472 26.8229C24.6157 27.4886 26.0664 26.4138 25.2097 26.8368C24.9161 26.9824 24.6157 27.1765 24.3324 27.3499C23.6225 27.7867 25.0799 27.1869 23.9263 27.5128C23.4552 27.648 22.9944 27.8006 22.5132 27.9115C22.3493 27.9496 21.0728 28.1889 21.909 28.0606C20.7075 28.2409 19.4549 28.2617 18.2431 28.2478C17.6185 28.2409 17.0007 28.1923 16.3761 28.1646C15.3726 28.1195 16.7379 28.2929 15.7344 28.0883C14.8981 27.9184 14.0994 27.6723 13.2768 27.4539C12.3382 27.2043 13.9253 27.8699 12.8775 27.2944C12.5293 27.1037 12.188 26.8992 11.8398 26.7085C11.519 26.5317 10.908 25.8799 11.7852 26.7259C11.5736 26.5213 11.3347 26.341 11.123 26.133C10.8943 25.9077 10.6964 25.6234 10.4609 25.4119C10.2799 25.2524 11.0479 26.3861 10.5086 25.4397C10.3858 25.2212 10.024 24.254 9.81574 24.1639C10.3038 24.3753 10.1912 25.2871 9.96592 24.5001C9.89083 24.2401 9.79526 23.9836 9.72358 23.7236C9.63142 23.3838 9.60412 23.0163 9.50172 22.6801C9.28327 21.9763 9.87377 23.9662 9.59729 23.3873C9.54268 23.2729 9.56998 23.0406 9.56316 22.9158C9.43687 20.2983 7.45716 18.0622 4.78456 18.0622C2.29286 18.0622 -0.12033 20.2879 0.00254774 22.9158Z" fill="#EE706C"/>
</svg>
