<svg width="323" height="380" viewBox="0 0 323 380" fill="none" xmlns="http://www.w3.org/2000/svg">
<g opacity="0.5">
<path d="M124.873 190.789C124.873 190.789 124.983 190.833 125.028 190.855C125.028 190.855 124.695 190.7 124.562 190.611C124.673 190.678 124.74 190.722 124.806 190.766C124.762 190.722 124.806 190.766 124.873 190.789Z" fill="#BF5C58"/>
</g>
<g opacity="0.5">
<path d="M124.915 190.677C124.915 190.677 124.827 190.611 124.849 190.655H124.915V190.677Z" fill="#BF5C58"/>
</g>
<g opacity="0.5">
<path d="M124.895 190.922L124.851 190.878H124.807C125.028 191.011 125.05 191.033 124.895 190.922Z" fill="#BF5C58"/>
</g>
<g opacity="0.5">
<path d="M186.387 224.45C183.75 226.049 184.349 228.116 186.099 230.338C187.649 232.315 189.576 234.27 191.216 236.248C194.605 240.358 197.573 244.491 200.165 248.646C201.118 250.156 203.776 251.467 206.966 251.467C209.757 251.467 212.26 250.179 211.374 248.668C209.092 244.802 206.479 240.914 203.554 237.07C202.137 235.226 200.653 233.382 199.08 231.537C198.659 231.049 198.216 230.538 197.795 230.049C197.728 229.982 197.064 229.182 197.33 229.538C197.108 229.227 196.909 228.893 196.842 228.582C196.842 228.827 196.842 228.76 196.887 228.449C196.887 228.538 196.842 228.627 196.776 228.693C200.985 226.205 190.706 221.984 186.475 224.494L186.387 224.45Z" fill="#BF5C58"/>
</g>
<path d="M30.0605 270.775H323C323 270.775 317.152 345.429 310.241 360.359H48.1367C48.1367 360.359 33.7821 300.636 30.0605 270.775Z" fill="#E48667"/>
<path d="M252.822 228.205H91.2004L30.0605 270.775H323L252.822 228.205Z" fill="#F9BC80"/>
<path d="M213.303 305.702H130.365V332.897H213.303V305.702Z" fill="#F2D9D2"/>
<path d="M30.0605 270.775L53.719 246.246L242.189 251.045L267.709 270.775H30.0605Z" fill="#FCCD85"/>
<path d="M137.454 315.167H206.237C209.803 315.167 209.803 309.613 206.237 309.613H201.252C197.686 309.613 197.686 315.167 201.252 315.167H206.237C209.803 315.167 209.803 309.613 206.237 309.613H137.454C133.888 309.613 133.888 315.167 137.454 315.167Z" fill="#D3979E"/>
<path d="M275.951 244.113L251.761 229.804L150.658 222.783V250.356L199.659 253.445L275.951 244.113Z" fill="#F6AB7F"/>
<path d="M139.072 329.009C160.404 330.343 181.759 330.676 203.114 329.987C208.452 329.809 208.475 321.477 203.114 321.655C181.759 322.344 160.382 322.011 139.072 320.678C133.733 320.344 133.755 328.676 139.072 329.009Z" fill="#D3979E"/>
<path d="M272.872 339.43C272.562 340.452 272.938 341.629 273.736 342.34C274.644 343.162 275.818 343.362 277.014 343.14C277.945 342.962 278.897 342.473 279.584 341.807C280.359 341.051 280.847 339.874 280.448 338.807C280.249 338.274 279.872 337.896 279.296 337.808C278.72 337.719 278.233 338.008 277.923 338.474C277.901 338.519 277.701 338.785 277.856 338.585C278.011 338.385 277.834 338.607 277.79 338.652C277.679 338.785 277.568 338.896 277.435 339.007C277.325 339.118 277.214 339.207 277.081 339.318C277.391 339.052 277.192 339.23 277.103 339.274C277.037 339.318 276.948 339.385 276.882 339.43C276.749 339.518 276.594 339.607 276.438 339.674C276.372 339.718 276.306 339.741 276.239 339.763L276.438 339.674C276.438 339.674 276.35 339.718 276.306 339.718C275.973 339.829 275.641 339.918 275.309 339.963L275.685 339.918C275.53 339.918 275.397 339.941 275.242 339.918L275.619 339.963C275.619 339.963 275.486 339.918 275.419 339.918C275.287 339.918 275.663 340.052 275.552 339.985C275.53 339.985 275.419 339.941 275.397 339.896C275.397 339.941 275.663 340.141 275.486 339.963C275.442 339.918 275.331 339.785 275.486 339.963C275.663 340.185 275.486 339.963 275.486 339.918C275.486 339.918 275.597 340.252 275.552 340.052C275.552 339.985 275.508 339.918 275.508 339.852L275.552 340.229C275.552 340.229 275.552 340.052 275.552 339.963L274.179 341.34C275.752 341.518 277.347 340.896 278.476 339.829C278.875 339.452 278.964 338.807 278.764 338.319C278.543 337.808 278.056 337.497 277.502 337.474C276.372 337.43 275.331 337.852 274.467 338.563C274.201 338.785 274.068 339.23 274.068 339.541C274.068 339.874 274.223 340.296 274.467 340.518C274.711 340.74 275.087 340.94 275.442 340.918C275.818 340.918 276.128 340.763 276.416 340.518C276.372 340.563 276.173 340.696 276.328 340.585C276.394 340.54 276.438 340.518 276.505 340.474C276.616 340.407 276.726 340.363 276.837 340.296C276.793 340.318 276.549 340.407 276.726 340.34C276.771 340.34 276.837 340.296 276.882 340.296C277.014 340.252 277.147 340.229 277.28 340.207L276.904 340.252C277.103 340.229 277.28 340.207 277.48 340.229L276.505 337.852C276.505 337.852 276.328 337.985 276.261 338.052C276.438 337.919 276.461 337.896 276.35 337.985C276.306 338.008 276.261 338.052 276.217 338.074C276.062 338.185 275.885 338.274 275.707 338.363C275.397 338.496 275.973 338.274 275.707 338.363C275.597 338.385 275.508 338.43 275.419 338.452C275.22 338.519 275.021 338.541 274.799 338.585L275.176 338.541C274.844 338.585 274.489 338.585 274.157 338.541C273.847 338.496 273.381 338.719 273.182 338.941C272.916 339.23 272.806 339.541 272.783 339.918C272.717 340.874 273.271 341.807 274.068 342.296C274.866 342.785 275.907 342.696 276.771 342.429C278.233 341.985 279.473 341.051 280.337 339.785L277.812 339.452C277.812 339.452 277.878 339.629 277.878 339.718L277.834 339.341C277.834 339.452 277.834 339.563 277.834 339.674L277.878 339.296C277.878 339.296 277.878 339.407 277.834 339.474C277.768 339.741 277.856 339.363 277.878 339.363C277.878 339.363 277.701 339.652 277.701 339.674C277.856 339.385 277.834 339.518 277.723 339.63C277.679 339.674 277.657 339.696 277.613 339.741C277.546 339.785 277.502 339.852 277.435 339.896C277.258 340.052 277.635 339.763 277.502 339.852C277.391 339.918 277.28 339.985 277.17 340.052C277.125 340.074 277.059 340.118 276.992 340.141C276.771 340.252 277.214 340.074 277.037 340.141C276.749 340.252 276.461 340.34 276.151 340.385L276.527 340.34C276.261 340.385 276.018 340.385 275.752 340.34L276.128 340.385C276.018 340.385 275.907 340.34 275.796 340.318C275.685 340.274 275.685 340.274 275.796 340.318C275.907 340.363 275.929 340.385 275.84 340.318C275.774 340.274 275.707 340.229 275.619 340.185C275.53 340.118 275.575 340.163 275.752 340.296C275.707 340.274 275.685 340.229 275.641 340.207C275.597 340.163 275.552 340.096 275.508 340.052C275.641 340.252 275.685 340.274 275.597 340.163C275.575 340.118 275.552 340.074 275.53 340.052C275.397 339.852 275.619 340.363 275.552 340.141C275.552 340.052 275.508 339.963 275.486 339.874L275.53 340.252C275.53 340.141 275.53 340.029 275.53 339.918L275.486 340.296C275.486 340.296 275.508 340.163 275.53 340.096C275.73 339.407 275.287 338.541 274.556 338.385C273.825 338.23 273.071 338.607 272.85 339.363L272.872 339.43Z" fill="#5F3E4D"/>
<path d="M275.019 340.785C274.842 343.718 275.019 346.651 275.44 349.561C275.551 350.272 276.482 350.739 277.146 350.539C277.921 350.294 278.232 349.606 278.121 348.828C277.744 346.317 277.656 343.451 277.811 340.807C277.855 340.074 277.146 339.385 276.437 339.43C275.64 339.474 275.108 340.03 275.064 340.807L275.019 340.785Z" fill="#5F3E4D"/>
<path d="M287.024 338.185C286.493 342.229 286.271 346.295 286.338 350.383C286.36 352.161 289.129 352.183 289.107 350.383C289.04 346.317 289.262 342.229 289.793 338.185C289.882 337.43 289.085 336.808 288.42 336.808C287.6 336.808 287.135 337.452 287.047 338.185H287.024Z" fill="#5F3E4D"/>
<path d="M295.797 339.407C294.889 342.34 294.202 345.362 293.759 348.406C293.648 349.117 293.936 349.939 294.734 350.117C295.398 350.272 296.329 349.917 296.44 349.139C296.883 346.095 297.569 343.096 298.478 340.141C298.699 339.452 298.234 338.585 297.503 338.43C296.75 338.252 296.019 338.652 295.797 339.407Z" fill="#5F3E4D"/>
<path d="M40.1172 278.663H77.9973V297.059H43.7058L40.1172 278.663Z" fill="#F3C099"/>
<path d="M321.604 271.775L206.767 267.776L199.324 252.845L275.616 243.513L321.604 271.775Z" fill="#BF5C58"/>
<path d="M323 270.775L208.164 266.776L200.721 251.845L277.013 242.513L323 270.775Z" fill="#F6AB7F"/>
<path d="M277.013 242.513L252.823 228.205L151.721 221.184V248.757L200.721 251.845L277.013 242.513Z" fill="#FCCD85"/>
<path opacity="0.5" d="M116.191 228.204C116.191 228.204 121.884 247.49 123.878 249.49C125.872 251.489 130.745 251.534 132.695 251.156C134.644 250.778 138.521 249.49 128.264 228.182H116.191V228.204Z" fill="#BF5C58"/>
<path d="M131.473 206.386C131.363 206.231 131.296 206.075 131.274 205.897C131.429 206.519 131.451 206.653 131.385 206.319C131.318 205.986 131.318 206.142 131.385 206.808C131.385 207.23 131.341 207.653 131.296 208.075C131.385 207.43 131.053 209.119 131.053 209.074C130.875 209.919 130.698 210.741 130.521 211.563C129.746 215.318 129.037 219.073 128.394 222.85C127.109 230.471 126.135 238.158 125.448 245.868C125.182 248.868 128.195 251.423 130.986 251.423C134.198 251.423 136.258 248.868 136.524 245.868C137.255 237.736 138.341 229.649 139.803 221.606C140.511 217.784 141.464 213.985 142.084 210.141C142.771 205.853 142.417 201.787 139.315 198.499C134.42 193.277 126.6 201.143 131.473 206.364V206.386Z" fill="#EE706C"/>
<path d="M284.5 34.4605C284.677 29.728 283.703 25.3066 281.554 21.1962C280.158 16.9302 277.81 13.242 274.465 10.1092C271.364 6.75425 267.664 4.37689 263.411 2.99935C259.313 0.844169 254.905 -0.155657 250.186 0.0443085C247.152 0.444239 244.095 0.866387 241.06 1.26632C235.234 2.91047 230.183 5.86551 225.908 10.1314C220.303 16.2415 216.626 23.6402 215.984 31.9276C213.635 42.548 210.556 53.5461 204.907 62.6778C197.265 75.0312 183.952 76.1421 170.572 77.3197C149.616 79.1638 114.549 81.2079 114.527 51.5464C114.527 50.8577 114.46 50.2355 114.372 49.6134C114.505 47.0805 114.66 44.5254 114.881 41.9925C116.365 23.9957 98.0456 6.77647 80.5454 7.55411C60.6749 8.44284 47.7824 22.707 46.2096 41.9925C43.1304 79.5193 48.314 121.556 67.1212 154.773C87.5898 190.922 126.888 206.853 166.385 211.674C205.55 216.429 246.199 201.476 266.38 165.949C286.826 129.933 284.101 88.1178 284.101 48.2137C284.367 46.5251 284.567 44.7921 284.567 43.0146V34.4827L284.5 34.4605Z" fill="#EE706C"/>
<path d="M68.6283 140.931C46.6313 142.153 27.2925 128.466 6.84605 122.512C-0.0211159 120.512 -2.9452 131.221 3.89981 133.221C25.476 139.509 45.3465 153.329 68.6283 152.04C75.717 151.64 75.7613 140.531 68.6283 140.931Z" fill="#DC6965"/>
<path d="M269.327 132.488C272.339 136.798 274.067 141.797 276.26 146.53C278.609 151.596 281.2 156.573 283.903 161.461C289.374 171.348 295.289 180.968 301.115 190.633C304.792 196.743 314.362 191.167 310.685 185.034C304.881 175.369 298.944 165.749 293.473 155.862C290.77 150.974 288.178 145.997 285.83 140.931C283.637 136.198 281.909 131.177 278.897 126.889C277.169 124.445 274.045 123.289 271.32 124.889C268.906 126.311 267.599 130.022 269.327 132.488Z" fill="#EE706C"/>
<path d="M182.955 106.248C182.999 108.003 183.775 109.758 184.683 111.225C185.923 113.247 187.696 115.135 189.867 116.157C194.851 118.535 201.607 117.224 205.152 112.869C206.68 110.98 207.765 108.714 207.788 106.248C207.788 104.515 206.259 102.826 204.465 102.915C202.67 103.004 201.164 104.382 201.142 106.248C201.142 106.337 201.098 106.492 201.142 106.603C201.253 106.981 201.297 105.804 201.208 106.204C201.12 106.515 201.076 106.826 200.965 107.137C200.92 107.27 200.832 107.426 200.81 107.559C200.854 107.27 201.142 106.848 200.898 107.337C200.721 107.648 200.566 107.959 200.367 108.27C200.322 108.337 200.256 108.403 200.212 108.492C199.946 108.936 200.367 108.248 200.411 108.248C200.322 108.248 200.123 108.581 200.057 108.67C199.769 108.981 199.458 109.225 199.17 109.514C198.927 109.736 199.436 109.292 199.458 109.292C199.414 109.292 199.259 109.425 199.215 109.47C199.038 109.581 198.86 109.692 198.683 109.803C198.462 109.936 198.24 110.047 198.019 110.158C197.93 110.203 197.575 110.358 198.019 110.158C198.484 109.958 197.974 110.158 197.886 110.203C197.42 110.358 196.977 110.492 196.512 110.581C196.379 110.603 195.626 110.714 196.069 110.669C196.512 110.625 196.069 110.669 195.981 110.669C195.803 110.669 195.604 110.692 195.427 110.714C195.117 110.714 194.806 110.714 194.496 110.714C194.452 110.714 194.164 110.714 194.142 110.692C194.142 110.669 194.829 110.825 194.452 110.736C193.987 110.625 193.522 110.514 193.056 110.358C192.481 110.181 193.588 110.647 193.056 110.358C192.879 110.247 192.68 110.158 192.503 110.047C192.303 109.914 192.104 109.758 191.905 109.647C191.617 109.492 192.17 109.825 192.17 109.87C192.17 109.803 191.927 109.67 191.86 109.603C191.572 109.336 191.284 109.07 191.041 108.781C190.93 108.648 190.819 108.47 190.686 108.336C190.686 108.336 191.107 108.936 190.93 108.648C190.863 108.536 190.797 108.448 190.73 108.359C190.487 108.003 190.265 107.626 190.066 107.248C189.977 107.092 189.911 106.915 189.822 106.759C189.512 106.159 190.044 107.403 189.911 106.959C189.822 106.67 189.711 106.404 189.623 106.092C189.601 105.981 189.579 105.87 189.556 105.759C189.424 105.404 189.645 106.803 189.645 106.292C189.601 104.559 188.139 102.871 186.322 102.96C184.506 103.049 182.955 104.426 182.999 106.292L182.955 106.248Z" fill="#282828"/>
<path d="M164.944 182.834C82.6492 176.391 69.6902 83.6518 70.4877 49.2578C71.0194 26.4173 86.6588 16.2858 97.1146 12.0421C91.9531 9.08704 86.1936 7.39844 80.5005 7.66506C60.63 8.5538 47.7375 22.818 46.1647 42.1035C43.0855 79.6303 48.2691 121.667 67.0763 154.884C87.5449 191.033 126.843 206.964 166.34 211.785C200.742 215.962 236.274 204.92 258.094 178.102C242.278 182.323 213.192 186.634 164.922 182.857L164.944 182.834Z" fill="#DC6965"/>
<path d="M125.449 106.248C125.494 108.003 126.269 109.759 127.177 111.225C128.418 113.247 130.19 115.135 132.361 116.157C137.345 118.535 144.101 117.224 147.646 112.869C149.174 110.981 150.26 108.714 150.282 106.248C150.282 104.515 148.753 102.826 146.959 102.915C145.165 103.004 143.658 104.382 143.636 106.248C143.636 106.337 143.592 106.493 143.636 106.604C143.747 106.981 143.791 105.804 143.703 106.204C143.614 106.515 143.57 106.826 143.459 107.137C143.415 107.27 143.326 107.426 143.304 107.559C143.348 107.27 143.636 106.848 143.392 107.337C143.215 107.648 143.06 107.959 142.861 108.27C142.816 108.337 142.75 108.403 142.706 108.492C142.44 108.937 142.861 108.248 142.905 108.248C142.816 108.248 142.617 108.581 142.551 108.67C142.263 108.981 141.953 109.225 141.665 109.514C141.421 109.736 141.93 109.292 141.953 109.292C141.908 109.292 141.753 109.425 141.709 109.47C141.532 109.581 141.354 109.692 141.177 109.803C140.956 109.936 140.734 110.047 140.513 110.159C140.424 110.203 140.07 110.358 140.513 110.159C140.978 109.959 140.468 110.159 140.38 110.203C139.915 110.358 139.472 110.492 139.006 110.581C138.873 110.603 138.12 110.714 138.563 110.67C139.006 110.625 138.563 110.67 138.475 110.67C138.297 110.67 138.098 110.692 137.921 110.714C137.611 110.714 137.301 110.714 136.99 110.714C136.946 110.714 136.658 110.714 136.636 110.692C136.636 110.67 137.323 110.825 136.946 110.736C136.481 110.625 136.016 110.514 135.551 110.358C134.975 110.181 136.082 110.647 135.551 110.358C135.373 110.247 135.174 110.159 134.997 110.047C134.797 109.914 134.598 109.759 134.399 109.648C134.111 109.492 134.665 109.825 134.665 109.87C134.665 109.803 134.421 109.67 134.354 109.603C134.066 109.336 133.778 109.07 133.535 108.781C133.424 108.648 133.313 108.47 133.18 108.337C133.18 108.337 133.601 108.937 133.424 108.648C133.358 108.537 133.291 108.448 133.225 108.359C132.981 108.003 132.759 107.626 132.56 107.248C132.471 107.092 132.405 106.915 132.316 106.759C132.006 106.159 132.538 107.403 132.405 106.959C132.316 106.67 132.206 106.404 132.117 106.093C132.095 105.981 132.073 105.87 132.051 105.759C131.918 105.404 132.139 106.804 132.139 106.293C132.095 104.56 130.633 102.871 128.816 102.96C127 103.049 125.449 104.426 125.494 106.293L125.449 106.248Z" fill="#282828"/>
<path d="M167.98 140.198C172.275 140.198 175.756 136.079 175.756 130.999C175.756 125.919 172.275 121.801 167.98 121.801C163.686 121.801 160.205 125.919 160.205 130.999C160.205 136.079 163.686 140.198 167.98 140.198Z" fill="#282828"/>
<path opacity="0.5" d="M190.643 224.138C190.643 224.138 199.304 247.49 201.298 249.49C203.291 251.489 208.165 251.534 210.114 251.156C212.064 250.778 212.972 245.979 202.715 224.694L190.643 224.138Z" fill="#BF5C58"/>
<path d="M200.542 198.521C197.441 201.831 197.087 205.897 197.773 210.163C198.372 214.007 199.346 217.784 200.055 221.628C201.517 229.671 202.603 237.736 203.334 245.89C203.599 248.867 205.682 251.445 208.872 251.445C211.663 251.445 214.676 248.89 214.41 245.89C213.723 238.18 212.726 230.515 211.464 222.872C210.865 219.228 210.179 215.607 209.426 211.985C209.226 211.007 209.005 210.052 208.805 209.074C208.783 208.941 208.473 207.364 208.562 208.075C208.473 207.475 208.429 206.808 208.473 206.186C208.384 206.653 208.407 206.564 208.562 205.897C208.517 206.075 208.451 206.23 208.362 206.386C213.236 201.187 205.438 193.322 200.52 198.521H200.542Z" fill="#EE706C"/>
<path d="M198.794 168.215C196.512 168.215 194.43 169.126 192.923 170.57V161.816C192.923 152.307 185.059 144.597 175.357 144.597H161.002C151.3 144.597 143.436 152.307 143.436 161.816V171.015C141.907 169.304 139.67 168.215 137.189 168.215C132.559 168.215 128.793 171.903 128.793 176.436V198.454C128.793 200.143 128.904 201.831 129.125 203.453C129.413 203.564 129.746 203.675 130.033 203.787C130.033 203.831 130.344 205.12 131.385 206.342C131.385 206.342 131.894 216.651 139.692 222.161C139.692 222.161 140.246 219.184 140.356 218.762C140.467 218.34 133.578 205.053 133.578 205.053L133.312 204.964C152.961 211.719 179.3 217.184 204.863 211.119C206.37 207.208 207.167 202.92 207.167 198.454V176.436C207.167 171.881 203.401 168.215 198.772 168.215H198.794Z" fill="#AC534F"/>
<path opacity="0.5" d="M159.607 228.205L150.657 226.138V228.205H147.002C147.954 228.205 161.312 270.797 161.312 270.797H178.857L159.607 228.205Z" fill="#BF5C58"/>
<path d="M177.061 224.138H166.627C165.624 224.138 164.811 224.954 164.811 225.96V368.157C164.811 369.164 165.624 369.979 166.627 369.979H177.061C178.064 369.979 178.877 369.164 178.877 368.157V225.96C178.877 224.954 178.064 224.138 177.061 224.138Z" fill="#505862"/>
<path d="M170.657 228.204H161.309C152.647 228.204 144.473 224.249 139.467 217.65C138.913 216.917 138.403 216.184 137.916 215.451C134.482 210.163 132.666 203.697 132.666 196.832V174.813C132.666 170.259 136.343 166.593 140.862 166.593C145.381 166.593 149.059 170.281 149.059 174.813V196.832C149.059 200.52 149.967 203.875 151.673 206.519C151.938 206.919 152.204 207.319 152.492 207.697C154.419 210.252 157.698 211.763 161.264 211.763H170.613C175.154 211.763 178.809 215.451 178.809 219.983C178.809 224.516 175.132 228.204 170.613 228.204H170.657Z" fill="#7CAE5E"/>
<path d="M180.693 228.204H171.345C166.804 228.204 163.148 224.516 163.148 219.984C163.148 215.451 166.826 211.763 171.345 211.763H180.693C184.259 211.763 187.538 210.252 189.465 207.697C189.753 207.319 190.041 206.919 190.285 206.541C192.013 203.875 192.921 200.52 192.921 196.81V174.791C192.921 170.237 196.598 166.571 201.117 166.571C205.636 166.571 209.313 170.259 209.313 174.791V196.81C209.313 203.698 207.497 210.141 204.063 215.473C203.598 216.184 203.089 216.917 202.535 217.651C197.529 224.249 189.354 228.204 180.693 228.204Z" fill="#8AC167"/>
<path d="M178.215 142.93H166.607C165.654 147.885 164.059 160.261 167.139 177.569C170.949 198.876 174.427 204.786 184.838 212.896C191.041 210.296 195.383 204.164 195.383 197.01V160.15C195.383 150.64 187.696 142.93 178.215 142.93Z" fill="#F4ED89"/>
<path d="M167.138 177.569C164.058 160.261 165.653 147.885 166.606 142.93H164.191C154.71 142.93 147.023 150.64 147.023 160.15V197.01C147.023 206.519 154.71 214.229 164.191 214.229H178.214C180.562 214.229 182.799 213.74 184.837 212.896C174.426 204.786 170.948 198.876 167.138 177.569Z" fill="#EDD073"/>
<path d="M181.957 174.791H195.381V180.812H181.957C181.071 180.812 180.34 180.079 180.34 179.19V176.413C180.34 175.524 181.071 174.791 181.957 174.791Z" fill="#2B7E45"/>
<path d="M181.957 192.744H195.381V198.765H181.957C181.071 198.765 180.34 198.032 180.34 197.143V194.366C180.34 193.477 181.071 192.744 181.957 192.744Z" fill="#2B7E45"/>
<path d="M160.447 180.79H147.023V174.769H160.447C161.333 174.769 162.064 175.502 162.064 176.391V179.168C162.064 180.057 161.333 180.79 160.447 180.79Z" fill="#2B7E45"/>
<path d="M160.447 198.765H147.023V192.744H160.447C161.333 192.744 162.064 193.477 162.064 194.366V197.143C162.064 198.032 161.333 198.765 160.447 198.765Z" fill="#2B7E45"/>
<path d="M194.736 380H148.925C145.27 380 142.634 376.623 143.609 373.201L144.849 368.869C145.514 366.536 147.685 364.914 150.166 364.914H193.517C195.998 364.914 198.191 366.536 198.834 368.869L200.074 373.201C201.049 376.623 198.391 380 194.758 380H194.736Z" fill="#8AC167"/>
<path opacity="0.33" d="M164.813 270.775H161.312V364.892H164.813V270.775Z" fill="#BF5C58"/>
</svg>
