<svg width="15" height="17" viewBox="0 0 15 17" fill="none" xmlns="http://www.w3.org/2000/svg">
<path d="M7.50926 9.04081C7.25904 9.03789 7.01392 9.11169 6.80691 9.25229C6.59989 9.39289 6.44092 9.59353 6.35139 9.82721C6.26185 10.0609 6.24606 10.3164 6.30613 10.5593C6.3662 10.8022 6.49925 11.0209 6.68737 11.186V12.3284C6.68737 12.5464 6.77396 12.7554 6.9281 12.9096C7.08223 13.0637 7.29128 13.1503 7.50926 13.1503C7.72725 13.1503 7.9363 13.0637 8.09043 12.9096C8.24457 12.7554 8.33116 12.5464 8.33116 12.3284V11.186C8.51928 11.0209 8.65233 10.8022 8.7124 10.5593C8.77247 10.3164 8.75668 10.0609 8.66714 9.82721C8.57761 9.59353 8.41864 9.39289 8.21162 9.25229C8.00461 9.11169 7.75949 9.03789 7.50926 9.04081ZM11.6188 5.75322V4.10943C11.6188 3.01952 11.1858 1.97426 10.4151 1.20358C9.64443 0.432902 8.59917 -6.10352e-05 7.50926 -6.10352e-05C6.41936 -6.10352e-05 5.3741 0.432902 4.60342 1.20358C3.83274 1.97426 3.39978 3.01952 3.39978 4.10943V5.75322C2.74583 5.75322 2.11867 6.013 1.65627 6.47541C1.19386 6.93782 0.934082 7.56497 0.934082 8.21892V13.9722C0.934082 14.6261 1.19386 15.2533 1.65627 15.7157C2.11867 16.1781 2.74583 16.4379 3.39978 16.4379H11.6188C12.2727 16.4379 12.8999 16.1781 13.3623 15.7157C13.8247 15.2533 14.0844 14.6261 14.0844 13.9722V8.21892C14.0844 7.56497 13.8247 6.93782 13.3623 6.47541C12.8999 6.013 12.2727 5.75322 11.6188 5.75322ZM5.04357 4.10943C5.04357 3.45549 5.30335 2.82833 5.76576 2.36592C6.22816 1.90351 6.85532 1.64373 7.50926 1.64373C8.16321 1.64373 8.79037 1.90351 9.25277 2.36592C9.71518 2.82833 9.97496 3.45549 9.97496 4.10943V5.75322H5.04357V4.10943ZM12.4407 13.9722C12.4407 14.1902 12.3541 14.3992 12.1999 14.5534C12.0458 14.7075 11.8367 14.7941 11.6188 14.7941H3.39978C3.18179 14.7941 2.97274 14.7075 2.81861 14.5534C2.66447 14.3992 2.57788 14.1902 2.57788 13.9722V8.21892C2.57788 8.00094 2.66447 7.79188 2.81861 7.63775C2.97274 7.48361 3.18179 7.39702 3.39978 7.39702H11.6188C11.8367 7.39702 12.0458 7.48361 12.1999 7.63775C12.3541 7.79188 12.4407 8.00094 12.4407 8.21892V13.9722Z" fill="#B5B5B5"/>
</svg>
