<svg width="21" height="26" viewBox="0 0 21 26" fill="none" xmlns="http://www.w3.org/2000/svg">
<path d="M18.0363 0.950592H16.0487C14.7153 0.950592 13.6289 1.90121 13.6289 3.07405V23.6543C13.6289 24.8271 14.7153 25.7778 16.0487 25.7778H18.0363C19.3696 25.7778 20.4561 24.8271 20.4561 23.6543V3.07405C20.4561 1.90121 19.3696 0.950592 18.0363 0.950592Z" fill="#EE706C"/>
<path d="M4.98651 0.950592H2.99885C1.66552 0.950592 0.579102 1.90121 0.579102 3.07405V23.6543C0.579102 24.8271 1.66552 25.7778 2.99885 25.7778H4.98651C6.31984 25.7778 7.40626 24.8271 7.40626 23.6543V3.07405C7.40626 1.90121 6.31984 0.950592 4.98651 0.950592Z" fill="#EE706C"/>
</svg>
