<svg width="331" height="320" viewBox="0 0 331 320" fill="none" xmlns="http://www.w3.org/2000/svg">
<g clip-path="url(#clip0_384_734)">
<path d="M105.306 233.493C108.043 234.915 109.713 237.813 109.713 240.902V310.54C109.713 315.379 113.326 319.754 118.171 319.973C123.263 320.191 127.451 316.145 127.451 311.114V249.624C127.451 245.96 130.845 243.254 134.431 244.046C142.506 245.824 150.882 246.753 159.478 246.753C168.073 246.753 176.203 245.824 184.169 244.101C187.946 243.281 191.505 246.097 191.505 249.979V310.513C191.505 315.352 195.118 319.727 199.963 319.945C205.055 320.164 209.243 316.118 209.243 311.087V240.82C209.243 237.758 210.885 234.887 213.622 233.465" fill="#5AC0EE"/>
<path d="M42.5384 147.204C24.9646 149.446 15.0554 164.484 9.14273 179.822C2.70996 196.5 1.36866 214.709 -1.1229e-05 232.372C-0.273746 236.063 3.33955 239.207 6.84336 239.207C10.7851 239.207 13.413 236.063 13.6867 232.372C14.8364 217.416 16.0408 202.324 20.7217 187.97C23.9244 178.182 30.5488 162.433 42.511 160.902C46.179 160.437 49.3544 158.086 49.3544 154.067C49.3544 150.731 46.2064 146.767 42.511 147.232L42.5384 147.204Z" fill="#5AC0EE"/>
<path d="M276.39 145.208C290.816 146.548 300.862 158.332 306.884 170.499C313.947 184.771 315.671 201.039 317.286 216.678C317.669 220.342 320.16 223.513 324.13 223.513C327.551 223.513 331.356 220.369 330.973 216.678C329.029 197.731 326.73 178.565 317.615 161.504C309.074 145.509 294.922 133.233 276.39 131.538C272.695 131.21 269.547 134.928 269.547 138.373C269.547 142.365 272.695 144.88 276.39 145.208Z" fill="#77C7F0"/>
<path d="M280.003 127.3C262.43 96.7054 227.693 81.6678 193.804 79.3712C193.394 77.4026 192.983 75.4341 192.545 73.5202C185.373 42.0506 165.938 8.9679 131.803 1.77719C131.229 1.66783 130.654 1.61315 130.106 1.50378C122.962 3.14425 62.877 18.7287 64.2731 77.3479C64.2731 77.3479 59.7564 118.988 80.2592 150.731C80.2592 150.731 63.2876 281.805 255.942 232.399V232.454C256.106 232.372 256.271 232.262 256.435 232.18C293.827 210.28 300.506 163.035 280.003 127.355V127.3Z" fill="#77C7F0"/>
<path d="M80.2317 150.704C59.7563 118.961 64.2456 77.3206 64.2456 77.3206C62.8769 18.7286 122.962 3.14421 130.106 1.50374C92.7961 -5.55026 52.9951 12.7683 37.228 48.1476C22.501 81.1483 25.4847 117.977 37.5291 151.47C39.1167 155.844 41.1971 160.055 43.6881 163.992C41.8815 182.365 43.8523 201.012 54.3638 217.006C65.5595 234.04 83.0785 246.042 102.979 250.472C131.831 256.897 165.363 256.651 194.543 252.987C200.839 252.194 207.108 250.608 213.02 248.284C228.213 244.949 243.022 239.863 255.942 232.372V232.317C63.2875 281.777 80.2317 150.704 80.2317 150.704Z" fill="#5AC0EE"/>
<path d="M165.172 135.366C168.981 135.366 172.07 132.281 172.07 128.476C172.07 124.671 168.981 121.586 165.172 121.586C161.362 121.586 158.273 124.671 158.273 128.476C158.273 132.281 161.362 135.366 165.172 135.366Z" fill="#282828"/>
<path d="M112.615 135.366C116.425 135.366 119.513 132.281 119.513 128.476C119.513 124.67 116.425 121.586 112.615 121.586C108.805 121.586 105.717 124.67 105.717 128.476C105.717 132.281 108.805 135.366 112.615 135.366Z" fill="#282828"/>
<path d="M127.341 140.725C127.341 143.65 127.724 146.904 129.23 149.474C130.544 151.743 133.062 153.657 135.581 154.34C140.645 155.762 147.488 153.958 149.952 148.982C150.718 147.423 151.101 145.81 151.156 144.087C151.183 142.884 151.074 141.681 151.047 140.478C151.047 138.346 149.158 136.268 146.941 136.377C144.723 136.487 142.835 138.182 142.835 140.478C142.835 141.381 142.889 142.283 142.917 143.185C142.917 143.568 142.917 143.978 142.917 144.361C142.917 144.552 142.835 145.263 142.917 144.498C142.999 143.732 142.917 144.498 142.835 144.716C142.835 144.826 142.752 145.236 142.67 145.263C142.616 145.29 143.108 144.388 142.889 144.744C142.835 144.826 142.807 144.935 142.752 145.017C142.643 145.208 142.533 145.4 142.397 145.591C142.342 145.701 142.068 146.029 142.424 145.564C142.807 145.044 142.424 145.509 142.342 145.619C142.178 145.783 141.63 146.247 142.287 145.755C142.944 145.263 142.451 145.619 142.287 145.728C142.123 145.81 141.986 145.892 141.822 145.974C141.74 146.029 141.657 146.056 141.575 146.111C141.055 146.384 141.986 145.919 141.986 145.947C141.986 145.947 140.836 146.357 140.754 146.384C140.535 146.439 140.316 146.493 140.125 146.548C139.933 146.603 139.057 146.74 139.851 146.63C140.645 146.521 139.823 146.63 139.632 146.63C139.385 146.63 139.139 146.63 138.92 146.63C138.701 146.63 138.482 146.63 138.263 146.603C138.154 146.603 138.072 146.603 137.962 146.603C137.497 146.603 138.92 146.794 138.482 146.685C138.126 146.603 137.798 146.521 137.442 146.439C137.415 146.439 137.223 146.329 137.196 146.357C137.223 146.357 138.044 146.767 137.77 146.603C137.606 146.493 137.415 146.411 137.223 146.302C137.141 146.247 137.059 146.193 137.004 146.138C136.621 145.947 137.524 146.521 137.442 146.494C137.278 146.411 137.113 146.22 136.949 146.083C136.785 145.919 136.621 145.783 136.429 145.619C136.292 145.482 135.772 144.853 136.265 145.482C136.758 146.111 136.292 145.482 136.21 145.29C136.155 145.208 136.128 145.099 136.073 145.017C135.827 144.634 136.402 145.892 136.238 145.427C136.073 144.908 135.909 144.416 135.772 143.896C135.717 143.623 135.663 143.322 135.608 143.021C135.608 142.884 135.526 142.42 135.608 143.021C135.69 143.677 135.608 143.021 135.608 142.912C135.553 142.201 135.526 141.517 135.498 140.807C135.498 138.674 133.61 136.596 131.392 136.705C129.175 136.815 127.259 138.51 127.286 140.807L127.341 140.725Z" fill="#282828"/>
</g>
<defs>
<clipPath id="clip0_384_734">
<rect width="331" height="320" fill="white"/>
</clipPath>
</defs>
</svg>
