<svg width="421" height="378" viewBox="0 0 421 378" fill="none" xmlns="http://www.w3.org/2000/svg">
<path opacity="0.28" d="M121.41 297.926C110.697 311.046 104.334 317.247 86.8369 340.941C79.3705 351.058 96.2511 360.849 103.653 350.83C120.144 328.507 124.039 321.359 143.387 301.451C152.152 292.443 139.232 301.582 132.804 300.211L121.41 297.926Z" fill="#727272"/>
<path opacity="0.28" d="M305.671 299.297C317.52 323.709 329.791 347.892 342.484 371.847C348.392 382.976 365.208 373.088 359.3 361.959C346.574 338.004 334.304 313.82 322.487 289.408C317.001 278.083 300.185 288.005 305.671 299.297Z" fill="#727272"/>
<g opacity="0.28">
<path d="M338.034 246.426C304.5 230.173 254.897 221.361 211.072 219.11C209.871 218.098 208.67 217.086 207.436 216.074C187.342 199.789 151.373 182.361 106.055 177.727C105.309 177.661 104.562 177.596 103.815 177.531C95.4075 178.184 25.2232 184.384 46.1941 214.084C46.1941 214.084 54.05 235.003 90.5706 251.713C90.5706 251.713 111.379 317.41 344.883 299.395C345.078 299.395 345.24 299.33 345.435 299.297C385.981 289.441 377.346 265.388 338.001 246.394L338.034 246.426Z" fill="#727272"/>
<path d="M90.5718 251.746C54.0513 235.036 46.1953 214.116 46.1953 214.116C25.2244 184.417 95.4087 178.216 103.817 177.564C54.7005 172.929 10.8759 181.121 2.56542 198.549C-5.38794 214.769 10.1292 233.437 36.2292 250.734C39.6378 252.986 43.6632 255.205 48.143 257.261C51.7464 266.465 60.2516 275.962 78.9501 284.382C98.9147 293.39 125.502 300.08 152.738 303.05C192.31 307.358 235.777 308.468 272.46 307.717C280.349 307.554 287.945 306.967 294.827 306.02C313.396 304.878 330.828 302.822 344.917 299.46C111.38 317.443 90.5718 251.746 90.5718 251.746Z" fill="#727272"/>
</g>
<path d="M316.738 300.57C328.587 324.982 340.858 349.165 353.551 373.12C359.459 384.249 376.274 374.36 370.366 363.231C357.641 339.276 345.37 315.093 333.554 290.681C328.067 279.356 311.252 289.278 316.738 300.57Z" fill="#5AC0EE"/>
<path d="M154.783 274.983C134.267 296.099 115.373 318.552 97.876 342.246C90.4096 352.364 107.29 362.155 114.692 352.135C131.183 329.812 149.232 308.762 168.547 288.853C177.312 279.846 163.548 265.975 154.783 275.016V274.983Z" fill="#5AC0EE"/>
<path d="M409.485 166.271C389.651 128.315 346.8 107.363 304.014 101.717C303.657 99.3344 303.3 96.9519 302.878 94.6348C296.321 56.5155 274.311 15.4264 231.622 3.9058C230.908 3.70999 230.194 3.61208 229.48 3.41626C220.293 4.75435 142.837 18.1026 139.883 88.0096C139.883 88.0096 130.793 137.192 154.231 176.78C154.231 176.78 122.158 331.411 370.498 289.278V289.343C370.725 289.245 370.92 289.147 371.147 289.049C420.328 266.204 432.631 210.526 409.485 166.271Z" fill="#77C7F0"/>
<path d="M154.232 176.813C130.794 137.225 139.884 88.0421 139.884 88.0421C142.838 18.1352 220.294 4.78691 229.481 3.44882C182.767 -8.20234 130.762 10.1719 107.908 50.9347C86.5802 88.956 87.3593 133.048 99.9548 174.006C101.61 179.359 103.915 184.548 106.772 189.476C103.006 211.212 104.013 233.6 116.056 253.541C128.912 274.787 150.142 290.616 175.009 297.633C211.075 307.815 253.633 310.393 290.965 308.598C299.016 308.207 307.067 306.869 314.76 304.617C334.303 301.973 353.521 297.176 370.499 289.408V289.343C122.159 331.444 154.232 176.813 154.232 176.813Z" fill="#5AC0EE"/>
<path d="M157.444 230.989C157.444 230.989 156.081 223.156 165.787 222.667C175.494 222.145 315.051 219.664 321.121 220.643C327.159 221.59 329.367 229.031 328.425 233.698C327.484 238.365 305.507 227.823 305.507 227.823L166.307 228.574L157.444 230.989Z" fill="#434A51"/>
<path d="M174.586 312.776C174.586 312.776 178.449 316.725 193.771 317.312C209.094 317.932 301.872 319.76 301.872 319.76C301.872 319.76 306.157 320.445 307.91 312.547L311.838 312.613L310.475 324.198L172.833 320.902L172.184 312.71L174.586 312.776Z" fill="#434A51"/>
<path d="M269.506 271.882C268.207 267.607 263.305 264.409 257.235 264.376C251.164 264.343 246.003 267.444 244.347 271.654C244.023 272.502 243.763 273.416 243.73 274.363C243.73 275.309 243.925 276.19 244.217 277.072C245.646 281.314 250.483 284.513 256.391 284.578C262.299 284.643 267.396 281.575 269.181 277.3C269.538 276.419 269.83 275.538 269.895 274.591C269.96 273.645 269.798 272.731 269.506 271.85V271.882Z" fill="#E56261"/>
<path d="M267.949 298.873C266.683 294.597 262.008 291.366 256.165 291.268C250.321 291.17 245.355 294.238 243.764 298.448C243.439 299.297 243.212 300.211 243.18 301.157C243.18 302.104 243.342 303.017 243.634 303.866C244.998 308.141 249.672 311.34 255.353 311.47C261.034 311.601 265.936 308.533 267.657 304.29C268.014 303.409 268.273 302.528 268.338 301.581C268.403 300.635 268.241 299.721 267.981 298.84L267.949 298.873Z" fill="#EADF7B"/>
<path d="M210.099 297.894C208.508 293.684 203.542 290.518 197.698 290.42C191.855 290.322 187.148 293.357 185.914 297.502C185.655 298.351 185.492 299.232 185.557 300.146C185.622 301.059 185.882 301.973 186.239 302.822C187.96 307.032 192.861 310.198 198.542 310.295C204.223 310.426 208.865 307.423 210.229 303.246C210.521 302.397 210.716 301.516 210.683 300.57C210.683 299.623 210.424 298.742 210.099 297.894Z" fill="#E6C467"/>
<path d="M239.344 277.79L244.213 277.855C243.921 276.974 243.726 276.093 243.726 275.146C243.726 274.2 243.986 273.318 244.343 272.437H239.441C239.733 273.253 239.961 274.167 239.928 275.113C239.928 276.06 239.668 276.941 239.344 277.822V277.79Z" fill="#47515C"/>
<path d="M209.284 250.93H213.569C213.505 250.538 213.375 250.147 213.375 249.722C213.375 248.254 213.797 246.85 214.543 245.578H208.051C208.862 246.85 209.382 248.221 209.414 249.722C209.414 250.147 209.349 250.538 209.284 250.963V250.93Z" fill="#47515C"/>
<path d="M302.094 251.191H305.762C307.775 251.191 309.528 249.983 309.69 248.45C309.852 246.916 308.359 245.675 306.346 245.675H301.574C302.223 246.981 302.548 248.384 302.386 249.918C302.353 250.342 302.191 250.767 302.094 251.191Z" fill="#47515C"/>
<path d="M240.22 251.028H244.505C244.44 250.636 244.343 250.212 244.375 249.788C244.408 248.286 244.927 246.883 245.739 245.61H239.246C240.025 246.883 240.447 248.286 240.415 249.788C240.415 250.212 240.285 250.604 240.22 251.028Z" fill="#47515C"/>
<path d="M271.162 251.093H275.447C275.415 250.702 275.35 250.277 275.35 249.853C275.447 248.352 275.999 246.916 276.875 245.643H270.383C271.097 246.916 271.487 248.352 271.389 249.853C271.389 250.277 271.227 250.702 271.162 251.093Z" fill="#47515C"/>
<path d="M269.145 278.083L302.841 278.442C304.756 278.442 306.477 277.235 306.639 275.734C306.801 274.2 305.373 272.959 303.425 272.959L269.469 272.666C269.729 273.547 269.891 274.461 269.859 275.407C269.794 276.354 269.534 277.267 269.177 278.116L269.145 278.083Z" fill="#47515C"/>
<path d="M213.86 274.852C213.86 273.906 214.055 273.025 214.347 272.176L201.914 272.078C202.563 273.906 203.277 275.701 204.089 277.463L214.445 277.561C214.12 276.713 213.86 275.799 213.86 274.885V274.852Z" fill="#47515C"/>
<path d="M267.59 305.074L300.02 305.661C301.87 305.694 303.526 304.486 303.688 302.985C303.851 301.451 302.455 300.211 300.604 300.178L267.914 299.623C268.174 300.505 268.336 301.418 268.272 302.365C268.207 303.311 267.947 304.225 267.59 305.074Z" fill="#47515C"/>
<path d="M243.146 301.94C243.146 300.994 243.406 300.113 243.73 299.232L220.941 298.84C222.922 300.766 224.869 302.593 226.817 304.323L243.6 304.617C243.308 303.735 243.113 302.854 243.146 301.908V301.94Z" fill="#47515C"/>
<path d="M183.412 245.545H178.12C176.108 245.545 174.55 246.72 174.679 248.188C174.777 249.657 176.497 250.865 178.51 250.865H182.665C182.568 250.473 182.438 250.081 182.406 249.657C182.308 248.188 182.698 246.818 183.412 245.545Z" fill="#39404F"/>
<path d="M201.917 272.046L179.94 271.85C177.992 271.85 176.499 272.992 176.629 274.461C176.726 275.929 178.382 277.137 180.297 277.17L204.125 277.431C203.313 275.701 202.599 273.906 201.95 272.046H201.917Z" fill="#39404F"/>
<path d="M210.098 298.677C210.422 299.525 210.65 300.439 210.682 301.353C210.682 302.3 210.52 303.181 210.227 304.029L226.783 304.323C224.836 302.593 222.855 300.766 220.908 298.84L210.098 298.644V298.677Z" fill="#39404F"/>
<path d="M185.944 298.253L181.691 298.187C179.808 298.187 178.38 299.33 178.477 300.798C178.575 302.267 180.165 303.474 182.016 303.507L186.236 303.572C185.879 302.724 185.619 301.843 185.554 300.896C185.489 299.982 185.652 299.101 185.911 298.253H185.944Z" fill="#39404F"/>
<path d="M316.351 223.842L198.252 224.397C197.96 226.616 197.667 229.325 197.473 232.425L315.345 232.131C316.513 232.131 317.39 232.817 317.26 233.698L307.002 320.608C306.904 321.49 305.995 322.175 304.957 322.142L247.108 320.804C253.179 324.46 259.119 327.266 264.833 329.388L304.015 330.399C310.41 330.563 316.156 326.287 316.838 320.837L328.362 233.698C329.109 228.248 323.688 223.842 316.286 223.874L316.351 223.842Z" fill="#505862"/>
<path d="M209.32 252.301H213.605C213.54 251.909 213.41 251.517 213.41 251.093C213.41 249.624 213.832 248.221 214.578 246.948H208.086C208.898 248.188 209.417 249.592 209.449 251.093C209.449 251.517 209.384 251.909 209.32 252.333V252.301Z" fill="#505862"/>
<path d="M301.965 252.562H305.633C307.646 252.562 309.399 251.354 309.561 249.82C309.723 248.286 308.23 247.046 306.217 247.046H301.445C302.095 248.352 302.419 249.755 302.257 251.289C302.224 251.713 302.062 252.138 301.965 252.562Z" fill="#505862"/>
<path d="M240.189 252.399H244.474C244.409 252.007 244.311 251.583 244.344 251.158C244.376 249.657 244.863 248.254 245.707 246.981H239.215C239.994 248.254 240.416 249.657 240.384 251.158C240.384 251.583 240.254 251.974 240.189 252.399Z" fill="#505862"/>
<path d="M271.064 252.464H275.349C275.317 252.072 275.252 251.648 275.252 251.224C275.349 249.722 275.901 248.286 276.778 247.014H270.285C270.999 248.286 271.389 249.722 271.292 251.224C271.292 251.648 271.129 252.072 271.064 252.464Z" fill="#505862"/>
<path d="M269.082 279.454L302.713 279.813C304.629 279.813 306.349 278.605 306.512 277.104C306.674 275.57 305.245 274.33 303.298 274.33L269.407 274.036C269.666 274.918 269.829 275.831 269.796 276.778C269.731 277.724 269.472 278.638 269.115 279.487L269.082 279.454Z" fill="#505862"/>
<path d="M213.894 276.19C213.894 275.244 214.089 274.363 214.381 273.514L201.98 273.416C202.63 275.244 203.344 277.039 204.155 278.801L214.479 278.899C214.154 278.051 213.927 277.137 213.894 276.223V276.19Z" fill="#505862"/>
<path d="M208.051 244.827C206.038 241.727 201.915 239.54 197.078 239.116C197.078 240.976 197.078 242.869 197.208 244.827C197.273 246.589 197.403 248.352 197.565 250.179C197.825 252.986 198.182 255.858 198.669 258.73C204.35 258.012 208.667 254.553 209.284 250.212C209.349 249.82 209.446 249.396 209.414 248.972C209.381 247.503 208.862 246.1 208.051 244.827Z" fill="#E56261"/>
<path d="M239.344 279.16L244.213 279.226C243.921 278.344 243.726 277.463 243.726 276.517C243.726 275.57 243.986 274.689 244.343 273.808H239.441C239.733 274.624 239.961 275.538 239.928 276.484C239.928 277.431 239.668 278.312 239.344 279.193V279.16Z" fill="#505862"/>
<path d="M267.493 306.444L299.859 307.064C301.709 307.097 303.332 305.89 303.495 304.388C303.657 302.854 302.261 301.614 300.411 301.582L267.786 301.027C268.045 301.908 268.208 302.822 268.143 303.768C268.078 304.715 267.818 305.628 267.461 306.477L267.493 306.444Z" fill="#505862"/>
<path d="M243.113 303.279C243.113 302.332 243.373 301.451 243.698 300.57L220.941 300.178C222.889 302.104 224.869 303.931 226.817 305.661L243.568 305.987C243.276 305.106 243.081 304.225 243.113 303.279Z" fill="#505862"/>
<path d="M208.116 246.916C206.103 243.815 202.013 241.629 197.176 241.204C197.176 243.065 197.176 244.958 197.306 246.916C197.371 248.678 197.5 250.44 197.663 252.268C197.922 255.075 198.28 257.947 198.766 260.819C204.447 260.101 208.732 256.641 209.349 252.301C209.414 251.909 209.512 251.485 209.479 251.061C209.447 249.592 208.927 248.189 208.116 246.916Z" fill="#EE706C"/>
<path d="M239.244 244.827C237.134 241.367 232.427 238.952 226.909 238.952C221.357 238.952 216.65 241.367 214.573 244.794C213.794 246.067 213.372 247.438 213.404 248.939C213.404 249.363 213.534 249.755 213.599 250.179C214.508 255.107 220.124 258.958 226.941 258.991C233.758 259.024 239.374 255.205 240.283 250.245C240.348 249.82 240.478 249.429 240.478 249.004C240.478 247.503 240.056 246.1 239.309 244.827H239.244Z" fill="#E56261"/>
<path d="M270.446 244.86C268.499 241.368 263.889 238.92 258.338 238.92C252.787 238.92 247.982 241.368 245.742 244.827C244.931 246.1 244.411 247.503 244.379 249.004C244.379 249.429 244.444 249.82 244.509 250.245C245.223 255.205 250.677 259.122 257.461 259.154C264.279 259.187 270.057 255.336 271.193 250.31C271.29 249.886 271.42 249.494 271.453 249.07C271.55 247.568 271.161 246.132 270.446 244.86Z" fill="#E56261"/>
<path d="M301.64 244.892C299.855 241.368 295.342 238.92 289.791 238.92C284.24 238.92 279.338 241.368 276.936 244.892C276.059 246.165 275.508 247.601 275.41 249.102C275.41 249.527 275.443 249.951 275.508 250.343C275.994 255.368 281.286 259.285 288.103 259.317C294.92 259.35 300.861 255.466 302.224 250.408C302.322 249.984 302.484 249.592 302.516 249.135C302.679 247.601 302.354 246.198 301.705 244.892H301.64Z" fill="#E56261"/>
<path d="M243.506 299.232L243.148 302.43L244.966 299.264L243.506 299.232Z" fill="#E6C467"/>
<path d="M239.476 271.556C237.982 267.313 232.983 264.148 226.912 264.115C220.842 264.082 215.843 267.15 214.349 271.328C214.057 272.176 213.83 273.057 213.862 274.004C213.862 274.95 214.122 275.831 214.447 276.68C216.037 280.89 221.004 284.056 226.912 284.121C232.821 284.186 237.787 281.119 239.378 276.908C239.703 276.06 239.93 275.146 239.962 274.2C239.962 273.253 239.768 272.372 239.476 271.491V271.556Z" fill="#EADF7B"/>
<path d="M239.179 246.981C237.102 243.522 232.395 241.106 226.876 241.106C221.357 241.106 216.65 243.522 214.573 246.948C213.826 248.221 213.372 249.592 213.404 251.093C213.404 251.517 213.534 251.909 213.599 252.333C214.508 257.261 220.124 261.112 226.908 261.178C233.693 261.21 239.277 257.392 240.186 252.431C240.251 252.007 240.38 251.615 240.38 251.191C240.38 249.69 239.958 248.286 239.212 247.014L239.179 246.981Z" fill="#EE706C"/>
<path d="M239.411 273.743C237.917 269.5 232.918 266.334 226.88 266.302C220.842 266.269 215.843 269.337 214.349 273.514C214.057 274.363 213.83 275.244 213.862 276.19C213.862 277.137 214.122 278.018 214.447 278.867C216.037 283.077 221.004 286.242 226.88 286.34C232.756 286.406 237.723 283.37 239.313 279.16C239.638 278.312 239.865 277.398 239.898 276.452C239.898 275.505 239.703 274.624 239.411 273.743Z" fill="#F4ED89"/>
<path d="M270.319 247.014C268.371 243.522 263.794 241.074 258.243 241.074C252.724 241.074 247.92 243.489 245.68 246.981C244.868 248.254 244.349 249.657 244.316 251.158C244.316 251.583 244.381 251.974 244.446 252.399C245.16 257.359 250.582 261.276 257.366 261.308C264.151 261.341 269.929 257.49 271.033 252.497C271.131 252.072 271.26 251.681 271.26 251.256C271.358 249.755 270.968 248.319 270.254 247.046L270.319 247.014Z" fill="#EE706C"/>
<path d="M244.12 272.437L243.828 275.505L246.165 271.98L244.12 272.437Z" fill="#E56261"/>
<path d="M269.73 272.633L269.763 276.484L267.23 272.633H269.73Z" fill="#E56261"/>
<path d="M269.376 274.004C268.077 269.728 263.208 266.53 257.17 266.497C251.132 266.465 246.003 269.533 244.347 273.775C244.023 274.624 243.763 275.538 243.73 276.484C243.73 277.431 243.925 278.312 244.217 279.193C245.646 283.436 250.45 286.634 256.358 286.699C262.234 286.765 267.331 283.697 269.084 279.454C269.441 278.573 269.733 277.692 269.766 276.745C269.83 275.799 269.668 274.885 269.376 274.004Z" fill="#EE706C"/>
<path d="M268.139 299.623L268.204 303.376L267.23 299.525L268.139 299.623Z" fill="#EADF7B"/>
<path d="M267.817 300.994C266.584 296.719 261.877 293.488 256.066 293.39C250.223 293.292 245.288 296.36 243.698 300.57C243.373 301.418 243.146 302.332 243.113 303.279C243.113 304.225 243.276 305.139 243.568 305.987C244.931 310.263 249.573 313.494 255.222 313.592C260.87 313.722 265.772 310.654 267.493 306.444C267.85 305.563 268.11 304.682 268.174 303.735C268.239 302.789 268.077 301.875 267.817 300.994Z" fill="#F4ED89"/>
<path d="M301.446 247.079C299.661 243.554 295.148 241.106 289.63 241.106C284.111 241.106 279.177 243.554 276.807 247.046C275.931 248.319 275.379 249.755 275.281 251.256C275.281 251.681 275.314 252.105 275.379 252.497C275.866 257.523 281.125 261.439 287.942 261.471C294.726 261.504 300.667 257.62 301.998 252.562C302.095 252.138 302.258 251.746 302.29 251.289C302.453 249.755 302.128 248.352 301.479 247.046L301.446 247.079Z" fill="#EE706C"/>
<path d="M176.92 319.14C175.882 319.14 175.005 318.422 174.94 317.573L168.285 233.992C168.22 233.143 169.097 232.49 170.266 232.49L197.437 232.425C197.632 229.325 197.924 226.616 198.216 224.397L169.616 224.527C162.215 224.56 156.631 228.802 157.151 234.024L165.039 317.345C165.526 322.567 171.077 326.94 177.472 327.103L264.829 329.355C259.084 327.234 253.143 324.427 247.105 320.772L176.92 319.14Z" fill="#404656"/>
<path d="M183.51 246.883H178.219C176.206 246.883 174.68 248.058 174.778 249.526C174.875 250.995 176.596 252.203 178.576 252.203H182.731C182.634 251.811 182.504 251.419 182.504 250.995C182.407 249.526 182.796 248.156 183.51 246.883Z" fill="#404656"/>
<path d="M201.979 273.416L180.035 273.22C178.087 273.22 176.626 274.363 176.723 275.831C176.821 277.3 178.476 278.508 180.392 278.54L204.154 278.801C203.343 277.072 202.629 275.277 201.979 273.416Z" fill="#404656"/>
<path d="M197.532 250.147C197.369 248.352 197.239 246.557 197.174 244.794C197.077 242.836 197.045 240.943 197.045 239.083C196.493 239.05 195.973 238.952 195.421 238.952C189.903 238.952 185.293 241.335 183.345 244.762C182.631 246.002 182.242 247.405 182.339 248.874C182.339 249.298 182.501 249.69 182.599 250.081C183.735 254.977 189.513 258.795 196.298 258.828C197.11 258.828 197.856 258.763 198.635 258.665C198.116 255.793 197.759 252.921 197.532 250.114V250.147Z" fill="#E56261"/>
<path d="M210.13 300.015C210.455 300.863 210.682 301.777 210.714 302.691C210.714 303.637 210.552 304.519 210.26 305.367L226.783 305.661C224.836 303.931 222.888 302.104 220.908 300.178L210.098 299.982L210.13 300.015Z" fill="#404656"/>
<path d="M186.044 299.623L181.791 299.558C179.941 299.558 178.48 300.7 178.61 302.169C178.707 303.638 180.298 304.845 182.148 304.878L186.368 304.943C186.011 304.095 185.751 303.213 185.686 302.267C185.622 301.353 185.784 300.472 186.044 299.623Z" fill="#404656"/>
<path d="M197.632 252.268C197.47 250.473 197.373 248.678 197.275 246.916C197.178 244.958 197.146 243.065 197.146 241.204C196.594 241.172 196.074 241.074 195.522 241.074C190.004 241.074 185.426 243.456 183.479 246.883C182.765 248.123 182.407 249.527 182.472 250.995C182.472 251.42 182.635 251.811 182.7 252.203C183.836 257.098 189.582 260.917 196.366 260.949C197.178 260.949 197.925 260.884 198.671 260.786C198.184 257.914 197.795 255.042 197.568 252.235L197.632 252.268Z" fill="#EE706C"/>
<path d="M210.354 298.677L210.711 302.136L208.504 300.243L209.77 298.285L210.354 298.677Z" fill="#E6C467"/>
<path d="M185.721 298.253L185.656 301.875L187.117 298.285L185.721 298.253Z" fill="#E6C467"/>
<path d="M210.132 300.015C208.541 295.805 203.607 292.639 197.764 292.541C191.953 292.443 187.246 295.446 186.012 299.591C185.752 300.439 185.59 301.32 185.655 302.234C185.72 303.148 185.98 304.062 186.337 304.91C188.057 309.12 192.927 312.286 198.608 312.417C204.256 312.547 208.898 309.545 210.262 305.367C210.554 304.519 210.749 303.637 210.716 302.691C210.716 301.745 210.456 300.863 210.132 300.015Z" fill="#EDD073"/>
<path d="M192.014 256.478H191.949C191.17 256.478 190.52 256.021 190.293 255.401L187.047 246.589C186.884 246.132 187.242 245.643 187.891 245.545C188.54 245.447 189.189 245.741 189.352 246.198L191.981 253.378L194.448 247.471C194.643 246.948 195.227 246.557 196.071 246.557C196.851 246.557 197.532 246.981 197.727 247.568L200.129 253.084L202.045 246.198C202.174 245.741 202.791 245.447 203.44 245.545C204.09 245.643 204.512 246.132 204.349 246.589L201.915 255.271C201.785 255.858 201.136 256.282 200.356 256.315C200.356 256.315 200.356 256.315 200.324 256.315C199.545 256.315 198.863 255.923 198.636 255.303L196.104 249.461L193.572 255.532C193.377 256.054 192.76 256.445 192.014 256.445V256.478Z" fill="white"/>
<path d="M226.779 257C222.981 257 219.865 254.291 219.832 251.028C219.8 247.732 222.916 245.088 226.747 245.088C230.61 245.088 233.694 247.764 233.694 251.06C233.694 254.357 230.545 257.033 226.779 257ZM226.779 246.818C224.247 246.818 222.202 248.711 222.202 251.028C222.202 253.345 224.28 255.238 226.779 255.238C229.279 255.238 231.324 253.378 231.357 251.028C231.357 248.711 229.311 246.818 226.779 246.818Z" fill="white"/>
<path d="M261.842 256.902C261.388 256.902 260.966 256.707 260.803 256.38L259.57 254.128C258.791 252.692 256.94 251.778 254.863 251.778H254.7L254.538 256.021C254.538 256.511 253.986 256.902 253.337 256.902C252.688 256.902 252.168 256.511 252.201 256.021L252.493 247.536C252.525 246.426 253.791 245.512 255.285 245.512H259.375C261.712 245.512 263.53 246.916 263.433 248.645C263.368 250.081 262.004 251.289 260.219 251.648C260.868 252.137 261.388 252.725 261.745 253.41L262.978 255.662C263.206 256.119 262.913 256.641 262.329 256.837C262.167 256.902 262.004 256.902 261.842 256.902ZM254.895 249.983H259.148C260.154 249.983 260.998 249.396 261.031 248.645C261.063 247.895 260.284 247.275 259.278 247.275H255.187C254.992 247.275 254.863 247.373 254.83 247.503L254.733 249.983H254.895Z" fill="white"/>
<path d="M287.909 257.033H284.89C283.787 257.033 282.942 256.347 283.007 255.499L283.657 247.046C283.722 246.198 284.695 245.545 285.799 245.545H288.883C292.065 245.545 294.499 247.503 294.272 249.918L294.012 252.725C293.785 255.107 291.058 257.065 287.909 257.033ZM285.377 255.238H288.039C289.89 255.238 291.513 254.128 291.643 252.692L291.902 249.885C292.032 248.482 290.604 247.34 288.721 247.34H286.026L285.377 255.238Z" fill="white"/>
<path d="M370.692 215.748C366.894 226.551 359.006 235.069 349.591 241.335C344.592 244.664 339.333 247.536 334.042 250.31C328.75 253.084 323.329 255.825 317.551 255.858C307.098 255.956 307.098 272.274 317.551 272.176C325.731 272.111 333.165 269.043 340.339 265.355C346.605 262.157 352.805 258.795 358.616 254.846C371.406 246.165 381.145 234.84 386.307 220.089C387.767 215.944 384.651 211.146 380.626 210.037C376.146 208.797 372.12 211.571 370.627 215.748H370.692Z" fill="#5AC0EE"/>
<path d="M105.277 226.714C118.392 246.459 140.369 258.926 164.034 259.774C168.287 259.938 172.345 255.923 172.15 251.615C171.955 247.079 168.579 243.619 164.034 243.456C162.866 243.424 161.665 243.358 160.496 243.26C159.847 243.195 159.197 243.13 158.548 243.065C159.425 243.163 158.97 243.13 158.353 243.032C155.886 242.608 153.451 242.086 151.049 241.4C148.777 240.747 146.537 239.964 144.329 239.083C143.55 238.757 145.011 239.409 143.745 238.822C143.258 238.593 142.804 238.365 142.317 238.137C141.148 237.549 139.979 236.962 138.811 236.309C136.733 235.134 134.753 233.894 132.805 232.49C132.383 232.197 131.961 231.87 131.539 231.544C129.526 230.043 132.123 232.034 130.987 231.12C130.078 230.369 129.169 229.586 128.293 228.803C126.443 227.105 124.69 225.31 123.034 223.45C122.677 223.059 122.352 222.634 122.028 222.243C121.735 221.916 120.924 220.839 121.573 221.72C120.762 220.676 120.015 219.566 119.301 218.489C116.931 214.932 112.029 213.072 108.198 215.552C104.693 217.837 102.777 222.928 105.277 226.714Z" fill="#77C7F0"/>
<path d="M274.833 166.435C279.351 166.435 283.014 163.132 283.014 159.059C283.014 154.985 279.351 151.683 274.833 151.683C270.315 151.683 266.652 154.985 266.652 159.059C266.652 163.132 270.315 166.435 274.833 166.435Z" fill="#2D2C00"/>
<path d="M212.501 166.435C217.019 166.435 220.682 163.132 220.682 159.059C220.682 154.985 217.019 151.683 212.501 151.683C207.983 151.683 204.32 154.985 204.32 159.059C204.32 163.132 207.983 166.435 212.501 166.435Z" fill="#2D2C00"/>
<path d="M229.995 174.104C229.995 177.368 230.449 180.925 232.235 183.797C233.793 186.31 236.78 188.399 239.766 189.182C245.772 190.749 253.888 188.758 256.809 183.242C257.718 181.513 258.173 179.75 258.238 177.825C258.27 176.487 258.14 175.181 258.108 173.843C258.108 171.461 255.868 169.209 253.238 169.307C250.609 169.404 248.369 171.297 248.369 173.843C248.369 174.855 248.434 175.834 248.466 176.846C248.466 177.27 248.466 177.727 248.466 178.151C248.466 178.347 248.369 179.163 248.466 178.282C248.564 177.4 248.466 178.282 248.369 178.51C248.369 178.608 248.271 179.065 248.174 179.13C248.109 179.163 248.693 178.151 248.434 178.575C248.369 178.673 248.336 178.771 248.271 178.869C248.142 179.097 248.012 179.293 247.849 179.489C247.785 179.62 247.46 179.979 247.882 179.456C248.336 178.902 247.882 179.424 247.785 179.522C247.59 179.718 246.94 180.207 247.72 179.652C248.499 179.097 247.914 179.489 247.72 179.62C247.525 179.718 247.362 179.815 247.168 179.913C247.07 179.946 246.973 180.011 246.876 180.044C246.259 180.338 247.363 179.815 247.363 179.848C247.363 179.848 245.999 180.305 245.902 180.338C245.642 180.403 245.382 180.468 245.155 180.533C244.928 180.599 243.889 180.729 244.83 180.631C245.772 180.533 244.798 180.631 244.571 180.631C244.279 180.631 243.986 180.631 243.727 180.631C243.467 180.631 243.207 180.631 242.948 180.599C242.818 180.599 242.72 180.599 242.59 180.599C242.039 180.599 243.727 180.795 243.207 180.664C242.785 180.566 242.396 180.501 241.974 180.37C241.941 180.37 241.714 180.272 241.682 180.272C241.714 180.272 242.688 180.729 242.363 180.533C242.168 180.403 241.941 180.305 241.714 180.207C241.617 180.142 241.519 180.077 241.454 180.044C241 179.815 242.071 180.468 241.974 180.436C241.779 180.338 241.584 180.142 241.389 179.979C241.195 179.815 241 179.62 240.773 179.456C240.61 179.293 239.993 178.608 240.578 179.293C241.162 179.979 240.61 179.293 240.513 179.097C240.448 179 240.415 178.902 240.351 178.804C240.058 178.379 240.74 179.75 240.545 179.261C240.351 178.706 240.156 178.151 239.993 177.564C239.929 177.237 239.864 176.943 239.799 176.617C239.799 176.487 239.701 175.964 239.799 176.617C239.896 177.335 239.799 176.617 239.799 176.487C239.734 175.703 239.701 174.92 239.669 174.169C239.669 171.787 237.429 169.535 234.799 169.633C232.17 169.731 229.898 171.624 229.93 174.169L229.995 174.104Z" fill="#2D2C00"/>
</svg>
