<svg width="23" height="26" viewBox="0 0 23 26" fill="none" xmlns="http://www.w3.org/2000/svg">
<path d="M1.98906 0.337402H2.72656C2.72656 0.337402 2.73906 0.374902 2.75156 0.374902C3.31406 0.424902 3.80156 0.662403 4.27656 0.924903C9.83906 4.1124 15.4016 7.2999 20.9641 10.4874C21.3516 10.7124 21.7141 10.9749 22.0391 11.2999C22.9391 12.2249 22.9891 13.3749 22.1641 14.3499C21.8266 14.7499 21.4141 15.0499 20.9641 15.2999C15.4141 18.4874 9.85156 21.6749 4.30156 24.8624C3.90156 25.0874 3.48906 25.2749 3.05156 25.3874C1.86406 25.6999 0.814064 25.1624 0.364064 24.0249C0.151564 23.4999 0.101562 22.9499 0.101562 22.3874C0.101562 16.0624 0.101562 9.7249 0.101562 3.3999C0.101562 3.2499 0.101563 3.0999 0.114063 2.9624C0.176563 2.1749 0.364063 1.4374 0.964063 0.862402C1.26406 0.574902 1.63906 0.462402 2.01406 0.337402H1.98906Z" fill="#E97979"/>
</svg>
