<svg width="41" height="34" viewBox="0 0 41 34" fill="none" xmlns="http://www.w3.org/2000/svg">
<path d="M0.945118 13.6626C0.945118 13.7376 0.982618 13.8126 1.00762 13.8876C2.15762 18.8751 3.32012 23.8626 4.45762 28.8501C4.88262 30.7501 5.92012 32.1126 7.74512 32.8376C8.94512 33.3126 10.2076 33.1876 11.4576 33.1501C11.4326 33.1501 11.4076 33.1251 11.3826 33.1126C9.10762 32.8251 7.45762 31.3501 6.92012 29.1376C6.55762 27.6126 6.22012 26.1001 5.85762 24.5751C5.00762 20.9001 4.15762 17.2126 3.30762 13.5376C3.07012 12.5126 3.30762 11.6376 4.08262 10.9126C4.43262 10.5876 4.88262 10.4626 5.30762 10.3001C4.85762 10.3001 4.42012 10.2876 3.97012 10.2751C3.93262 10.2751 3.89512 10.2751 3.85762 10.2751C2.52012 10.2001 1.48262 10.6501 0.945118 11.9626C0.920118 12.0126 0.845117 12.2126 0.870117 12.2126C0.870117 12.2126 0.807617 12.9126 0.932617 13.6501L0.945118 13.6626Z" fill="#F5AD3E"/>
<path d="M16.533 4.48748C16.533 3.82498 16.5455 3.14998 16.558 2.48748C16.558 1.53748 17.1955 0.849976 18.1455 0.837476C19.758 0.812476 21.3705 0.812476 22.983 0.837476C23.933 0.849976 24.558 1.53748 24.5705 2.48748C24.5705 3.14998 24.583 3.82498 24.5955 4.48748V10.2875C24.5955 11.5875 24.5955 12.875 24.5705 14.175C24.5705 14.4375 24.6955 14.4625 24.908 14.4625C25.733 14.4625 26.5455 14.4625 27.3705 14.4625C27.783 14.4625 28.108 14.5875 28.2705 14.975C28.433 15.3625 28.2955 15.6875 28.008 15.9875C25.783 18.275 23.558 20.575 21.333 22.8625C20.758 23.45 20.3455 23.45 19.7705 22.8625C17.5455 20.575 15.3205 18.275 13.0955 15.9875C12.808 15.7 12.6705 15.375 12.833 14.9875C12.9955 14.6 13.333 14.4625 13.733 14.475C14.558 14.475 15.3705 14.475 16.1955 14.475C16.3955 14.475 16.533 14.45 16.533 14.1875C16.5205 12.8875 16.5205 11.6 16.508 10.3C16.508 8.36248 16.508 6.43748 16.508 4.49998L16.533 4.48748Z" fill="#EE706C"/>
<path d="M24.5938 10.2875V4.48755C28.1312 4.48755 31.6812 4.47505 35.2187 4.48755C37.0312 4.48755 38.1312 5.92505 37.7187 7.70005C37.5187 8.56255 37.3188 9.42505 37.1313 10.2751C33.9188 10.2751 30.6937 10.2751 27.4812 10.2751C26.5187 10.2751 25.5562 10.2751 24.5938 10.2751V10.2875Z" fill="#F8AD3E"/>
<path d="M16.5334 4.48755C16.5334 6.42505 16.5334 8.35005 16.5334 10.2875C13.1459 10.2875 9.77095 10.2875 6.38345 10.2875C6.18345 9.41255 6.00845 8.53755 5.78345 7.67505C5.34595 6.02505 6.58345 4.48755 8.09595 4.50005C10.3834 4.50005 12.6709 4.50005 14.9584 4.48755C15.4834 4.48755 16.0084 4.48755 16.5334 4.48755Z" fill="#F8AD3E"/>
<path d="M8.09516 4.49993C6.58266 4.48743 5.33266 6.02493 5.78266 7.67493C6.02016 8.53743 6.18266 9.42493 6.38266 10.2874C6.03266 10.2874 5.67016 10.2999 5.32016 10.3124C4.87016 10.3124 4.43266 10.2999 3.98266 10.2874C3.75766 9.32493 3.50766 8.36243 3.32016 7.37493C3.05766 6.02493 4.03266 4.69993 5.40766 4.51243C6.29516 4.38743 7.19516 4.42493 8.09516 4.51243V4.49993Z" fill="#EC8D05"/>
<path d="M12.9836 26.1625C12.5336 26.5875 12.2461 26.5625 11.8836 26.075C11.7586 24.9125 12.5836 23.9 13.7586 23.7875C14.8586 23.675 15.8961 24.5375 16.0086 25.65C16.0586 26.1 15.8461 26.4125 15.4836 26.4625C15.1461 26.5125 14.8961 26.275 14.8086 25.825C14.7086 25.275 14.4086 24.9875 13.9336 24.9875C13.4586 24.9875 13.1586 25.275 13.0586 25.825C13.0336 25.9375 13.0086 26.05 12.9836 26.1625V26.1625Z" fill="#464251"/>
<path d="M29.2431 26.0875C28.8806 26.575 28.5931 26.5875 28.1431 26.175C28.1056 26.0125 28.0806 25.85 28.0431 25.6875C27.9556 25.275 27.6181 25 27.1931 25C26.7681 25 26.4306 25.2625 26.3306 25.6875C26.3181 25.75 26.3056 25.8125 26.2931 25.875C26.2181 26.2875 25.9556 26.5125 25.6306 26.475C25.2806 26.425 25.0806 26.125 25.1056 25.7C25.1931 24.575 26.2556 23.6875 27.3556 23.8C28.5306 23.925 29.3556 24.9375 29.2306 26.1L29.2431 26.0875Z" fill="#464251"/>
<path d="M20.5587 28.9125C19.7962 28.8875 19.1336 28.625 18.6086 28.0625C18.3336 27.7625 18.3212 27.425 18.5712 27.175C18.8087 26.9375 19.1336 26.95 19.4336 27.2125C20.2211 27.9 20.9087 27.9 21.6837 27.2125C21.9712 26.95 22.2962 26.9375 22.5462 27.175C22.7962 27.4125 22.7962 27.7625 22.5212 28.0625C21.9962 28.625 21.3337 28.8875 20.5712 28.9125H20.5587Z" fill="#454150"/>
<path d="M31.9949 33.1124C31.9324 33.1499 31.8574 33.1624 31.7949 33.1249C31.8574 33.0874 31.9324 33.0874 31.9949 33.1124Z" fill="#F5AD3E"/>
<path d="M40.1576 12.0375C39.6701 10.7125 38.6451 10.25 37.3201 10.3C37.2576 10.3 37.1951 10.3 37.1326 10.2875C33.9201 10.2875 30.6951 10.2875 27.4826 10.2875C26.5201 10.2875 25.5576 10.2875 24.5951 10.2875C24.5951 11.5875 24.5951 12.875 24.5701 14.175C24.5701 14.4375 24.6951 14.4625 24.9076 14.4625C25.7326 14.4625 26.5451 14.4625 27.3701 14.4625C27.7826 14.4625 28.1076 14.5875 28.2701 14.975C28.4326 15.3625 28.2951 15.6875 28.0076 15.9875C25.7826 18.275 23.5576 20.575 21.3326 22.8625C20.7576 23.45 20.3451 23.45 19.7701 22.8625C17.5451 20.575 15.3201 18.275 13.0951 15.9875C12.8076 15.7 12.6701 15.375 12.8326 14.9875C12.9951 14.6 13.3326 14.4625 13.7326 14.475C14.5576 14.475 15.3701 14.475 16.1951 14.475C16.3951 14.475 16.5326 14.45 16.5326 14.1875C16.5201 12.8875 16.5201 11.6 16.5076 10.3C13.1201 10.3 9.74514 10.3 6.35764 10.3C6.00764 10.3 5.64514 10.3125 5.29514 10.325C4.87014 10.4875 4.42014 10.6 4.07014 10.9375C3.29514 11.6625 3.05764 12.5375 3.29514 13.5625C4.14514 17.2375 4.99514 20.925 5.84514 24.6C6.19514 26.125 6.54514 27.65 6.90764 29.1625C7.43264 31.375 9.09514 32.85 11.3701 33.1375C11.3951 33.1375 11.4201 33.1625 11.4451 33.175C11.7201 33.175 11.9826 33.175 12.2576 33.175C18.5826 33.175 24.9201 33.175 31.2451 33.175C31.4201 33.175 31.6076 33.15 31.7826 33.15C31.8451 33.1125 31.9201 33.1125 31.9826 33.1375C34.1576 33.0625 36.0576 31.3875 36.5826 29.1125C37.7576 24.0125 38.9451 18.9 40.1201 13.8C40.1451 13.7 40.1701 12.1125 40.1451 12.0625L40.1576 12.0375Z" fill="#F8EA6B"/>
</svg>
