<svg width="68" height="68" viewBox="0 0 68 68" fill="none" xmlns="http://www.w3.org/2000/svg">
<g opacity="0.5" filter="url(#filter0_d_470_1219)">
<path d="M37 60C53.5685 60 67 46.5685 67 30C67 13.4315 53.5685 0 37 0C20.4315 0 7 13.4315 7 30C7 46.5685 20.4315 60 37 60Z" fill="white"/>
<path d="M39.8244 36.4756H34.4869C33.9208 36.4756 33.4619 36.9345 33.4619 37.5006V45.0756C33.4619 45.6417 33.9208 46.1006 34.4869 46.1006H39.8244C40.3905 46.1006 40.8494 45.6417 40.8494 45.0756V37.5006C40.8494 36.9345 40.3905 36.4756 39.8244 36.4756Z" fill="#505862"/>
<path d="M36.7852 36.9008H33.8477C31.1227 36.9008 28.5602 35.6633 26.9852 33.6008C26.8102 33.3758 26.6477 33.1383 26.4977 32.9133C25.4227 31.2508 24.8477 29.2383 24.8477 27.0758V20.1883C24.8477 18.7633 25.9977 17.6133 27.4227 17.6133C28.8477 17.6133 29.9977 18.7633 29.9977 20.1883V27.0758C29.9977 28.2383 30.2852 29.2883 30.8227 30.1133C30.9102 30.2383 30.9852 30.3633 31.0852 30.4883C31.6852 31.2883 32.7227 31.7633 33.8477 31.7633H36.7852C38.2102 31.7633 39.3602 32.9133 39.3602 34.3383C39.3602 35.7633 38.2102 36.9133 36.7852 36.9133V36.9008Z" fill="#EE706C"/>
<path d="M39.9471 36.9008H37.0096C35.5846 36.9008 34.4346 35.7508 34.4346 34.3258C34.4346 32.9008 35.5846 31.7508 37.0096 31.7508H39.9471C41.0721 31.7508 42.0971 31.2758 42.6971 30.4758C42.7846 30.3508 42.8721 30.2383 42.9471 30.1133C43.4846 29.2758 43.7721 28.2258 43.7721 27.0758V20.1883C43.7721 18.7633 44.9221 17.6133 46.3471 17.6133C47.7721 17.6133 48.9221 18.7633 48.9221 20.1883V27.0758C48.9221 29.2258 48.3471 31.2508 47.2721 32.9133C47.1346 33.1383 46.9721 33.3633 46.7971 33.6008C45.2221 35.6758 42.6596 36.9008 39.9346 36.9008H39.9471Z" fill="#E97979"/>
<path d="M39.1576 10.2002H35.5076C35.2076 11.7502 34.7076 15.6252 35.6701 21.0377C36.8576 27.7127 37.9576 29.5627 41.2326 32.1002C43.1826 31.2877 44.5451 29.3627 44.5451 27.1252V15.6002C44.5451 12.6252 42.1326 10.2127 39.1576 10.2127V10.2002Z" fill="#F4ED89"/>
<path d="M35.6836 21.0504C34.7086 15.6379 35.2211 11.7629 35.5211 10.2129H34.7586C31.7836 10.2129 29.3711 12.6254 29.3711 15.6004V27.1379C29.3711 30.1129 31.7836 32.5254 34.7586 32.5254H39.1586C39.8961 32.5254 40.5961 32.3754 41.2336 32.1129C37.9586 29.5754 36.8711 27.7254 35.6711 21.0504H35.6836Z" fill="#EDD073"/>
<path d="M40.6578 20.1756H44.5453V22.0631H40.6578C40.1953 22.0631 39.8203 21.6881 39.8203 21.2256V21.0006C39.8203 20.5381 40.1953 20.1631 40.6578 20.1631V20.1756Z" fill="#DC6965"/>
<path d="M40.6578 25.8006H44.5453V27.6881H40.6578C40.1953 27.6881 39.8203 27.3131 39.8203 26.8506V26.6256C39.8203 26.1631 40.1953 25.7881 40.6578 25.7881V25.8006Z" fill="#DC6965"/>
<path d="M33.2445 22.0627H29.357V20.1752H33.2445C33.707 20.1752 34.082 20.5502 34.082 21.0127V21.2377C34.082 21.7002 33.707 22.0752 33.2445 22.0752V22.0627Z" fill="#DC6965"/>
<path d="M33.2445 27.6877H29.357V25.8002H33.2445C33.707 25.8002 34.082 26.1752 34.082 26.6377V26.8627C34.082 27.3252 33.707 27.7002 33.2445 27.7002V27.6877Z" fill="#DC6965"/>
<path d="M44.3501 49.4006H29.9626C28.8126 49.4006 27.9876 48.3381 28.2876 47.2631L28.6751 45.9006C28.8876 45.1756 29.5626 44.6631 30.3501 44.6631H43.9626C44.7376 44.6631 45.4251 45.1631 45.6376 45.9006L46.0251 47.2631C46.3251 48.3381 45.5001 49.4006 44.3501 49.4006Z" fill="#EE706C"/>
</g>
<defs>
<filter id="filter0_d_470_1219" x="0" y="0" width="68" height="68" filterUnits="userSpaceOnUse" color-interpolation-filters="sRGB">
<feFlood flood-opacity="0" result="BackgroundImageFix"/>
<feColorMatrix in="SourceAlpha" type="matrix" values="0 0 0 0 0 0 0 0 0 0 0 0 0 0 0 0 0 0 127 0" result="hardAlpha"/>
<feOffset dx="-3" dy="4"/>
<feGaussianBlur stdDeviation="2"/>
<feComposite in2="hardAlpha" operator="out"/>
<feColorMatrix type="matrix" values="0 0 0 0 0 0 0 0 0 0 0 0 0 0 0 0 0 0 0.1 0"/>
<feBlend mode="normal" in2="BackgroundImageFix" result="effect1_dropShadow_470_1219"/>
<feBlend mode="normal" in="SourceGraphic" in2="effect1_dropShadow_470_1219" result="shape"/>
</filter>
</defs>
</svg>
