<svg width="336" height="320" viewBox="0 0 336 320" fill="none" xmlns="http://www.w3.org/2000/svg">
<g clip-path="url(#clip0_384_714)">
<path d="M99.1214 222.214C94.8764 228.122 94.8223 235.928 94.1464 242.893C93.3893 250.617 92.7134 258.342 92.1726 266.093C91.0641 281.569 90.3611 297.071 90.0366 312.601C89.8474 321.328 103.366 321.328 103.556 312.601C103.853 297.966 104.502 283.357 105.502 268.749C105.989 261.675 106.557 254.602 107.233 247.528C107.774 241.728 107.233 233.976 110.802 229.044C112.938 226.063 111.315 221.482 108.368 219.775C104.962 217.769 101.257 219.233 99.1214 222.214Z" fill="#F3BAD6"/>
<path d="M210.734 243.598C213.356 266.716 213.492 290.052 211.112 313.224C210.734 316.883 214.492 320 217.872 320C221.846 320 224.253 316.883 224.631 313.224C227.011 290.079 226.875 266.743 224.253 243.598C223.847 239.966 221.441 236.822 217.493 236.822C214.168 236.822 210.328 239.939 210.734 243.598Z" fill="#F3BAD6"/>
<path d="M54.7249 107.76C42.1253 108.248 29.6608 112.069 19.9542 120.363C15.0333 124.563 11.4373 130.038 8.86867 135.946C5.81338 143.02 3.13663 150.257 0.324689 157.439C-1.00017 160.854 1.78474 164.865 5.05632 165.786C8.8957 166.843 12.0321 164.485 13.384 161.043C15.7093 155.135 18.0075 148.874 20.3868 143.183C22.7661 137.491 24.8481 134.076 29.0119 130.39C29.4445 130.011 29.8771 129.632 30.3368 129.252C29.5527 129.876 31.229 128.629 31.202 128.629C32.1753 127.951 33.1757 127.328 34.1761 126.759C36.7718 125.295 37.8263 124.807 40.3408 123.94C42.8553 123.073 45.3969 122.422 47.9655 121.934C48.5603 121.826 49.1551 121.718 49.75 121.636C50.4259 121.528 49.3174 121.636 50.453 121.555C51.886 121.42 53.2919 121.311 54.7249 121.257C58.3751 121.121 61.4844 118.249 61.4844 114.481C61.4844 110.931 58.4021 107.57 54.7249 107.706V107.76Z" fill="#F3BAD6"/>
<path d="M290.252 215.276C307.096 185.788 299.904 149.606 282.14 122.449C280.572 120.064 278.923 117.706 277.301 115.348C267.351 93.0702 252.75 74.2881 236.528 54.4761C221.792 36.48 205.191 15.1232 183.425 6.15222C164.958 -6.34206 144.842 1.97843 128.106 15.5026C111.315 29.0539 96.3901 45.0986 83.6011 62.5798C69.7577 95.9159 52.3724 149.66 70.7041 175.462C98.3909 214.408 156.279 185.951 156.279 185.951C156.279 185.951 158.739 217.959 202.541 231.808C231.174 240.86 255.643 239.451 269.162 237.391C277.625 231.862 284.925 224.599 290.225 215.303L290.252 215.276Z" fill="#F8C7DE"/>
<path d="M264.998 239.885L233.851 249.75C244.855 248.422 255.535 245.17 264.998 239.885Z" fill="#F6B7C7"/>
<path d="M280.437 234.979C280.437 234.979 276.354 236.253 269.189 237.337C267.837 238.232 266.431 239.072 264.998 239.858L280.437 234.979Z" fill="#EBB0BE"/>
<path d="M202.568 231.781C158.767 217.932 156.306 185.924 156.306 185.924C156.306 185.924 98.4179 214.381 70.7311 175.435C52.3724 149.633 69.7848 95.8889 83.6282 62.5527C79.3292 68.434 75.2735 74.4508 71.4882 80.6301C56.5092 104.941 43.8014 133.453 39.3672 161.857C33.6892 198.391 52.2913 236.172 93.2267 237.175C116.506 237.744 134.27 226.252 147.438 209.882C158.118 228.204 175.773 241.972 197.836 247.501C209.381 250.401 221.792 251.187 233.878 249.723L265.025 239.858C266.458 239.072 267.837 238.232 269.216 237.337C255.697 239.397 231.228 240.806 202.595 231.754L202.568 231.781Z" fill="#F3BAD6"/>
<path d="M155.766 59.5985C169.609 68.6779 180.208 83.503 190.212 96.4851C201.757 111.473 211.166 126.705 214.465 145.514C217.223 161.396 236.636 170.313 251.047 166.328C267.757 161.721 274.597 145.568 271.812 129.659C267.432 104.48 254.075 82.717 238.772 62.7424C223.144 42.3342 207.489 22.3325 185.778 8.10367C153.657 -12.955 123.807 38.6483 155.766 59.5985Z" fill="#F8C7DE"/>
<path d="M182.804 99.9001C186.567 99.9001 189.617 96.8422 189.617 93.0702C189.617 89.2982 186.567 86.2404 182.804 86.2404C179.041 86.2404 175.99 89.2982 175.99 93.0702C175.99 96.8422 179.041 99.9001 182.804 99.9001Z" fill="#282828"/>
<path d="M130.891 99.9001C134.654 99.9001 137.704 96.8422 137.704 93.0702C137.704 89.2982 134.654 86.2404 130.891 86.2404C127.128 86.2404 124.077 89.2982 124.077 93.0702C124.077 96.8422 127.128 99.9001 130.891 99.9001Z" fill="#282828"/>
<path d="M147.221 111.283C152.44 111.283 152.44 103.152 147.221 103.152C142.003 103.152 142.003 111.283 147.221 111.283Z" fill="#F6B7C7"/>
<path d="M146.735 119.983C147.384 119.468 147.87 118.791 148.357 118.14C148.573 117.842 148.763 117.544 148.979 117.246C148.655 117.706 148.979 117.354 149.141 117.11C149.358 116.92 149.304 116.948 148.952 117.219L149.222 117.029L149.52 116.866C149.114 117.029 149.033 117.056 149.331 116.948C149.601 116.893 149.871 116.785 150.142 116.731C149.195 116.92 150.196 116.812 150.385 116.812C150.061 116.812 149.817 116.704 150.304 116.812C151.196 117.056 149.79 116.405 150.547 116.92C151.169 117.327 150.412 116.731 150.737 117.056C150.953 117.273 151.169 117.49 151.385 117.706C152.251 118.655 152.981 119.739 153.954 120.579C156.739 122.991 160.2 123.913 163.796 123.154C166.851 122.504 169.69 120.471 171.583 118.032C172.881 116.351 173.34 113.885 171.583 112.286C170.123 110.958 167.23 110.497 165.851 112.286C165.445 112.801 165.013 113.289 164.553 113.749C164.553 113.749 163.607 114.535 164.174 114.129C163.904 114.319 163.634 114.508 163.363 114.671C163.093 114.834 162.795 114.996 162.498 115.132C163.012 114.915 162.444 115.132 162.201 115.186C161.903 115.267 161.362 115.348 161.957 115.294C161.579 115.348 161.2 115.294 160.822 115.294C161.227 115.294 161.092 115.348 160.768 115.267C160.659 115.24 159.632 114.834 160.308 115.159C160.227 115.132 159.362 114.644 159.74 114.861C160.119 115.077 159.362 114.535 159.308 114.454C158.388 113.56 157.685 112.449 156.766 111.554C154.333 109.142 151.034 108.166 147.681 108.952C146.167 109.305 144.68 110.145 143.571 111.229C142.95 111.825 142.436 112.584 141.922 113.289C141.814 113.424 141.3 114.048 141.814 113.478C141.571 113.749 141.327 113.993 141.057 114.21C139.408 115.565 139.543 118.574 141.057 119.956C142.814 121.555 145.032 121.392 146.789 119.956L146.735 119.983Z" fill="#282828"/>
<path d="M267.513 121.311C279.383 121.663 291.766 124.021 301.932 130.445C306.799 133.507 310.368 137.573 313.207 142.587C316.884 149.118 320.102 155.975 323.482 162.67C325.131 165.922 329.7 166.87 332.728 165.109C336.027 163.157 336.811 159.119 335.162 155.84C331.539 148.658 328.213 141.204 324.049 134.32C320.21 127.924 315.073 122.72 308.773 118.763C296.606 111.093 281.681 108.193 267.513 107.787C258.807 107.516 258.807 121.067 267.513 121.338V121.311Z" fill="#F8C7DE"/>
</g>
<defs>
<clipPath id="clip0_384_714">
<rect width="336" height="320" fill="white"/>
</clipPath>
</defs>
</svg>
