<svg width="171" height="25" viewBox="0 0 171 25" fill="none" xmlns="http://www.w3.org/2000/svg">
<path d="M10.556 18.46C8.33733 18.46 6.43933 18.1567 4.862 17.55C3.28467 16.926 2.08 16.0247 1.248 14.846C0.416 13.6673 0 12.2373 0 10.556C0 8.87467 0.416 7.44467 1.248 6.266C2.08 5.08733 3.28467 4.186 4.862 3.562C6.43933 2.938 8.33733 2.626 10.556 2.626C10.5907 2.626 10.6513 2.626 10.738 2.626C10.842 2.626 10.9373 2.626 11.024 2.626C11.128 2.626 11.1887 2.626 11.206 2.626C13.4247 2.626 15.314 2.938 16.874 3.562C18.4513 4.186 19.656 5.08733 20.488 6.266C21.32 7.44467 21.736 8.87467 21.736 10.556C21.736 12.22 21.32 13.65 20.488 14.846C19.6733 16.0247 18.486 16.926 16.926 17.55C15.3833 18.1567 13.5113 18.46 11.31 18.46C11.2753 18.46 11.1973 18.46 11.076 18.46C10.972 18.46 10.868 18.46 10.764 18.46C10.66 18.46 10.5907 18.46 10.556 18.46ZM10.842 16.432C10.8767 16.432 10.92 16.432 10.972 16.432C11.024 16.432 11.05 16.432 11.05 16.432C12.818 16.4147 14.3087 16.1893 15.522 15.756C16.7353 15.3053 17.654 14.6467 18.278 13.78C18.9193 12.896 19.24 11.8127 19.24 10.53C19.24 9.26467 18.9193 8.19867 18.278 7.332C17.6367 6.46533 16.7093 5.80667 15.496 5.356C14.3 4.90533 12.8353 4.68 11.102 4.68C11.0847 4.68 11.0413 4.68 10.972 4.68C10.92 4.68 10.8767 4.68 10.842 4.68C9.05667 4.68 7.54 4.90533 6.292 5.356C5.06133 5.78933 4.12533 6.43933 3.484 7.306C2.84267 8.17267 2.522 9.256 2.522 10.556C2.522 11.856 2.85133 12.9393 3.51 13.806C4.16867 14.6727 5.11333 15.3313 6.344 15.782C7.592 16.2153 9.09133 16.432 10.842 16.432ZM9.672 20.358V0.806H12.09V20.358H9.672Z" fill="#282828"/>
<path d="M31.2203 19.838C29.8336 19.838 28.603 19.5347 27.5283 18.928C26.4536 18.3213 25.6043 17.4893 24.9803 16.432C24.3563 15.3573 24.0443 14.144 24.0443 12.792C24.0443 11.4227 24.3563 10.2093 24.9803 9.152C25.6043 8.09467 26.4536 7.27133 27.5283 6.682C28.603 6.07533 29.8336 5.772 31.2203 5.772C32.5896 5.772 33.8116 6.07533 34.8863 6.682C35.9783 7.27133 36.8276 8.09467 37.4343 9.152C38.0583 10.192 38.3703 11.4053 38.3703 12.792C38.3703 14.1613 38.0583 15.3747 37.4343 16.432C36.8276 17.4893 35.9783 18.3213 34.8863 18.928C33.8116 19.5347 32.5896 19.838 31.2203 19.838ZM31.2203 17.654C32.1043 17.654 32.893 17.4547 33.5863 17.056C34.297 16.6573 34.8516 16.094 35.2503 15.366C35.649 14.6207 35.8483 13.7627 35.8483 12.792C35.8483 11.804 35.649 10.9547 35.2503 10.244C34.8516 9.516 34.297 8.95267 33.5863 8.554C32.893 8.15533 32.1043 7.956 31.2203 7.956C30.3363 7.956 29.5476 8.15533 28.8543 8.554C28.161 8.95267 27.6063 9.516 27.1903 10.244C26.7743 10.9547 26.5663 11.804 26.5663 12.792C26.5663 13.7627 26.7743 14.6207 27.1903 15.366C27.6063 16.094 28.161 16.6573 28.8543 17.056C29.5476 17.4547 30.3363 17.654 31.2203 17.654Z" fill="#282828"/>
<path d="M49.2806 19.838C48.1366 19.838 47.0879 19.578 46.1346 19.058C45.1986 18.5207 44.4446 17.732 43.8726 16.692C43.3179 15.652 43.0406 14.352 43.0406 12.792C43.0406 11.232 43.3092 9.932 43.8466 8.892C44.4012 7.852 45.1466 7.072 46.0826 6.552C47.0359 6.032 48.1019 5.772 49.2806 5.772C50.6326 5.772 51.8286 6.06667 52.8686 6.656C53.9086 7.24533 54.7319 8.06867 55.3386 9.126C55.9452 10.166 56.2486 11.388 56.2486 12.792C56.2486 14.196 55.9452 15.4267 55.3386 16.484C54.7319 17.5413 53.9086 18.3647 52.8686 18.954C51.8286 19.5433 50.6326 19.838 49.2806 19.838ZM41.9746 24.726V5.902H44.3666V9.62L44.2106 12.818L44.4706 16.016V24.726H41.9746ZM49.0726 17.654C49.9566 17.654 50.7452 17.4547 51.4386 17.056C52.1492 16.6573 52.7039 16.094 53.1026 15.366C53.5186 14.6207 53.7266 13.7627 53.7266 12.792C53.7266 11.804 53.5186 10.9547 53.1026 10.244C52.7039 9.516 52.1492 8.95267 51.4386 8.554C50.7452 8.15533 49.9566 7.956 49.0726 7.956C48.2059 7.956 47.4172 8.15533 46.7066 8.554C46.0132 8.95267 45.4586 9.516 45.0426 10.244C44.6439 10.9547 44.4446 11.804 44.4446 12.792C44.4446 13.7627 44.6439 14.6207 45.0426 15.366C45.4586 16.094 46.0132 16.6573 46.7066 17.056C47.4172 17.4547 48.2059 17.654 49.0726 17.654Z" fill="#282828"/>
<path d="M59.875 19.682V5.902H62.449L68.377 16.094H67.337L73.421 5.902H75.761V19.682H73.499V8.71L73.915 8.944L68.351 18.122H67.259L61.669 8.762L62.163 8.658V19.682H59.875Z" fill="#282828"/>
<path d="M89.0691 19.682V16.77L88.9391 16.224V11.258C88.9391 10.2007 88.6271 9.386 88.0031 8.814C87.3964 8.22467 86.4778 7.93 85.2471 7.93C84.4324 7.93 83.6351 8.06867 82.8551 8.346C82.0751 8.606 81.4164 8.96133 80.8791 9.412L79.8391 7.54C80.5498 6.968 81.3991 6.53467 82.3871 6.24C83.3924 5.928 84.4411 5.772 85.5331 5.772C87.4224 5.772 88.8784 6.23133 89.9011 7.15C90.9238 8.06867 91.4351 9.47267 91.4351 11.362V19.682H89.0691ZM84.5451 19.838C83.5224 19.838 82.6211 19.6647 81.8411 19.318C81.0784 18.9713 80.4891 18.4947 80.0731 17.888C79.6571 17.264 79.4491 16.562 79.4491 15.782C79.4491 15.0367 79.6224 14.3607 79.9691 13.754C80.3331 13.1473 80.9138 12.662 81.7111 12.298C82.5258 11.934 83.6178 11.752 84.9871 11.752H89.3551V13.546H85.0911C83.8431 13.546 83.0024 13.754 82.5691 14.17C82.1358 14.586 81.9191 15.0887 81.9191 15.678C81.9191 16.354 82.1878 16.9 82.7251 17.316C83.2624 17.7147 84.0078 17.914 84.9611 17.914C85.8971 17.914 86.7118 17.706 87.4051 17.29C88.1158 16.874 88.6271 16.2673 88.9391 15.47L89.4331 17.186C89.1038 18.0007 88.5231 18.6507 87.6911 19.136C86.8591 19.604 85.8104 19.838 84.5451 19.838Z" fill="#282828"/>
<path d="M100.728 19.682L106.656 11.986L106.63 13.26L100.988 5.902H103.77L108.086 11.57H107.02L111.336 5.902H114.066L108.346 13.312L108.372 11.986L114.352 19.682H111.518L106.968 13.65L107.982 13.806L103.51 19.682H100.728Z" fill="#282828"/>
<path d="M116.978 19.682V5.902H123.374C124.986 5.902 126.252 6.214 127.17 6.838C128.106 7.44467 128.574 8.31133 128.574 9.438C128.574 10.5647 128.132 11.44 127.248 12.064C126.382 12.6707 125.229 12.974 123.79 12.974L124.18 12.298C125.827 12.298 127.049 12.6013 127.846 13.208C128.644 13.8147 129.042 14.7073 129.042 15.886C129.042 17.082 128.592 18.018 127.69 18.694C126.806 19.3527 125.446 19.682 123.608 19.682H116.978ZM119.422 17.758H123.426C124.466 17.758 125.246 17.602 125.766 17.29C126.286 16.9607 126.546 16.4407 126.546 15.73C126.546 15.002 126.304 14.4733 125.818 14.144C125.35 13.7973 124.605 13.624 123.582 13.624H119.422V17.758ZM119.422 11.83H123.166C124.12 11.83 124.839 11.6567 125.324 11.31C125.827 10.946 126.078 10.4433 126.078 9.802C126.078 9.14333 125.827 8.64933 125.324 8.32C124.839 7.99067 124.12 7.826 123.166 7.826H119.422V11.83Z" fill="#282828"/>
<path d="M132.949 19.682V5.902H135.445V15.938L143.895 5.902H146.157V19.682H143.661V9.646L135.237 19.682H132.949Z" fill="#282828"/>
<path d="M148.714 19.656L148.87 17.55C148.991 17.5673 149.104 17.5847 149.208 17.602C149.312 17.6193 149.407 17.628 149.494 17.628C150.049 17.628 150.482 17.4373 150.794 17.056C151.123 16.6747 151.366 16.172 151.522 15.548C151.678 14.9067 151.791 14.1873 151.86 13.39C151.929 12.5927 151.981 11.7953 152.016 10.998L152.25 5.902H162.832V19.682H160.336V7.358L160.934 8.086H153.862L154.434 7.332L154.252 11.154C154.2 12.3673 154.105 13.5027 153.966 14.56C153.827 15.6173 153.611 16.5447 153.316 17.342C153.039 18.1393 152.649 18.7633 152.146 19.214C151.661 19.6647 151.028 19.89 150.248 19.89C150.023 19.89 149.78 19.864 149.52 19.812C149.277 19.7773 149.009 19.7253 148.714 19.656Z" fill="#282828"/>
<path d="M167.658 19.682V5.902H170.154V19.682H167.658ZM168.906 3.25C168.421 3.25 168.013 3.094 167.684 2.782C167.372 2.47 167.216 2.08867 167.216 1.638C167.216 1.17 167.372 0.78 167.684 0.468C168.013 0.156 168.421 0 168.906 0C169.391 0 169.79 0.156 170.102 0.468C170.431 0.762666 170.596 1.13533 170.596 1.586C170.596 2.054 170.44 2.45267 170.128 2.782C169.816 3.094 169.409 3.25 168.906 3.25Z" fill="#282828"/>
</svg>
